<svg xmlns="http://www.w3.org/2000/svg" xmlns:oryx="http://oryx-editor.org" id="_FA8268A1-E8EF-4AA0-ACAC-4430D3E4135E" width="669" height="260" xmlns:xlink="http://www.w3.org/1999/xlink" xmlns:svg="http://www.w3.org/2000/svg"><defs><marker id="_25F9CD89-309C-4E88-B2C9-00CCD0A42752start" refX="1" refY="5" markerUnits="userSpaceOnUse" markerWidth="17" markerHeight="11" orient="auto" fill="#000000" stroke="#000000"> 	  		<path id="_25F9CD89-309C-4E88-B2C9-00CCD0A42752conditional" d="M 0 5 L 8 0 L 16 5 L 8 10 L 0 5" fill="white" stroke="#000000" stroke-width="1" display="none"/> 			<path id="_25F9CD89-309C-4E88-B2C9-00CCD0A42752default" d="M 5 0 L 11 10" fill="white" stroke="#000000" stroke-width="1" display="none"/> 	  	</marker><marker id="_25F9CD89-309C-4E88-B2C9-00CCD0A42752end" refX="15" refY="6" markerUnits="userSpaceOnUse" markerWidth="15" markerHeight="12" orient="auto" fill="#000000" stroke="#000000"> 	  		<path id="_25F9CD89-309C-4E88-B2C9-00CCD0A42752frame2" d="M 0 1 L 15 6 L 0 11z" fill="#000000" stroke="#000000" stroke-linejoin="round" stroke-width="2"/> 	  	</marker><marker id="_9B6B871B-C92F-4554-A368-633780419664start" refX="1" refY="5" markerUnits="userSpaceOnUse" markerWidth="17" markerHeight="11" orient="auto" fill="#000000" stroke="#000000"> 	  		<path id="_9B6B871B-C92F-4554-A368-633780419664conditional" d="M 0 5 L 8 0 L 16 5 L 8 10 L 0 5" fill="white" stroke="#000000" stroke-width="1" display="none"/> 			<path id="_9B6B871B-C92F-4554-A368-633780419664default" d="M 5 0 L 11 10" fill="white" stroke="#000000" stroke-width="1" display="none"/> 	  	</marker><marker id="_9B6B871B-C92F-4554-A368-633780419664end" refX="15" refY="6" markerUnits="userSpaceOnUse" markerWidth="15" markerHeight="12" orient="auto" fill="#000000" stroke="#000000"> 	  		<path id="_9B6B871B-C92F-4554-A368-633780419664frame2" d="M 0 1 L 15 6 L 0 11z" fill="#000000" stroke="#000000" stroke-linejoin="round" stroke-width="2"/> 	  	</marker><marker id="_655842C4-9596-4C9F-81FB-E3D906A8A59Astart" refX="1" refY="5" markerUnits="userSpaceOnUse" markerWidth="17" markerHeight="11" orient="auto" fill="#000000" stroke="#000000"> 	  		<path id="_655842C4-9596-4C9F-81FB-E3D906A8A59Aconditional" d="M 0 5 L 8 0 L 16 5 L 8 10 L 0 5" fill="white" stroke="#000000" stroke-width="1" display="none"/> 			<path id="_655842C4-9596-4C9F-81FB-E3D906A8A59Adefault" d="M 5 0 L 11 10" fill="white" stroke="#000000" stroke-width="1" display="none"/> 	  	</marker><marker id="_655842C4-9596-4C9F-81FB-E3D906A8A59Aend" refX="15" refY="6" markerUnits="userSpaceOnUse" markerWidth="15" markerHeight="12" orient="auto" fill="#000000" stroke="#000000"> 	  		<path id="_655842C4-9596-4C9F-81FB-E3D906A8A59Aframe2" d="M 0 1 L 15 6 L 0 11z" fill="#000000" stroke="#000000" stroke-linejoin="round" stroke-width="2"/> 	  	</marker></defs><g stroke="none" font-family="Verdana, sans-serif" font-size-adjust="none" font-style="normal" font-variant="normal" font-weight="normal" line-heigth="normal" font-size="12"><g class="stencils" transform="translate(16, 16)"><g class="me"/><g class="children"><g id="_1AECEFE5-2C3E-436A-9D3F-5E54A81C7F0C" bpmn2nodeid="processStartEvent"><g class="stencils" transform="translate(45, 160)"><g class="me"><g pointer-events="fill" id="_1AECEFE5-2C3E-436A-9D3F-5E54A81C7F0C">        <defs id="_1AECEFE5-2C3E-436A-9D3F-5E54A81C7F0C__1AECEFE5-2C3E-436A-9D3F-5E54A81C7F0C_5"> 		<radialGradient id="_1AECEFE5-2C3E-436A-9D3F-5E54A81C7F0Cbackground" cx="10%" cy="10%" r="100%" fx="10%" fy="10%"> 			<stop offset="0%" stop-color="#ffffff" stop-opacity="1" id="_1AECEFE5-2C3E-436A-9D3F-5E54A81C7F0C__1AECEFE5-2C3E-436A-9D3F-5E54A81C7F0C_6"/> 			<stop id="_1AECEFE5-2C3E-436A-9D3F-5E54A81C7F0Cfill_el" offset="100%" stop-color="#9acd32" stop-opacity="1"/> 		</radialGradient> 	</defs> 	     <circle id="_1AECEFE5-2C3E-436A-9D3F-5E54A81C7F0Cbg_frame" cx="15" cy="15" r="15" stroke="#000000" fill="url(#_1AECEFE5-2C3E-436A-9D3F-5E54A81C7F0Cbackground) white" stroke-width="1" style="stroke-dasharray: 5.5, 3"/>      <circle id="_1AECEFE5-2C3E-436A-9D3F-5E54A81C7F0Cframe" cx="15" cy="15" r="15" stroke="#000000" fill="none" stroke-width="1" display="inherit"/>  	<text font-size="11" id="_1AECEFE5-2C3E-436A-9D3F-5E54A81C7F0Ctext_name" x="15" y="32" oryx:align="top center" stroke="black" stroke-width="0pt" letter-spacing="-0.01px" fill="#000000" text-anchor="middle" transform="rotate(0 15 32)" visibility="inherit" oryx:fontSize="11"/>   </g></g><g class="children" style="overflow:hidden"/><g class="edge"/></g><g class="controls"><g class="dockers"/><g class="magnets" transform="translate(45, 160)"><g pointer-events="all" display="none" transform="translate(7, 7)"><circle cx="8" cy="8" r="4" stroke="none" fill="red" fill-opacity="0.3"/></g></g></g></g><g id="_FF05C02B-8790-4D07-83DB-AC17AD801098" bpmn2nodeid="_C1D8834E-A3BA-4D63-A71B-E47B521F34D7"><g class="stencils" transform="translate(165, 135)"><g class="me"><g pointer-events="fill" oryx:minimumSize="50 40" id="_FF05C02B-8790-4D07-83DB-AC17AD801098">   	<defs id="_FF05C02B-8790-4D07-83DB-AC17AD801098__FF05C02B-8790-4D07-83DB-AC17AD801098_17"> 		<radialGradient id="_FF05C02B-8790-4D07-83DB-AC17AD801098background" cx="10%" cy="10%" r="100%" fx="10%" fy="10%"> 			<stop offset="0%" stop-color="#ffffff" stop-opacity="1" id="_FF05C02B-8790-4D07-83DB-AC17AD801098__FF05C02B-8790-4D07-83DB-AC17AD801098_18"/> 			<stop id="_FF05C02B-8790-4D07-83DB-AC17AD801098fill_el" offset="100%" stop-color="#fafad2" stop-opacity="1"/> 		</radialGradient> 		<radialGradient id="_FF05C02B-8790-4D07-83DB-AC17AD801098borderbackground" cx="10%" cy="10%" r="100%" fx="10%" fy="10%"> 			<stop offset="0%" stop-color="#ffffff" stop-opacity="1" id="_FF05C02B-8790-4D07-83DB-AC17AD801098__FF05C02B-8790-4D07-83DB-AC17AD801098_19"/> 			<stop id="_FF05C02B-8790-4D07-83DB-AC17AD801098fill_border" offset="100%" stop-color="#000000" stop-opacity="1" stroke="#000000"/> 		</radialGradient> 	</defs> 	 	<rect id="_FF05C02B-8790-4D07-83DB-AC17AD801098text_frame" oryx:anchors="bottom top right left" x="1" y="1" width="94" height="79" rx="10" ry="10" stroke="none" stroke-width="0" fill="none"/> 	<rect id="_FF05C02B-8790-4D07-83DB-AC17AD801098bg_frame" oryx:resize="vertical horizontal" x="0" y="0" width="100" height="80" rx="10" ry="10" stroke="#000000" stroke-width="1" fill="url(#_FF05C02B-8790-4D07-83DB-AC17AD801098background) #ffffcc"/> 		<text font-size="12" id="_FF05C02B-8790-4D07-83DB-AC17AD801098text_name" x="50" y="40" oryx:align="middle center" oryx:fittoelem="text_frame" stroke="black" text-anchor="middle" stroke-width="0pt" letter-spacing="-0.01px" fill="#000000" transform="rotate(0 50 40)" visibility="inherit" oryx:fontSize="12"><tspan x="50" y="40" dy="5" id="ext-gen969">Admisi?n</tspan></text>     <g id="_FF05C02B-8790-4D07-83DB-AC17AD801098manualTask" transform="scale(0.7,0.7) translate(8,8)" display="none">     	<path oryx:anchors="top left" id="_FF05C02B-8790-4D07-83DB-AC17AD801098frame" style="opacity:1;fill:none;fill-opacity:1;stroke-width:1" d="M0.5,3.751l4.083-3.25c0,0,11.166,0.083,12.083,0.083s-2.417,2.917-1.5,2.917     s11.667,0,12.584,0c1.166,1.708-0.168,3.167-0.834,3.667s0.875,1.917-1,4.417c-0.75,0.25,0.75,1.875-1.333,3.333     c-1.167,0.583,0.583,1.542-1.25,2.833c-1.167,0-20.833,0.083-20.833,0.083l-2-1.333V3.751z" stroke="#000000"/> 		<path id="_FF05C02B-8790-4D07-83DB-AC17AD801098frame2" oryx:anchors="top left" style="opacity:1;fill:none;stroke-width:2" d="M 13.5 7 L 27 7" stroke="#000000"/> 		<path id="_FF05C02B-8790-4D07-83DB-AC17AD801098frame3" oryx:anchors="top left" style="opacity:1;fill:none;stroke-width:2" d="M 13.5 11 L 26 11" stroke="#000000"/> 		<path id="_FF05C02B-8790-4D07-83DB-AC17AD801098frame4" oryx:anchors="top left" style="opacity:1;fill:none;stroke-width:1.5" d="M 14 14.5 L 25 14.5" stroke="#000000"/> 		<path id="_FF05C02B-8790-4D07-83DB-AC17AD801098frame5" oryx:anchors="top left" style="opacity:1;fill:none;stroke-width:1.5" d="M 8.2 3.1 L 15 3.1" stroke="#000000"/> 	</g> 	 	<g id="_FF05C02B-8790-4D07-83DB-AC17AD801098businessRuleTask" transform="scale(0.7,0.7) translate(8,8)" display="none"> 		<rect id="_FF05C02B-8790-4D07-83DB-AC17AD801098frame6" oryx:anchors="top left" x="0" y="0" width="22" height="4" style="opacity:1;fill:#B3B1B3;fill-opacity:1;" stroke="#000000"/> 		<rect id="_FF05C02B-8790-4D07-83DB-AC17AD801098frame7" oryx:anchors="top left" x="0" y="4" style="opacity:1;fill:none;" width="22" height="12" stroke="#000000"/> 		<path id="_FF05C02B-8790-4D07-83DB-AC17AD801098frame8" oryx:anchors="top left" style="opacity:1;fill:none;" d="M 0 10 L 22 10" stroke="#000000"/> 		<path id="_FF05C02B-8790-4D07-83DB-AC17AD801098frame9" oryx:anchors="top left" style="opacity:1; fill:none;" d="M 7 4 L 7 16" stroke="#000000"/> 	</g> 	 	<g id="_FF05C02B-8790-4D07-83DB-AC17AD801098scriptTask" transform="scale(0.7,0.7) translate(8,8)" display="none"> 		<path oryx:anchors="top left" id="_FF05C02B-8790-4D07-83DB-AC17AD801098frame10" style="opacity:1;fill:none;" stroke="#000000" d="M6.402,0.5h14.5c0,0-5.833,2.833-5.833,5.583s4.417,6,4.417,9.167    s-4.167,5.083-4.167,5.083H0.235c0,0,5-2.667,5-5s-4.583-6.75-4.583-9.25S6.402,0.5,6.402,0.5z"/> 		<path oryx:anchors="top left" id="_FF05C02B-8790-4D07-83DB-AC17AD801098frame11" style="opacity:1;fill:none;stroke-width:1.5" d="M 3.5 4.5 L 13.5 4.5" stroke="#000000"/> 		<path oryx:anchors="top left" id="_FF05C02B-8790-4D07-83DB-AC17AD801098frame12" style="opacity:1;fill:none;stroke-width:1.5" d="M 3.8 8.5 L 13.8 8.5" stroke="#000000"/> 		<path oryx:anchors="top left" id="_FF05C02B-8790-4D07-83DB-AC17AD801098frame13" style="opacity:1;fill:none;stroke-width:1.5" d="M 6.3 12.5 L 16.3 12.5" stroke="#000000"/> 		<path oryx:anchors="top left" id="_FF05C02B-8790-4D07-83DB-AC17AD801098frame14" style="opacity:1;fill:none;stroke-width:1.5" d="M 6.5 16.5 L 16.5 16.5" stroke="#000000"/> 	</g> 	 	<g id="_FF05C02B-8790-4D07-83DB-AC17AD801098userTask" transform="scale(0.7,0.7) translate(8,8)" display="inherit"> 		<path id="_FF05C02B-8790-4D07-83DB-AC17AD801098frame15" oryx:anchors="top left" style="opacity:1;fill:#F4F6F7" stroke="#000000" d="M0.585,24.167h24.083v-7.833c0,0-2.333-3.917-7.083-5.167h-9.25    c-4.417,1.333-7.833,5.75-7.833,5.75L0.585,24.167z"/> 		<path id="_FF05C02B-8790-4D07-83DB-AC17AD801098frame16" oryx:anchors="top left" style="opacity:1;fill:none" d="M 6 20 L 6 24" stroke="#000000"/> 		<path id="_FF05C02B-8790-4D07-83DB-AC17AD801098frame17" oryx:anchors="top left" style="opacity:1;fill:none" d="M 20 20 L 20 24" stroke="#000000"/> 		<circle id="_FF05C02B-8790-4D07-83DB-AC17AD801098frame18" oryx:anchors="top left" fill="black" cx="13.002" cy="5.916" r="5.417" stroke="#000000"/> 		<path id="_FF05C02B-8790-4D07-83DB-AC17AD801098frame19" oryx:anchors="top left" style="opacity:1;fill:#F0EFF0;" stroke="#000000" d="M8.043,7.083c0,0,2.814-2.426,5.376-1.807s4.624-0.693,4.624-0.693    c0.25,1.688,0.042,3.75-1.458,5.584c0,0,1.083,0.75,1.083,1.5s0.125,1.875-1,3s-5.5,1.25-6.75,0S8.668,12.834,8.668,12    s0.583-1.25,1.25-1.917C8.835,9.5,7.419,7.708,8.043,7.083z"/> 	</g> 	 	<g id="_FF05C02B-8790-4D07-83DB-AC17AD801098serviceTask" transform="scale(0.7,0.7) translate(8,8)" display="none"> 		<polygon oryx:anchors="top left" id="_FF05C02B-8790-4D07-83DB-AC17AD801098frame20" style="opacity:1;fill:#ffffff" stroke="#000000" points="15.392,5.064 17.954,2.502 20.347,4.895 17.786,7.455     18.729,9.732 22.353,9.732 22.353,13.115 18.731,13.115 17.788,15.392 20.351,17.955 17.958,20.347 15.397,17.786 13.12,18.729     13.12,22.353 9.737,22.353 9.737,18.731 7.46,17.788 4.897,20.35 2.506,17.958 5.066,15.397 4.124,13.12 0.5,13.12 0.5,9.737     4.121,9.737 5.065,7.461 2.503,4.898 4.895,2.506 7.455,5.066 9.732,4.125 9.732,0.5 13.116,0.5 13.116,4.121 "/> 		<circle oryx:anchors="top left" id="_FF05C02B-8790-4D07-83DB-AC17AD801098frame21" style="opacity:1;fill:none" stroke="#000000" cx="11.427" cy="11.426" r="3.714"/> 		<polygon oryx:anchors="top left" id="_FF05C02B-8790-4D07-83DB-AC17AD801098frame22" style="opacity:1;fill:#ffffff" stroke="#000000" points="21.392,11.064 23.954,8.502 26.347,10.895 23.786,13.455     24.729,15.732 28.353,15.732 28.353,19.115 24.731,19.115 23.788,21.392 26.351,23.955 23.958,26.347 21.397,23.786 19.12,24.729     19.12,28.353 15.737,28.353 15.737,24.731 13.46,23.788 10.897,26.35 8.506,23.958 11.066,21.397 10.124,19.12 6.5,19.12     6.5,15.737 10.121,15.737 11.065,13.461 8.503,10.898 10.895,8.506 13.455,11.066 15.732,10.125 15.732,6.5 19.116,6.5     19.116,10.121 "/> 		<circle oryx:anchors="top left" id="_FF05C02B-8790-4D07-83DB-AC17AD801098frame23" style="opacity:1;fill:none;" stroke="#000000" cx="17.427" cy="17.426" r="3.714"/> 	</g> 	 	<g id="_FF05C02B-8790-4D07-83DB-AC17AD801098sendTask" display="none"> 		<path id="_FF05C02B-8790-4D07-83DB-AC17AD801098stframe24" oryx:anchors="left top" stroke="#FFFFFF" fill="black" stroke-width="1" d="M8,11 L8,21 L24,21 L24,11 L16,17z"/> 		<path id="_FF05C02B-8790-4D07-83DB-AC17AD801098stframe25" oryx:anchors="left top" stroke="#FFFFFF" fill="black" stroke-width="1" d="M7,10 L16,17 L25 10z"/> 	</g> 	 	<g id="_FF05C02B-8790-4D07-83DB-AC17AD801098receiveTask" display="none"> 		<path id="_FF05C02B-8790-4D07-83DB-AC17AD801098frame26" oryx:anchors="left top" stroke="#000000" fill="none" stroke-width="1" d="M8,11 L8,21 L24,21 L24,11z M8,11 L16,17 L24,11"/> 	</g> 	 	<g id="_FF05C02B-8790-4D07-83DB-AC17AD801098none" display="inherit"/>  	<g id="_FF05C02B-8790-4D07-83DB-AC17AD801098sequential" display="none">         <path oryx:anchors="bottom" fill="none" stroke="#000000" stroke-width="2" d="M46,76h10M46,72h10 M46,68h10" id="_FF05C02B-8790-4D07-83DB-AC17AD801098__FF05C02B-8790-4D07-83DB-AC17AD801098_20"/>     </g>   </g></g><g class="children" style="overflow:hidden"/><g class="edge"/></g><g class="controls"><g class="dockers"/><g class="magnets" transform="translate(165, 135)"><g pointer-events="all" display="none" transform="translate(-7, 12)"><circle cx="8" cy="8" r="4" stroke="none" fill="red" fill-opacity="0.3"/></g><g pointer-events="all" display="none" transform="translate(-7, 32)"><circle cx="8" cy="8" r="4" stroke="none" fill="red" fill-opacity="0.3"/></g><g pointer-events="all" display="none" transform="translate(-7, 52)"><circle cx="8" cy="8" r="4" stroke="none" fill="red" fill-opacity="0.3"/></g><g pointer-events="all" display="none" transform="translate(17, 71)"><circle cx="8" cy="8" r="4" stroke="none" fill="red" fill-opacity="0.3"/></g><g pointer-events="all" display="none" transform="translate(42, 71)"><circle cx="8" cy="8" r="4" stroke="none" fill="red" fill-opacity="0.3"/></g><g pointer-events="all" display="none" transform="translate(67, 71)"><circle cx="8" cy="8" r="4" stroke="none" fill="red" fill-opacity="0.3"/></g><g pointer-events="all" display="none" transform="translate(91, 12)"><circle cx="8" cy="8" r="4" stroke="none" fill="red" fill-opacity="0.3"/></g><g pointer-events="all" display="none" transform="translate(91, 32)"><circle cx="8" cy="8" r="4" stroke="none" fill="red" fill-opacity="0.3"/></g><g pointer-events="all" display="none" transform="translate(91, 52)"><circle cx="8" cy="8" r="4" stroke="none" fill="red" fill-opacity="0.3"/></g><g pointer-events="all" display="none" transform="translate(17, -7)"><circle cx="8" cy="8" r="4" stroke="none" fill="red" fill-opacity="0.3"/></g><g pointer-events="all" display="none" transform="translate(42, -7)"><circle cx="8" cy="8" r="4" stroke="none" fill="red" fill-opacity="0.3"/></g><g pointer-events="all" display="none" transform="translate(67, -7)"><circle cx="8" cy="8" r="4" stroke="none" fill="red" fill-opacity="0.3"/></g><g pointer-events="all" display="none" transform="translate(42, 32)"><circle cx="8" cy="8" r="4" stroke="none" fill="red" fill-opacity="0.3"/></g></g></g></g><g id="_1A14039B-0A3C-4361-BCD2-A38DDFBED8E2" bpmn2nodeid="_3FBCC521-B954-4EBE-B1B9-1F4104406118"><g class="stencils" transform="translate(375, 135)"><g class="me"><g pointer-events="fill" oryx:minimumSize="50 40" id="_1A14039B-0A3C-4361-BCD2-A38DDFBED8E2">   	<defs id="_1A14039B-0A3C-4361-BCD2-A38DDFBED8E2__1A14039B-0A3C-4361-BCD2-A38DDFBED8E2_17"> 		<radialGradient id="_1A14039B-0A3C-4361-BCD2-A38DDFBED8E2background" cx="10%" cy="10%" r="100%" fx="10%" fy="10%"> 			<stop offset="0%" stop-color="#ffffff" stop-opacity="1" id="_1A14039B-0A3C-4361-BCD2-A38DDFBED8E2__1A14039B-0A3C-4361-BCD2-A38DDFBED8E2_18"/> 			<stop id="_1A14039B-0A3C-4361-BCD2-A38DDFBED8E2fill_el" offset="100%" stop-color="#fafad2" stop-opacity="1"/> 		</radialGradient> 		<radialGradient id="_1A14039B-0A3C-4361-BCD2-A38DDFBED8E2borderbackground" cx="10%" cy="10%" r="100%" fx="10%" fy="10%"> 			<stop offset="0%" stop-color="#ffffff" stop-opacity="1" id="_1A14039B-0A3C-4361-BCD2-A38DDFBED8E2__1A14039B-0A3C-4361-BCD2-A38DDFBED8E2_19"/> 			<stop id="_1A14039B-0A3C-4361-BCD2-A38DDFBED8E2fill_border" offset="100%" stop-color="#000000" stop-opacity="1" stroke="#000000"/> 		</radialGradient> 	</defs> 	 	<rect id="_1A14039B-0A3C-4361-BCD2-A38DDFBED8E2text_frame" oryx:anchors="bottom top right left" x="1" y="1" width="94" height="79" rx="10" ry="10" stroke="none" stroke-width="0" fill="none"/> 	<rect id="_1A14039B-0A3C-4361-BCD2-A38DDFBED8E2bg_frame" oryx:resize="vertical horizontal" x="0" y="0" width="100" height="80" rx="10" ry="10" stroke="#000000" stroke-width="1" fill="url(#_1A14039B-0A3C-4361-BCD2-A38DDFBED8E2background) #ffffcc"/> 		<text font-size="12" id="_1A14039B-0A3C-4361-BCD2-A38DDFBED8E2text_name" x="50" y="40" oryx:align="middle center" oryx:fittoelem="text_frame" stroke="black" text-anchor="middle" stroke-width="0pt" letter-spacing="-0.01px" fill="#000000" transform="rotate(0 50 40)" visibility="inherit" oryx:fontSize="12"><tspan x="50" y="40" dy="5" id="ext-gen1584">inicio</tspan></text>     <g id="_1A14039B-0A3C-4361-BCD2-A38DDFBED8E2manualTask" transform="scale(0.7,0.7) translate(8,8)" display="none">     	<path oryx:anchors="top left" id="_1A14039B-0A3C-4361-BCD2-A38DDFBED8E2frame" style="opacity:1;fill:none;fill-opacity:1;stroke-width:1" d="M0.5,3.751l4.083-3.25c0,0,11.166,0.083,12.083,0.083s-2.417,2.917-1.5,2.917     s11.667,0,12.584,0c1.166,1.708-0.168,3.167-0.834,3.667s0.875,1.917-1,4.417c-0.75,0.25,0.75,1.875-1.333,3.333     c-1.167,0.583,0.583,1.542-1.25,2.833c-1.167,0-20.833,0.083-20.833,0.083l-2-1.333V3.751z" stroke="#000000"/> 		<path id="_1A14039B-0A3C-4361-BCD2-A38DDFBED8E2frame2" oryx:anchors="top left" style="opacity:1;fill:none;stroke-width:2" d="M 13.5 7 L 27 7" stroke="#000000"/> 		<path id="_1A14039B-0A3C-4361-BCD2-A38DDFBED8E2frame3" oryx:anchors="top left" style="opacity:1;fill:none;stroke-width:2" d="M 13.5 11 L 26 11" stroke="#000000"/> 		<path id="_1A14039B-0A3C-4361-BCD2-A38DDFBED8E2frame4" oryx:anchors="top left" style="opacity:1;fill:none;stroke-width:1.5" d="M 14 14.5 L 25 14.5" stroke="#000000"/> 		<path id="_1A14039B-0A3C-4361-BCD2-A38DDFBED8E2frame5" oryx:anchors="top left" style="opacity:1;fill:none;stroke-width:1.5" d="M 8.2 3.1 L 15 3.1" stroke="#000000"/> 	</g> 	 	<g id="_1A14039B-0A3C-4361-BCD2-A38DDFBED8E2businessRuleTask" transform="scale(0.7,0.7) translate(8,8)" display="none"> 		<rect id="_1A14039B-0A3C-4361-BCD2-A38DDFBED8E2frame6" oryx:anchors="top left" x="0" y="0" width="22" height="4" style="opacity:1;fill:#B3B1B3;fill-opacity:1;" stroke="#000000"/> 		<rect id="_1A14039B-0A3C-4361-BCD2-A38DDFBED8E2frame7" oryx:anchors="top left" x="0" y="4" style="opacity:1;fill:none;" width="22" height="12" stroke="#000000"/> 		<path id="_1A14039B-0A3C-4361-BCD2-A38DDFBED8E2frame8" oryx:anchors="top left" style="opacity:1;fill:none;" d="M 0 10 L 22 10" stroke="#000000"/> 		<path id="_1A14039B-0A3C-4361-BCD2-A38DDFBED8E2frame9" oryx:anchors="top left" style="opacity:1; fill:none;" d="M 7 4 L 7 16" stroke="#000000"/> 	</g> 	 	<g id="_1A14039B-0A3C-4361-BCD2-A38DDFBED8E2scriptTask" transform="scale(0.7,0.7) translate(8,8)" display="inherit"> 		<path oryx:anchors="top left" id="_1A14039B-0A3C-4361-BCD2-A38DDFBED8E2frame10" style="opacity:1;fill:none;" stroke="#000000" d="M6.402,0.5h14.5c0,0-5.833,2.833-5.833,5.583s4.417,6,4.417,9.167    s-4.167,5.083-4.167,5.083H0.235c0,0,5-2.667,5-5s-4.583-6.75-4.583-9.25S6.402,0.5,6.402,0.5z"/> 		<path oryx:anchors="top left" id="_1A14039B-0A3C-4361-BCD2-A38DDFBED8E2frame11" style="opacity:1;fill:none;stroke-width:1.5" d="M 3.5 4.5 L 13.5 4.5" stroke="#000000"/> 		<path oryx:anchors="top left" id="_1A14039B-0A3C-4361-BCD2-A38DDFBED8E2frame12" style="opacity:1;fill:none;stroke-width:1.5" d="M 3.8 8.5 L 13.8 8.5" stroke="#000000"/> 		<path oryx:anchors="top left" id="_1A14039B-0A3C-4361-BCD2-A38DDFBED8E2frame13" style="opacity:1;fill:none;stroke-width:1.5" d="M 6.3 12.5 L 16.3 12.5" stroke="#000000"/> 		<path oryx:anchors="top left" id="_1A14039B-0A3C-4361-BCD2-A38DDFBED8E2frame14" style="opacity:1;fill:none;stroke-width:1.5" d="M 6.5 16.5 L 16.5 16.5" stroke="#000000"/> 	</g> 	 	<g id="_1A14039B-0A3C-4361-BCD2-A38DDFBED8E2userTask" transform="scale(0.7,0.7) translate(8,8)" display="none"> 		<path id="_1A14039B-0A3C-4361-BCD2-A38DDFBED8E2frame15" oryx:anchors="top left" style="opacity:1;fill:#F4F6F7" stroke="#000000" d="M0.585,24.167h24.083v-7.833c0,0-2.333-3.917-7.083-5.167h-9.25    c-4.417,1.333-7.833,5.75-7.833,5.75L0.585,24.167z"/> 		<path id="_1A14039B-0A3C-4361-BCD2-A38DDFBED8E2frame16" oryx:anchors="top left" style="opacity:1;fill:none" d="M 6 20 L 6 24" stroke="#000000"/> 		<path id="_1A14039B-0A3C-4361-BCD2-A38DDFBED8E2frame17" oryx:anchors="top left" style="opacity:1;fill:none" d="M 20 20 L 20 24" stroke="#000000"/> 		<circle id="_1A14039B-0A3C-4361-BCD2-A38DDFBED8E2frame18" oryx:anchors="top left" fill="black" cx="13.002" cy="5.916" r="5.417" stroke="#000000"/> 		<path id="_1A14039B-0A3C-4361-BCD2-A38DDFBED8E2frame19" oryx:anchors="top left" style="opacity:1;fill:#F0EFF0;" stroke="#000000" d="M8.043,7.083c0,0,2.814-2.426,5.376-1.807s4.624-0.693,4.624-0.693    c0.25,1.688,0.042,3.75-1.458,5.584c0,0,1.083,0.75,1.083,1.5s0.125,1.875-1,3s-5.5,1.25-6.75,0S8.668,12.834,8.668,12    s0.583-1.25,1.25-1.917C8.835,9.5,7.419,7.708,8.043,7.083z"/> 	</g> 	 	<g id="_1A14039B-0A3C-4361-BCD2-A38DDFBED8E2serviceTask" transform="scale(0.7,0.7) translate(8,8)" display="none"> 		<polygon oryx:anchors="top left" id="_1A14039B-0A3C-4361-BCD2-A38DDFBED8E2frame20" style="opacity:1;fill:#ffffff" stroke="#000000" points="15.392,5.064 17.954,2.502 20.347,4.895 17.786,7.455     18.729,9.732 22.353,9.732 22.353,13.115 18.731,13.115 17.788,15.392 20.351,17.955 17.958,20.347 15.397,17.786 13.12,18.729     13.12,22.353 9.737,22.353 9.737,18.731 7.46,17.788 4.897,20.35 2.506,17.958 5.066,15.397 4.124,13.12 0.5,13.12 0.5,9.737     4.121,9.737 5.065,7.461 2.503,4.898 4.895,2.506 7.455,5.066 9.732,4.125 9.732,0.5 13.116,0.5 13.116,4.121 "/> 		<circle oryx:anchors="top left" id="_1A14039B-0A3C-4361-BCD2-A38DDFBED8E2frame21" style="opacity:1;fill:none" stroke="#000000" cx="11.427" cy="11.426" r="3.714"/> 		<polygon oryx:anchors="top left" id="_1A14039B-0A3C-4361-BCD2-A38DDFBED8E2frame22" style="opacity:1;fill:#ffffff" stroke="#000000" points="21.392,11.064 23.954,8.502 26.347,10.895 23.786,13.455     24.729,15.732 28.353,15.732 28.353,19.115 24.731,19.115 23.788,21.392 26.351,23.955 23.958,26.347 21.397,23.786 19.12,24.729     19.12,28.353 15.737,28.353 15.737,24.731 13.46,23.788 10.897,26.35 8.506,23.958 11.066,21.397 10.124,19.12 6.5,19.12     6.5,15.737 10.121,15.737 11.065,13.461 8.503,10.898 10.895,8.506 13.455,11.066 15.732,10.125 15.732,6.5 19.116,6.5     19.116,10.121 "/> 		<circle oryx:anchors="top left" id="_1A14039B-0A3C-4361-BCD2-A38DDFBED8E2frame23" style="opacity:1;fill:none;" stroke="#000000" cx="17.427" cy="17.426" r="3.714"/> 	</g> 	 	<g id="_1A14039B-0A3C-4361-BCD2-A38DDFBED8E2sendTask" display="none"> 		<path id="_1A14039B-0A3C-4361-BCD2-A38DDFBED8E2stframe24" oryx:anchors="left top" stroke="#FFFFFF" fill="black" stroke-width="1" d="M8,11 L8,21 L24,21 L24,11 L16,17z"/> 		<path id="_1A14039B-0A3C-4361-BCD2-A38DDFBED8E2stframe25" oryx:anchors="left top" stroke="#FFFFFF" fill="black" stroke-width="1" d="M7,10 L16,17 L25 10z"/> 	</g> 	 	<g id="_1A14039B-0A3C-4361-BCD2-A38DDFBED8E2receiveTask" display="none"> 		<path id="_1A14039B-0A3C-4361-BCD2-A38DDFBED8E2frame26" oryx:anchors="left top" stroke="#000000" fill="none" stroke-width="1" d="M8,11 L8,21 L24,21 L24,11z M8,11 L16,17 L24,11"/> 	</g> 	 	<g id="_1A14039B-0A3C-4361-BCD2-A38DDFBED8E2none" display="inherit"/>  	<g id="_1A14039B-0A3C-4361-BCD2-A38DDFBED8E2sequential" display="none">         <path oryx:anchors="bottom" fill="none" stroke="#000000" stroke-width="2" d="M46,76h10M46,72h10 M46,68h10" id="_1A14039B-0A3C-4361-BCD2-A38DDFBED8E2__1A14039B-0A3C-4361-BCD2-A38DDFBED8E2_20"/>     </g>   </g></g><g class="children" style="overflow:hidden"/><g class="edge"/></g><g class="controls"><g class="dockers"/><g class="magnets" transform="translate(375, 135)"><g pointer-events="all" display="none" transform="translate(-7, 12)"><circle cx="8" cy="8" r="4" stroke="none" fill="red" fill-opacity="0.3"/></g><g pointer-events="all" display="none" transform="translate(-7, 32)"><circle cx="8" cy="8" r="4" stroke="none" fill="red" fill-opacity="0.3"/></g><g pointer-events="all" display="none" transform="translate(-7, 52)"><circle cx="8" cy="8" r="4" stroke="none" fill="red" fill-opacity="0.3"/></g><g pointer-events="all" display="none" transform="translate(17, 71)"><circle cx="8" cy="8" r="4" stroke="none" fill="red" fill-opacity="0.3"/></g><g pointer-events="all" display="none" transform="translate(42, 71)"><circle cx="8" cy="8" r="4" stroke="none" fill="red" fill-opacity="0.3"/></g><g pointer-events="all" display="none" transform="translate(67, 71)"><circle cx="8" cy="8" r="4" stroke="none" fill="red" fill-opacity="0.3"/></g><g pointer-events="all" display="none" transform="translate(91, 12)"><circle cx="8" cy="8" r="4" stroke="none" fill="red" fill-opacity="0.3"/></g><g pointer-events="all" display="none" transform="translate(91, 32)"><circle cx="8" cy="8" r="4" stroke="none" fill="red" fill-opacity="0.3"/></g><g pointer-events="all" display="none" transform="translate(91, 52)"><circle cx="8" cy="8" r="4" stroke="none" fill="red" fill-opacity="0.3"/></g><g pointer-events="all" display="none" transform="translate(17, -7)"><circle cx="8" cy="8" r="4" stroke="none" fill="red" fill-opacity="0.3"/></g><g pointer-events="all" display="none" transform="translate(42, -7)"><circle cx="8" cy="8" r="4" stroke="none" fill="red" fill-opacity="0.3"/></g><g pointer-events="all" display="none" transform="translate(67, -7)"><circle cx="8" cy="8" r="4" stroke="none" fill="red" fill-opacity="0.3"/></g><g pointer-events="all" display="none" transform="translate(42, 32)"><circle cx="8" cy="8" r="4" stroke="none" fill="red" fill-opacity="0.3"/></g></g></g></g><g id="_08BB2698-530D-4669-AE6A-D2E11AE8CEF6" bpmn2nodeid="_7464E39E-8FA6-40C7-92C3-D2FC724B1E12"><g class="stencils" transform="translate(600, 161)"><g class="me"><g pointer-events="fill" id="_08BB2698-530D-4669-AE6A-D2E11AE8CEF6">      <defs id="_08BB2698-530D-4669-AE6A-D2E11AE8CEF6__08BB2698-530D-4669-AE6A-D2E11AE8CEF6_5"> 		<radialGradient id="_08BB2698-530D-4669-AE6A-D2E11AE8CEF6background" cx="10%" cy="10%" r="100%" fx="10%" fy="10%"> 			<stop offset="0%" stop-color="#ffffff" stop-opacity="1" id="_08BB2698-530D-4669-AE6A-D2E11AE8CEF6__08BB2698-530D-4669-AE6A-D2E11AE8CEF6_6"/> 			<stop id="_08BB2698-530D-4669-AE6A-D2E11AE8CEF6fill_el" offset="100%" stop-color="#ff6347" stop-opacity="1"/> 		</radialGradient> 	</defs> 	     <circle id="_08BB2698-530D-4669-AE6A-D2E11AE8CEF6bg_frame" cx="14" cy="14" r="14" stroke="#000000" fill="url(#_08BB2698-530D-4669-AE6A-D2E11AE8CEF6background) white" stroke-width="3"/> 	<text font-size="11" id="_08BB2698-530D-4669-AE6A-D2E11AE8CEF6text_name" x="14" y="30" oryx:align="top center" stroke="black" stroke-width="0pt" letter-spacing="-0.01px" fill="#000000" text-anchor="middle" transform="rotate(0 14 30)" visibility="inherit" oryx:fontSize="11"/>   </g></g><g class="children" style="overflow:hidden"/><g class="edge"/></g><g class="controls"><g class="dockers"/><g class="magnets" transform="translate(600, 161)"><g pointer-events="all" display="none" transform="translate(6, 6)"><circle cx="8" cy="8" r="4" stroke="none" fill="red" fill-opacity="0.3"/></g></g></g></g></g><g class="edge"><g id="_25F9CD89-309C-4E88-B2C9-00CCD0A42752" bpmn2nodeid="_06123203-938A-42FA-862F-B434F124492A"><g class="stencils"><g class="me"><g pointer-events="painted" bpmn2nodeid="_299FEE52-4F5B-4E0C-8F21-C2918C85663A"><path id="_25F9CD89-309C-4E88-B2C9-00CCD0A42752_1" d="M75.53125 175L164.3515625 175 " stroke="#000000" fill="none" stroke-width="2" stroke-linecap="round" stroke-linejoin="round" marker-start="url(#_25F9CD89-309C-4E88-B2C9-00CCD0A42752start)" marker-end="url(#_25F9CD89-309C-4E88-B2C9-00CCD0A42752end)"/></g><text id="_25F9CD89-309C-4E88-B2C9-00CCD0A42752text_name" font-size="12" x="89.53125" y="161" oryx:edgePosition="startTop" stroke-width="0pt" letter-spacing="-0.01px" fill="#000000" text-anchor="start" transform="rotate(360 75.53125 175)" visibility="inherit" oryx:fontSize="12"/></g><g class="children" style="overflow:hidden"/><g class="edge"/></g><g class="controls"><g class="dockers"/><g class="magnets"/></g></g><g id="_9B6B871B-C92F-4554-A368-633780419664" bpmn2nodeid="_6D4B76E5-3787-4E27-9D48-796004089ECD"><g class="stencils"><g class="me"><g pointer-events="painted" bpmn2nodeid="_76D0233A-EC08-42E6-90DC-8F5FBE36B5B3"><path id="_9B6B871B-C92F-4554-A368-633780419664_1" d="M265.21875 175L374.78125 175 " stroke="#000000" fill="none" stroke-width="2" stroke-linecap="round" stroke-linejoin="round" marker-start="url(#_9B6B871B-C92F-4554-A368-633780419664start)" marker-end="url(#_9B6B871B-C92F-4554-A368-633780419664end)"/></g><text id="_9B6B871B-C92F-4554-A368-633780419664text_name" font-size="12" x="279.21875" y="161" oryx:edgePosition="startTop" stroke-width="0pt" letter-spacing="-0.01px" fill="#000000" text-anchor="start" transform="rotate(360 265.21875 175)" visibility="inherit" oryx:fontSize="12"/></g><g class="children" style="overflow:hidden"/><g class="edge"/></g><g class="controls"><g class="dockers"/><g class="magnets"/></g></g><g id="_655842C4-9596-4C9F-81FB-E3D906A8A59A" bpmn2nodeid="_4E57036E-7A44-410E-B6AB-BAD07E5C3643"><g class="stencils"><g class="me"><g pointer-events="painted" bpmn2nodeid="_14ADF4BB-9503-4050-988C-B103E7B601C2"><path id="_655842C4-9596-4C9F-81FB-E3D906A8A59A_1" d="M475.46484375 175L599.7109375 175 " stroke="#000000" fill="none" stroke-width="2" stroke-linecap="round" stroke-linejoin="round" marker-start="url(#_655842C4-9596-4C9F-81FB-E3D906A8A59Astart)" marker-end="url(#_655842C4-9596-4C9F-81FB-E3D906A8A59Aend)"/></g><text id="_655842C4-9596-4C9F-81FB-E3D906A8A59Atext_name" font-size="12" x="489.46484375" y="161" oryx:edgePosition="startTop" stroke-width="0pt" letter-spacing="-0.01px" fill="#000000" text-anchor="start" transform="rotate(360 475.46484375 175)" visibility="inherit" oryx:fontSize="12"/></g><g class="children" style="overflow:hidden"/><g class="edge"/></g><g class="controls"><g class="dockers"/><g class="magnets"/></g></g></g><text id="_51E29632-A362-4DE5-BE00-E7405F98C1E0" style="stroke-width:1;fill:rgb(177,194,214);font-family:arial;font-weight:bold" font-size="12" onclick="ORYX.Plugins.CanvasTitle.openTextualAnalysis()" onmouseover="ORYX.Plugins.CanvasTitle.addToolTip('_51E29632-A362-4DE5-BE00-E7405F98C1E0')" transform="translate(10, 20)">Tarjetas v.1.0 (Opplus.Tarjetas)</text></g></g></svg>