<svg xmlns="http://www.w3.org/2000/svg" xmlns:oryx="http://oryx-editor.org" id="_90843647-FD24-460D-AAC8-B04FADC442BC" width="1269" height="525" xmlns:xlink="http://www.w3.org/1999/xlink" xmlns:svg="http://www.w3.org/2000/svg"><defs><marker id="_47DB9707-D350-43AA-A6AD-94E6B13ECC00start" refX="1" refY="5" markerUnits="userSpaceOnUse" markerWidth="17" markerHeight="11" orient="auto" fill="#000000" stroke="#000000"> 	  		<path id="_47DB9707-D350-43AA-A6AD-94E6B13ECC00conditional" d="M 0 5 L 8 0 L 16 5 L 8 10 L 0 5" fill="white" stroke="#000000" stroke-width="1" display="none"/> 			<path id="_47DB9707-D350-43AA-A6AD-94E6B13ECC00default" d="M 5 0 L 11 10" fill="white" stroke="#000000" stroke-width="1" display="none"/> 	  	</marker><marker id="_47DB9707-D350-43AA-A6AD-94E6B13ECC00end" refX="15" refY="6" markerUnits="userSpaceOnUse" markerWidth="15" markerHeight="12" orient="auto" fill="#000000" stroke="#000000"> 	  		<path id="_47DB9707-D350-43AA-A6AD-94E6B13ECC00frame2" d="M 0 1 L 15 6 L 0 11z" fill="#000000" stroke="#000000" stroke-linejoin="round" stroke-width="2"/> 	  	</marker><marker id="_06282F08-D637-46C7-ACFA-399CBB431B11start" refX="1" refY="5" markerUnits="userSpaceOnUse" markerWidth="17" markerHeight="11" orient="auto" fill="#000000" stroke="#000000"> 	  		<path id="_06282F08-D637-46C7-ACFA-399CBB431B11conditional" d="M 0 5 L 8 0 L 16 5 L 8 10 L 0 5" fill="white" stroke="#000000" stroke-width="1" display="none"/> 			<path id="_06282F08-D637-46C7-ACFA-399CBB431B11default" d="M 5 0 L 11 10" fill="white" stroke="#000000" stroke-width="1" display="none"/> 	  	</marker><marker id="_06282F08-D637-46C7-ACFA-399CBB431B11end" refX="15" refY="6" markerUnits="userSpaceOnUse" markerWidth="15" markerHeight="12" orient="auto" fill="#000000" stroke="#000000"> 	  		<path id="_06282F08-D637-46C7-ACFA-399CBB431B11frame2" d="M 0 1 L 15 6 L 0 11z" fill="#000000" stroke="#000000" stroke-linejoin="round" stroke-width="2"/> 	  	</marker><marker id="_60B041EB-098A-480C-AE6F-F4827724FFC1start" refX="1" refY="5" markerUnits="userSpaceOnUse" markerWidth="17" markerHeight="11" orient="auto" fill="#000000" stroke="#000000"> 	  		<path id="_60B041EB-098A-480C-AE6F-F4827724FFC1conditional" d="M 0 5 L 8 0 L 16 5 L 8 10 L 0 5" fill="white" stroke="#000000" stroke-width="1" display="none"/> 			<path id="_60B041EB-098A-480C-AE6F-F4827724FFC1default" d="M 5 0 L 11 10" fill="white" stroke="#000000" stroke-width="1" display="none"/> 	  	</marker><marker id="_60B041EB-098A-480C-AE6F-F4827724FFC1end" refX="15" refY="6" markerUnits="userSpaceOnUse" markerWidth="15" markerHeight="12" orient="auto" fill="#000000" stroke="#000000"> 	  		<path id="_60B041EB-098A-480C-AE6F-F4827724FFC1frame2" d="M 0 1 L 15 6 L 0 11z" fill="#000000" stroke="#000000" stroke-linejoin="round" stroke-width="2"/> 	  	</marker><marker id="_AD22BBE9-AB7F-48E3-B773-73CCFC6A9B93start" refX="1" refY="5" markerUnits="userSpaceOnUse" markerWidth="17" markerHeight="11" orient="auto" fill="#000000" stroke="#000000"> 	  		<path id="_AD22BBE9-AB7F-48E3-B773-73CCFC6A9B93conditional" d="M 0 5 L 8 0 L 16 5 L 8 10 L 0 5" fill="white" stroke="#000000" stroke-width="1" display="none"/> 			<path id="_AD22BBE9-AB7F-48E3-B773-73CCFC6A9B93default" d="M 5 0 L 11 10" fill="white" stroke="#000000" stroke-width="1" display="none"/> 	  	</marker><marker id="_AD22BBE9-AB7F-48E3-B773-73CCFC6A9B93end" refX="15" refY="6" markerUnits="userSpaceOnUse" markerWidth="15" markerHeight="12" orient="auto" fill="#000000" stroke="#000000"> 	  		<path id="_AD22BBE9-AB7F-48E3-B773-73CCFC6A9B93frame2" d="M 0 1 L 15 6 L 0 11z" fill="#000000" stroke="#000000" stroke-linejoin="round" stroke-width="2"/> 	  	</marker><marker id="_5D7AAC03-5D73-4DBA-A463-8692D6C45BA4start" refX="1" refY="5" markerUnits="userSpaceOnUse" markerWidth="17" markerHeight="11" orient="auto" fill="#000000" stroke="#000000"> 	  		<path id="_5D7AAC03-5D73-4DBA-A463-8692D6C45BA4conditional" d="M 0 5 L 8 0 L 16 5 L 8 10 L 0 5" fill="white" stroke="#000000" stroke-width="1" display="none"/> 			<path id="_5D7AAC03-5D73-4DBA-A463-8692D6C45BA4default" d="M 5 0 L 11 10" fill="white" stroke="#000000" stroke-width="1" display="none"/> 	  	</marker><marker id="_5D7AAC03-5D73-4DBA-A463-8692D6C45BA4end" refX="15" refY="6" markerUnits="userSpaceOnUse" markerWidth="15" markerHeight="12" orient="auto" fill="#000000" stroke="#000000"> 	  		<path id="_5D7AAC03-5D73-4DBA-A463-8692D6C45BA4frame2" d="M 0 1 L 15 6 L 0 11z" fill="#000000" stroke="#000000" stroke-linejoin="round" stroke-width="2"/> 	  	</marker><marker id="_B29C2D57-68D6-4ECD-AD74-B688847FE2A4start" refX="1" refY="5" markerUnits="userSpaceOnUse" markerWidth="17" markerHeight="11" orient="auto" fill="#000000" stroke="#000000"> 	  		<path id="_B29C2D57-68D6-4ECD-AD74-B688847FE2A4conditional" d="M 0 5 L 8 0 L 16 5 L 8 10 L 0 5" fill="white" stroke="#000000" stroke-width="1" display="none"/> 			<path id="_B29C2D57-68D6-4ECD-AD74-B688847FE2A4default" d="M 5 0 L 11 10" fill="white" stroke="#000000" stroke-width="1" display="none"/> 	  	</marker><marker id="_B29C2D57-68D6-4ECD-AD74-B688847FE2A4end" refX="15" refY="6" markerUnits="userSpaceOnUse" markerWidth="15" markerHeight="12" orient="auto" fill="#000000" stroke="#000000"> 	  		<path id="_B29C2D57-68D6-4ECD-AD74-B688847FE2A4frame2" d="M 0 1 L 15 6 L 0 11z" fill="#000000" stroke="#000000" stroke-linejoin="round" stroke-width="2"/> 	  	</marker><marker id="_76BFAB91-AB00-4894-ADD4-98A3713B2CDBstart" refX="1" refY="5" markerUnits="userSpaceOnUse" markerWidth="17" markerHeight="11" orient="auto" fill="#000000" stroke="#000000"> 	  		<path id="_76BFAB91-AB00-4894-ADD4-98A3713B2CDBconditional" d="M 0 5 L 8 0 L 16 5 L 8 10 L 0 5" fill="white" stroke="#000000" stroke-width="1" display="none"/> 			<path id="_76BFAB91-AB00-4894-ADD4-98A3713B2CDBdefault" d="M 5 0 L 11 10" fill="white" stroke="#000000" stroke-width="1" display="none"/> 	  	</marker><marker id="_76BFAB91-AB00-4894-ADD4-98A3713B2CDBend" refX="15" refY="6" markerUnits="userSpaceOnUse" markerWidth="15" markerHeight="12" orient="auto" fill="#000000" stroke="#000000"> 	  		<path id="_76BFAB91-AB00-4894-ADD4-98A3713B2CDBframe2" d="M 0 1 L 15 6 L 0 11z" fill="#000000" stroke="#000000" stroke-linejoin="round" stroke-width="2"/> 	  	</marker></defs><g stroke="none" font-family="Verdana, sans-serif" font-size-adjust="none" font-style="normal" font-variant="normal" font-weight="normal" line-heigth="normal" font-size="12"><g class="stencils" transform="translate(16, 16)"><g class="me"/><g class="children"><g id="_664B9CC1-C97B-4274-875B-73A2F84F49A7" bpmn2nodeid="_AEA456D3-3620-4F7F-BC54-AD567F9421EB"><g class="stencils" transform="translate(555, 404)"><g class="me"><g pointer-events="fill" oryx:minimumSize="50 40" id="_664B9CC1-C97B-4274-875B-73A2F84F49A7">   	<defs id="_664B9CC1-C97B-4274-875B-73A2F84F49A7__664B9CC1-C97B-4274-875B-73A2F84F49A7_17"> 		<radialGradient id="_664B9CC1-C97B-4274-875B-73A2F84F49A7background" cx="10%" cy="10%" r="100%" fx="10%" fy="10%"> 			<stop offset="0%" stop-color="#ffffff" stop-opacity="1" id="_664B9CC1-C97B-4274-875B-73A2F84F49A7__664B9CC1-C97B-4274-875B-73A2F84F49A7_18"/> 			<stop id="_664B9CC1-C97B-4274-875B-73A2F84F49A7fill_el" offset="100%" stop-color="#fafad2" stop-opacity="1"/> 		</radialGradient> 		<radialGradient id="_664B9CC1-C97B-4274-875B-73A2F84F49A7borderbackground" cx="10%" cy="10%" r="100%" fx="10%" fy="10%"> 			<stop offset="0%" stop-color="#ffffff" stop-opacity="1" id="_664B9CC1-C97B-4274-875B-73A2F84F49A7__664B9CC1-C97B-4274-875B-73A2F84F49A7_19"/> 			<stop id="_664B9CC1-C97B-4274-875B-73A2F84F49A7fill_border" offset="100%" stop-color="#000000" stop-opacity="1" stroke="#000000"/> 		</radialGradient> 	</defs> 	 	<rect id="_664B9CC1-C97B-4274-875B-73A2F84F49A7text_frame" oryx:anchors="bottom top right left" x="1" y="1" width="94" height="79" rx="10" ry="10" stroke="none" stroke-width="0" fill="none"/> 	<rect id="_664B9CC1-C97B-4274-875B-73A2F84F49A7bg_frame" oryx:resize="vertical horizontal" x="0" y="0" width="100" height="80" rx="10" ry="10" stroke="#000000" stroke-width="1" fill="url(#_664B9CC1-C97B-4274-875B-73A2F84F49A7background) #ffffcc"/> 		<text font-size="12" id="_664B9CC1-C97B-4274-875B-73A2F84F49A7text_name" x="50" y="40" oryx:align="middle center" oryx:fittoelem="text_frame" stroke="black" text-anchor="middle" stroke-width="0pt" letter-spacing="-0.01px" fill="#000000" transform="rotate(0 50 40)" visibility="inherit" oryx:fontSize="12"><tspan x="50" y="40" dy="5" id="ext-gen605">Admisi?n</tspan></text>     <g id="_664B9CC1-C97B-4274-875B-73A2F84F49A7manualTask" transform="scale(0.7,0.7) translate(8,8)" display="none">     	<path oryx:anchors="top left" id="_664B9CC1-C97B-4274-875B-73A2F84F49A7frame" style="opacity:1;fill:none;fill-opacity:1;stroke-width:1" d="M0.5,3.751l4.083-3.25c0,0,11.166,0.083,12.083,0.083s-2.417,2.917-1.5,2.917     s11.667,0,12.584,0c1.166,1.708-0.168,3.167-0.834,3.667s0.875,1.917-1,4.417c-0.75,0.25,0.75,1.875-1.333,3.333     c-1.167,0.583,0.583,1.542-1.25,2.833c-1.167,0-20.833,0.083-20.833,0.083l-2-1.333V3.751z" stroke="#000000"/> 		<path id="_664B9CC1-C97B-4274-875B-73A2F84F49A7frame2" oryx:anchors="top left" style="opacity:1;fill:none;stroke-width:2" d="M 13.5 7 L 27 7" stroke="#000000"/> 		<path id="_664B9CC1-C97B-4274-875B-73A2F84F49A7frame3" oryx:anchors="top left" style="opacity:1;fill:none;stroke-width:2" d="M 13.5 11 L 26 11" stroke="#000000"/> 		<path id="_664B9CC1-C97B-4274-875B-73A2F84F49A7frame4" oryx:anchors="top left" style="opacity:1;fill:none;stroke-width:1.5" d="M 14 14.5 L 25 14.5" stroke="#000000"/> 		<path id="_664B9CC1-C97B-4274-875B-73A2F84F49A7frame5" oryx:anchors="top left" style="opacity:1;fill:none;stroke-width:1.5" d="M 8.2 3.1 L 15 3.1" stroke="#000000"/> 	</g> 	 	<g id="_664B9CC1-C97B-4274-875B-73A2F84F49A7businessRuleTask" transform="scale(0.7,0.7) translate(8,8)" display="none"> 		<rect id="_664B9CC1-C97B-4274-875B-73A2F84F49A7frame6" oryx:anchors="top left" x="0" y="0" width="22" height="4" style="opacity:1;fill:#B3B1B3;fill-opacity:1;" stroke="#000000"/> 		<rect id="_664B9CC1-C97B-4274-875B-73A2F84F49A7frame7" oryx:anchors="top left" x="0" y="4" style="opacity:1;fill:none;" width="22" height="12" stroke="#000000"/> 		<path id="_664B9CC1-C97B-4274-875B-73A2F84F49A7frame8" oryx:anchors="top left" style="opacity:1;fill:none;" d="M 0 10 L 22 10" stroke="#000000"/> 		<path id="_664B9CC1-C97B-4274-875B-73A2F84F49A7frame9" oryx:anchors="top left" style="opacity:1; fill:none;" d="M 7 4 L 7 16" stroke="#000000"/> 	</g> 	 	<g id="_664B9CC1-C97B-4274-875B-73A2F84F49A7scriptTask" transform="scale(0.7,0.7) translate(8,8)" display="none"> 		<path oryx:anchors="top left" id="_664B9CC1-C97B-4274-875B-73A2F84F49A7frame10" style="opacity:1;fill:none;" stroke="#000000" d="M6.402,0.5h14.5c0,0-5.833,2.833-5.833,5.583s4.417,6,4.417,9.167    s-4.167,5.083-4.167,5.083H0.235c0,0,5-2.667,5-5s-4.583-6.75-4.583-9.25S6.402,0.5,6.402,0.5z"/> 		<path oryx:anchors="top left" id="_664B9CC1-C97B-4274-875B-73A2F84F49A7frame11" style="opacity:1;fill:none;stroke-width:1.5" d="M 3.5 4.5 L 13.5 4.5" stroke="#000000"/> 		<path oryx:anchors="top left" id="_664B9CC1-C97B-4274-875B-73A2F84F49A7frame12" style="opacity:1;fill:none;stroke-width:1.5" d="M 3.8 8.5 L 13.8 8.5" stroke="#000000"/> 		<path oryx:anchors="top left" id="_664B9CC1-C97B-4274-875B-73A2F84F49A7frame13" style="opacity:1;fill:none;stroke-width:1.5" d="M 6.3 12.5 L 16.3 12.5" stroke="#000000"/> 		<path oryx:anchors="top left" id="_664B9CC1-C97B-4274-875B-73A2F84F49A7frame14" style="opacity:1;fill:none;stroke-width:1.5" d="M 6.5 16.5 L 16.5 16.5" stroke="#000000"/> 	</g> 	 	<g id="_664B9CC1-C97B-4274-875B-73A2F84F49A7userTask" transform="scale(0.7,0.7) translate(8,8)" display="inherit"> 		<path id="_664B9CC1-C97B-4274-875B-73A2F84F49A7frame15" oryx:anchors="top left" style="opacity:1;fill:#F4F6F7" stroke="#000000" d="M0.585,24.167h24.083v-7.833c0,0-2.333-3.917-7.083-5.167h-9.25    c-4.417,1.333-7.833,5.75-7.833,5.75L0.585,24.167z"/> 		<path id="_664B9CC1-C97B-4274-875B-73A2F84F49A7frame16" oryx:anchors="top left" style="opacity:1;fill:none" d="M 6 20 L 6 24" stroke="#000000"/> 		<path id="_664B9CC1-C97B-4274-875B-73A2F84F49A7frame17" oryx:anchors="top left" style="opacity:1;fill:none" d="M 20 20 L 20 24" stroke="#000000"/> 		<circle id="_664B9CC1-C97B-4274-875B-73A2F84F49A7frame18" oryx:anchors="top left" fill="black" cx="13.002" cy="5.916" r="5.417" stroke="#000000"/> 		<path id="_664B9CC1-C97B-4274-875B-73A2F84F49A7frame19" oryx:anchors="top left" style="opacity:1;fill:#F0EFF0;" stroke="#000000" d="M8.043,7.083c0,0,2.814-2.426,5.376-1.807s4.624-0.693,4.624-0.693    c0.25,1.688,0.042,3.75-1.458,5.584c0,0,1.083,0.75,1.083,1.5s0.125,1.875-1,3s-5.5,1.25-6.75,0S8.668,12.834,8.668,12    s0.583-1.25,1.25-1.917C8.835,9.5,7.419,7.708,8.043,7.083z"/> 	</g> 	 	<g id="_664B9CC1-C97B-4274-875B-73A2F84F49A7serviceTask" transform="scale(0.7,0.7) translate(8,8)" display="none"> 		<polygon oryx:anchors="top left" id="_664B9CC1-C97B-4274-875B-73A2F84F49A7frame20" style="opacity:1;fill:#ffffff" stroke="#000000" points="15.392,5.064 17.954,2.502 20.347,4.895 17.786,7.455     18.729,9.732 22.353,9.732 22.353,13.115 18.731,13.115 17.788,15.392 20.351,17.955 17.958,20.347 15.397,17.786 13.12,18.729     13.12,22.353 9.737,22.353 9.737,18.731 7.46,17.788 4.897,20.35 2.506,17.958 5.066,15.397 4.124,13.12 0.5,13.12 0.5,9.737     4.121,9.737 5.065,7.461 2.503,4.898 4.895,2.506 7.455,5.066 9.732,4.125 9.732,0.5 13.116,0.5 13.116,4.121 "/> 		<circle oryx:anchors="top left" id="_664B9CC1-C97B-4274-875B-73A2F84F49A7frame21" style="opacity:1;fill:none" stroke="#000000" cx="11.427" cy="11.426" r="3.714"/> 		<polygon oryx:anchors="top left" id="_664B9CC1-C97B-4274-875B-73A2F84F49A7frame22" style="opacity:1;fill:#ffffff" stroke="#000000" points="21.392,11.064 23.954,8.502 26.347,10.895 23.786,13.455     24.729,15.732 28.353,15.732 28.353,19.115 24.731,19.115 23.788,21.392 26.351,23.955 23.958,26.347 21.397,23.786 19.12,24.729     19.12,28.353 15.737,28.353 15.737,24.731 13.46,23.788 10.897,26.35 8.506,23.958 11.066,21.397 10.124,19.12 6.5,19.12     6.5,15.737 10.121,15.737 11.065,13.461 8.503,10.898 10.895,8.506 13.455,11.066 15.732,10.125 15.732,6.5 19.116,6.5     19.116,10.121 "/> 		<circle oryx:anchors="top left" id="_664B9CC1-C97B-4274-875B-73A2F84F49A7frame23" style="opacity:1;fill:none;" stroke="#000000" cx="17.427" cy="17.426" r="3.714"/> 	</g> 	 	<g id="_664B9CC1-C97B-4274-875B-73A2F84F49A7sendTask" display="none"> 		<path id="_664B9CC1-C97B-4274-875B-73A2F84F49A7stframe24" oryx:anchors="left top" stroke="#FFFFFF" fill="black" stroke-width="1" d="M8,11 L8,21 L24,21 L24,11 L16,17z"/> 		<path id="_664B9CC1-C97B-4274-875B-73A2F84F49A7stframe25" oryx:anchors="left top" stroke="#FFFFFF" fill="black" stroke-width="1" d="M7,10 L16,17 L25 10z"/> 	</g> 	 	<g id="_664B9CC1-C97B-4274-875B-73A2F84F49A7receiveTask" display="none"> 		<path id="_664B9CC1-C97B-4274-875B-73A2F84F49A7frame26" oryx:anchors="left top" stroke="#000000" fill="none" stroke-width="1" d="M8,11 L8,21 L24,21 L24,11z M8,11 L16,17 L24,11"/> 	</g> 	 	<g id="_664B9CC1-C97B-4274-875B-73A2F84F49A7none" display="inherit"/>  	<g id="_664B9CC1-C97B-4274-875B-73A2F84F49A7sequential" display="none">         <path oryx:anchors="bottom" fill="none" stroke="#000000" stroke-width="2" d="M46,76h10M46,72h10 M46,68h10" id="_664B9CC1-C97B-4274-875B-73A2F84F49A7__664B9CC1-C97B-4274-875B-73A2F84F49A7_20"/>     </g>   </g></g><g class="children" style="overflow:hidden"/><g class="edge"/></g><g class="controls"><g class="dockers"/><g class="magnets" transform="translate(555, 404)"><g pointer-events="all" display="none" transform="translate(-7, 12)"><circle cx="8" cy="8" r="4" stroke="none" fill="red" fill-opacity="0.3"/></g><g pointer-events="all" display="none" transform="translate(-7, 32)"><circle cx="8" cy="8" r="4" stroke="none" fill="red" fill-opacity="0.3"/></g><g pointer-events="all" display="none" transform="translate(-7, 52)"><circle cx="8" cy="8" r="4" stroke="none" fill="red" fill-opacity="0.3"/></g><g pointer-events="all" display="none" transform="translate(17, 71)"><circle cx="8" cy="8" r="4" stroke="none" fill="red" fill-opacity="0.3"/></g><g pointer-events="all" display="none" transform="translate(42, 71)"><circle cx="8" cy="8" r="4" stroke="none" fill="red" fill-opacity="0.3"/></g><g pointer-events="all" display="none" transform="translate(67, 71)"><circle cx="8" cy="8" r="4" stroke="none" fill="red" fill-opacity="0.3"/></g><g pointer-events="all" display="none" transform="translate(91, 12)"><circle cx="8" cy="8" r="4" stroke="none" fill="red" fill-opacity="0.3"/></g><g pointer-events="all" display="none" transform="translate(91, 32)"><circle cx="8" cy="8" r="4" stroke="none" fill="red" fill-opacity="0.3"/></g><g pointer-events="all" display="none" transform="translate(91, 52)"><circle cx="8" cy="8" r="4" stroke="none" fill="red" fill-opacity="0.3"/></g><g pointer-events="all" display="none" transform="translate(17, -7)"><circle cx="8" cy="8" r="4" stroke="none" fill="red" fill-opacity="0.3"/></g><g pointer-events="all" display="none" transform="translate(42, -7)"><circle cx="8" cy="8" r="4" stroke="none" fill="red" fill-opacity="0.3"/></g><g pointer-events="all" display="none" transform="translate(67, -7)"><circle cx="8" cy="8" r="4" stroke="none" fill="red" fill-opacity="0.3"/></g><g pointer-events="all" display="none" transform="translate(42, 32)"><circle cx="8" cy="8" r="4" stroke="none" fill="red" fill-opacity="0.3"/></g></g></g></g><g id="_E539A589-C4EC-4531-8DAB-CB2523A9EF99" bpmn2nodeid="_6609AA7D-F295-4C10-B6AB-90116B2B9A49"><g class="stencils" transform="translate(137, 424)"><g class="me"><g id="_E539A589-C4EC-4531-8DAB-CB2523A9EF99">        <defs id="_E539A589-C4EC-4531-8DAB-CB2523A9EF99__E539A589-C4EC-4531-8DAB-CB2523A9EF99_4"> 		<radialGradient id="_E539A589-C4EC-4531-8DAB-CB2523A9EF99background" cx="10%" cy="10%" r="100%" fx="10%" fy="10%"> 			<stop offset="0%" stop-color="#ffffff" stop-opacity="1" id="_E539A589-C4EC-4531-8DAB-CB2523A9EF99__E539A589-C4EC-4531-8DAB-CB2523A9EF99_5"/> 			<stop id="_E539A589-C4EC-4531-8DAB-CB2523A9EF99fill_el" offset="100%" stop-color="#f0e68c" stop-opacity="1"/> 		</radialGradient> 		<radialGradient id="_E539A589-C4EC-4531-8DAB-CB2523A9EF99borderbackground" cx="10%" cy="10%" r="100%" fx="10%" fy="10%"> 			<stop offset="0%" stop-color="#ffffff" stop-opacity="1" id="_E539A589-C4EC-4531-8DAB-CB2523A9EF99__E539A589-C4EC-4531-8DAB-CB2523A9EF99_6"/> 			<stop id="_E539A589-C4EC-4531-8DAB-CB2523A9EF99fill_border" offset="100%" stop-color="#a67f00" stop-opacity="1" stroke="#a67f00"/> 		</radialGradient> 	</defs> 	     <path d=" M0 20.5  L20.5 0  L40 20.5  L20.5 40  z" id="_E539A589-C4EC-4531-8DAB-CB2523A9EF99bg_frame" fill="url(#_E539A589-C4EC-4531-8DAB-CB2523A9EF99background) white" style="stroke-width:1" stroke="#a67f00"/>     <g id="_E539A589-C4EC-4531-8DAB-CB2523A9EF99frame" stroke="#a67f00">       <path id="_E539A589-C4EC-4531-8DAB-CB2523A9EF99frame2" d=" M13.25 12.05  L17.25 12.05  L27.65 28.95  L23.75 28.95  z" style="stroke-width:1" stroke="#a67f00" fill="url(#_E539A589-C4EC-4531-8DAB-CB2523A9EF99borderbackground)"/>       <path id="_E539A589-C4EC-4531-8DAB-CB2523A9EF99frame3" d=" M13.25 28.95  L23.75 12.05  L27.65 12.05  L17.25 28.95  z" style="stroke-width:1" stroke="#a67f00" fill="url(#_E539A589-C4EC-4531-8DAB-CB2523A9EF99borderbackground)"/>     </g> 	 	<text id="_E539A589-C4EC-4531-8DAB-CB2523A9EF99text_name" x="30.5" y="30.5" oryx:align="left top" stroke-width="0pt" letter-spacing="-0.01px" fill="#000000" text-anchor="start" transform="rotate(0 30.5 30.5)" visibility="inherit" oryx:fontSize="12"/> 	   </g></g><g class="children" style="overflow:hidden"/><g class="edge"/></g><g class="controls"><g class="dockers"/><g class="magnets" transform="translate(137, 424)"><g pointer-events="all" display="none" transform="translate(12.5, 12.5)"><circle cx="8" cy="8" r="4" stroke="none" fill="red" fill-opacity="0.3"/></g></g></g></g><g id="_6F7D66C6-1C77-49D4-BEA2-5A90281DF5AE" bpmn2nodeid="_C19B1C3D-9B1E-4E39-BE9B-77B4355A7490"><g class="stencils" transform="translate(255, 404)"><g class="me"><g pointer-events="fill" oryx:minimumSize="50 40" id="_6F7D66C6-1C77-49D4-BEA2-5A90281DF5AE">   	<defs id="_6F7D66C6-1C77-49D4-BEA2-5A90281DF5AE__6F7D66C6-1C77-49D4-BEA2-5A90281DF5AE_17"> 		<radialGradient id="_6F7D66C6-1C77-49D4-BEA2-5A90281DF5AEbackground" cx="10%" cy="10%" r="100%" fx="10%" fy="10%"> 			<stop offset="0%" stop-color="#ffffff" stop-opacity="1" id="_6F7D66C6-1C77-49D4-BEA2-5A90281DF5AE__6F7D66C6-1C77-49D4-BEA2-5A90281DF5AE_18"/> 			<stop id="_6F7D66C6-1C77-49D4-BEA2-5A90281DF5AEfill_el" offset="100%" stop-color="#fafad2" stop-opacity="1"/> 		</radialGradient> 		<radialGradient id="_6F7D66C6-1C77-49D4-BEA2-5A90281DF5AEborderbackground" cx="10%" cy="10%" r="100%" fx="10%" fy="10%"> 			<stop offset="0%" stop-color="#ffffff" stop-opacity="1" id="_6F7D66C6-1C77-49D4-BEA2-5A90281DF5AE__6F7D66C6-1C77-49D4-BEA2-5A90281DF5AE_19"/> 			<stop id="_6F7D66C6-1C77-49D4-BEA2-5A90281DF5AEfill_border" offset="100%" stop-color="#000000" stop-opacity="1" stroke="#000000"/> 		</radialGradient> 	</defs> 	 	<rect id="_6F7D66C6-1C77-49D4-BEA2-5A90281DF5AEtext_frame" oryx:anchors="bottom top right left" x="1" y="1" width="94" height="79" rx="10" ry="10" stroke="none" stroke-width="0" fill="none"/> 	<rect id="_6F7D66C6-1C77-49D4-BEA2-5A90281DF5AEbg_frame" oryx:resize="vertical horizontal" x="0" y="0" width="100" height="80" rx="10" ry="10" stroke="#000000" stroke-width="1" fill="url(#_6F7D66C6-1C77-49D4-BEA2-5A90281DF5AEbackground) #ffffcc"/> 		<text font-size="12" id="_6F7D66C6-1C77-49D4-BEA2-5A90281DF5AEtext_name" x="50" y="40" oryx:align="middle center" oryx:fittoelem="text_frame" stroke="black" text-anchor="middle" stroke-width="0pt" letter-spacing="-0.01px" fill="#000000" transform="rotate(0 50 40)" visibility="inherit" oryx:fontSize="12"><tspan x="50" y="40" dy="-1" id="ext-gen618">Servicio </tspan><tspan x="50" y="40" dy="11">Anotaci?n</tspan></text>     <g id="_6F7D66C6-1C77-49D4-BEA2-5A90281DF5AEmanualTask" transform="scale(0.7,0.7) translate(8,8)" display="none">     	<path oryx:anchors="top left" id="_6F7D66C6-1C77-49D4-BEA2-5A90281DF5AEframe" style="opacity:1;fill:none;fill-opacity:1;stroke-width:1" d="M0.5,3.751l4.083-3.25c0,0,11.166,0.083,12.083,0.083s-2.417,2.917-1.5,2.917     s11.667,0,12.584,0c1.166,1.708-0.168,3.167-0.834,3.667s0.875,1.917-1,4.417c-0.75,0.25,0.75,1.875-1.333,3.333     c-1.167,0.583,0.583,1.542-1.25,2.833c-1.167,0-20.833,0.083-20.833,0.083l-2-1.333V3.751z" stroke="#000000"/> 		<path id="_6F7D66C6-1C77-49D4-BEA2-5A90281DF5AEframe2" oryx:anchors="top left" style="opacity:1;fill:none;stroke-width:2" d="M 13.5 7 L 27 7" stroke="#000000"/> 		<path id="_6F7D66C6-1C77-49D4-BEA2-5A90281DF5AEframe3" oryx:anchors="top left" style="opacity:1;fill:none;stroke-width:2" d="M 13.5 11 L 26 11" stroke="#000000"/> 		<path id="_6F7D66C6-1C77-49D4-BEA2-5A90281DF5AEframe4" oryx:anchors="top left" style="opacity:1;fill:none;stroke-width:1.5" d="M 14 14.5 L 25 14.5" stroke="#000000"/> 		<path id="_6F7D66C6-1C77-49D4-BEA2-5A90281DF5AEframe5" oryx:anchors="top left" style="opacity:1;fill:none;stroke-width:1.5" d="M 8.2 3.1 L 15 3.1" stroke="#000000"/> 	</g> 	 	<g id="_6F7D66C6-1C77-49D4-BEA2-5A90281DF5AEbusinessRuleTask" transform="scale(0.7,0.7) translate(8,8)" display="none"> 		<rect id="_6F7D66C6-1C77-49D4-BEA2-5A90281DF5AEframe6" oryx:anchors="top left" x="0" y="0" width="22" height="4" style="opacity:1;fill:#B3B1B3;fill-opacity:1;" stroke="#000000"/> 		<rect id="_6F7D66C6-1C77-49D4-BEA2-5A90281DF5AEframe7" oryx:anchors="top left" x="0" y="4" style="opacity:1;fill:none;" width="22" height="12" stroke="#000000"/> 		<path id="_6F7D66C6-1C77-49D4-BEA2-5A90281DF5AEframe8" oryx:anchors="top left" style="opacity:1;fill:none;" d="M 0 10 L 22 10" stroke="#000000"/> 		<path id="_6F7D66C6-1C77-49D4-BEA2-5A90281DF5AEframe9" oryx:anchors="top left" style="opacity:1; fill:none;" d="M 7 4 L 7 16" stroke="#000000"/> 	</g> 	 	<g id="_6F7D66C6-1C77-49D4-BEA2-5A90281DF5AEscriptTask" transform="scale(0.7,0.7) translate(8,8)" display="inherit"> 		<path oryx:anchors="top left" id="_6F7D66C6-1C77-49D4-BEA2-5A90281DF5AEframe10" style="opacity:1;fill:none;" stroke="#000000" d="M6.402,0.5h14.5c0,0-5.833,2.833-5.833,5.583s4.417,6,4.417,9.167    s-4.167,5.083-4.167,5.083H0.235c0,0,5-2.667,5-5s-4.583-6.75-4.583-9.25S6.402,0.5,6.402,0.5z"/> 		<path oryx:anchors="top left" id="_6F7D66C6-1C77-49D4-BEA2-5A90281DF5AEframe11" style="opacity:1;fill:none;stroke-width:1.5" d="M 3.5 4.5 L 13.5 4.5" stroke="#000000"/> 		<path oryx:anchors="top left" id="_6F7D66C6-1C77-49D4-BEA2-5A90281DF5AEframe12" style="opacity:1;fill:none;stroke-width:1.5" d="M 3.8 8.5 L 13.8 8.5" stroke="#000000"/> 		<path oryx:anchors="top left" id="_6F7D66C6-1C77-49D4-BEA2-5A90281DF5AEframe13" style="opacity:1;fill:none;stroke-width:1.5" d="M 6.3 12.5 L 16.3 12.5" stroke="#000000"/> 		<path oryx:anchors="top left" id="_6F7D66C6-1C77-49D4-BEA2-5A90281DF5AEframe14" style="opacity:1;fill:none;stroke-width:1.5" d="M 6.5 16.5 L 16.5 16.5" stroke="#000000"/> 	</g> 	 	<g id="_6F7D66C6-1C77-49D4-BEA2-5A90281DF5AEuserTask" transform="scale(0.7,0.7) translate(8,8)" display="none"> 		<path id="_6F7D66C6-1C77-49D4-BEA2-5A90281DF5AEframe15" oryx:anchors="top left" style="opacity:1;fill:#F4F6F7" stroke="#000000" d="M0.585,24.167h24.083v-7.833c0,0-2.333-3.917-7.083-5.167h-9.25    c-4.417,1.333-7.833,5.75-7.833,5.75L0.585,24.167z"/> 		<path id="_6F7D66C6-1C77-49D4-BEA2-5A90281DF5AEframe16" oryx:anchors="top left" style="opacity:1;fill:none" d="M 6 20 L 6 24" stroke="#000000"/> 		<path id="_6F7D66C6-1C77-49D4-BEA2-5A90281DF5AEframe17" oryx:anchors="top left" style="opacity:1;fill:none" d="M 20 20 L 20 24" stroke="#000000"/> 		<circle id="_6F7D66C6-1C77-49D4-BEA2-5A90281DF5AEframe18" oryx:anchors="top left" fill="black" cx="13.002" cy="5.916" r="5.417" stroke="#000000"/> 		<path id="_6F7D66C6-1C77-49D4-BEA2-5A90281DF5AEframe19" oryx:anchors="top left" style="opacity:1;fill:#F0EFF0;" stroke="#000000" d="M8.043,7.083c0,0,2.814-2.426,5.376-1.807s4.624-0.693,4.624-0.693    c0.25,1.688,0.042,3.75-1.458,5.584c0,0,1.083,0.75,1.083,1.5s0.125,1.875-1,3s-5.5,1.25-6.75,0S8.668,12.834,8.668,12    s0.583-1.25,1.25-1.917C8.835,9.5,7.419,7.708,8.043,7.083z"/> 	</g> 	 	<g id="_6F7D66C6-1C77-49D4-BEA2-5A90281DF5AEserviceTask" transform="scale(0.7,0.7) translate(8,8)" display="none"> 		<polygon oryx:anchors="top left" id="_6F7D66C6-1C77-49D4-BEA2-5A90281DF5AEframe20" style="opacity:1;fill:#ffffff" stroke="#000000" points="15.392,5.064 17.954,2.502 20.347,4.895 17.786,7.455     18.729,9.732 22.353,9.732 22.353,13.115 18.731,13.115 17.788,15.392 20.351,17.955 17.958,20.347 15.397,17.786 13.12,18.729     13.12,22.353 9.737,22.353 9.737,18.731 7.46,17.788 4.897,20.35 2.506,17.958 5.066,15.397 4.124,13.12 0.5,13.12 0.5,9.737     4.121,9.737 5.065,7.461 2.503,4.898 4.895,2.506 7.455,5.066 9.732,4.125 9.732,0.5 13.116,0.5 13.116,4.121 "/> 		<circle oryx:anchors="top left" id="_6F7D66C6-1C77-49D4-BEA2-5A90281DF5AEframe21" style="opacity:1;fill:none" stroke="#000000" cx="11.427" cy="11.426" r="3.714"/> 		<polygon oryx:anchors="top left" id="_6F7D66C6-1C77-49D4-BEA2-5A90281DF5AEframe22" style="opacity:1;fill:#ffffff" stroke="#000000" points="21.392,11.064 23.954,8.502 26.347,10.895 23.786,13.455     24.729,15.732 28.353,15.732 28.353,19.115 24.731,19.115 23.788,21.392 26.351,23.955 23.958,26.347 21.397,23.786 19.12,24.729     19.12,28.353 15.737,28.353 15.737,24.731 13.46,23.788 10.897,26.35 8.506,23.958 11.066,21.397 10.124,19.12 6.5,19.12     6.5,15.737 10.121,15.737 11.065,13.461 8.503,10.898 10.895,8.506 13.455,11.066 15.732,10.125 15.732,6.5 19.116,6.5     19.116,10.121 "/> 		<circle oryx:anchors="top left" id="_6F7D66C6-1C77-49D4-BEA2-5A90281DF5AEframe23" style="opacity:1;fill:none;" stroke="#000000" cx="17.427" cy="17.426" r="3.714"/> 	</g> 	 	<g id="_6F7D66C6-1C77-49D4-BEA2-5A90281DF5AEsendTask" display="none"> 		<path id="_6F7D66C6-1C77-49D4-BEA2-5A90281DF5AEstframe24" oryx:anchors="left top" stroke="#FFFFFF" fill="black" stroke-width="1" d="M8,11 L8,21 L24,21 L24,11 L16,17z"/> 		<path id="_6F7D66C6-1C77-49D4-BEA2-5A90281DF5AEstframe25" oryx:anchors="left top" stroke="#FFFFFF" fill="black" stroke-width="1" d="M7,10 L16,17 L25 10z"/> 	</g> 	 	<g id="_6F7D66C6-1C77-49D4-BEA2-5A90281DF5AEreceiveTask" display="none"> 		<path id="_6F7D66C6-1C77-49D4-BEA2-5A90281DF5AEframe26" oryx:anchors="left top" stroke="#000000" fill="none" stroke-width="1" d="M8,11 L8,21 L24,21 L24,11z M8,11 L16,17 L24,11"/> 	</g> 	 	<g id="_6F7D66C6-1C77-49D4-BEA2-5A90281DF5AEnone" display="inherit"/>  	<g id="_6F7D66C6-1C77-49D4-BEA2-5A90281DF5AEsequential" display="none">         <path oryx:anchors="bottom" fill="none" stroke="#000000" stroke-width="2" d="M46,76h10M46,72h10 M46,68h10" id="_6F7D66C6-1C77-49D4-BEA2-5A90281DF5AE__6F7D66C6-1C77-49D4-BEA2-5A90281DF5AE_20"/>     </g>   </g></g><g class="children" style="overflow:hidden"/><g class="edge"/></g><g class="controls"><g class="dockers"/><g class="magnets" transform="translate(255, 404)"><g pointer-events="all" display="none" transform="translate(-7, 12)"><circle cx="8" cy="8" r="4" stroke="none" fill="red" fill-opacity="0.3"/></g><g pointer-events="all" display="none" transform="translate(-7, 32)"><circle cx="8" cy="8" r="4" stroke="none" fill="red" fill-opacity="0.3"/></g><g pointer-events="all" display="none" transform="translate(-7, 52)"><circle cx="8" cy="8" r="4" stroke="none" fill="red" fill-opacity="0.3"/></g><g pointer-events="all" display="none" transform="translate(17, 71)"><circle cx="8" cy="8" r="4" stroke="none" fill="red" fill-opacity="0.3"/></g><g pointer-events="all" display="none" transform="translate(42, 71)"><circle cx="8" cy="8" r="4" stroke="none" fill="red" fill-opacity="0.3"/></g><g pointer-events="all" display="none" transform="translate(67, 71)"><circle cx="8" cy="8" r="4" stroke="none" fill="red" fill-opacity="0.3"/></g><g pointer-events="all" display="none" transform="translate(91, 12)"><circle cx="8" cy="8" r="4" stroke="none" fill="red" fill-opacity="0.3"/></g><g pointer-events="all" display="none" transform="translate(91, 32)"><circle cx="8" cy="8" r="4" stroke="none" fill="red" fill-opacity="0.3"/></g><g pointer-events="all" display="none" transform="translate(91, 52)"><circle cx="8" cy="8" r="4" stroke="none" fill="red" fill-opacity="0.3"/></g><g pointer-events="all" display="none" transform="translate(17, -7)"><circle cx="8" cy="8" r="4" stroke="none" fill="red" fill-opacity="0.3"/></g><g pointer-events="all" display="none" transform="translate(42, -7)"><circle cx="8" cy="8" r="4" stroke="none" fill="red" fill-opacity="0.3"/></g><g pointer-events="all" display="none" transform="translate(67, -7)"><circle cx="8" cy="8" r="4" stroke="none" fill="red" fill-opacity="0.3"/></g><g pointer-events="all" display="none" transform="translate(42, 32)"><circle cx="8" cy="8" r="4" stroke="none" fill="red" fill-opacity="0.3"/></g></g></g></g><g id="_DFC615CD-41D3-4E9C-939A-56A6382F8CEB" bpmn2nodeid="_93756A25-1A06-424D-9E88-51075A5BD9AB"><g class="stencils" transform="translate(30, 429)"><g class="me"><g pointer-events="fill" id="_DFC615CD-41D3-4E9C-939A-56A6382F8CEB">      <defs id="_DFC615CD-41D3-4E9C-939A-56A6382F8CEB__DFC615CD-41D3-4E9C-939A-56A6382F8CEB_5"> 		<radialGradient id="_DFC615CD-41D3-4E9C-939A-56A6382F8CEBbackground" cx="10%" cy="10%" r="100%" fx="10%" fy="10%"> 			<stop offset="0%" stop-color="#ffffff" stop-opacity="1" id="_DFC615CD-41D3-4E9C-939A-56A6382F8CEB__DFC615CD-41D3-4E9C-939A-56A6382F8CEB_6"/> 			<stop id="_DFC615CD-41D3-4E9C-939A-56A6382F8CEBfill_el" offset="100%" stop-color="#9acd32" stop-opacity="1"/> 		</radialGradient> 	</defs> 	     <circle id="_DFC615CD-41D3-4E9C-939A-56A6382F8CEBbg_frame" cx="15" cy="15" r="15" stroke="#000000" fill="url(#_DFC615CD-41D3-4E9C-939A-56A6382F8CEBbackground) white" stroke-width="1" style="stroke-dasharray: 5.5, 3"/>      <circle id="_DFC615CD-41D3-4E9C-939A-56A6382F8CEBframe" cx="15" cy="15" r="15" stroke="#000000" fill="none" stroke-width="1" display="inherit"/>      <path id="_DFC615CD-41D3-4E9C-939A-56A6382F8CEBbody" d=" M7.7124971 20.247342  L22.333334 20.247342  L15.022915000000001 7.575951200000001  L7.7124971 20.247342  z" stroke="black" style="fill:none;stroke-width:1.4;stroke-miterlimit:4;stroke-dasharray:none"/> 	<text font-size="11" id="_DFC615CD-41D3-4E9C-939A-56A6382F8CEBtext_name" x="15" y="32" oryx:align="top center" stroke="black" stroke-width="0pt" letter-spacing="-0.01px" fill="#000000" text-anchor="middle" transform="rotate(0 15 32)" visibility="inherit" oryx:fontSize="11"/>   </g></g><g class="children" style="overflow:hidden"/><g class="edge"/></g><g class="controls"><g class="dockers"/><g class="magnets" transform="translate(30, 429)"><g pointer-events="all" display="none" transform="translate(7, 7)"><circle cx="8" cy="8" r="4" stroke="none" fill="red" fill-opacity="0.3"/></g></g></g></g><g id="_73B78A62-5144-4A86-9C38-28BFDADA6C9D" bpmn2nodeid="_B37AA522-3120-4232-AC91-3EF9A14E01D4"><g class="stencils" transform="translate(945, 404)"><g class="me"><g pointer-events="fill" oryx:minimumSize="80 60" id="_73B78A62-5144-4A86-9C38-28BFDADA6C9D">   	<defs id="_73B78A62-5144-4A86-9C38-28BFDADA6C9D__73B78A62-5144-4A86-9C38-28BFDADA6C9D_17"> 		<radialGradient id="_73B78A62-5144-4A86-9C38-28BFDADA6C9Dbackground" cx="10%" cy="10%" r="100%" fx="10%" fy="10%"> 			<stop offset="0%" stop-color="#ffffff" stop-opacity="1" id="_73B78A62-5144-4A86-9C38-28BFDADA6C9D__73B78A62-5144-4A86-9C38-28BFDADA6C9D_18"/> 			<stop id="_73B78A62-5144-4A86-9C38-28BFDADA6C9Dfill_el" offset="100%" stop-color="#fafad2" stop-opacity="1"/> 		</radialGradient> 	</defs> 	<rect id="_73B78A62-5144-4A86-9C38-28BFDADA6C9Dtext_frame" oryx:anchors="bottom top right left" x="1" y="1" width="94" height="79" rx="10" ry="10" stroke="none" stroke-width="0" fill="none"/> 	<rect id="_73B78A62-5144-4A86-9C38-28BFDADA6C9Dbg_frame" oryx:anchors="bottom top right left" x="0" y="0" width="100" height="80" rx="10" ry="10" stroke="#000000" stroke-width="1" fill="url(#_73B78A62-5144-4A86-9C38-28BFDADA6C9Dbackground) #ffffcc"/> 	<rect id="_73B78A62-5144-4A86-9C38-28BFDADA6C9Dframe" oryx:resize="vertical horizontal" oryx:anchors="bottom top right left" x="0" y="0" width="100" height="80" rx="10" ry="10" stroke="#000000" stroke-width="4" fill="none"/> 	<rect id="_73B78A62-5144-4A86-9C38-28BFDADA6C9Dframe2" oryx:anchors="top bottom left right" oryx:resize="vertical horizontal" x="2.5" y="2.5" width="95" height="75" rx="8" ry="8" stroke="#000000" stroke-width="1" fill="none"/>     	<text font-size="12" id="_73B78A62-5144-4A86-9C38-28BFDADA6C9Dtext_name" x="50" y="40" oryx:align="middle center" oryx:fittoelem="text_frame" stroke="black" stroke-width="0pt" letter-spacing="-0.01px" fill="#000000" text-anchor="middle" transform="rotate(0 50 40)" visibility="inherit" oryx:fontSize="12"><tspan x="50" y="40" dy="-1">Subproceso </tspan><tspan x="50" y="40" dy="11">Tarjetas</tspan></text>          <a id="_73B78A62-5144-4A86-9C38-28BFDADA6C9Dpimg" onclick="parent.designeropenintab(&quot;SubprocesoTarjeta.bpmn2&quot;,&quot;default://master@MySpace/Opplus/src/main/resources/es/dxd/opplus/tarjetas/SubprocesoTarjeta.bpmn2&quot;);" xlink:href="">	 	<g id="_73B78A62-5144-4A86-9C38-28BFDADA6C9Db" oryx:anchors="bottom"> 		<rect id="_73B78A62-5144-4A86-9C38-28BFDADA6C9Dframe3" oryx:anchors="bottom" x="44" y="66" width="14" height="14" fill="none" stroke="#000000" stroke-width="1"/> 		<path id="_73B78A62-5144-4A86-9C38-28BFDADA6C9Dframe4" oryx:anchors="bottom" fill="none" stroke="#000000" d="M51 68 v10 M 46 73 h10" stroke-width="1"/> 	</g> 	</a> 	<g id="_73B78A62-5144-4A86-9C38-28BFDADA6C9Dnone"/> 	undefined 	  	undefined 	undefined 	 	 	undefined 	undefined   </g></g><g class="children" style="overflow:hidden"/><g class="edge"/></g><g class="controls"><g class="dockers"/><g class="magnets" transform="translate(945, 404)"><g pointer-events="all" display="none" transform="translate(-7, 12)"><circle cx="8" cy="8" r="4" stroke="none" fill="red" fill-opacity="0.3"/></g><g pointer-events="all" display="none" transform="translate(-7, 32)"><circle cx="8" cy="8" r="4" stroke="none" fill="red" fill-opacity="0.3"/></g><g pointer-events="all" display="none" transform="translate(-7, 52)"><circle cx="8" cy="8" r="4" stroke="none" fill="red" fill-opacity="0.3"/></g><g pointer-events="all" display="none" transform="translate(17, 71)"><circle cx="8" cy="8" r="4" stroke="none" fill="red" fill-opacity="0.3"/></g><g pointer-events="all" display="none" transform="translate(42, 71)"><circle cx="8" cy="8" r="4" stroke="none" fill="red" fill-opacity="0.3"/></g><g pointer-events="all" display="none" transform="translate(67, 71)"><circle cx="8" cy="8" r="4" stroke="none" fill="red" fill-opacity="0.3"/></g><g pointer-events="all" display="none" transform="translate(91, 12)"><circle cx="8" cy="8" r="4" stroke="none" fill="red" fill-opacity="0.3"/></g><g pointer-events="all" display="none" transform="translate(91, 32)"><circle cx="8" cy="8" r="4" stroke="none" fill="red" fill-opacity="0.3"/></g><g pointer-events="all" display="none" transform="translate(91, 52)"><circle cx="8" cy="8" r="4" stroke="none" fill="red" fill-opacity="0.3"/></g><g pointer-events="all" display="none" transform="translate(17, -7)"><circle cx="8" cy="8" r="4" stroke="none" fill="red" fill-opacity="0.3"/></g><g pointer-events="all" display="none" transform="translate(42, -7)"><circle cx="8" cy="8" r="4" stroke="none" fill="red" fill-opacity="0.3"/></g><g pointer-events="all" display="none" transform="translate(67, -7)"><circle cx="8" cy="8" r="4" stroke="none" fill="red" fill-opacity="0.3"/></g><g pointer-events="all" display="none" transform="translate(42, 32)"><circle cx="8" cy="8" r="4" stroke="none" fill="red" fill-opacity="0.3"/></g></g></g></g><g id="_9BEB36BA-E82C-4096-BB7C-4D230CE762DA" bpmn2nodeid="_59786CD1-9722-437B-96BE-2681094C1F7A"><g class="stencils" transform="translate(1095, 424)"><g class="me"><g id="_9BEB36BA-E82C-4096-BB7C-4D230CE762DA">        <defs id="_9BEB36BA-E82C-4096-BB7C-4D230CE762DA__9BEB36BA-E82C-4096-BB7C-4D230CE762DA_4"> 		<radialGradient id="_9BEB36BA-E82C-4096-BB7C-4D230CE762DAbackground" cx="10%" cy="10%" r="100%" fx="10%" fy="10%"> 			<stop offset="0%" stop-color="#ffffff" stop-opacity="1" id="_9BEB36BA-E82C-4096-BB7C-4D230CE762DA__9BEB36BA-E82C-4096-BB7C-4D230CE762DA_5"/> 			<stop id="_9BEB36BA-E82C-4096-BB7C-4D230CE762DAfill_el" offset="100%" stop-color="#f0e68c" stop-opacity="1"/> 		</radialGradient> 		<radialGradient id="_9BEB36BA-E82C-4096-BB7C-4D230CE762DAborderbackground" cx="10%" cy="10%" r="100%" fx="10%" fy="10%"> 			<stop offset="0%" stop-color="#ffffff" stop-opacity="1" id="_9BEB36BA-E82C-4096-BB7C-4D230CE762DA__9BEB36BA-E82C-4096-BB7C-4D230CE762DA_6"/> 			<stop id="_9BEB36BA-E82C-4096-BB7C-4D230CE762DAfill_border" offset="100%" stop-color="#a67f00" stop-opacity="1" stroke="#a67f00"/> 		</radialGradient> 	</defs> 	     <path d=" M0 20.5  L20.5 0  L40 20.5  L20.5 40  z" id="_9BEB36BA-E82C-4096-BB7C-4D230CE762DAbg_frame" fill="url(#_9BEB36BA-E82C-4096-BB7C-4D230CE762DAbackground) white" style="stroke-width:1" stroke="#a67f00"/>     <g id="_9BEB36BA-E82C-4096-BB7C-4D230CE762DAframe" stroke="#a67f00">       <path id="_9BEB36BA-E82C-4096-BB7C-4D230CE762DAframe2" d=" M13.25 12.05  L17.25 12.05  L27.65 28.95  L23.75 28.95  z" style="stroke-width:1" stroke="#a67f00" fill="url(#_9BEB36BA-E82C-4096-BB7C-4D230CE762DAborderbackground)"/>       <path id="_9BEB36BA-E82C-4096-BB7C-4D230CE762DAframe3" d=" M13.25 28.95  L23.75 12.05  L27.65 12.05  L17.25 28.95  z" style="stroke-width:1" stroke="#a67f00" fill="url(#_9BEB36BA-E82C-4096-BB7C-4D230CE762DAborderbackground)"/>     </g> 	 	<text id="_9BEB36BA-E82C-4096-BB7C-4D230CE762DAtext_name" x="30.5" y="30.5" oryx:align="left top" stroke-width="0pt" letter-spacing="-0.01px" fill="#000000" text-anchor="start" transform="rotate(0 30.5 30.5)" visibility="inherit" oryx:fontSize="12"/> 	   </g></g><g class="children" style="overflow:hidden"/><g class="edge"/></g><g class="controls"><g class="dockers"/><g class="magnets" transform="translate(1095, 424)"><g pointer-events="all" display="none" transform="translate(12.5, 12.5)"><circle cx="8" cy="8" r="4" stroke="none" fill="red" fill-opacity="0.3"/></g></g></g></g><g id="_53EBB8A8-4A3F-401D-BD0B-63F9DA0905A9" bpmn2nodeid="_732CD082-EC09-42A3-9C92-75960C07BE76"><g class="stencils" transform="translate(1200, 430)"><g class="me"><g pointer-events="fill" id="_53EBB8A8-4A3F-401D-BD0B-63F9DA0905A9">      <defs id="_53EBB8A8-4A3F-401D-BD0B-63F9DA0905A9__53EBB8A8-4A3F-401D-BD0B-63F9DA0905A9_5"> 		<radialGradient id="_53EBB8A8-4A3F-401D-BD0B-63F9DA0905A9background" cx="10%" cy="10%" r="100%" fx="10%" fy="10%"> 			<stop offset="0%" stop-color="#ffffff" stop-opacity="1" id="_53EBB8A8-4A3F-401D-BD0B-63F9DA0905A9__53EBB8A8-4A3F-401D-BD0B-63F9DA0905A9_6"/> 			<stop id="_53EBB8A8-4A3F-401D-BD0B-63F9DA0905A9fill_el" offset="100%" stop-color="#ff6347" stop-opacity="1"/> 		</radialGradient> 	</defs> 	     <circle id="_53EBB8A8-4A3F-401D-BD0B-63F9DA0905A9bg_frame" cx="14" cy="14" r="14" stroke="#000000" fill="url(#_53EBB8A8-4A3F-401D-BD0B-63F9DA0905A9background) white" stroke-width="3"/> 	<text font-size="11" id="_53EBB8A8-4A3F-401D-BD0B-63F9DA0905A9text_name" x="14" y="30" oryx:align="top center" stroke="black" stroke-width="0pt" letter-spacing="-0.01px" fill="#000000" text-anchor="middle" transform="rotate(0 14 30)" visibility="inherit" oryx:fontSize="11"/>   </g></g><g class="children" style="overflow:hidden"/><g class="edge"/></g><g class="controls"><g class="dockers"/><g class="magnets" transform="translate(1200, 430)"><g pointer-events="all" display="none" transform="translate(6, 6)"><circle cx="8" cy="8" r="4" stroke="none" fill="red" fill-opacity="0.3"/></g></g></g></g></g><g class="edge"><g id="_47DB9707-D350-43AA-A6AD-94E6B13ECC00" bpmn2nodeid="_A7902D16-9CD1-4D1A-BCF6-BA3567450B94"><g class="stencils"><g class="me"><g pointer-events="painted" bpmn2nodeid="_80720F24-B398-4BF1-A613-A2F51CD12D74"><path id="_47DB9707-D350-43AA-A6AD-94E6B13ECC00_1" d="M355.21875 444L554.78125 444 " stroke="#000000" fill="none" stroke-width="2" stroke-linecap="round" stroke-linejoin="round" marker-start="url(#_47DB9707-D350-43AA-A6AD-94E6B13ECC00start)" marker-end="url(#_47DB9707-D350-43AA-A6AD-94E6B13ECC00end)"/></g><text id="_47DB9707-D350-43AA-A6AD-94E6B13ECC00text_name" font-size="12" x="369.21875" y="430" oryx:edgePosition="startTop" stroke-width="0pt" letter-spacing="-0.01px" fill="#000000" text-anchor="start" transform="rotate(360 355.21875 444)" visibility="inherit" oryx:fontSize="12"/></g><g class="children" style="overflow:hidden"/><g class="edge"/></g><g class="controls"><g class="dockers"/><g class="magnets"/></g></g><g id="_06282F08-D637-46C7-ACFA-399CBB431B11" bpmn2nodeid="_8A5187E9-B0B8-456A-88B6-1B780E070D3F"><g class="stencils"><g class="me"><g pointer-events="painted" bpmn2nodeid="_38B7B180-59AC-439C-BD93-597224309411"><path id="_06282F08-D637-46C7-ACFA-399CBB431B11_1" d="M177.078125 444L254.28125 444 " stroke="#000000" fill="none" stroke-width="2" stroke-linecap="round" stroke-linejoin="round" marker-start="url(#_06282F08-D637-46C7-ACFA-399CBB431B11start)" marker-end="url(#_06282F08-D637-46C7-ACFA-399CBB431B11end)"/></g><text id="_06282F08-D637-46C7-ACFA-399CBB431B11text_name" font-size="12" x="191.078125" y="430" oryx:edgePosition="startTop" stroke-width="0pt" letter-spacing="-0.01px" fill="#000000" text-anchor="start" transform="rotate(360 177.078125 444)" visibility="inherit" oryx:fontSize="12"/></g><g class="children" style="overflow:hidden"/><g class="edge"/></g><g class="controls"><g class="dockers"/><g class="magnets"/></g></g><g id="_60B041EB-098A-480C-AE6F-F4827724FFC1" bpmn2nodeid="_7E9880C2-31AF-4AA9-BBE9-8F15AD79498D"><g class="stencils"><g class="me"><g pointer-events="painted" bpmn2nodeid="_BED69FAB-DFE3-4958-80EE-EFC6BED46D19"><path id="_60B041EB-098A-480C-AE6F-F4827724FFC1_1" d="M60 444L136.75 444 " stroke="#000000" fill="none" stroke-width="2" stroke-linecap="round" stroke-linejoin="round" marker-start="url(#_60B041EB-098A-480C-AE6F-F4827724FFC1start)" marker-end="url(#_60B041EB-098A-480C-AE6F-F4827724FFC1end)"/></g><text id="_60B041EB-098A-480C-AE6F-F4827724FFC1text_name" font-size="12" x="74" y="430" oryx:edgePosition="startTop" stroke-width="0pt" letter-spacing="-0.01px" fill="#000000" text-anchor="start" transform="rotate(360 60 444)" visibility="inherit" oryx:fontSize="12"/></g><g class="children" style="overflow:hidden"/><g class="edge"/></g><g class="controls"><g class="dockers"/><g class="magnets"/></g></g><g id="_AD22BBE9-AB7F-48E3-B773-73CCFC6A9B93" bpmn2nodeid="_8D61B8C7-FDFD-4CFA-8008-7203C3ECE66A"><g class="stencils"><g class="me"><g pointer-events="painted" bpmn2nodeid="_58BE2BC7-9359-450C-9456-EFA6059EEFCD"><path id="_AD22BBE9-AB7F-48E3-B773-73CCFC6A9B93_1" d="M1045.6875 444L1095.25 444 " stroke="#000000" fill="none" stroke-width="2" stroke-linecap="round" stroke-linejoin="round" marker-start="url(#_AD22BBE9-AB7F-48E3-B773-73CCFC6A9B93start)" marker-end="url(#_AD22BBE9-AB7F-48E3-B773-73CCFC6A9B93end)"/></g><text id="_AD22BBE9-AB7F-48E3-B773-73CCFC6A9B93text_name" font-size="12" x="1059.6875" y="430" oryx:edgePosition="startTop" stroke-width="0pt" letter-spacing="-0.01px" fill="#000000" text-anchor="start" transform="rotate(360 1045.6875 444)" visibility="inherit" oryx:fontSize="12"/></g><g class="children" style="overflow:hidden"/><g class="edge"/></g><g class="controls"><g class="dockers"/><g class="magnets"/></g></g><g id="_5D7AAC03-5D73-4DBA-A463-8692D6C45BA4" bpmn2nodeid="_39DB83AF-12B6-4062-8338-42927BBA975D"><g class="stencils"><g class="me"><g pointer-events="painted" bpmn2nodeid="_78218191-E505-495E-BC78-C43845A6ECF7"><path id="_5D7AAC03-5D73-4DBA-A463-8692D6C45BA4_1" d="M1134.5625 444L1199.078125 444 " stroke="#000000" fill="none" stroke-width="2" stroke-linecap="round" stroke-linejoin="round" marker-start="url(#_5D7AAC03-5D73-4DBA-A463-8692D6C45BA4start)" marker-end="url(#_5D7AAC03-5D73-4DBA-A463-8692D6C45BA4end)"/></g><text id="_5D7AAC03-5D73-4DBA-A463-8692D6C45BA4text_name" font-size="12" x="1148.5625" y="430" oryx:edgePosition="startTop" stroke-width="0pt" letter-spacing="-0.01px" fill="#000000" text-anchor="start" transform="rotate(360 1134.5625 444)" visibility="inherit" oryx:fontSize="12"/></g><g class="children" style="overflow:hidden"/><g class="edge"/></g><g class="controls"><g class="dockers"/><g class="magnets"/></g></g><g id="_B29C2D57-68D6-4ECD-AD74-B688847FE2A4" bpmn2nodeid="_7AF40A52-B95C-4EFE-A174-3A529100809C"><g class="stencils"><g class="me"><g pointer-events="painted" bpmn2nodeid="_D3983D4D-78EB-49EC-9A6B-88106DCA721B"><path id="_B29C2D57-68D6-4ECD-AD74-B688847FE2A4_1" d="M1115 424.484375L1115 286 L157 286 L157 424.484375 " stroke="#000000" fill="none" stroke-width="2" stroke-linecap="round" stroke-linejoin="round" marker-start="url(#_B29C2D57-68D6-4ECD-AD74-B688847FE2A4start)" marker-end="url(#_B29C2D57-68D6-4ECD-AD74-B688847FE2A4end)"/></g><text id="_B29C2D57-68D6-4ECD-AD74-B688847FE2A4text_name" font-size="12" x="1129" y="410.484375" oryx:edgePosition="startTop" stroke-width="0pt" letter-spacing="-0.01px" fill="#000000" text-anchor="start" transform="rotate(270 1115 424.484375)" visibility="inherit" oryx:fontSize="12"/></g><g class="children" style="overflow:hidden"/><g class="edge"/></g><g class="controls"><g class="dockers"/><g class="magnets"/></g></g><g id="_76BFAB91-AB00-4894-ADD4-98A3713B2CDB" bpmn2nodeid="_03A5FDF3-9E33-4A3D-85F3-E4167573E9E8"><g class="stencils"><g class="me"><g pointer-events="painted" bpmn2nodeid="_F1CD98BD-D704-4196-B688-88188C751661"><path id="_76BFAB91-AB00-4894-ADD4-98A3713B2CDB_1" d="M655.51171875 444L944.48828125 444 " stroke="#000000" fill="none" stroke-width="2" stroke-linecap="round" stroke-linejoin="round" marker-start="url(#_76BFAB91-AB00-4894-ADD4-98A3713B2CDBstart)" marker-end="url(#_76BFAB91-AB00-4894-ADD4-98A3713B2CDBend)"/></g><text id="_76BFAB91-AB00-4894-ADD4-98A3713B2CDBtext_name" font-size="12" x="669.51171875" y="430" oryx:edgePosition="startTop" stroke-width="0pt" letter-spacing="-0.01px" fill="#000000" text-anchor="start" transform="rotate(360 655.51171875 444)" visibility="inherit" oryx:fontSize="12"/></g><g class="children" style="overflow:hidden"/><g class="edge"/></g><g class="controls"><g class="dockers"/><g class="magnets"/></g></g></g><text id="_7A4CB376-FC7A-47B6-9ADB-512C1C1B5A81" style="stroke-width:1;fill:rgb(177,194,214);font-family:arial;font-weight:bold" font-size="12" onclick="ORYX.Plugins.CanvasTitle.openTextualAnalysis()" onmouseover="ORYX.Plugins.CanvasTitle.addToolTip('_7A4CB376-FC7A-47B6-9ADB-512C1C1B5A81')" transform="translate(10, 20)">Tarjetas v.1.0 (Opplus.Tarjetas)</text></g></g></svg>