<svg xmlns="http://www.w3.org/2000/svg" xmlns:oryx="http://oryx-editor.org" id="_A9B3BD1B-4270-4724-80F8-A806190D13E7" width="773" height="265" xmlns:xlink="http://www.w3.org/1999/xlink" xmlns:svg="http://www.w3.org/2000/svg"><defs><marker id="_825F948B-5332-4A2D-B612-2AF0B7147D23start" refX="1" refY="5" markerUnits="userSpaceOnUse" markerWidth="17" markerHeight="11" orient="auto" fill="#000000" stroke="#000000"> 	  		<path id="_825F948B-5332-4A2D-B612-2AF0B7147D23conditional" d="M 0 5 L 8 0 L 16 5 L 8 10 L 0 5" fill="white" stroke="#000000" stroke-width="1" display="none"/> 			<path id="_825F948B-5332-4A2D-B612-2AF0B7147D23default" d="M 5 0 L 11 10" fill="white" stroke="#000000" stroke-width="1" display="none"/> 	  	</marker><marker id="_825F948B-5332-4A2D-B612-2AF0B7147D23end" refX="15" refY="6" markerUnits="userSpaceOnUse" markerWidth="15" markerHeight="12" orient="auto" fill="#000000" stroke="#000000"> 	  		<path id="_825F948B-5332-4A2D-B612-2AF0B7147D23frame2" d="M 0 1 L 15 6 L 0 11z" fill="#000000" stroke="#000000" stroke-linejoin="round" stroke-width="2"/> 	  	</marker><marker id="_FA0EA4A5-A8AF-445D-A12A-1AECE63419F9start" refX="1" refY="5" markerUnits="userSpaceOnUse" markerWidth="17" markerHeight="11" orient="auto" fill="#000000" stroke="#000000"> 	  		<path id="_FA0EA4A5-A8AF-445D-A12A-1AECE63419F9conditional" d="M 0 5 L 8 0 L 16 5 L 8 10 L 0 5" fill="white" stroke="#000000" stroke-width="1" display="none"/> 			<path id="_FA0EA4A5-A8AF-445D-A12A-1AECE63419F9default" d="M 5 0 L 11 10" fill="white" stroke="#000000" stroke-width="1" display="none"/> 	  	</marker><marker id="_FA0EA4A5-A8AF-445D-A12A-1AECE63419F9end" refX="15" refY="6" markerUnits="userSpaceOnUse" markerWidth="15" markerHeight="12" orient="auto" fill="#000000" stroke="#000000"> 	  		<path id="_FA0EA4A5-A8AF-445D-A12A-1AECE63419F9frame2" d="M 0 1 L 15 6 L 0 11z" fill="#000000" stroke="#000000" stroke-linejoin="round" stroke-width="2"/> 	  	</marker><marker id="_07327484-AAA9-4F9D-8AB8-948BBAB2FA7Dstart" refX="1" refY="5" markerUnits="userSpaceOnUse" markerWidth="17" markerHeight="11" orient="auto" fill="#000000" stroke="#000000"> 	  		<path id="_07327484-AAA9-4F9D-8AB8-948BBAB2FA7Dconditional" d="M 0 5 L 8 0 L 16 5 L 8 10 L 0 5" fill="white" stroke="#000000" stroke-width="1" display="none"/> 			<path id="_07327484-AAA9-4F9D-8AB8-948BBAB2FA7Ddefault" d="M 5 0 L 11 10" fill="white" stroke="#000000" stroke-width="1" display="none"/> 	  	</marker><marker id="_07327484-AAA9-4F9D-8AB8-948BBAB2FA7Dend" refX="15" refY="6" markerUnits="userSpaceOnUse" markerWidth="15" markerHeight="12" orient="auto" fill="#000000" stroke="#000000"> 	  		<path id="_07327484-AAA9-4F9D-8AB8-948BBAB2FA7Dframe2" d="M 0 1 L 15 6 L 0 11z" fill="#000000" stroke="#000000" stroke-linejoin="round" stroke-width="2"/> 	  	</marker></defs><g stroke="none" font-family="Verdana, sans-serif" font-size-adjust="none" font-style="normal" font-variant="normal" font-weight="normal" line-heigth="normal" font-size="12"><g class="stencils" transform="translate(15, 16)"><g class="me"/><g class="children"><g id="_7A163278-2EC5-4A38-8725-B40587077F2B" bpmn2nodeid="processStartEvent"><g class="stencils" transform="translate(120, 165)"><g class="me"><g pointer-events="fill" id="_7A163278-2EC5-4A38-8725-B40587077F2B">        <defs id="_7A163278-2EC5-4A38-8725-B40587077F2B__7A163278-2EC5-4A38-8725-B40587077F2B_5"> 		<radialGradient id="_7A163278-2EC5-4A38-8725-B40587077F2Bbackground" cx="10%" cy="10%" r="100%" fx="10%" fy="10%"> 			<stop offset="0%" stop-color="#ffffff" stop-opacity="1" id="_7A163278-2EC5-4A38-8725-B40587077F2B__7A163278-2EC5-4A38-8725-B40587077F2B_6"/> 			<stop id="_7A163278-2EC5-4A38-8725-B40587077F2Bfill_el" offset="100%" stop-color="#9acd32" stop-opacity="1"/> 		</radialGradient> 	</defs> 	     <circle id="_7A163278-2EC5-4A38-8725-B40587077F2Bbg_frame" cx="15" cy="15" r="15" stroke="#000000" fill="url(#_7A163278-2EC5-4A38-8725-B40587077F2Bbackground) white" stroke-width="1" style="stroke-dasharray: 5.5, 3"/>      <circle id="_7A163278-2EC5-4A38-8725-B40587077F2Bframe" cx="15" cy="15" r="15" stroke="#000000" fill="none" stroke-width="1" display="inherit"/>  	<text font-size="11" id="_7A163278-2EC5-4A38-8725-B40587077F2Btext_name" x="15" y="32" oryx:align="top center" stroke="black" stroke-width="0pt" letter-spacing="-0.01px" fill="#000000" text-anchor="middle" transform="rotate(0 15 32)" visibility="inherit" oryx:fontSize="11"/>   </g></g><g class="children" style="overflow:hidden"/><g class="edge"/></g><g class="controls"><g class="dockers"/><g class="magnets" transform="translate(120, 165)"><g pointer-events="all" display="none" transform="translate(7, 7)"><circle cx="8" cy="8" r="4" stroke="none" fill="red" fill-opacity="0.3"/></g></g></g></g><g id="_100B84AC-2C96-4B26-90CB-C46B0ACCF4D3" bpmn2nodeid="_B565BC1B-EAFB-472F-9C6D-D84EFF48529C"><g class="stencils" transform="translate(240, 140)"><g class="me"><g pointer-events="fill" oryx:minimumSize="50 40" id="_100B84AC-2C96-4B26-90CB-C46B0ACCF4D3">   	<defs id="_100B84AC-2C96-4B26-90CB-C46B0ACCF4D3__100B84AC-2C96-4B26-90CB-C46B0ACCF4D3_17"> 		<radialGradient id="_100B84AC-2C96-4B26-90CB-C46B0ACCF4D3background" cx="10%" cy="10%" r="100%" fx="10%" fy="10%"> 			<stop offset="0%" stop-color="#ffffff" stop-opacity="1" id="_100B84AC-2C96-4B26-90CB-C46B0ACCF4D3__100B84AC-2C96-4B26-90CB-C46B0ACCF4D3_18"/> 			<stop id="_100B84AC-2C96-4B26-90CB-C46B0ACCF4D3fill_el" offset="100%" stop-color="#fafad2" stop-opacity="1"/> 		</radialGradient> 		<radialGradient id="_100B84AC-2C96-4B26-90CB-C46B0ACCF4D3borderbackground" cx="10%" cy="10%" r="100%" fx="10%" fy="10%"> 			<stop offset="0%" stop-color="#ffffff" stop-opacity="1" id="_100B84AC-2C96-4B26-90CB-C46B0ACCF4D3__100B84AC-2C96-4B26-90CB-C46B0ACCF4D3_19"/> 			<stop id="_100B84AC-2C96-4B26-90CB-C46B0ACCF4D3fill_border" offset="100%" stop-color="#000000" stop-opacity="1" stroke="#000000"/> 		</radialGradient> 	</defs> 	 	<rect id="_100B84AC-2C96-4B26-90CB-C46B0ACCF4D3text_frame" oryx:anchors="bottom top right left" x="1" y="1" width="94" height="79" rx="10" ry="10" stroke="none" stroke-width="0" fill="none"/> 	<rect id="_100B84AC-2C96-4B26-90CB-C46B0ACCF4D3bg_frame" oryx:resize="vertical horizontal" x="0" y="0" width="100" height="80" rx="10" ry="10" stroke="#000000" stroke-width="1" fill="url(#_100B84AC-2C96-4B26-90CB-C46B0ACCF4D3background) #ffffcc"/> 		<text font-size="12" id="_100B84AC-2C96-4B26-90CB-C46B0ACCF4D3text_name" x="50" y="40" oryx:align="middle center" oryx:fittoelem="text_frame" stroke="black" text-anchor="middle" stroke-width="0pt" letter-spacing="-0.01px" fill="#000000" transform="rotate(0 50 40)" visibility="inherit" oryx:fontSize="12"><tspan x="50" y="40" dy="5">Calculo ANS</tspan></text>     <g id="_100B84AC-2C96-4B26-90CB-C46B0ACCF4D3manualTask" transform="scale(0.7,0.7) translate(8,8)" display="none">     	<path oryx:anchors="top left" id="_100B84AC-2C96-4B26-90CB-C46B0ACCF4D3frame" style="opacity:1;fill:none;fill-opacity:1;stroke-width:1" d="M0.5,3.751l4.083-3.25c0,0,11.166,0.083,12.083,0.083s-2.417,2.917-1.5,2.917     s11.667,0,12.584,0c1.166,1.708-0.168,3.167-0.834,3.667s0.875,1.917-1,4.417c-0.75,0.25,0.75,1.875-1.333,3.333     c-1.167,0.583,0.583,1.542-1.25,2.833c-1.167,0-20.833,0.083-20.833,0.083l-2-1.333V3.751z" stroke="#000000"/> 		<path id="_100B84AC-2C96-4B26-90CB-C46B0ACCF4D3frame2" oryx:anchors="top left" style="opacity:1;fill:none;stroke-width:2" d="M 13.5 7 L 27 7" stroke="#000000"/> 		<path id="_100B84AC-2C96-4B26-90CB-C46B0ACCF4D3frame3" oryx:anchors="top left" style="opacity:1;fill:none;stroke-width:2" d="M 13.5 11 L 26 11" stroke="#000000"/> 		<path id="_100B84AC-2C96-4B26-90CB-C46B0ACCF4D3frame4" oryx:anchors="top left" style="opacity:1;fill:none;stroke-width:1.5" d="M 14 14.5 L 25 14.5" stroke="#000000"/> 		<path id="_100B84AC-2C96-4B26-90CB-C46B0ACCF4D3frame5" oryx:anchors="top left" style="opacity:1;fill:none;stroke-width:1.5" d="M 8.2 3.1 L 15 3.1" stroke="#000000"/> 	</g> 	 	<g id="_100B84AC-2C96-4B26-90CB-C46B0ACCF4D3businessRuleTask" transform="scale(0.7,0.7) translate(8,8)" display="inherit"> 		<rect id="_100B84AC-2C96-4B26-90CB-C46B0ACCF4D3frame6" oryx:anchors="top left" x="0" y="0" width="22" height="4" style="opacity:1;fill:#B3B1B3;fill-opacity:1;" stroke="#000000"/> 		<rect id="_100B84AC-2C96-4B26-90CB-C46B0ACCF4D3frame7" oryx:anchors="top left" x="0" y="4" style="opacity:1;fill:none;" width="22" height="12" stroke="#000000"/> 		<path id="_100B84AC-2C96-4B26-90CB-C46B0ACCF4D3frame8" oryx:anchors="top left" style="opacity:1;fill:none;" d="M 0 10 L 22 10" stroke="#000000"/> 		<path id="_100B84AC-2C96-4B26-90CB-C46B0ACCF4D3frame9" oryx:anchors="top left" style="opacity:1; fill:none;" d="M 7 4 L 7 16" stroke="#000000"/> 	</g> 	 	<g id="_100B84AC-2C96-4B26-90CB-C46B0ACCF4D3scriptTask" transform="scale(0.7,0.7) translate(8,8)" display="none"> 		<path oryx:anchors="top left" id="_100B84AC-2C96-4B26-90CB-C46B0ACCF4D3frame10" style="opacity:1;fill:none;" stroke="#000000" d="M6.402,0.5h14.5c0,0-5.833,2.833-5.833,5.583s4.417,6,4.417,9.167    s-4.167,5.083-4.167,5.083H0.235c0,0,5-2.667,5-5s-4.583-6.75-4.583-9.25S6.402,0.5,6.402,0.5z"/> 		<path oryx:anchors="top left" id="_100B84AC-2C96-4B26-90CB-C46B0ACCF4D3frame11" style="opacity:1;fill:none;stroke-width:1.5" d="M 3.5 4.5 L 13.5 4.5" stroke="#000000"/> 		<path oryx:anchors="top left" id="_100B84AC-2C96-4B26-90CB-C46B0ACCF4D3frame12" style="opacity:1;fill:none;stroke-width:1.5" d="M 3.8 8.5 L 13.8 8.5" stroke="#000000"/> 		<path oryx:anchors="top left" id="_100B84AC-2C96-4B26-90CB-C46B0ACCF4D3frame13" style="opacity:1;fill:none;stroke-width:1.5" d="M 6.3 12.5 L 16.3 12.5" stroke="#000000"/> 		<path oryx:anchors="top left" id="_100B84AC-2C96-4B26-90CB-C46B0ACCF4D3frame14" style="opacity:1;fill:none;stroke-width:1.5" d="M 6.5 16.5 L 16.5 16.5" stroke="#000000"/> 	</g> 	 	<g id="_100B84AC-2C96-4B26-90CB-C46B0ACCF4D3userTask" transform="scale(0.7,0.7) translate(8,8)" display="none"> 		<path id="_100B84AC-2C96-4B26-90CB-C46B0ACCF4D3frame15" oryx:anchors="top left" style="opacity:1;fill:#F4F6F7" stroke="#000000" d="M0.585,24.167h24.083v-7.833c0,0-2.333-3.917-7.083-5.167h-9.25    c-4.417,1.333-7.833,5.75-7.833,5.75L0.585,24.167z"/> 		<path id="_100B84AC-2C96-4B26-90CB-C46B0ACCF4D3frame16" oryx:anchors="top left" style="opacity:1;fill:none" d="M 6 20 L 6 24" stroke="#000000"/> 		<path id="_100B84AC-2C96-4B26-90CB-C46B0ACCF4D3frame17" oryx:anchors="top left" style="opacity:1;fill:none" d="M 20 20 L 20 24" stroke="#000000"/> 		<circle id="_100B84AC-2C96-4B26-90CB-C46B0ACCF4D3frame18" oryx:anchors="top left" fill="black" cx="13.002" cy="5.916" r="5.417" stroke="#000000"/> 		<path id="_100B84AC-2C96-4B26-90CB-C46B0ACCF4D3frame19" oryx:anchors="top left" style="opacity:1;fill:#F0EFF0;" stroke="#000000" d="M8.043,7.083c0,0,2.814-2.426,5.376-1.807s4.624-0.693,4.624-0.693    c0.25,1.688,0.042,3.75-1.458,5.584c0,0,1.083,0.75,1.083,1.5s0.125,1.875-1,3s-5.5,1.25-6.75,0S8.668,12.834,8.668,12    s0.583-1.25,1.25-1.917C8.835,9.5,7.419,7.708,8.043,7.083z"/> 	</g> 	 	<g id="_100B84AC-2C96-4B26-90CB-C46B0ACCF4D3serviceTask" transform="scale(0.7,0.7) translate(8,8)" display="none"> 		<polygon oryx:anchors="top left" id="_100B84AC-2C96-4B26-90CB-C46B0ACCF4D3frame20" style="opacity:1;fill:#ffffff" stroke="#000000" points="15.392,5.064 17.954,2.502 20.347,4.895 17.786,7.455     18.729,9.732 22.353,9.732 22.353,13.115 18.731,13.115 17.788,15.392 20.351,17.955 17.958,20.347 15.397,17.786 13.12,18.729     13.12,22.353 9.737,22.353 9.737,18.731 7.46,17.788 4.897,20.35 2.506,17.958 5.066,15.397 4.124,13.12 0.5,13.12 0.5,9.737     4.121,9.737 5.065,7.461 2.503,4.898 4.895,2.506 7.455,5.066 9.732,4.125 9.732,0.5 13.116,0.5 13.116,4.121 "/> 		<circle oryx:anchors="top left" id="_100B84AC-2C96-4B26-90CB-C46B0ACCF4D3frame21" style="opacity:1;fill:none" stroke="#000000" cx="11.427" cy="11.426" r="3.714"/> 		<polygon oryx:anchors="top left" id="_100B84AC-2C96-4B26-90CB-C46B0ACCF4D3frame22" style="opacity:1;fill:#ffffff" stroke="#000000" points="21.392,11.064 23.954,8.502 26.347,10.895 23.786,13.455     24.729,15.732 28.353,15.732 28.353,19.115 24.731,19.115 23.788,21.392 26.351,23.955 23.958,26.347 21.397,23.786 19.12,24.729     19.12,28.353 15.737,28.353 15.737,24.731 13.46,23.788 10.897,26.35 8.506,23.958 11.066,21.397 10.124,19.12 6.5,19.12     6.5,15.737 10.121,15.737 11.065,13.461 8.503,10.898 10.895,8.506 13.455,11.066 15.732,10.125 15.732,6.5 19.116,6.5     19.116,10.121 "/> 		<circle oryx:anchors="top left" id="_100B84AC-2C96-4B26-90CB-C46B0ACCF4D3frame23" style="opacity:1;fill:none;" stroke="#000000" cx="17.427" cy="17.426" r="3.714"/> 	</g> 	 	<g id="_100B84AC-2C96-4B26-90CB-C46B0ACCF4D3sendTask" display="none"> 		<path id="_100B84AC-2C96-4B26-90CB-C46B0ACCF4D3stframe24" oryx:anchors="left top" stroke="#FFFFFF" fill="black" stroke-width="1" d="M8,11 L8,21 L24,21 L24,11 L16,17z"/> 		<path id="_100B84AC-2C96-4B26-90CB-C46B0ACCF4D3stframe25" oryx:anchors="left top" stroke="#FFFFFF" fill="black" stroke-width="1" d="M7,10 L16,17 L25 10z"/> 	</g> 	 	<g id="_100B84AC-2C96-4B26-90CB-C46B0ACCF4D3receiveTask" display="none"> 		<path id="_100B84AC-2C96-4B26-90CB-C46B0ACCF4D3frame26" oryx:anchors="left top" stroke="#000000" fill="none" stroke-width="1" d="M8,11 L8,21 L24,21 L24,11z M8,11 L16,17 L24,11"/> 	</g> 	 	<g id="_100B84AC-2C96-4B26-90CB-C46B0ACCF4D3none" display="inherit"/>  	<g id="_100B84AC-2C96-4B26-90CB-C46B0ACCF4D3sequential" display="none">         <path oryx:anchors="bottom" fill="none" stroke="#000000" stroke-width="2" d="M46,76h10M46,72h10 M46,68h10" id="_100B84AC-2C96-4B26-90CB-C46B0ACCF4D3__100B84AC-2C96-4B26-90CB-C46B0ACCF4D3_20"/>     </g>   </g></g><g class="children" style="overflow:hidden"/><g class="edge"/></g><g class="controls"><g class="dockers"/><g class="magnets" transform="translate(240, 140)"><g pointer-events="all" display="none" transform="translate(-7, 12)"><circle cx="8" cy="8" r="4" stroke="none" fill="red" fill-opacity="0.3"/></g><g pointer-events="all" display="none" transform="translate(-7, 32)"><circle cx="8" cy="8" r="4" stroke="none" fill="red" fill-opacity="0.3"/></g><g pointer-events="all" display="none" transform="translate(-7, 52)"><circle cx="8" cy="8" r="4" stroke="none" fill="red" fill-opacity="0.3"/></g><g pointer-events="all" display="none" transform="translate(17, 71)"><circle cx="8" cy="8" r="4" stroke="none" fill="red" fill-opacity="0.3"/></g><g pointer-events="all" display="none" transform="translate(42, 71)"><circle cx="8" cy="8" r="4" stroke="none" fill="red" fill-opacity="0.3"/></g><g pointer-events="all" display="none" transform="translate(67, 71)"><circle cx="8" cy="8" r="4" stroke="none" fill="red" fill-opacity="0.3"/></g><g pointer-events="all" display="none" transform="translate(91, 12)"><circle cx="8" cy="8" r="4" stroke="none" fill="red" fill-opacity="0.3"/></g><g pointer-events="all" display="none" transform="translate(91, 32)"><circle cx="8" cy="8" r="4" stroke="none" fill="red" fill-opacity="0.3"/></g><g pointer-events="all" display="none" transform="translate(91, 52)"><circle cx="8" cy="8" r="4" stroke="none" fill="red" fill-opacity="0.3"/></g><g pointer-events="all" display="none" transform="translate(17, -7)"><circle cx="8" cy="8" r="4" stroke="none" fill="red" fill-opacity="0.3"/></g><g pointer-events="all" display="none" transform="translate(42, -7)"><circle cx="8" cy="8" r="4" stroke="none" fill="red" fill-opacity="0.3"/></g><g pointer-events="all" display="none" transform="translate(67, -7)"><circle cx="8" cy="8" r="4" stroke="none" fill="red" fill-opacity="0.3"/></g><g pointer-events="all" display="none" transform="translate(42, 32)"><circle cx="8" cy="8" r="4" stroke="none" fill="red" fill-opacity="0.3"/></g></g></g></g><g id="_3528A4C9-082D-487B-BECB-95D0E4A72EE9" bpmn2nodeid="_9789B7DB-C77A-442F-BC4F-62F213FD4FC5"><g class="stencils" transform="translate(705, 166)"><g class="me"><g pointer-events="fill" id="_3528A4C9-082D-487B-BECB-95D0E4A72EE9">      <defs id="_3528A4C9-082D-487B-BECB-95D0E4A72EE9__3528A4C9-082D-487B-BECB-95D0E4A72EE9_5"> 		<radialGradient id="_3528A4C9-082D-487B-BECB-95D0E4A72EE9background" cx="10%" cy="10%" r="100%" fx="10%" fy="10%"> 			<stop offset="0%" stop-color="#ffffff" stop-opacity="1" id="_3528A4C9-082D-487B-BECB-95D0E4A72EE9__3528A4C9-082D-487B-BECB-95D0E4A72EE9_6"/> 			<stop id="_3528A4C9-082D-487B-BECB-95D0E4A72EE9fill_el" offset="100%" stop-color="#ff6347" stop-opacity="1"/> 		</radialGradient> 	</defs> 	     <circle id="_3528A4C9-082D-487B-BECB-95D0E4A72EE9bg_frame" cx="14" cy="14" r="14" stroke="#000000" fill="url(#_3528A4C9-082D-487B-BECB-95D0E4A72EE9background) white" stroke-width="3"/> 	<text font-size="11" id="_3528A4C9-082D-487B-BECB-95D0E4A72EE9text_name" x="14" y="30" oryx:align="top center" stroke="black" stroke-width="0pt" letter-spacing="-0.01px" fill="#000000" text-anchor="middle" transform="rotate(0 14 30)" visibility="inherit" oryx:fontSize="11"/>   </g></g><g class="children" style="overflow:hidden"/><g class="edge"/></g><g class="controls"><g class="dockers"/><g class="magnets" transform="translate(705, 166)"><g pointer-events="all" display="none" transform="translate(6, 6)"><circle cx="8" cy="8" r="4" stroke="none" fill="red" fill-opacity="0.3"/></g></g></g></g><g id="_C695A91F-D37F-42B7-9F51-A9DA902EEF7F" bpmn2nodeid="_BB1FFB5B-AD4B-49B8-AEC7-82DC7BD16F58"><g class="stencils" transform="translate(465, 140)"><g class="me"><g pointer-events="fill" oryx:minimumSize="50 40" id="_C695A91F-D37F-42B7-9F51-A9DA902EEF7F">   	<defs id="_C695A91F-D37F-42B7-9F51-A9DA902EEF7F__C695A91F-D37F-42B7-9F51-A9DA902EEF7F_17"> 		<radialGradient id="_C695A91F-D37F-42B7-9F51-A9DA902EEF7Fbackground" cx="10%" cy="10%" r="100%" fx="10%" fy="10%"> 			<stop offset="0%" stop-color="#ffffff" stop-opacity="1" id="_C695A91F-D37F-42B7-9F51-A9DA902EEF7F__C695A91F-D37F-42B7-9F51-A9DA902EEF7F_18"/> 			<stop id="_C695A91F-D37F-42B7-9F51-A9DA902EEF7Ffill_el" offset="100%" stop-color="#fafad2" stop-opacity="1"/> 		</radialGradient> 		<radialGradient id="_C695A91F-D37F-42B7-9F51-A9DA902EEF7Fborderbackground" cx="10%" cy="10%" r="100%" fx="10%" fy="10%"> 			<stop offset="0%" stop-color="#ffffff" stop-opacity="1" id="_C695A91F-D37F-42B7-9F51-A9DA902EEF7F__C695A91F-D37F-42B7-9F51-A9DA902EEF7F_19"/> 			<stop id="_C695A91F-D37F-42B7-9F51-A9DA902EEF7Ffill_border" offset="100%" stop-color="#000000" stop-opacity="1" stroke="#000000"/> 		</radialGradient> 	</defs> 	 	<rect id="_C695A91F-D37F-42B7-9F51-A9DA902EEF7Ftext_frame" oryx:anchors="bottom top right left" x="1" y="1" width="94" height="79" rx="10" ry="10" stroke="none" stroke-width="0" fill="none"/> 	<rect id="_C695A91F-D37F-42B7-9F51-A9DA902EEF7Fbg_frame" oryx:resize="vertical horizontal" x="0" y="0" width="100" height="80" rx="10" ry="10" stroke="#000000" stroke-width="1" fill="url(#_C695A91F-D37F-42B7-9F51-A9DA902EEF7Fbackground) #ffffcc"/> 		<text font-size="12" id="_C695A91F-D37F-42B7-9F51-A9DA902EEF7Ftext_name" x="50" y="40" oryx:align="middle center" oryx:fittoelem="text_frame" stroke="black" text-anchor="middle" stroke-width="0pt" letter-spacing="-0.01px" fill="#000000" transform="rotate(0 50 40)" visibility="inherit" oryx:fontSize="12"><tspan x="50" y="40" dy="5">Log Tarjetas</tspan></text>     <g id="_C695A91F-D37F-42B7-9F51-A9DA902EEF7FmanualTask" transform="scale(0.7,0.7) translate(8,8)" display="none">     	<path oryx:anchors="top left" id="_C695A91F-D37F-42B7-9F51-A9DA902EEF7Fframe" style="opacity:1;fill:none;fill-opacity:1;stroke-width:1" d="M0.5,3.751l4.083-3.25c0,0,11.166,0.083,12.083,0.083s-2.417,2.917-1.5,2.917     s11.667,0,12.584,0c1.166,1.708-0.168,3.167-0.834,3.667s0.875,1.917-1,4.417c-0.75,0.25,0.75,1.875-1.333,3.333     c-1.167,0.583,0.583,1.542-1.25,2.833c-1.167,0-20.833,0.083-20.833,0.083l-2-1.333V3.751z" stroke="#000000"/> 		<path id="_C695A91F-D37F-42B7-9F51-A9DA902EEF7Fframe2" oryx:anchors="top left" style="opacity:1;fill:none;stroke-width:2" d="M 13.5 7 L 27 7" stroke="#000000"/> 		<path id="_C695A91F-D37F-42B7-9F51-A9DA902EEF7Fframe3" oryx:anchors="top left" style="opacity:1;fill:none;stroke-width:2" d="M 13.5 11 L 26 11" stroke="#000000"/> 		<path id="_C695A91F-D37F-42B7-9F51-A9DA902EEF7Fframe4" oryx:anchors="top left" style="opacity:1;fill:none;stroke-width:1.5" d="M 14 14.5 L 25 14.5" stroke="#000000"/> 		<path id="_C695A91F-D37F-42B7-9F51-A9DA902EEF7Fframe5" oryx:anchors="top left" style="opacity:1;fill:none;stroke-width:1.5" d="M 8.2 3.1 L 15 3.1" stroke="#000000"/> 	</g> 	 	<g id="_C695A91F-D37F-42B7-9F51-A9DA902EEF7FbusinessRuleTask" transform="scale(0.7,0.7) translate(8,8)" display="none"> 		<rect id="_C695A91F-D37F-42B7-9F51-A9DA902EEF7Fframe6" oryx:anchors="top left" x="0" y="0" width="22" height="4" style="opacity:1;fill:#B3B1B3;fill-opacity:1;" stroke="#000000"/> 		<rect id="_C695A91F-D37F-42B7-9F51-A9DA902EEF7Fframe7" oryx:anchors="top left" x="0" y="4" style="opacity:1;fill:none;" width="22" height="12" stroke="#000000"/> 		<path id="_C695A91F-D37F-42B7-9F51-A9DA902EEF7Fframe8" oryx:anchors="top left" style="opacity:1;fill:none;" d="M 0 10 L 22 10" stroke="#000000"/> 		<path id="_C695A91F-D37F-42B7-9F51-A9DA902EEF7Fframe9" oryx:anchors="top left" style="opacity:1; fill:none;" d="M 7 4 L 7 16" stroke="#000000"/> 	</g> 	 	<g id="_C695A91F-D37F-42B7-9F51-A9DA902EEF7FscriptTask" transform="scale(0.7,0.7) translate(8,8)" display="inherit"> 		<path oryx:anchors="top left" id="_C695A91F-D37F-42B7-9F51-A9DA902EEF7Fframe10" style="opacity:1;fill:none;" stroke="#000000" d="M6.402,0.5h14.5c0,0-5.833,2.833-5.833,5.583s4.417,6,4.417,9.167    s-4.167,5.083-4.167,5.083H0.235c0,0,5-2.667,5-5s-4.583-6.75-4.583-9.25S6.402,0.5,6.402,0.5z"/> 		<path oryx:anchors="top left" id="_C695A91F-D37F-42B7-9F51-A9DA902EEF7Fframe11" style="opacity:1;fill:none;stroke-width:1.5" d="M 3.5 4.5 L 13.5 4.5" stroke="#000000"/> 		<path oryx:anchors="top left" id="_C695A91F-D37F-42B7-9F51-A9DA902EEF7Fframe12" style="opacity:1;fill:none;stroke-width:1.5" d="M 3.8 8.5 L 13.8 8.5" stroke="#000000"/> 		<path oryx:anchors="top left" id="_C695A91F-D37F-42B7-9F51-A9DA902EEF7Fframe13" style="opacity:1;fill:none;stroke-width:1.5" d="M 6.3 12.5 L 16.3 12.5" stroke="#000000"/> 		<path oryx:anchors="top left" id="_C695A91F-D37F-42B7-9F51-A9DA902EEF7Fframe14" style="opacity:1;fill:none;stroke-width:1.5" d="M 6.5 16.5 L 16.5 16.5" stroke="#000000"/> 	</g> 	 	<g id="_C695A91F-D37F-42B7-9F51-A9DA902EEF7FuserTask" transform="scale(0.7,0.7) translate(8,8)" display="none"> 		<path id="_C695A91F-D37F-42B7-9F51-A9DA902EEF7Fframe15" oryx:anchors="top left" style="opacity:1;fill:#F4F6F7" stroke="#000000" d="M0.585,24.167h24.083v-7.833c0,0-2.333-3.917-7.083-5.167h-9.25    c-4.417,1.333-7.833,5.75-7.833,5.75L0.585,24.167z"/> 		<path id="_C695A91F-D37F-42B7-9F51-A9DA902EEF7Fframe16" oryx:anchors="top left" style="opacity:1;fill:none" d="M 6 20 L 6 24" stroke="#000000"/> 		<path id="_C695A91F-D37F-42B7-9F51-A9DA902EEF7Fframe17" oryx:anchors="top left" style="opacity:1;fill:none" d="M 20 20 L 20 24" stroke="#000000"/> 		<circle id="_C695A91F-D37F-42B7-9F51-A9DA902EEF7Fframe18" oryx:anchors="top left" fill="black" cx="13.002" cy="5.916" r="5.417" stroke="#000000"/> 		<path id="_C695A91F-D37F-42B7-9F51-A9DA902EEF7Fframe19" oryx:anchors="top left" style="opacity:1;fill:#F0EFF0;" stroke="#000000" d="M8.043,7.083c0,0,2.814-2.426,5.376-1.807s4.624-0.693,4.624-0.693    c0.25,1.688,0.042,3.75-1.458,5.584c0,0,1.083,0.75,1.083,1.5s0.125,1.875-1,3s-5.5,1.25-6.75,0S8.668,12.834,8.668,12    s0.583-1.25,1.25-1.917C8.835,9.5,7.419,7.708,8.043,7.083z"/> 	</g> 	 	<g id="_C695A91F-D37F-42B7-9F51-A9DA902EEF7FserviceTask" transform="scale(0.7,0.7) translate(8,8)" display="none"> 		<polygon oryx:anchors="top left" id="_C695A91F-D37F-42B7-9F51-A9DA902EEF7Fframe20" style="opacity:1;fill:#ffffff" stroke="#000000" points="15.392,5.064 17.954,2.502 20.347,4.895 17.786,7.455     18.729,9.732 22.353,9.732 22.353,13.115 18.731,13.115 17.788,15.392 20.351,17.955 17.958,20.347 15.397,17.786 13.12,18.729     13.12,22.353 9.737,22.353 9.737,18.731 7.46,17.788 4.897,20.35 2.506,17.958 5.066,15.397 4.124,13.12 0.5,13.12 0.5,9.737     4.121,9.737 5.065,7.461 2.503,4.898 4.895,2.506 7.455,5.066 9.732,4.125 9.732,0.5 13.116,0.5 13.116,4.121 "/> 		<circle oryx:anchors="top left" id="_C695A91F-D37F-42B7-9F51-A9DA902EEF7Fframe21" style="opacity:1;fill:none" stroke="#000000" cx="11.427" cy="11.426" r="3.714"/> 		<polygon oryx:anchors="top left" id="_C695A91F-D37F-42B7-9F51-A9DA902EEF7Fframe22" style="opacity:1;fill:#ffffff" stroke="#000000" points="21.392,11.064 23.954,8.502 26.347,10.895 23.786,13.455     24.729,15.732 28.353,15.732 28.353,19.115 24.731,19.115 23.788,21.392 26.351,23.955 23.958,26.347 21.397,23.786 19.12,24.729     19.12,28.353 15.737,28.353 15.737,24.731 13.46,23.788 10.897,26.35 8.506,23.958 11.066,21.397 10.124,19.12 6.5,19.12     6.5,15.737 10.121,15.737 11.065,13.461 8.503,10.898 10.895,8.506 13.455,11.066 15.732,10.125 15.732,6.5 19.116,6.5     19.116,10.121 "/> 		<circle oryx:anchors="top left" id="_C695A91F-D37F-42B7-9F51-A9DA902EEF7Fframe23" style="opacity:1;fill:none;" stroke="#000000" cx="17.427" cy="17.426" r="3.714"/> 	</g> 	 	<g id="_C695A91F-D37F-42B7-9F51-A9DA902EEF7FsendTask" display="none"> 		<path id="_C695A91F-D37F-42B7-9F51-A9DA902EEF7Fstframe24" oryx:anchors="left top" stroke="#FFFFFF" fill="black" stroke-width="1" d="M8,11 L8,21 L24,21 L24,11 L16,17z"/> 		<path id="_C695A91F-D37F-42B7-9F51-A9DA902EEF7Fstframe25" oryx:anchors="left top" stroke="#FFFFFF" fill="black" stroke-width="1" d="M7,10 L16,17 L25 10z"/> 	</g> 	 	<g id="_C695A91F-D37F-42B7-9F51-A9DA902EEF7FreceiveTask" display="none"> 		<path id="_C695A91F-D37F-42B7-9F51-A9DA902EEF7Fframe26" oryx:anchors="left top" stroke="#000000" fill="none" stroke-width="1" d="M8,11 L8,21 L24,21 L24,11z M8,11 L16,17 L24,11"/> 	</g> 	 	<g id="_C695A91F-D37F-42B7-9F51-A9DA902EEF7Fnone" display="inherit"/>  	<g id="_C695A91F-D37F-42B7-9F51-A9DA902EEF7Fsequential" display="none">         <path oryx:anchors="bottom" fill="none" stroke="#000000" stroke-width="2" d="M46,76h10M46,72h10 M46,68h10" id="_C695A91F-D37F-42B7-9F51-A9DA902EEF7F__C695A91F-D37F-42B7-9F51-A9DA902EEF7F_20"/>     </g>   </g></g><g class="children" style="overflow:hidden"/><g class="edge"/></g><g class="controls"><g class="dockers"/><g class="magnets" transform="translate(465, 140)"><g pointer-events="all" display="none" transform="translate(-7, 12)"><circle cx="8" cy="8" r="4" stroke="none" fill="red" fill-opacity="0.3"/></g><g pointer-events="all" display="none" transform="translate(-7, 32)"><circle cx="8" cy="8" r="4" stroke="none" fill="red" fill-opacity="0.3"/></g><g pointer-events="all" display="none" transform="translate(-7, 52)"><circle cx="8" cy="8" r="4" stroke="none" fill="red" fill-opacity="0.3"/></g><g pointer-events="all" display="none" transform="translate(17, 71)"><circle cx="8" cy="8" r="4" stroke="none" fill="red" fill-opacity="0.3"/></g><g pointer-events="all" display="none" transform="translate(42, 71)"><circle cx="8" cy="8" r="4" stroke="none" fill="red" fill-opacity="0.3"/></g><g pointer-events="all" display="none" transform="translate(67, 71)"><circle cx="8" cy="8" r="4" stroke="none" fill="red" fill-opacity="0.3"/></g><g pointer-events="all" display="none" transform="translate(91, 12)"><circle cx="8" cy="8" r="4" stroke="none" fill="red" fill-opacity="0.3"/></g><g pointer-events="all" display="none" transform="translate(91, 32)"><circle cx="8" cy="8" r="4" stroke="none" fill="red" fill-opacity="0.3"/></g><g pointer-events="all" display="none" transform="translate(91, 52)"><circle cx="8" cy="8" r="4" stroke="none" fill="red" fill-opacity="0.3"/></g><g pointer-events="all" display="none" transform="translate(17, -7)"><circle cx="8" cy="8" r="4" stroke="none" fill="red" fill-opacity="0.3"/></g><g pointer-events="all" display="none" transform="translate(42, -7)"><circle cx="8" cy="8" r="4" stroke="none" fill="red" fill-opacity="0.3"/></g><g pointer-events="all" display="none" transform="translate(67, -7)"><circle cx="8" cy="8" r="4" stroke="none" fill="red" fill-opacity="0.3"/></g><g pointer-events="all" display="none" transform="translate(42, 32)"><circle cx="8" cy="8" r="4" stroke="none" fill="red" fill-opacity="0.3"/></g></g></g></g></g><g class="edge"><g id="_825F948B-5332-4A2D-B612-2AF0B7147D23" bpmn2nodeid="_B5F7E3AA-9FB6-44FD-85AB-5992064C5616"><g class="stencils"><g class="me"><g pointer-events="painted" bpmn2nodeid="_D749C110-8160-4144-8D81-5BAD68168A1C"><path id="_825F948B-5332-4A2D-B612-2AF0B7147D23_1" d="M150.53125 180L239.3515625 180 " stroke="#000000" fill="none" stroke-width="2" stroke-linecap="round" stroke-linejoin="round" marker-start="url(#_825F948B-5332-4A2D-B612-2AF0B7147D23start)" marker-end="url(#_825F948B-5332-4A2D-B612-2AF0B7147D23end)"/></g><text id="_825F948B-5332-4A2D-B612-2AF0B7147D23text_name" font-size="12" x="164.53125" y="166" oryx:edgePosition="startTop" stroke-width="0pt" letter-spacing="-0.01px" fill="#000000" text-anchor="start" transform="rotate(360 150.53125 180)" visibility="inherit" oryx:fontSize="12"/></g><g class="children" style="overflow:hidden"/><g class="edge"/></g><g class="controls"><g class="dockers"/><g class="magnets"/></g></g><g id="_FA0EA4A5-A8AF-445D-A12A-1AECE63419F9" bpmn2nodeid="_F404D446-8250-42DB-8BE9-46B695388FD0"><g class="stencils"><g class="me"><g pointer-events="painted" bpmn2nodeid="_1CE5D2DD-84E0-464C-B076-51221E30D59C"><path id="_FA0EA4A5-A8AF-445D-A12A-1AECE63419F9_1" d="M340.21875 180L464.78125 180 " stroke="#000000" fill="none" stroke-width="2" stroke-linecap="round" stroke-linejoin="round" marker-start="url(#_FA0EA4A5-A8AF-445D-A12A-1AECE63419F9start)" marker-end="url(#_FA0EA4A5-A8AF-445D-A12A-1AECE63419F9end)"/></g><text id="_FA0EA4A5-A8AF-445D-A12A-1AECE63419F9text_name" font-size="12" x="354.21875" y="166" oryx:edgePosition="startTop" stroke-width="0pt" letter-spacing="-0.01px" fill="#000000" text-anchor="start" transform="rotate(360 340.21875 180)" visibility="inherit" oryx:fontSize="12"/></g><g class="children" style="overflow:hidden"/><g class="edge"/></g><g class="controls"><g class="dockers"/><g class="magnets"/></g></g><g id="_07327484-AAA9-4F9D-8AB8-948BBAB2FA7D" bpmn2nodeid="_C051927F-7288-4DF1-B7FE-04939B0CE876"><g class="stencils"><g class="me"><g pointer-events="painted" bpmn2nodeid="_7452F564-2ADA-48F8-9B53-CD2A0B47A697"><path id="_07327484-AAA9-4F9D-8AB8-948BBAB2FA7D_1" d="M565.40625 180L704.453125 180 " stroke="#000000" fill="none" stroke-width="2" stroke-linecap="round" stroke-linejoin="round" marker-start="url(#_07327484-AAA9-4F9D-8AB8-948BBAB2FA7Dstart)" marker-end="url(#_07327484-AAA9-4F9D-8AB8-948BBAB2FA7Dend)"/></g><text id="_07327484-AAA9-4F9D-8AB8-948BBAB2FA7Dtext_name" font-size="12" x="579.40625" y="166" oryx:edgePosition="startTop" stroke-width="0pt" letter-spacing="-0.01px" fill="#000000" text-anchor="start" transform="rotate(360 565.40625 180)" visibility="inherit" oryx:fontSize="12"/></g><g class="children" style="overflow:hidden"/><g class="edge"/></g><g class="controls"><g class="dockers"/><g class="magnets"/></g></g></g><text id="_1E2C0674-D9E9-46B1-A439-3E5A8F5DD65C" style="stroke-width:1;fill:rgb(177,194,214);font-family:arial;font-weight:bold" font-size="12" onclick="ORYX.Plugins.CanvasTitle.openTextualAnalysis()" onmouseover="ORYX.Plugins.CanvasTitle.addToolTip('_1E2C0674-D9E9-46B1-A439-3E5A8F5DD65C')" transform="translate(10, 20)">Prueba_Tarjetas v.1.0 (Opplus.Prueba_Tarjetas)</text></g></g></svg>