<svg xmlns="http://www.w3.org/2000/svg" xmlns:oryx="http://oryx-editor.org" id="_BF11CEF5-BF6F-4300-824D-7AE8652544EA" width="623.6875" height="360.15625" xmlns:xlink="http://www.w3.org/1999/xlink" xmlns:svg="http://www.w3.org/2000/svg"><defs><marker id="_8D329FE2-A114-41E6-90B9-4D9B9722766Estart" refX="1" refY="5" markerUnits="userSpaceOnUse" markerWidth="17" markerHeight="11" orient="auto" fill="#000000" stroke="#000000"> 	  		<path id="_8D329FE2-A114-41E6-90B9-4D9B9722766Econditional" d="M 0 5 L 8 0 L 16 5 L 8 10 L 0 5" fill="white" stroke="#000000" stroke-width="1" display="none"/> 			<path id="_8D329FE2-A114-41E6-90B9-4D9B9722766Edefault" d="M 5 0 L 11 10" fill="white" stroke="#000000" stroke-width="1" display="none"/> 	  	</marker><marker id="_8D329FE2-A114-41E6-90B9-4D9B9722766Eend" refX="15" refY="6" markerUnits="userSpaceOnUse" markerWidth="15" markerHeight="12" orient="auto" fill="#000000" stroke="#000000"> 	  		<path id="_8D329FE2-A114-41E6-90B9-4D9B9722766Eframe2" d="M 0 1 L 15 6 L 0 11z" fill="#000000" stroke="#000000" stroke-linejoin="round" stroke-width="2"/> 	  	</marker><marker id="_743537DB-549B-490A-8E3B-0F3CF344F1F3start" refX="1" refY="5" markerUnits="userSpaceOnUse" markerWidth="17" markerHeight="11" orient="auto" fill="#000000" stroke="#000000"> 	  		<path id="_743537DB-549B-490A-8E3B-0F3CF344F1F3conditional" d="M 0 5 L 8 0 L 16 5 L 8 10 L 0 5" fill="white" stroke="#000000" stroke-width="1" display="none"/> 			<path id="_743537DB-549B-490A-8E3B-0F3CF344F1F3default" d="M 5 0 L 11 10" fill="white" stroke="#000000" stroke-width="1" display="none"/> 	  	</marker><marker id="_743537DB-549B-490A-8E3B-0F3CF344F1F3end" refX="15" refY="6" markerUnits="userSpaceOnUse" markerWidth="15" markerHeight="12" orient="auto" fill="#000000" stroke="#000000"> 	  		<path id="_743537DB-549B-490A-8E3B-0F3CF344F1F3frame2" d="M 0 1 L 15 6 L 0 11z" fill="#000000" stroke="#000000" stroke-linejoin="round" stroke-width="2"/> 	  	</marker><marker id="_0DEE70A1-C5DD-426C-9766-25E842A764ABstart" refX="1" refY="5" markerUnits="userSpaceOnUse" markerWidth="17" markerHeight="11" orient="auto" fill="#000000" stroke="#000000"> 	  		<path id="_0DEE70A1-C5DD-426C-9766-25E842A764ABconditional" d="M 0 5 L 8 0 L 16 5 L 8 10 L 0 5" fill="white" stroke="#000000" stroke-width="1" display="none"/> 			<path id="_0DEE70A1-C5DD-426C-9766-25E842A764ABdefault" d="M 5 0 L 11 10" fill="white" stroke="#000000" stroke-width="1" display="none"/> 	  	</marker><marker id="_0DEE70A1-C5DD-426C-9766-25E842A764ABend" refX="15" refY="6" markerUnits="userSpaceOnUse" markerWidth="15" markerHeight="12" orient="auto" fill="#000000" stroke="#000000"> 	  		<path id="_0DEE70A1-C5DD-426C-9766-25E842A764ABframe2" d="M 0 1 L 15 6 L 0 11z" fill="#000000" stroke="#000000" stroke-linejoin="round" stroke-width="2"/> 	  	</marker></defs><g stroke="none" font-family="Verdana, sans-serif" font-size-adjust="none" font-style="normal" font-variant="normal" font-weight="normal" line-heigth="normal" font-size="12"><g class="stencils" transform="translate(16.6875, 15.15625)"><g class="me"/><g class="children"><g id="_2C327E5B-5603-4EA0-BC01-A5717CB4BAD2" bpmn2nodeid="processStartEvent"><g class="stencils" transform="translate(30, 265)"><g class="me"><g pointer-events="fill" id="_2C327E5B-5603-4EA0-BC01-A5717CB4BAD2">        <defs id="_2C327E5B-5603-4EA0-BC01-A5717CB4BAD2__2C327E5B-5603-4EA0-BC01-A5717CB4BAD2_5"> 		<radialGradient id="_2C327E5B-5603-4EA0-BC01-A5717CB4BAD2background" cx="10%" cy="10%" r="100%" fx="10%" fy="10%"> 			<stop offset="0%" stop-color="#ffffff" stop-opacity="1" id="_2C327E5B-5603-4EA0-BC01-A5717CB4BAD2__2C327E5B-5603-4EA0-BC01-A5717CB4BAD2_6"/> 			<stop id="_2C327E5B-5603-4EA0-BC01-A5717CB4BAD2fill_el" offset="100%" stop-color="#9acd32" stop-opacity="1"/> 		</radialGradient> 	</defs> 	     <circle id="_2C327E5B-5603-4EA0-BC01-A5717CB4BAD2bg_frame" cx="15" cy="15" r="15" stroke="#000000" fill="url(#_2C327E5B-5603-4EA0-BC01-A5717CB4BAD2background) white" stroke-width="1" style="stroke-dasharray: 5.5, 3"/>      <circle id="_2C327E5B-5603-4EA0-BC01-A5717CB4BAD2frame" cx="15" cy="15" r="15" stroke="#000000" fill="none" stroke-width="1" display="inherit"/>  	<text font-size="11" id="_2C327E5B-5603-4EA0-BC01-A5717CB4BAD2text_name" x="15" y="32" oryx:align="top center" stroke="black" stroke-width="0pt" letter-spacing="-0.01px" fill="#000000" text-anchor="middle" transform="rotate(0 15 32)" visibility="inherit" oryx:fontSize="11"/>   </g></g><g class="children" style="overflow:hidden"/><g class="edge"/></g><g class="controls"><g class="dockers"/><g class="magnets" transform="translate(30, 265)"><g pointer-events="all" display="none" transform="translate(7, 7)"><circle cx="8" cy="8" r="4" stroke="none" fill="red" fill-opacity="0.3"/></g></g></g></g><g id="_B64CF7D5-2A58-4F43-9096-9E22EB034106" bpmn2nodeid="_C1D8834E-A3BA-4D63-A71B-E47B521F34D7"><g class="stencils" transform="translate(180, 240)"><g class="me"><g pointer-events="fill" oryx:minimumSize="50 40" id="_B64CF7D5-2A58-4F43-9096-9E22EB034106">   	<defs id="_B64CF7D5-2A58-4F43-9096-9E22EB034106__B64CF7D5-2A58-4F43-9096-9E22EB034106_17"> 		<radialGradient id="_B64CF7D5-2A58-4F43-9096-9E22EB034106background" cx="10%" cy="10%" r="100%" fx="10%" fy="10%"> 			<stop offset="0%" stop-color="#ffffff" stop-opacity="1" id="_B64CF7D5-2A58-4F43-9096-9E22EB034106__B64CF7D5-2A58-4F43-9096-9E22EB034106_18"/> 			<stop id="_B64CF7D5-2A58-4F43-9096-9E22EB034106fill_el" offset="100%" stop-color="#fafad2" stop-opacity="1"/> 		</radialGradient> 		<radialGradient id="_B64CF7D5-2A58-4F43-9096-9E22EB034106borderbackground" cx="10%" cy="10%" r="100%" fx="10%" fy="10%"> 			<stop offset="0%" stop-color="#ffffff" stop-opacity="1" id="_B64CF7D5-2A58-4F43-9096-9E22EB034106__B64CF7D5-2A58-4F43-9096-9E22EB034106_19"/> 			<stop id="_B64CF7D5-2A58-4F43-9096-9E22EB034106fill_border" offset="100%" stop-color="#000000" stop-opacity="1" stroke="#000000"/> 		</radialGradient> 	</defs> 	 	<rect id="_B64CF7D5-2A58-4F43-9096-9E22EB034106text_frame" oryx:anchors="bottom top right left" x="1" y="1" width="94" height="79" rx="10" ry="10" stroke="none" stroke-width="0" fill="none"/> 	<rect id="_B64CF7D5-2A58-4F43-9096-9E22EB034106bg_frame" oryx:resize="vertical horizontal" x="0" y="0" width="100" height="80" rx="10" ry="10" stroke="#000000" stroke-width="1" fill="url(#_B64CF7D5-2A58-4F43-9096-9E22EB034106background) #ffffcc"/> 		<text font-size="12" id="_B64CF7D5-2A58-4F43-9096-9E22EB034106text_name" x="50" y="40" oryx:align="middle center" oryx:fittoelem="text_frame" stroke="black" text-anchor="middle" stroke-width="0pt" letter-spacing="-0.01px" fill="#000000" transform="rotate(0 50 40)" visibility="inherit" oryx:fontSize="12"><tspan x="50" y="40" dy="5">Admisi?n</tspan></text>     <g id="_B64CF7D5-2A58-4F43-9096-9E22EB034106manualTask" transform="scale(0.7,0.7) translate(8,8)" display="none">     	<path oryx:anchors="top left" id="_B64CF7D5-2A58-4F43-9096-9E22EB034106frame" style="opacity:1;fill:none;fill-opacity:1;stroke-width:1" d="M0.5,3.751l4.083-3.25c0,0,11.166,0.083,12.083,0.083s-2.417,2.917-1.5,2.917     s11.667,0,12.584,0c1.166,1.708-0.168,3.167-0.834,3.667s0.875,1.917-1,4.417c-0.75,0.25,0.75,1.875-1.333,3.333     c-1.167,0.583,0.583,1.542-1.25,2.833c-1.167,0-20.833,0.083-20.833,0.083l-2-1.333V3.751z" stroke="#000000"/> 		<path id="_B64CF7D5-2A58-4F43-9096-9E22EB034106frame2" oryx:anchors="top left" style="opacity:1;fill:none;stroke-width:2" d="M 13.5 7 L 27 7" stroke="#000000"/> 		<path id="_B64CF7D5-2A58-4F43-9096-9E22EB034106frame3" oryx:anchors="top left" style="opacity:1;fill:none;stroke-width:2" d="M 13.5 11 L 26 11" stroke="#000000"/> 		<path id="_B64CF7D5-2A58-4F43-9096-9E22EB034106frame4" oryx:anchors="top left" style="opacity:1;fill:none;stroke-width:1.5" d="M 14 14.5 L 25 14.5" stroke="#000000"/> 		<path id="_B64CF7D5-2A58-4F43-9096-9E22EB034106frame5" oryx:anchors="top left" style="opacity:1;fill:none;stroke-width:1.5" d="M 8.2 3.1 L 15 3.1" stroke="#000000"/> 	</g> 	 	<g id="_B64CF7D5-2A58-4F43-9096-9E22EB034106businessRuleTask" transform="scale(0.7,0.7) translate(8,8)" display="none"> 		<rect id="_B64CF7D5-2A58-4F43-9096-9E22EB034106frame6" oryx:anchors="top left" x="0" y="0" width="22" height="4" style="opacity:1;fill:#B3B1B3;fill-opacity:1;" stroke="#000000"/> 		<rect id="_B64CF7D5-2A58-4F43-9096-9E22EB034106frame7" oryx:anchors="top left" x="0" y="4" style="opacity:1;fill:none;" width="22" height="12" stroke="#000000"/> 		<path id="_B64CF7D5-2A58-4F43-9096-9E22EB034106frame8" oryx:anchors="top left" style="opacity:1;fill:none;" d="M 0 10 L 22 10" stroke="#000000"/> 		<path id="_B64CF7D5-2A58-4F43-9096-9E22EB034106frame9" oryx:anchors="top left" style="opacity:1; fill:none;" d="M 7 4 L 7 16" stroke="#000000"/> 	</g> 	 	<g id="_B64CF7D5-2A58-4F43-9096-9E22EB034106scriptTask" transform="scale(0.7,0.7) translate(8,8)" display="none"> 		<path oryx:anchors="top left" id="_B64CF7D5-2A58-4F43-9096-9E22EB034106frame10" style="opacity:1;fill:none;" stroke="#000000" d="M6.402,0.5h14.5c0,0-5.833,2.833-5.833,5.583s4.417,6,4.417,9.167    s-4.167,5.083-4.167,5.083H0.235c0,0,5-2.667,5-5s-4.583-6.75-4.583-9.25S6.402,0.5,6.402,0.5z"/> 		<path oryx:anchors="top left" id="_B64CF7D5-2A58-4F43-9096-9E22EB034106frame11" style="opacity:1;fill:none;stroke-width:1.5" d="M 3.5 4.5 L 13.5 4.5" stroke="#000000"/> 		<path oryx:anchors="top left" id="_B64CF7D5-2A58-4F43-9096-9E22EB034106frame12" style="opacity:1;fill:none;stroke-width:1.5" d="M 3.8 8.5 L 13.8 8.5" stroke="#000000"/> 		<path oryx:anchors="top left" id="_B64CF7D5-2A58-4F43-9096-9E22EB034106frame13" style="opacity:1;fill:none;stroke-width:1.5" d="M 6.3 12.5 L 16.3 12.5" stroke="#000000"/> 		<path oryx:anchors="top left" id="_B64CF7D5-2A58-4F43-9096-9E22EB034106frame14" style="opacity:1;fill:none;stroke-width:1.5" d="M 6.5 16.5 L 16.5 16.5" stroke="#000000"/> 	</g> 	 	<g id="_B64CF7D5-2A58-4F43-9096-9E22EB034106userTask" transform="scale(0.7,0.7) translate(8,8)" display="inherit"> 		<path id="_B64CF7D5-2A58-4F43-9096-9E22EB034106frame15" oryx:anchors="top left" style="opacity:1;fill:#F4F6F7" stroke="#000000" d="M0.585,24.167h24.083v-7.833c0,0-2.333-3.917-7.083-5.167h-9.25    c-4.417,1.333-7.833,5.75-7.833,5.75L0.585,24.167z"/> 		<path id="_B64CF7D5-2A58-4F43-9096-9E22EB034106frame16" oryx:anchors="top left" style="opacity:1;fill:none" d="M 6 20 L 6 24" stroke="#000000"/> 		<path id="_B64CF7D5-2A58-4F43-9096-9E22EB034106frame17" oryx:anchors="top left" style="opacity:1;fill:none" d="M 20 20 L 20 24" stroke="#000000"/> 		<circle id="_B64CF7D5-2A58-4F43-9096-9E22EB034106frame18" oryx:anchors="top left" fill="black" cx="13.002" cy="5.916" r="5.417" stroke="#000000"/> 		<path id="_B64CF7D5-2A58-4F43-9096-9E22EB034106frame19" oryx:anchors="top left" style="opacity:1;fill:#F0EFF0;" stroke="#000000" d="M8.043,7.083c0,0,2.814-2.426,5.376-1.807s4.624-0.693,4.624-0.693    c0.25,1.688,0.042,3.75-1.458,5.584c0,0,1.083,0.75,1.083,1.5s0.125,1.875-1,3s-5.5,1.25-6.75,0S8.668,12.834,8.668,12    s0.583-1.25,1.25-1.917C8.835,9.5,7.419,7.708,8.043,7.083z"/> 	</g> 	 	<g id="_B64CF7D5-2A58-4F43-9096-9E22EB034106serviceTask" transform="scale(0.7,0.7) translate(8,8)" display="none"> 		<polygon oryx:anchors="top left" id="_B64CF7D5-2A58-4F43-9096-9E22EB034106frame20" style="opacity:1;fill:#ffffff" stroke="#000000" points="15.392,5.064 17.954,2.502 20.347,4.895 17.786,7.455     18.729,9.732 22.353,9.732 22.353,13.115 18.731,13.115 17.788,15.392 20.351,17.955 17.958,20.347 15.397,17.786 13.12,18.729     13.12,22.353 9.737,22.353 9.737,18.731 7.46,17.788 4.897,20.35 2.506,17.958 5.066,15.397 4.124,13.12 0.5,13.12 0.5,9.737     4.121,9.737 5.065,7.461 2.503,4.898 4.895,2.506 7.455,5.066 9.732,4.125 9.732,0.5 13.116,0.5 13.116,4.121 "/> 		<circle oryx:anchors="top left" id="_B64CF7D5-2A58-4F43-9096-9E22EB034106frame21" style="opacity:1;fill:none" stroke="#000000" cx="11.427" cy="11.426" r="3.714"/> 		<polygon oryx:anchors="top left" id="_B64CF7D5-2A58-4F43-9096-9E22EB034106frame22" style="opacity:1;fill:#ffffff" stroke="#000000" points="21.392,11.064 23.954,8.502 26.347,10.895 23.786,13.455     24.729,15.732 28.353,15.732 28.353,19.115 24.731,19.115 23.788,21.392 26.351,23.955 23.958,26.347 21.397,23.786 19.12,24.729     19.12,28.353 15.737,28.353 15.737,24.731 13.46,23.788 10.897,26.35 8.506,23.958 11.066,21.397 10.124,19.12 6.5,19.12     6.5,15.737 10.121,15.737 11.065,13.461 8.503,10.898 10.895,8.506 13.455,11.066 15.732,10.125 15.732,6.5 19.116,6.5     19.116,10.121 "/> 		<circle oryx:anchors="top left" id="_B64CF7D5-2A58-4F43-9096-9E22EB034106frame23" style="opacity:1;fill:none;" stroke="#000000" cx="17.427" cy="17.426" r="3.714"/> 	</g> 	 	<g id="_B64CF7D5-2A58-4F43-9096-9E22EB034106sendTask" display="none"> 		<path id="_B64CF7D5-2A58-4F43-9096-9E22EB034106stframe24" oryx:anchors="left top" stroke="#FFFFFF" fill="black" stroke-width="1" d="M8,11 L8,21 L24,21 L24,11 L16,17z"/> 		<path id="_B64CF7D5-2A58-4F43-9096-9E22EB034106stframe25" oryx:anchors="left top" stroke="#FFFFFF" fill="black" stroke-width="1" d="M7,10 L16,17 L25 10z"/> 	</g> 	 	<g id="_B64CF7D5-2A58-4F43-9096-9E22EB034106receiveTask" display="none"> 		<path id="_B64CF7D5-2A58-4F43-9096-9E22EB034106frame26" oryx:anchors="left top" stroke="#000000" fill="none" stroke-width="1" d="M8,11 L8,21 L24,21 L24,11z M8,11 L16,17 L24,11"/> 	</g> 	 	<g id="_B64CF7D5-2A58-4F43-9096-9E22EB034106none" display="inherit"/>  	<g id="_B64CF7D5-2A58-4F43-9096-9E22EB034106sequential" display="none">         <path oryx:anchors="bottom" fill="none" stroke="#000000" stroke-width="2" d="M46,76h10M46,72h10 M46,68h10" id="_B64CF7D5-2A58-4F43-9096-9E22EB034106__B64CF7D5-2A58-4F43-9096-9E22EB034106_20"/>     </g>   </g></g><g class="children" style="overflow:hidden"/><g class="edge"/></g><g class="controls"><g class="dockers"/><g class="magnets" transform="translate(180, 240)"><g pointer-events="all" display="none" transform="translate(-7, 12)"><circle cx="8" cy="8" r="4" stroke="none" fill="red" fill-opacity="0.3"/></g><g pointer-events="all" display="none" transform="translate(-7, 32)"><circle cx="8" cy="8" r="4" stroke="none" fill="red" fill-opacity="0.3"/></g><g pointer-events="all" display="none" transform="translate(-7, 52)"><circle cx="8" cy="8" r="4" stroke="none" fill="red" fill-opacity="0.3"/></g><g pointer-events="all" display="none" transform="translate(17, 71)"><circle cx="8" cy="8" r="4" stroke="none" fill="red" fill-opacity="0.3"/></g><g pointer-events="all" display="none" transform="translate(42, 71)"><circle cx="8" cy="8" r="4" stroke="none" fill="red" fill-opacity="0.3"/></g><g pointer-events="all" display="none" transform="translate(67, 71)"><circle cx="8" cy="8" r="4" stroke="none" fill="red" fill-opacity="0.3"/></g><g pointer-events="all" display="none" transform="translate(91, 12)"><circle cx="8" cy="8" r="4" stroke="none" fill="red" fill-opacity="0.3"/></g><g pointer-events="all" display="none" transform="translate(91, 32)"><circle cx="8" cy="8" r="4" stroke="none" fill="red" fill-opacity="0.3"/></g><g pointer-events="all" display="none" transform="translate(91, 52)"><circle cx="8" cy="8" r="4" stroke="none" fill="red" fill-opacity="0.3"/></g><g pointer-events="all" display="none" transform="translate(17, -7)"><circle cx="8" cy="8" r="4" stroke="none" fill="red" fill-opacity="0.3"/></g><g pointer-events="all" display="none" transform="translate(42, -7)"><circle cx="8" cy="8" r="4" stroke="none" fill="red" fill-opacity="0.3"/></g><g pointer-events="all" display="none" transform="translate(67, -7)"><circle cx="8" cy="8" r="4" stroke="none" fill="red" fill-opacity="0.3"/></g><g pointer-events="all" display="none" transform="translate(42, 32)"><circle cx="8" cy="8" r="4" stroke="none" fill="red" fill-opacity="0.3"/></g></g></g></g><g id="_6E0A1891-2BEC-4130-A57F-2C569BFE2BCD" bpmn2nodeid="_3FBCC521-B954-4EBE-B1B9-1F4104406118"><g class="stencils" transform="translate(405, 240)"><g class="me"><g pointer-events="fill" oryx:minimumSize="50 40" id="_6E0A1891-2BEC-4130-A57F-2C569BFE2BCD">   	<defs id="_6E0A1891-2BEC-4130-A57F-2C569BFE2BCD__6E0A1891-2BEC-4130-A57F-2C569BFE2BCD_17"> 		<radialGradient id="_6E0A1891-2BEC-4130-A57F-2C569BFE2BCDbackground" cx="10%" cy="10%" r="100%" fx="10%" fy="10%"> 			<stop offset="0%" stop-color="#ffffff" stop-opacity="1" id="_6E0A1891-2BEC-4130-A57F-2C569BFE2BCD__6E0A1891-2BEC-4130-A57F-2C569BFE2BCD_18"/> 			<stop id="_6E0A1891-2BEC-4130-A57F-2C569BFE2BCDfill_el" offset="100%" stop-color="#fafad2" stop-opacity="1"/> 		</radialGradient> 		<radialGradient id="_6E0A1891-2BEC-4130-A57F-2C569BFE2BCDborderbackground" cx="10%" cy="10%" r="100%" fx="10%" fy="10%"> 			<stop offset="0%" stop-color="#ffffff" stop-opacity="1" id="_6E0A1891-2BEC-4130-A57F-2C569BFE2BCD__6E0A1891-2BEC-4130-A57F-2C569BFE2BCD_19"/> 			<stop id="_6E0A1891-2BEC-4130-A57F-2C569BFE2BCDfill_border" offset="100%" stop-color="#000000" stop-opacity="1" stroke="#000000"/> 		</radialGradient> 	</defs> 	 	<rect id="_6E0A1891-2BEC-4130-A57F-2C569BFE2BCDtext_frame" oryx:anchors="bottom top right left" x="1" y="1" width="94" height="79" rx="10" ry="10" stroke="none" stroke-width="0" fill="none"/> 	<rect id="_6E0A1891-2BEC-4130-A57F-2C569BFE2BCDbg_frame" oryx:resize="vertical horizontal" x="0" y="0" width="100" height="80" rx="10" ry="10" stroke="#000000" stroke-width="1" fill="url(#_6E0A1891-2BEC-4130-A57F-2C569BFE2BCDbackground) #ffffcc"/> 		<text font-size="12" id="_6E0A1891-2BEC-4130-A57F-2C569BFE2BCDtext_name" x="50" y="40" oryx:align="middle center" oryx:fittoelem="text_frame" stroke="black" text-anchor="middle" stroke-width="0pt" letter-spacing="-0.01px" fill="#000000" transform="rotate(0 50 40)" visibility="inherit" oryx:fontSize="12"><tspan x="50" y="40" dy="5">inicio</tspan></text>     <g id="_6E0A1891-2BEC-4130-A57F-2C569BFE2BCDmanualTask" transform="scale(0.7,0.7) translate(8,8)" display="none">     	<path oryx:anchors="top left" id="_6E0A1891-2BEC-4130-A57F-2C569BFE2BCDframe" style="opacity:1;fill:none;fill-opacity:1;stroke-width:1" d="M0.5,3.751l4.083-3.25c0,0,11.166,0.083,12.083,0.083s-2.417,2.917-1.5,2.917     s11.667,0,12.584,0c1.166,1.708-0.168,3.167-0.834,3.667s0.875,1.917-1,4.417c-0.75,0.25,0.75,1.875-1.333,3.333     c-1.167,0.583,0.583,1.542-1.25,2.833c-1.167,0-20.833,0.083-20.833,0.083l-2-1.333V3.751z" stroke="#000000"/> 		<path id="_6E0A1891-2BEC-4130-A57F-2C569BFE2BCDframe2" oryx:anchors="top left" style="opacity:1;fill:none;stroke-width:2" d="M 13.5 7 L 27 7" stroke="#000000"/> 		<path id="_6E0A1891-2BEC-4130-A57F-2C569BFE2BCDframe3" oryx:anchors="top left" style="opacity:1;fill:none;stroke-width:2" d="M 13.5 11 L 26 11" stroke="#000000"/> 		<path id="_6E0A1891-2BEC-4130-A57F-2C569BFE2BCDframe4" oryx:anchors="top left" style="opacity:1;fill:none;stroke-width:1.5" d="M 14 14.5 L 25 14.5" stroke="#000000"/> 		<path id="_6E0A1891-2BEC-4130-A57F-2C569BFE2BCDframe5" oryx:anchors="top left" style="opacity:1;fill:none;stroke-width:1.5" d="M 8.2 3.1 L 15 3.1" stroke="#000000"/> 	</g> 	 	<g id="_6E0A1891-2BEC-4130-A57F-2C569BFE2BCDbusinessRuleTask" transform="scale(0.7,0.7) translate(8,8)" display="none"> 		<rect id="_6E0A1891-2BEC-4130-A57F-2C569BFE2BCDframe6" oryx:anchors="top left" x="0" y="0" width="22" height="4" style="opacity:1;fill:#B3B1B3;fill-opacity:1;" stroke="#000000"/> 		<rect id="_6E0A1891-2BEC-4130-A57F-2C569BFE2BCDframe7" oryx:anchors="top left" x="0" y="4" style="opacity:1;fill:none;" width="22" height="12" stroke="#000000"/> 		<path id="_6E0A1891-2BEC-4130-A57F-2C569BFE2BCDframe8" oryx:anchors="top left" style="opacity:1;fill:none;" d="M 0 10 L 22 10" stroke="#000000"/> 		<path id="_6E0A1891-2BEC-4130-A57F-2C569BFE2BCDframe9" oryx:anchors="top left" style="opacity:1; fill:none;" d="M 7 4 L 7 16" stroke="#000000"/> 	</g> 	 	<g id="_6E0A1891-2BEC-4130-A57F-2C569BFE2BCDscriptTask" transform="scale(0.7,0.7) translate(8,8)" display="inherit"> 		<path oryx:anchors="top left" id="_6E0A1891-2BEC-4130-A57F-2C569BFE2BCDframe10" style="opacity:1;fill:none;" stroke="#000000" d="M6.402,0.5h14.5c0,0-5.833,2.833-5.833,5.583s4.417,6,4.417,9.167    s-4.167,5.083-4.167,5.083H0.235c0,0,5-2.667,5-5s-4.583-6.75-4.583-9.25S6.402,0.5,6.402,0.5z"/> 		<path oryx:anchors="top left" id="_6E0A1891-2BEC-4130-A57F-2C569BFE2BCDframe11" style="opacity:1;fill:none;stroke-width:1.5" d="M 3.5 4.5 L 13.5 4.5" stroke="#000000"/> 		<path oryx:anchors="top left" id="_6E0A1891-2BEC-4130-A57F-2C569BFE2BCDframe12" style="opacity:1;fill:none;stroke-width:1.5" d="M 3.8 8.5 L 13.8 8.5" stroke="#000000"/> 		<path oryx:anchors="top left" id="_6E0A1891-2BEC-4130-A57F-2C569BFE2BCDframe13" style="opacity:1;fill:none;stroke-width:1.5" d="M 6.3 12.5 L 16.3 12.5" stroke="#000000"/> 		<path oryx:anchors="top left" id="_6E0A1891-2BEC-4130-A57F-2C569BFE2BCDframe14" style="opacity:1;fill:none;stroke-width:1.5" d="M 6.5 16.5 L 16.5 16.5" stroke="#000000"/> 	</g> 	 	<g id="_6E0A1891-2BEC-4130-A57F-2C569BFE2BCDuserTask" transform="scale(0.7,0.7) translate(8,8)" display="none"> 		<path id="_6E0A1891-2BEC-4130-A57F-2C569BFE2BCDframe15" oryx:anchors="top left" style="opacity:1;fill:#F4F6F7" stroke="#000000" d="M0.585,24.167h24.083v-7.833c0,0-2.333-3.917-7.083-5.167h-9.25    c-4.417,1.333-7.833,5.75-7.833,5.75L0.585,24.167z"/> 		<path id="_6E0A1891-2BEC-4130-A57F-2C569BFE2BCDframe16" oryx:anchors="top left" style="opacity:1;fill:none" d="M 6 20 L 6 24" stroke="#000000"/> 		<path id="_6E0A1891-2BEC-4130-A57F-2C569BFE2BCDframe17" oryx:anchors="top left" style="opacity:1;fill:none" d="M 20 20 L 20 24" stroke="#000000"/> 		<circle id="_6E0A1891-2BEC-4130-A57F-2C569BFE2BCDframe18" oryx:anchors="top left" fill="black" cx="13.002" cy="5.916" r="5.417" stroke="#000000"/> 		<path id="_6E0A1891-2BEC-4130-A57F-2C569BFE2BCDframe19" oryx:anchors="top left" style="opacity:1;fill:#F0EFF0;" stroke="#000000" d="M8.043,7.083c0,0,2.814-2.426,5.376-1.807s4.624-0.693,4.624-0.693    c0.25,1.688,0.042,3.75-1.458,5.584c0,0,1.083,0.75,1.083,1.5s0.125,1.875-1,3s-5.5,1.25-6.75,0S8.668,12.834,8.668,12    s0.583-1.25,1.25-1.917C8.835,9.5,7.419,7.708,8.043,7.083z"/> 	</g> 	 	<g id="_6E0A1891-2BEC-4130-A57F-2C569BFE2BCDserviceTask" transform="scale(0.7,0.7) translate(8,8)" display="none"> 		<polygon oryx:anchors="top left" id="_6E0A1891-2BEC-4130-A57F-2C569BFE2BCDframe20" style="opacity:1;fill:#ffffff" stroke="#000000" points="15.392,5.064 17.954,2.502 20.347,4.895 17.786,7.455     18.729,9.732 22.353,9.732 22.353,13.115 18.731,13.115 17.788,15.392 20.351,17.955 17.958,20.347 15.397,17.786 13.12,18.729     13.12,22.353 9.737,22.353 9.737,18.731 7.46,17.788 4.897,20.35 2.506,17.958 5.066,15.397 4.124,13.12 0.5,13.12 0.5,9.737     4.121,9.737 5.065,7.461 2.503,4.898 4.895,2.506 7.455,5.066 9.732,4.125 9.732,0.5 13.116,0.5 13.116,4.121 "/> 		<circle oryx:anchors="top left" id="_6E0A1891-2BEC-4130-A57F-2C569BFE2BCDframe21" style="opacity:1;fill:none" stroke="#000000" cx="11.427" cy="11.426" r="3.714"/> 		<polygon oryx:anchors="top left" id="_6E0A1891-2BEC-4130-A57F-2C569BFE2BCDframe22" style="opacity:1;fill:#ffffff" stroke="#000000" points="21.392,11.064 23.954,8.502 26.347,10.895 23.786,13.455     24.729,15.732 28.353,15.732 28.353,19.115 24.731,19.115 23.788,21.392 26.351,23.955 23.958,26.347 21.397,23.786 19.12,24.729     19.12,28.353 15.737,28.353 15.737,24.731 13.46,23.788 10.897,26.35 8.506,23.958 11.066,21.397 10.124,19.12 6.5,19.12     6.5,15.737 10.121,15.737 11.065,13.461 8.503,10.898 10.895,8.506 13.455,11.066 15.732,10.125 15.732,6.5 19.116,6.5     19.116,10.121 "/> 		<circle oryx:anchors="top left" id="_6E0A1891-2BEC-4130-A57F-2C569BFE2BCDframe23" style="opacity:1;fill:none;" stroke="#000000" cx="17.427" cy="17.426" r="3.714"/> 	</g> 	 	<g id="_6E0A1891-2BEC-4130-A57F-2C569BFE2BCDsendTask" display="none"> 		<path id="_6E0A1891-2BEC-4130-A57F-2C569BFE2BCDstframe24" oryx:anchors="left top" stroke="#FFFFFF" fill="black" stroke-width="1" d="M8,11 L8,21 L24,21 L24,11 L16,17z"/> 		<path id="_6E0A1891-2BEC-4130-A57F-2C569BFE2BCDstframe25" oryx:anchors="left top" stroke="#FFFFFF" fill="black" stroke-width="1" d="M7,10 L16,17 L25 10z"/> 	</g> 	 	<g id="_6E0A1891-2BEC-4130-A57F-2C569BFE2BCDreceiveTask" display="none"> 		<path id="_6E0A1891-2BEC-4130-A57F-2C569BFE2BCDframe26" oryx:anchors="left top" stroke="#000000" fill="none" stroke-width="1" d="M8,11 L8,21 L24,21 L24,11z M8,11 L16,17 L24,11"/> 	</g> 	 	<g id="_6E0A1891-2BEC-4130-A57F-2C569BFE2BCDnone" display="inherit"/>  	<g id="_6E0A1891-2BEC-4130-A57F-2C569BFE2BCDsequential" display="none">         <path oryx:anchors="bottom" fill="none" stroke="#000000" stroke-width="2" d="M46,76h10M46,72h10 M46,68h10" id="_6E0A1891-2BEC-4130-A57F-2C569BFE2BCD__6E0A1891-2BEC-4130-A57F-2C569BFE2BCD_20"/>     </g>   </g></g><g class="children" style="overflow:hidden"/><g class="edge"/></g><g class="controls"><g class="dockers"/><g class="magnets" transform="translate(405, 240)"><g pointer-events="all" display="none" transform="translate(-7, 12)"><circle cx="8" cy="8" r="4" stroke="none" fill="red" fill-opacity="0.3"/></g><g pointer-events="all" display="none" transform="translate(-7, 32)"><circle cx="8" cy="8" r="4" stroke="none" fill="red" fill-opacity="0.3"/></g><g pointer-events="all" display="none" transform="translate(-7, 52)"><circle cx="8" cy="8" r="4" stroke="none" fill="red" fill-opacity="0.3"/></g><g pointer-events="all" display="none" transform="translate(17, 71)"><circle cx="8" cy="8" r="4" stroke="none" fill="red" fill-opacity="0.3"/></g><g pointer-events="all" display="none" transform="translate(42, 71)"><circle cx="8" cy="8" r="4" stroke="none" fill="red" fill-opacity="0.3"/></g><g pointer-events="all" display="none" transform="translate(67, 71)"><circle cx="8" cy="8" r="4" stroke="none" fill="red" fill-opacity="0.3"/></g><g pointer-events="all" display="none" transform="translate(91, 12)"><circle cx="8" cy="8" r="4" stroke="none" fill="red" fill-opacity="0.3"/></g><g pointer-events="all" display="none" transform="translate(91, 32)"><circle cx="8" cy="8" r="4" stroke="none" fill="red" fill-opacity="0.3"/></g><g pointer-events="all" display="none" transform="translate(91, 52)"><circle cx="8" cy="8" r="4" stroke="none" fill="red" fill-opacity="0.3"/></g><g pointer-events="all" display="none" transform="translate(17, -7)"><circle cx="8" cy="8" r="4" stroke="none" fill="red" fill-opacity="0.3"/></g><g pointer-events="all" display="none" transform="translate(42, -7)"><circle cx="8" cy="8" r="4" stroke="none" fill="red" fill-opacity="0.3"/></g><g pointer-events="all" display="none" transform="translate(67, -7)"><circle cx="8" cy="8" r="4" stroke="none" fill="red" fill-opacity="0.3"/></g><g pointer-events="all" display="none" transform="translate(42, 32)"><circle cx="8" cy="8" r="4" stroke="none" fill="red" fill-opacity="0.3"/></g></g></g></g><g id="_6ECC4301-BBD3-46A6-8D29-90A2DC046900" bpmn2nodeid="_6E638346-0973-4DAB-B890-69B4BE7F874A"><g class="stencils" transform="translate(550, 266)"><g class="me"><g pointer-events="fill" id="_6ECC4301-BBD3-46A6-8D29-90A2DC046900">      <defs id="_6ECC4301-BBD3-46A6-8D29-90A2DC046900__6ECC4301-BBD3-46A6-8D29-90A2DC046900_5"> 		<radialGradient id="_6ECC4301-BBD3-46A6-8D29-90A2DC046900background" cx="10%" cy="10%" r="100%" fx="10%" fy="10%"> 			<stop offset="0%" stop-color="#ffffff" stop-opacity="1" id="_6ECC4301-BBD3-46A6-8D29-90A2DC046900__6ECC4301-BBD3-46A6-8D29-90A2DC046900_6"/> 			<stop id="_6ECC4301-BBD3-46A6-8D29-90A2DC046900fill_el" offset="100%" stop-color="#ff6347" stop-opacity="1"/> 		</radialGradient> 	</defs> 	     <circle id="_6ECC4301-BBD3-46A6-8D29-90A2DC046900bg_frame" cx="14" cy="14" r="14" stroke="#000000" fill="url(#_6ECC4301-BBD3-46A6-8D29-90A2DC046900background) white" stroke-width="3"/> 	<text font-size="11" id="_6ECC4301-BBD3-46A6-8D29-90A2DC046900text_name" x="14" y="30" oryx:align="top center" stroke="black" stroke-width="0pt" letter-spacing="-0.01px" fill="#000000" text-anchor="middle" transform="rotate(0 14 30)" visibility="inherit" oryx:fontSize="11"/>   </g></g><g class="children" style="overflow:hidden"/><g class="edge"/></g><g class="controls"><g class="dockers"/><g class="magnets" transform="translate(550, 266)"><g pointer-events="all" display="none" transform="translate(6, 6)"><circle cx="8" cy="8" r="4" stroke="none" fill="red" fill-opacity="0.3"/></g></g></g></g></g><g class="edge"><g id="_8D329FE2-A114-41E6-90B9-4D9B9722766E" bpmn2nodeid="_06123203-938A-42FA-862F-B434F124492A"><g class="stencils"><g class="me"><g pointer-events="painted" bpmn2nodeid="_020CFB5D-BEA2-4EE3-8FEA-7B9CAC2DAE8A"><path id="_8D329FE2-A114-41E6-90B9-4D9B9722766E_1" d="M60.453125 280L179.859375 280 " stroke="#000000" fill="none" stroke-width="2" stroke-linecap="round" stroke-linejoin="round" marker-start="url(#_8D329FE2-A114-41E6-90B9-4D9B9722766Estart)" marker-end="url(#_8D329FE2-A114-41E6-90B9-4D9B9722766Eend)"/></g><text id="_8D329FE2-A114-41E6-90B9-4D9B9722766Etext_name" font-size="12" x="74.453125" y="266" oryx:edgePosition="startTop" stroke-width="0pt" letter-spacing="-0.01px" fill="#000000" text-anchor="start" transform="rotate(360 60.453125 280)" visibility="inherit" oryx:fontSize="12"/></g><g class="children" style="overflow:hidden"/><g class="edge"/></g><g class="controls"><g class="dockers"/><g class="magnets"/></g></g><g id="_743537DB-549B-490A-8E3B-0F3CF344F1F3" bpmn2nodeid="_6D4B76E5-3787-4E27-9D48-796004089ECD"><g class="stencils"><g class="me"><g pointer-events="painted" bpmn2nodeid="_9CB58762-99B3-447C-BA8B-F23156CC5EB3"><path id="_743537DB-549B-490A-8E3B-0F3CF344F1F3_1" d="M280.21875 280L404.78125 280 " stroke="#000000" fill="none" stroke-width="2" stroke-linecap="round" stroke-linejoin="round" marker-start="url(#_743537DB-549B-490A-8E3B-0F3CF344F1F3start)" marker-end="url(#_743537DB-549B-490A-8E3B-0F3CF344F1F3end)"/></g><text id="_743537DB-549B-490A-8E3B-0F3CF344F1F3text_name" font-size="12" x="294.21875" y="266" oryx:edgePosition="startTop" stroke-width="0pt" letter-spacing="-0.01px" fill="#000000" text-anchor="start" transform="rotate(360 280.21875 280)" visibility="inherit" oryx:fontSize="12"/></g><g class="children" style="overflow:hidden"/><g class="edge"/></g><g class="controls"><g class="dockers"/><g class="magnets"/></g></g><g id="_0DEE70A1-C5DD-426C-9766-25E842A764AB" bpmn2nodeid="_807053B1-2411-48E0-BCBE-D1AC06C8910D"><g class="stencils"><g class="me"><g pointer-events="painted" bpmn2nodeid="_807053B1-2411-48E0-BCBE-D1AC06C8910D"><path id="_0DEE70A1-C5DD-426C-9766-25E842A764AB_1" d="M505.390625 280L549.375 280 " stroke="#000000" fill="none" stroke-width="2" stroke-linecap="round" stroke-linejoin="round" marker-start="url(#_0DEE70A1-C5DD-426C-9766-25E842A764ABstart)" marker-end="url(#_0DEE70A1-C5DD-426C-9766-25E842A764ABend)"/></g><text id="_0DEE70A1-C5DD-426C-9766-25E842A764ABtext_name" font-size="12" x="519.390625" y="266" oryx:edgePosition="startTop" stroke-width="0pt" letter-spacing="-0.01px" fill="#000000" text-anchor="start" transform="rotate(360 505.390625 280)" visibility="inherit" oryx:fontSize="12"/></g><g class="children" style="overflow:hidden"/><g class="edge"/></g><g class="controls"><g class="dockers"/><g class="magnets"/></g></g></g><text id="_60D666D2-EBB6-4D39-B871-84BC04D71AA8" style="stroke-width:1;fill:rgb(177,194,214);font-family:arial;font-weight:bold" font-size="12" onclick="ORYX.Plugins.CanvasTitle.openTextualAnalysis()" onmouseover="ORYX.Plugins.CanvasTitle.addToolTip('_60D666D2-EBB6-4D39-B871-84BC04D71AA8')" transform="translate(10, 20)">Tarjetas v.1.0 (Opplus.Tarjetas)</text></g></g></svg>