<svg xmlns="http://www.w3.org/2000/svg" xmlns:oryx="http://oryx-editor.org" id="_81C6EA3A-CB0E-4F50-9C60-DA978E7C4F77" width="669" height="256" xmlns:xlink="http://www.w3.org/1999/xlink" xmlns:svg="http://www.w3.org/2000/svg"><defs><marker id="_49293CBC-17A6-41A4-B80E-0E05BE171E3Cstart" refX="1" refY="5" markerUnits="userSpaceOnUse" markerWidth="17" markerHeight="11" orient="auto" fill="#000000" stroke="#000000"> 	  		<path id="_49293CBC-17A6-41A4-B80E-0E05BE171E3Cconditional" d="M 0 5 L 8 0 L 16 5 L 8 10 L 0 5" fill="white" stroke="#000000" stroke-width="1" display="none"/> 			<path id="_49293CBC-17A6-41A4-B80E-0E05BE171E3Cdefault" d="M 5 0 L 11 10" fill="white" stroke="#000000" stroke-width="1" display="none"/> 	  	</marker><marker id="_49293CBC-17A6-41A4-B80E-0E05BE171E3Cend" refX="15" refY="6" markerUnits="userSpaceOnUse" markerWidth="15" markerHeight="12" orient="auto" fill="#000000" stroke="#000000"> 	  		<path id="_49293CBC-17A6-41A4-B80E-0E05BE171E3Cframe2" d="M 0 1 L 15 6 L 0 11z" fill="#000000" stroke="#000000" stroke-linejoin="round" stroke-width="2"/> 	  	</marker><marker id="_64D76464-451C-4639-88A0-3F731D123C5Astart" refX="1" refY="5" markerUnits="userSpaceOnUse" markerWidth="17" markerHeight="11" orient="auto" fill="#000000" stroke="#000000"> 	  		<path id="_64D76464-451C-4639-88A0-3F731D123C5Aconditional" d="M 0 5 L 8 0 L 16 5 L 8 10 L 0 5" fill="white" stroke="#000000" stroke-width="1" display="none"/> 			<path id="_64D76464-451C-4639-88A0-3F731D123C5Adefault" d="M 5 0 L 11 10" fill="white" stroke="#000000" stroke-width="1" display="none"/> 	  	</marker><marker id="_64D76464-451C-4639-88A0-3F731D123C5Aend" refX="15" refY="6" markerUnits="userSpaceOnUse" markerWidth="15" markerHeight="12" orient="auto" fill="#000000" stroke="#000000"> 	  		<path id="_64D76464-451C-4639-88A0-3F731D123C5Aframe2" d="M 0 1 L 15 6 L 0 11z" fill="#000000" stroke="#000000" stroke-linejoin="round" stroke-width="2"/> 	  	</marker><marker id="_179842B0-66F8-4D99-ABE7-D58AA82DCE00start" refX="1" refY="5" markerUnits="userSpaceOnUse" markerWidth="17" markerHeight="11" orient="auto" fill="#000000" stroke="#000000"> 	  		<path id="_179842B0-66F8-4D99-ABE7-D58AA82DCE00conditional" d="M 0 5 L 8 0 L 16 5 L 8 10 L 0 5" fill="white" stroke="#000000" stroke-width="1" display="none"/> 			<path id="_179842B0-66F8-4D99-ABE7-D58AA82DCE00default" d="M 5 0 L 11 10" fill="white" stroke="#000000" stroke-width="1" display="none"/> 	  	</marker><marker id="_179842B0-66F8-4D99-ABE7-D58AA82DCE00end" refX="15" refY="6" markerUnits="userSpaceOnUse" markerWidth="15" markerHeight="12" orient="auto" fill="#000000" stroke="#000000"> 	  		<path id="_179842B0-66F8-4D99-ABE7-D58AA82DCE00frame2" d="M 0 1 L 15 6 L 0 11z" fill="#000000" stroke="#000000" stroke-linejoin="round" stroke-width="2"/> 	  	</marker></defs><g stroke="none" font-family="Verdana, sans-serif" font-size-adjust="none" font-style="normal" font-variant="normal" font-weight="normal" line-heigth="normal" font-size="12"><g class="stencils" transform="translate(16, 16)"><g class="me"/><g class="children"><g id="_EFCA900E-850C-4B02-A000-94741EC0CD04" bpmn2nodeid="processStartEvent"><g class="stencils" transform="translate(45, 160)"><g class="me"><g pointer-events="fill" id="_EFCA900E-850C-4B02-A000-94741EC0CD04">        <defs id="_EFCA900E-850C-4B02-A000-94741EC0CD04__EFCA900E-850C-4B02-A000-94741EC0CD04_5"> 		<radialGradient id="_EFCA900E-850C-4B02-A000-94741EC0CD04background" cx="10%" cy="10%" r="100%" fx="10%" fy="10%"> 			<stop offset="0%" stop-color="#ffffff" stop-opacity="1" id="_EFCA900E-850C-4B02-A000-94741EC0CD04__EFCA900E-850C-4B02-A000-94741EC0CD04_6"/> 			<stop id="_EFCA900E-850C-4B02-A000-94741EC0CD04fill_el" offset="100%" stop-color="#9acd32" stop-opacity="1"/> 		</radialGradient> 	</defs> 	     <circle id="_EFCA900E-850C-4B02-A000-94741EC0CD04bg_frame" cx="15" cy="15" r="15" stroke="#000000" fill="url(#_EFCA900E-850C-4B02-A000-94741EC0CD04background) white" stroke-width="1" style="stroke-dasharray: 5.5, 3"/>      <circle id="_EFCA900E-850C-4B02-A000-94741EC0CD04frame" cx="15" cy="15" r="15" stroke="#000000" fill="none" stroke-width="1" display="inherit"/>  	<text font-size="11" id="_EFCA900E-850C-4B02-A000-94741EC0CD04text_name" x="15" y="32" oryx:align="top center" stroke="black" stroke-width="0pt" letter-spacing="-0.01px" fill="#000000" text-anchor="middle" transform="rotate(0 15 32)" visibility="inherit" oryx:fontSize="11"/>   </g></g><g class="children" style="overflow:hidden"/><g class="edge"/></g><g class="controls"><g class="dockers"/><g class="magnets" transform="translate(45, 160)"><g pointer-events="all" display="none" transform="translate(7, 7)"><circle cx="8" cy="8" r="4" stroke="none" fill="red" fill-opacity="0.3"/></g></g></g></g><g id="_1077E2EB-4141-4FB9-9B61-CFA08877504E" bpmn2nodeid="_C1D8834E-A3BA-4D63-A71B-E47B521F34D7"><g class="stencils" transform="translate(165, 135)"><g class="me"><g pointer-events="fill" oryx:minimumSize="50 40" id="_1077E2EB-4141-4FB9-9B61-CFA08877504E">   	<defs id="_1077E2EB-4141-4FB9-9B61-CFA08877504E__1077E2EB-4141-4FB9-9B61-CFA08877504E_17"> 		<radialGradient id="_1077E2EB-4141-4FB9-9B61-CFA08877504Ebackground" cx="10%" cy="10%" r="100%" fx="10%" fy="10%"> 			<stop offset="0%" stop-color="#ffffff" stop-opacity="1" id="_1077E2EB-4141-4FB9-9B61-CFA08877504E__1077E2EB-4141-4FB9-9B61-CFA08877504E_18"/> 			<stop id="_1077E2EB-4141-4FB9-9B61-CFA08877504Efill_el" offset="100%" stop-color="#fafad2" stop-opacity="1"/> 		</radialGradient> 		<radialGradient id="_1077E2EB-4141-4FB9-9B61-CFA08877504Eborderbackground" cx="10%" cy="10%" r="100%" fx="10%" fy="10%"> 			<stop offset="0%" stop-color="#ffffff" stop-opacity="1" id="_1077E2EB-4141-4FB9-9B61-CFA08877504E__1077E2EB-4141-4FB9-9B61-CFA08877504E_19"/> 			<stop id="_1077E2EB-4141-4FB9-9B61-CFA08877504Efill_border" offset="100%" stop-color="#000000" stop-opacity="1" stroke="#000000"/> 		</radialGradient> 	</defs> 	 	<rect id="_1077E2EB-4141-4FB9-9B61-CFA08877504Etext_frame" oryx:anchors="bottom top right left" x="1" y="1" width="94" height="79" rx="10" ry="10" stroke="none" stroke-width="0" fill="none"/> 	<rect id="_1077E2EB-4141-4FB9-9B61-CFA08877504Ebg_frame" oryx:resize="vertical horizontal" x="0" y="0" width="100" height="80" rx="10" ry="10" stroke="#000000" stroke-width="1" fill="url(#_1077E2EB-4141-4FB9-9B61-CFA08877504Ebackground) #ffffcc"/> 		<text font-size="12" id="_1077E2EB-4141-4FB9-9B61-CFA08877504Etext_name" x="50" y="40" oryx:align="middle center" oryx:fittoelem="text_frame" stroke="black" text-anchor="middle" stroke-width="0pt" letter-spacing="-0.01px" fill="#000000" transform="rotate(0 50 40)" visibility="inherit" oryx:fontSize="12"><tspan x="50" y="40" dy="5">Admisi?n</tspan></text>     <g id="_1077E2EB-4141-4FB9-9B61-CFA08877504EmanualTask" transform="scale(0.7,0.7) translate(8,8)" display="none">     	<path oryx:anchors="top left" id="_1077E2EB-4141-4FB9-9B61-CFA08877504Eframe" style="opacity:1;fill:none;fill-opacity:1;stroke-width:1" d="M0.5,3.751l4.083-3.25c0,0,11.166,0.083,12.083,0.083s-2.417,2.917-1.5,2.917     s11.667,0,12.584,0c1.166,1.708-0.168,3.167-0.834,3.667s0.875,1.917-1,4.417c-0.75,0.25,0.75,1.875-1.333,3.333     c-1.167,0.583,0.583,1.542-1.25,2.833c-1.167,0-20.833,0.083-20.833,0.083l-2-1.333V3.751z" stroke="#000000"/> 		<path id="_1077E2EB-4141-4FB9-9B61-CFA08877504Eframe2" oryx:anchors="top left" style="opacity:1;fill:none;stroke-width:2" d="M 13.5 7 L 27 7" stroke="#000000"/> 		<path id="_1077E2EB-4141-4FB9-9B61-CFA08877504Eframe3" oryx:anchors="top left" style="opacity:1;fill:none;stroke-width:2" d="M 13.5 11 L 26 11" stroke="#000000"/> 		<path id="_1077E2EB-4141-4FB9-9B61-CFA08877504Eframe4" oryx:anchors="top left" style="opacity:1;fill:none;stroke-width:1.5" d="M 14 14.5 L 25 14.5" stroke="#000000"/> 		<path id="_1077E2EB-4141-4FB9-9B61-CFA08877504Eframe5" oryx:anchors="top left" style="opacity:1;fill:none;stroke-width:1.5" d="M 8.2 3.1 L 15 3.1" stroke="#000000"/> 	</g> 	 	<g id="_1077E2EB-4141-4FB9-9B61-CFA08877504EbusinessRuleTask" transform="scale(0.7,0.7) translate(8,8)" display="none"> 		<rect id="_1077E2EB-4141-4FB9-9B61-CFA08877504Eframe6" oryx:anchors="top left" x="0" y="0" width="22" height="4" style="opacity:1;fill:#B3B1B3;fill-opacity:1;" stroke="#000000"/> 		<rect id="_1077E2EB-4141-4FB9-9B61-CFA08877504Eframe7" oryx:anchors="top left" x="0" y="4" style="opacity:1;fill:none;" width="22" height="12" stroke="#000000"/> 		<path id="_1077E2EB-4141-4FB9-9B61-CFA08877504Eframe8" oryx:anchors="top left" style="opacity:1;fill:none;" d="M 0 10 L 22 10" stroke="#000000"/> 		<path id="_1077E2EB-4141-4FB9-9B61-CFA08877504Eframe9" oryx:anchors="top left" style="opacity:1; fill:none;" d="M 7 4 L 7 16" stroke="#000000"/> 	</g> 	 	<g id="_1077E2EB-4141-4FB9-9B61-CFA08877504EscriptTask" transform="scale(0.7,0.7) translate(8,8)" display="none"> 		<path oryx:anchors="top left" id="_1077E2EB-4141-4FB9-9B61-CFA08877504Eframe10" style="opacity:1;fill:none;" stroke="#000000" d="M6.402,0.5h14.5c0,0-5.833,2.833-5.833,5.583s4.417,6,4.417,9.167    s-4.167,5.083-4.167,5.083H0.235c0,0,5-2.667,5-5s-4.583-6.75-4.583-9.25S6.402,0.5,6.402,0.5z"/> 		<path oryx:anchors="top left" id="_1077E2EB-4141-4FB9-9B61-CFA08877504Eframe11" style="opacity:1;fill:none;stroke-width:1.5" d="M 3.5 4.5 L 13.5 4.5" stroke="#000000"/> 		<path oryx:anchors="top left" id="_1077E2EB-4141-4FB9-9B61-CFA08877504Eframe12" style="opacity:1;fill:none;stroke-width:1.5" d="M 3.8 8.5 L 13.8 8.5" stroke="#000000"/> 		<path oryx:anchors="top left" id="_1077E2EB-4141-4FB9-9B61-CFA08877504Eframe13" style="opacity:1;fill:none;stroke-width:1.5" d="M 6.3 12.5 L 16.3 12.5" stroke="#000000"/> 		<path oryx:anchors="top left" id="_1077E2EB-4141-4FB9-9B61-CFA08877504Eframe14" style="opacity:1;fill:none;stroke-width:1.5" d="M 6.5 16.5 L 16.5 16.5" stroke="#000000"/> 	</g> 	 	<g id="_1077E2EB-4141-4FB9-9B61-CFA08877504EuserTask" transform="scale(0.7,0.7) translate(8,8)" display="inherit"> 		<path id="_1077E2EB-4141-4FB9-9B61-CFA08877504Eframe15" oryx:anchors="top left" style="opacity:1;fill:#F4F6F7" stroke="#000000" d="M0.585,24.167h24.083v-7.833c0,0-2.333-3.917-7.083-5.167h-9.25    c-4.417,1.333-7.833,5.75-7.833,5.75L0.585,24.167z"/> 		<path id="_1077E2EB-4141-4FB9-9B61-CFA08877504Eframe16" oryx:anchors="top left" style="opacity:1;fill:none" d="M 6 20 L 6 24" stroke="#000000"/> 		<path id="_1077E2EB-4141-4FB9-9B61-CFA08877504Eframe17" oryx:anchors="top left" style="opacity:1;fill:none" d="M 20 20 L 20 24" stroke="#000000"/> 		<circle id="_1077E2EB-4141-4FB9-9B61-CFA08877504Eframe18" oryx:anchors="top left" fill="black" cx="13.002" cy="5.916" r="5.417" stroke="#000000"/> 		<path id="_1077E2EB-4141-4FB9-9B61-CFA08877504Eframe19" oryx:anchors="top left" style="opacity:1;fill:#F0EFF0;" stroke="#000000" d="M8.043,7.083c0,0,2.814-2.426,5.376-1.807s4.624-0.693,4.624-0.693    c0.25,1.688,0.042,3.75-1.458,5.584c0,0,1.083,0.75,1.083,1.5s0.125,1.875-1,3s-5.5,1.25-6.75,0S8.668,12.834,8.668,12    s0.583-1.25,1.25-1.917C8.835,9.5,7.419,7.708,8.043,7.083z"/> 	</g> 	 	<g id="_1077E2EB-4141-4FB9-9B61-CFA08877504EserviceTask" transform="scale(0.7,0.7) translate(8,8)" display="none"> 		<polygon oryx:anchors="top left" id="_1077E2EB-4141-4FB9-9B61-CFA08877504Eframe20" style="opacity:1;fill:#ffffff" stroke="#000000" points="15.392,5.064 17.954,2.502 20.347,4.895 17.786,7.455     18.729,9.732 22.353,9.732 22.353,13.115 18.731,13.115 17.788,15.392 20.351,17.955 17.958,20.347 15.397,17.786 13.12,18.729     13.12,22.353 9.737,22.353 9.737,18.731 7.46,17.788 4.897,20.35 2.506,17.958 5.066,15.397 4.124,13.12 0.5,13.12 0.5,9.737     4.121,9.737 5.065,7.461 2.503,4.898 4.895,2.506 7.455,5.066 9.732,4.125 9.732,0.5 13.116,0.5 13.116,4.121 "/> 		<circle oryx:anchors="top left" id="_1077E2EB-4141-4FB9-9B61-CFA08877504Eframe21" style="opacity:1;fill:none" stroke="#000000" cx="11.427" cy="11.426" r="3.714"/> 		<polygon oryx:anchors="top left" id="_1077E2EB-4141-4FB9-9B61-CFA08877504Eframe22" style="opacity:1;fill:#ffffff" stroke="#000000" points="21.392,11.064 23.954,8.502 26.347,10.895 23.786,13.455     24.729,15.732 28.353,15.732 28.353,19.115 24.731,19.115 23.788,21.392 26.351,23.955 23.958,26.347 21.397,23.786 19.12,24.729     19.12,28.353 15.737,28.353 15.737,24.731 13.46,23.788 10.897,26.35 8.506,23.958 11.066,21.397 10.124,19.12 6.5,19.12     6.5,15.737 10.121,15.737 11.065,13.461 8.503,10.898 10.895,8.506 13.455,11.066 15.732,10.125 15.732,6.5 19.116,6.5     19.116,10.121 "/> 		<circle oryx:anchors="top left" id="_1077E2EB-4141-4FB9-9B61-CFA08877504Eframe23" style="opacity:1;fill:none;" stroke="#000000" cx="17.427" cy="17.426" r="3.714"/> 	</g> 	 	<g id="_1077E2EB-4141-4FB9-9B61-CFA08877504EsendTask" display="none"> 		<path id="_1077E2EB-4141-4FB9-9B61-CFA08877504Estframe24" oryx:anchors="left top" stroke="#FFFFFF" fill="black" stroke-width="1" d="M8,11 L8,21 L24,21 L24,11 L16,17z"/> 		<path id="_1077E2EB-4141-4FB9-9B61-CFA08877504Estframe25" oryx:anchors="left top" stroke="#FFFFFF" fill="black" stroke-width="1" d="M7,10 L16,17 L25 10z"/> 	</g> 	 	<g id="_1077E2EB-4141-4FB9-9B61-CFA08877504EreceiveTask" display="none"> 		<path id="_1077E2EB-4141-4FB9-9B61-CFA08877504Eframe26" oryx:anchors="left top" stroke="#000000" fill="none" stroke-width="1" d="M8,11 L8,21 L24,21 L24,11z M8,11 L16,17 L24,11"/> 	</g> 	 	<g id="_1077E2EB-4141-4FB9-9B61-CFA08877504Enone" display="inherit"/>  	<g id="_1077E2EB-4141-4FB9-9B61-CFA08877504Esequential" display="none">         <path oryx:anchors="bottom" fill="none" stroke="#000000" stroke-width="2" d="M46,76h10M46,72h10 M46,68h10" id="_1077E2EB-4141-4FB9-9B61-CFA08877504E__1077E2EB-4141-4FB9-9B61-CFA08877504E_20"/>     </g>   </g></g><g class="children" style="overflow:hidden"/><g class="edge"/></g><g class="controls"><g class="dockers"/><g class="magnets" transform="translate(165, 135)"><g pointer-events="all" display="none" transform="translate(-7, 12)"><circle cx="8" cy="8" r="4" stroke="none" fill="red" fill-opacity="0.3"/></g><g pointer-events="all" display="none" transform="translate(-7, 32)"><circle cx="8" cy="8" r="4" stroke="none" fill="red" fill-opacity="0.3"/></g><g pointer-events="all" display="none" transform="translate(-7, 52)"><circle cx="8" cy="8" r="4" stroke="none" fill="red" fill-opacity="0.3"/></g><g pointer-events="all" display="none" transform="translate(17, 71)"><circle cx="8" cy="8" r="4" stroke="none" fill="red" fill-opacity="0.3"/></g><g pointer-events="all" display="none" transform="translate(42, 71)"><circle cx="8" cy="8" r="4" stroke="none" fill="red" fill-opacity="0.3"/></g><g pointer-events="all" display="none" transform="translate(67, 71)"><circle cx="8" cy="8" r="4" stroke="none" fill="red" fill-opacity="0.3"/></g><g pointer-events="all" display="none" transform="translate(91, 12)"><circle cx="8" cy="8" r="4" stroke="none" fill="red" fill-opacity="0.3"/></g><g pointer-events="all" display="none" transform="translate(91, 32)"><circle cx="8" cy="8" r="4" stroke="none" fill="red" fill-opacity="0.3"/></g><g pointer-events="all" display="none" transform="translate(91, 52)"><circle cx="8" cy="8" r="4" stroke="none" fill="red" fill-opacity="0.3"/></g><g pointer-events="all" display="none" transform="translate(17, -7)"><circle cx="8" cy="8" r="4" stroke="none" fill="red" fill-opacity="0.3"/></g><g pointer-events="all" display="none" transform="translate(42, -7)"><circle cx="8" cy="8" r="4" stroke="none" fill="red" fill-opacity="0.3"/></g><g pointer-events="all" display="none" transform="translate(67, -7)"><circle cx="8" cy="8" r="4" stroke="none" fill="red" fill-opacity="0.3"/></g><g pointer-events="all" display="none" transform="translate(42, 32)"><circle cx="8" cy="8" r="4" stroke="none" fill="red" fill-opacity="0.3"/></g></g></g></g><g id="_9B5CB7D6-218F-422E-8B6D-873EA8D1A1E4" bpmn2nodeid="_3FBCC521-B954-4EBE-B1B9-1F4104406118"><g class="stencils" transform="translate(375, 135)"><g class="me"><g pointer-events="fill" oryx:minimumSize="50 40" id="_9B5CB7D6-218F-422E-8B6D-873EA8D1A1E4">   	<defs id="_9B5CB7D6-218F-422E-8B6D-873EA8D1A1E4__9B5CB7D6-218F-422E-8B6D-873EA8D1A1E4_17"> 		<radialGradient id="_9B5CB7D6-218F-422E-8B6D-873EA8D1A1E4background" cx="10%" cy="10%" r="100%" fx="10%" fy="10%"> 			<stop offset="0%" stop-color="#ffffff" stop-opacity="1" id="_9B5CB7D6-218F-422E-8B6D-873EA8D1A1E4__9B5CB7D6-218F-422E-8B6D-873EA8D1A1E4_18"/> 			<stop id="_9B5CB7D6-218F-422E-8B6D-873EA8D1A1E4fill_el" offset="100%" stop-color="#fafad2" stop-opacity="1"/> 		</radialGradient> 		<radialGradient id="_9B5CB7D6-218F-422E-8B6D-873EA8D1A1E4borderbackground" cx="10%" cy="10%" r="100%" fx="10%" fy="10%"> 			<stop offset="0%" stop-color="#ffffff" stop-opacity="1" id="_9B5CB7D6-218F-422E-8B6D-873EA8D1A1E4__9B5CB7D6-218F-422E-8B6D-873EA8D1A1E4_19"/> 			<stop id="_9B5CB7D6-218F-422E-8B6D-873EA8D1A1E4fill_border" offset="100%" stop-color="#000000" stop-opacity="1" stroke="#000000"/> 		</radialGradient> 	</defs> 	 	<rect id="_9B5CB7D6-218F-422E-8B6D-873EA8D1A1E4text_frame" oryx:anchors="bottom top right left" x="1" y="1" width="94" height="79" rx="10" ry="10" stroke="none" stroke-width="0" fill="none"/> 	<rect id="_9B5CB7D6-218F-422E-8B6D-873EA8D1A1E4bg_frame" oryx:resize="vertical horizontal" x="0" y="0" width="100" height="80" rx="10" ry="10" stroke="#000000" stroke-width="1" fill="url(#_9B5CB7D6-218F-422E-8B6D-873EA8D1A1E4background) #ffffcc"/> 		<text font-size="12" id="_9B5CB7D6-218F-422E-8B6D-873EA8D1A1E4text_name" x="50" y="40" oryx:align="middle center" oryx:fittoelem="text_frame" stroke="black" text-anchor="middle" stroke-width="0pt" letter-spacing="-0.01px" fill="#000000" transform="rotate(0 50 40)" visibility="inherit" oryx:fontSize="12"><tspan x="50" y="40" dy="5">inicio</tspan></text>     <g id="_9B5CB7D6-218F-422E-8B6D-873EA8D1A1E4manualTask" transform="scale(0.7,0.7) translate(8,8)" display="none">     	<path oryx:anchors="top left" id="_9B5CB7D6-218F-422E-8B6D-873EA8D1A1E4frame" style="opacity:1;fill:none;fill-opacity:1;stroke-width:1" d="M0.5,3.751l4.083-3.25c0,0,11.166,0.083,12.083,0.083s-2.417,2.917-1.5,2.917     s11.667,0,12.584,0c1.166,1.708-0.168,3.167-0.834,3.667s0.875,1.917-1,4.417c-0.75,0.25,0.75,1.875-1.333,3.333     c-1.167,0.583,0.583,1.542-1.25,2.833c-1.167,0-20.833,0.083-20.833,0.083l-2-1.333V3.751z" stroke="#000000"/> 		<path id="_9B5CB7D6-218F-422E-8B6D-873EA8D1A1E4frame2" oryx:anchors="top left" style="opacity:1;fill:none;stroke-width:2" d="M 13.5 7 L 27 7" stroke="#000000"/> 		<path id="_9B5CB7D6-218F-422E-8B6D-873EA8D1A1E4frame3" oryx:anchors="top left" style="opacity:1;fill:none;stroke-width:2" d="M 13.5 11 L 26 11" stroke="#000000"/> 		<path id="_9B5CB7D6-218F-422E-8B6D-873EA8D1A1E4frame4" oryx:anchors="top left" style="opacity:1;fill:none;stroke-width:1.5" d="M 14 14.5 L 25 14.5" stroke="#000000"/> 		<path id="_9B5CB7D6-218F-422E-8B6D-873EA8D1A1E4frame5" oryx:anchors="top left" style="opacity:1;fill:none;stroke-width:1.5" d="M 8.2 3.1 L 15 3.1" stroke="#000000"/> 	</g> 	 	<g id="_9B5CB7D6-218F-422E-8B6D-873EA8D1A1E4businessRuleTask" transform="scale(0.7,0.7) translate(8,8)" display="none"> 		<rect id="_9B5CB7D6-218F-422E-8B6D-873EA8D1A1E4frame6" oryx:anchors="top left" x="0" y="0" width="22" height="4" style="opacity:1;fill:#B3B1B3;fill-opacity:1;" stroke="#000000"/> 		<rect id="_9B5CB7D6-218F-422E-8B6D-873EA8D1A1E4frame7" oryx:anchors="top left" x="0" y="4" style="opacity:1;fill:none;" width="22" height="12" stroke="#000000"/> 		<path id="_9B5CB7D6-218F-422E-8B6D-873EA8D1A1E4frame8" oryx:anchors="top left" style="opacity:1;fill:none;" d="M 0 10 L 22 10" stroke="#000000"/> 		<path id="_9B5CB7D6-218F-422E-8B6D-873EA8D1A1E4frame9" oryx:anchors="top left" style="opacity:1; fill:none;" d="M 7 4 L 7 16" stroke="#000000"/> 	</g> 	 	<g id="_9B5CB7D6-218F-422E-8B6D-873EA8D1A1E4scriptTask" transform="scale(0.7,0.7) translate(8,8)" display="inherit"> 		<path oryx:anchors="top left" id="_9B5CB7D6-218F-422E-8B6D-873EA8D1A1E4frame10" style="opacity:1;fill:none;" stroke="#000000" d="M6.402,0.5h14.5c0,0-5.833,2.833-5.833,5.583s4.417,6,4.417,9.167    s-4.167,5.083-4.167,5.083H0.235c0,0,5-2.667,5-5s-4.583-6.75-4.583-9.25S6.402,0.5,6.402,0.5z"/> 		<path oryx:anchors="top left" id="_9B5CB7D6-218F-422E-8B6D-873EA8D1A1E4frame11" style="opacity:1;fill:none;stroke-width:1.5" d="M 3.5 4.5 L 13.5 4.5" stroke="#000000"/> 		<path oryx:anchors="top left" id="_9B5CB7D6-218F-422E-8B6D-873EA8D1A1E4frame12" style="opacity:1;fill:none;stroke-width:1.5" d="M 3.8 8.5 L 13.8 8.5" stroke="#000000"/> 		<path oryx:anchors="top left" id="_9B5CB7D6-218F-422E-8B6D-873EA8D1A1E4frame13" style="opacity:1;fill:none;stroke-width:1.5" d="M 6.3 12.5 L 16.3 12.5" stroke="#000000"/> 		<path oryx:anchors="top left" id="_9B5CB7D6-218F-422E-8B6D-873EA8D1A1E4frame14" style="opacity:1;fill:none;stroke-width:1.5" d="M 6.5 16.5 L 16.5 16.5" stroke="#000000"/> 	</g> 	 	<g id="_9B5CB7D6-218F-422E-8B6D-873EA8D1A1E4userTask" transform="scale(0.7,0.7) translate(8,8)" display="none"> 		<path id="_9B5CB7D6-218F-422E-8B6D-873EA8D1A1E4frame15" oryx:anchors="top left" style="opacity:1;fill:#F4F6F7" stroke="#000000" d="M0.585,24.167h24.083v-7.833c0,0-2.333-3.917-7.083-5.167h-9.25    c-4.417,1.333-7.833,5.75-7.833,5.75L0.585,24.167z"/> 		<path id="_9B5CB7D6-218F-422E-8B6D-873EA8D1A1E4frame16" oryx:anchors="top left" style="opacity:1;fill:none" d="M 6 20 L 6 24" stroke="#000000"/> 		<path id="_9B5CB7D6-218F-422E-8B6D-873EA8D1A1E4frame17" oryx:anchors="top left" style="opacity:1;fill:none" d="M 20 20 L 20 24" stroke="#000000"/> 		<circle id="_9B5CB7D6-218F-422E-8B6D-873EA8D1A1E4frame18" oryx:anchors="top left" fill="black" cx="13.002" cy="5.916" r="5.417" stroke="#000000"/> 		<path id="_9B5CB7D6-218F-422E-8B6D-873EA8D1A1E4frame19" oryx:anchors="top left" style="opacity:1;fill:#F0EFF0;" stroke="#000000" d="M8.043,7.083c0,0,2.814-2.426,5.376-1.807s4.624-0.693,4.624-0.693    c0.25,1.688,0.042,3.75-1.458,5.584c0,0,1.083,0.75,1.083,1.5s0.125,1.875-1,3s-5.5,1.25-6.75,0S8.668,12.834,8.668,12    s0.583-1.25,1.25-1.917C8.835,9.5,7.419,7.708,8.043,7.083z"/> 	</g> 	 	<g id="_9B5CB7D6-218F-422E-8B6D-873EA8D1A1E4serviceTask" transform="scale(0.7,0.7) translate(8,8)" display="none"> 		<polygon oryx:anchors="top left" id="_9B5CB7D6-218F-422E-8B6D-873EA8D1A1E4frame20" style="opacity:1;fill:#ffffff" stroke="#000000" points="15.392,5.064 17.954,2.502 20.347,4.895 17.786,7.455     18.729,9.732 22.353,9.732 22.353,13.115 18.731,13.115 17.788,15.392 20.351,17.955 17.958,20.347 15.397,17.786 13.12,18.729     13.12,22.353 9.737,22.353 9.737,18.731 7.46,17.788 4.897,20.35 2.506,17.958 5.066,15.397 4.124,13.12 0.5,13.12 0.5,9.737     4.121,9.737 5.065,7.461 2.503,4.898 4.895,2.506 7.455,5.066 9.732,4.125 9.732,0.5 13.116,0.5 13.116,4.121 "/> 		<circle oryx:anchors="top left" id="_9B5CB7D6-218F-422E-8B6D-873EA8D1A1E4frame21" style="opacity:1;fill:none" stroke="#000000" cx="11.427" cy="11.426" r="3.714"/> 		<polygon oryx:anchors="top left" id="_9B5CB7D6-218F-422E-8B6D-873EA8D1A1E4frame22" style="opacity:1;fill:#ffffff" stroke="#000000" points="21.392,11.064 23.954,8.502 26.347,10.895 23.786,13.455     24.729,15.732 28.353,15.732 28.353,19.115 24.731,19.115 23.788,21.392 26.351,23.955 23.958,26.347 21.397,23.786 19.12,24.729     19.12,28.353 15.737,28.353 15.737,24.731 13.46,23.788 10.897,26.35 8.506,23.958 11.066,21.397 10.124,19.12 6.5,19.12     6.5,15.737 10.121,15.737 11.065,13.461 8.503,10.898 10.895,8.506 13.455,11.066 15.732,10.125 15.732,6.5 19.116,6.5     19.116,10.121 "/> 		<circle oryx:anchors="top left" id="_9B5CB7D6-218F-422E-8B6D-873EA8D1A1E4frame23" style="opacity:1;fill:none;" stroke="#000000" cx="17.427" cy="17.426" r="3.714"/> 	</g> 	 	<g id="_9B5CB7D6-218F-422E-8B6D-873EA8D1A1E4sendTask" display="none"> 		<path id="_9B5CB7D6-218F-422E-8B6D-873EA8D1A1E4stframe24" oryx:anchors="left top" stroke="#FFFFFF" fill="black" stroke-width="1" d="M8,11 L8,21 L24,21 L24,11 L16,17z"/> 		<path id="_9B5CB7D6-218F-422E-8B6D-873EA8D1A1E4stframe25" oryx:anchors="left top" stroke="#FFFFFF" fill="black" stroke-width="1" d="M7,10 L16,17 L25 10z"/> 	</g> 	 	<g id="_9B5CB7D6-218F-422E-8B6D-873EA8D1A1E4receiveTask" display="none"> 		<path id="_9B5CB7D6-218F-422E-8B6D-873EA8D1A1E4frame26" oryx:anchors="left top" stroke="#000000" fill="none" stroke-width="1" d="M8,11 L8,21 L24,21 L24,11z M8,11 L16,17 L24,11"/> 	</g> 	 	<g id="_9B5CB7D6-218F-422E-8B6D-873EA8D1A1E4none" display="inherit"/>  	<g id="_9B5CB7D6-218F-422E-8B6D-873EA8D1A1E4sequential" display="none">         <path oryx:anchors="bottom" fill="none" stroke="#000000" stroke-width="2" d="M46,76h10M46,72h10 M46,68h10" id="_9B5CB7D6-218F-422E-8B6D-873EA8D1A1E4__9B5CB7D6-218F-422E-8B6D-873EA8D1A1E4_20"/>     </g>   </g></g><g class="children" style="overflow:hidden"/><g class="edge"/></g><g class="controls"><g class="dockers"/><g class="magnets" transform="translate(375, 135)"><g pointer-events="all" display="none" transform="translate(-7, 12)"><circle cx="8" cy="8" r="4" stroke="none" fill="red" fill-opacity="0.3"/></g><g pointer-events="all" display="none" transform="translate(-7, 32)"><circle cx="8" cy="8" r="4" stroke="none" fill="red" fill-opacity="0.3"/></g><g pointer-events="all" display="none" transform="translate(-7, 52)"><circle cx="8" cy="8" r="4" stroke="none" fill="red" fill-opacity="0.3"/></g><g pointer-events="all" display="none" transform="translate(17, 71)"><circle cx="8" cy="8" r="4" stroke="none" fill="red" fill-opacity="0.3"/></g><g pointer-events="all" display="none" transform="translate(42, 71)"><circle cx="8" cy="8" r="4" stroke="none" fill="red" fill-opacity="0.3"/></g><g pointer-events="all" display="none" transform="translate(67, 71)"><circle cx="8" cy="8" r="4" stroke="none" fill="red" fill-opacity="0.3"/></g><g pointer-events="all" display="none" transform="translate(91, 12)"><circle cx="8" cy="8" r="4" stroke="none" fill="red" fill-opacity="0.3"/></g><g pointer-events="all" display="none" transform="translate(91, 32)"><circle cx="8" cy="8" r="4" stroke="none" fill="red" fill-opacity="0.3"/></g><g pointer-events="all" display="none" transform="translate(91, 52)"><circle cx="8" cy="8" r="4" stroke="none" fill="red" fill-opacity="0.3"/></g><g pointer-events="all" display="none" transform="translate(17, -7)"><circle cx="8" cy="8" r="4" stroke="none" fill="red" fill-opacity="0.3"/></g><g pointer-events="all" display="none" transform="translate(42, -7)"><circle cx="8" cy="8" r="4" stroke="none" fill="red" fill-opacity="0.3"/></g><g pointer-events="all" display="none" transform="translate(67, -7)"><circle cx="8" cy="8" r="4" stroke="none" fill="red" fill-opacity="0.3"/></g><g pointer-events="all" display="none" transform="translate(42, 32)"><circle cx="8" cy="8" r="4" stroke="none" fill="red" fill-opacity="0.3"/></g></g></g></g><g id="_D51030CE-C831-46F1-864D-9095D5240D33" bpmn2nodeid="_7464E39E-8FA6-40C7-92C3-D2FC724B1E12"><g class="stencils" transform="translate(600, 161)"><g class="me"><g pointer-events="fill" id="_D51030CE-C831-46F1-864D-9095D5240D33">      <defs id="_D51030CE-C831-46F1-864D-9095D5240D33__D51030CE-C831-46F1-864D-9095D5240D33_5"> 		<radialGradient id="_D51030CE-C831-46F1-864D-9095D5240D33background" cx="10%" cy="10%" r="100%" fx="10%" fy="10%"> 			<stop offset="0%" stop-color="#ffffff" stop-opacity="1" id="_D51030CE-C831-46F1-864D-9095D5240D33__D51030CE-C831-46F1-864D-9095D5240D33_6"/> 			<stop id="_D51030CE-C831-46F1-864D-9095D5240D33fill_el" offset="100%" stop-color="#ff6347" stop-opacity="1"/> 		</radialGradient> 	</defs> 	     <circle id="_D51030CE-C831-46F1-864D-9095D5240D33bg_frame" cx="14" cy="14" r="14" stroke="#000000" fill="url(#_D51030CE-C831-46F1-864D-9095D5240D33background) white" stroke-width="3"/> 	<text font-size="11" id="_D51030CE-C831-46F1-864D-9095D5240D33text_name" x="14" y="30" oryx:align="top center" stroke="black" stroke-width="0pt" letter-spacing="-0.01px" fill="#000000" text-anchor="middle" transform="rotate(0 14 30)" visibility="inherit" oryx:fontSize="11"/>   </g></g><g class="children" style="overflow:hidden"/><g class="edge"/></g><g class="controls"><g class="dockers"/><g class="magnets" transform="translate(600, 161)"><g pointer-events="all" display="none" transform="translate(6, 6)"><circle cx="8" cy="8" r="4" stroke="none" fill="red" fill-opacity="0.3"/></g></g></g></g></g><g class="edge"><g id="_49293CBC-17A6-41A4-B80E-0E05BE171E3C" bpmn2nodeid="_06123203-938A-42FA-862F-B434F124492A"><g class="stencils"><g class="me"><g pointer-events="painted" bpmn2nodeid="_96FADEB2-B477-44CA-8CAF-410A19F9B62D"><path id="_49293CBC-17A6-41A4-B80E-0E05BE171E3C_1" d="M75.53125 175L164.3515625 175 " stroke="#000000" fill="none" stroke-width="2" stroke-linecap="round" stroke-linejoin="round" marker-start="url(#_49293CBC-17A6-41A4-B80E-0E05BE171E3Cstart)" marker-end="url(#_49293CBC-17A6-41A4-B80E-0E05BE171E3Cend)"/></g><text id="_49293CBC-17A6-41A4-B80E-0E05BE171E3Ctext_name" font-size="12" x="89.53125" y="161" oryx:edgePosition="startTop" stroke-width="0pt" letter-spacing="-0.01px" fill="#000000" text-anchor="start" transform="rotate(360 75.53125 175)" visibility="inherit" oryx:fontSize="12"/></g><g class="children" style="overflow:hidden"/><g class="edge"/></g><g class="controls"><g class="dockers"/><g class="magnets"/></g></g><g id="_64D76464-451C-4639-88A0-3F731D123C5A" bpmn2nodeid="_6D4B76E5-3787-4E27-9D48-796004089ECD"><g class="stencils"><g class="me"><g pointer-events="painted" bpmn2nodeid="_792D1A70-D6D8-4F91-B054-F0970909090D"><path id="_64D76464-451C-4639-88A0-3F731D123C5A_1" d="M265.21875 175L374.78125 175 " stroke="#000000" fill="none" stroke-width="2" stroke-linecap="round" stroke-linejoin="round" marker-start="url(#_64D76464-451C-4639-88A0-3F731D123C5Astart)" marker-end="url(#_64D76464-451C-4639-88A0-3F731D123C5Aend)"/></g><text id="_64D76464-451C-4639-88A0-3F731D123C5Atext_name" font-size="12" x="279.21875" y="161" oryx:edgePosition="startTop" stroke-width="0pt" letter-spacing="-0.01px" fill="#000000" text-anchor="start" transform="rotate(360 265.21875 175)" visibility="inherit" oryx:fontSize="12"/></g><g class="children" style="overflow:hidden"/><g class="edge"/></g><g class="controls"><g class="dockers"/><g class="magnets"/></g></g><g id="_179842B0-66F8-4D99-ABE7-D58AA82DCE00" bpmn2nodeid="_4E57036E-7A44-410E-B6AB-BAD07E5C3643"><g class="stencils"><g class="me"><g pointer-events="painted" bpmn2nodeid="_E269C7E1-A6CB-4BB7-AE67-88A1B3D68391"><path id="_179842B0-66F8-4D99-ABE7-D58AA82DCE00_1" d="M475.46484375 175L599.7109375 175 " stroke="#000000" fill="none" stroke-width="2" stroke-linecap="round" stroke-linejoin="round" marker-start="url(#_179842B0-66F8-4D99-ABE7-D58AA82DCE00start)" marker-end="url(#_179842B0-66F8-4D99-ABE7-D58AA82DCE00end)"/></g><text id="_179842B0-66F8-4D99-ABE7-D58AA82DCE00text_name" font-size="12" x="489.46484375" y="161" oryx:edgePosition="startTop" stroke-width="0pt" letter-spacing="-0.01px" fill="#000000" text-anchor="start" transform="rotate(360 475.46484375 175)" visibility="inherit" oryx:fontSize="12"/></g><g class="children" style="overflow:hidden"/><g class="edge"/></g><g class="controls"><g class="dockers"/><g class="magnets"/></g></g></g><text id="_FB91F69A-84B8-486E-846B-39028F372A79" style="stroke-width:1;fill:rgb(177,194,214);font-family:arial;font-weight:bold" font-size="12" onclick="ORYX.Plugins.CanvasTitle.openTextualAnalysis()" onmouseover="ORYX.Plugins.CanvasTitle.addToolTip('_FB91F69A-84B8-486E-846B-39028F372A79')" transform="translate(10, 20)">Tarjetas v.1.0 (Opplus.Tarjetas)</text></g></g></svg>