<svg xmlns="http://www.w3.org/2000/svg" xmlns:oryx="http://oryx-editor.org" id="_2B000F13-E3DC-49DA-A58F-A881A52AC85F" width="1269" height="525" xmlns:xlink="http://www.w3.org/1999/xlink" xmlns:svg="http://www.w3.org/2000/svg"><defs><marker id="_E5BED867-38CC-46A0-AA21-18A39A88FD33start" refX="1" refY="5" markerUnits="userSpaceOnUse" markerWidth="17" markerHeight="11" orient="auto" fill="#000000" stroke="#000000"> 	  		<path id="_E5BED867-38CC-46A0-AA21-18A39A88FD33conditional" d="M 0 5 L 8 0 L 16 5 L 8 10 L 0 5" fill="white" stroke="#000000" stroke-width="1" display="none"/> 			<path id="_E5BED867-38CC-46A0-AA21-18A39A88FD33default" d="M 5 0 L 11 10" fill="white" stroke="#000000" stroke-width="1" display="none"/> 	  	</marker><marker id="_E5BED867-38CC-46A0-AA21-18A39A88FD33end" refX="15" refY="6" markerUnits="userSpaceOnUse" markerWidth="15" markerHeight="12" orient="auto" fill="#000000" stroke="#000000"> 	  		<path id="_E5BED867-38CC-46A0-AA21-18A39A88FD33frame2" d="M 0 1 L 15 6 L 0 11z" fill="#000000" stroke="#000000" stroke-linejoin="round" stroke-width="2"/> 	  	</marker><marker id="_86D6C341-341D-4A99-8116-81508914E025start" refX="1" refY="5" markerUnits="userSpaceOnUse" markerWidth="17" markerHeight="11" orient="auto" fill="#000000" stroke="#000000"> 	  		<path id="_86D6C341-341D-4A99-8116-81508914E025conditional" d="M 0 5 L 8 0 L 16 5 L 8 10 L 0 5" fill="white" stroke="#000000" stroke-width="1" display="none"/> 			<path id="_86D6C341-341D-4A99-8116-81508914E025default" d="M 5 0 L 11 10" fill="white" stroke="#000000" stroke-width="1" display="none"/> 	  	</marker><marker id="_86D6C341-341D-4A99-8116-81508914E025end" refX="15" refY="6" markerUnits="userSpaceOnUse" markerWidth="15" markerHeight="12" orient="auto" fill="#000000" stroke="#000000"> 	  		<path id="_86D6C341-341D-4A99-8116-81508914E025frame2" d="M 0 1 L 15 6 L 0 11z" fill="#000000" stroke="#000000" stroke-linejoin="round" stroke-width="2"/> 	  	</marker><marker id="_C289C0FB-1717-43B9-8FDB-37ADB16DD8D4start" refX="1" refY="5" markerUnits="userSpaceOnUse" markerWidth="17" markerHeight="11" orient="auto" fill="#000000" stroke="#000000"> 	  		<path id="_C289C0FB-1717-43B9-8FDB-37ADB16DD8D4conditional" d="M 0 5 L 8 0 L 16 5 L 8 10 L 0 5" fill="white" stroke="#000000" stroke-width="1" display="none"/> 			<path id="_C289C0FB-1717-43B9-8FDB-37ADB16DD8D4default" d="M 5 0 L 11 10" fill="white" stroke="#000000" stroke-width="1" display="none"/> 	  	</marker><marker id="_C289C0FB-1717-43B9-8FDB-37ADB16DD8D4end" refX="15" refY="6" markerUnits="userSpaceOnUse" markerWidth="15" markerHeight="12" orient="auto" fill="#000000" stroke="#000000"> 	  		<path id="_C289C0FB-1717-43B9-8FDB-37ADB16DD8D4frame2" d="M 0 1 L 15 6 L 0 11z" fill="#000000" stroke="#000000" stroke-linejoin="round" stroke-width="2"/> 	  	</marker><marker id="_CF57D3D3-979E-4D2E-8221-B1164ECFC4D3start" refX="1" refY="5" markerUnits="userSpaceOnUse" markerWidth="17" markerHeight="11" orient="auto" fill="#000000" stroke="#000000"> 	  		<path id="_CF57D3D3-979E-4D2E-8221-B1164ECFC4D3conditional" d="M 0 5 L 8 0 L 16 5 L 8 10 L 0 5" fill="white" stroke="#000000" stroke-width="1" display="none"/> 			<path id="_CF57D3D3-979E-4D2E-8221-B1164ECFC4D3default" d="M 5 0 L 11 10" fill="white" stroke="#000000" stroke-width="1" display="none"/> 	  	</marker><marker id="_CF57D3D3-979E-4D2E-8221-B1164ECFC4D3end" refX="15" refY="6" markerUnits="userSpaceOnUse" markerWidth="15" markerHeight="12" orient="auto" fill="#000000" stroke="#000000"> 	  		<path id="_CF57D3D3-979E-4D2E-8221-B1164ECFC4D3frame2" d="M 0 1 L 15 6 L 0 11z" fill="#000000" stroke="#000000" stroke-linejoin="round" stroke-width="2"/> 	  	</marker><marker id="_0E035FA9-271A-4634-91BA-CBB14E000530start" refX="1" refY="5" markerUnits="userSpaceOnUse" markerWidth="17" markerHeight="11" orient="auto" fill="#000000" stroke="#000000"> 	  		<path id="_0E035FA9-271A-4634-91BA-CBB14E000530conditional" d="M 0 5 L 8 0 L 16 5 L 8 10 L 0 5" fill="white" stroke="#000000" stroke-width="1" display="none"/> 			<path id="_0E035FA9-271A-4634-91BA-CBB14E000530default" d="M 5 0 L 11 10" fill="white" stroke="#000000" stroke-width="1" display="none"/> 	  	</marker><marker id="_0E035FA9-271A-4634-91BA-CBB14E000530end" refX="15" refY="6" markerUnits="userSpaceOnUse" markerWidth="15" markerHeight="12" orient="auto" fill="#000000" stroke="#000000"> 	  		<path id="_0E035FA9-271A-4634-91BA-CBB14E000530frame2" d="M 0 1 L 15 6 L 0 11z" fill="#000000" stroke="#000000" stroke-linejoin="round" stroke-width="2"/> 	  	</marker><marker id="_B03CD72B-4731-4532-A31C-2CC11CBD0B43start" refX="1" refY="5" markerUnits="userSpaceOnUse" markerWidth="17" markerHeight="11" orient="auto" fill="#000000" stroke="#000000"> 	  		<path id="_B03CD72B-4731-4532-A31C-2CC11CBD0B43conditional" d="M 0 5 L 8 0 L 16 5 L 8 10 L 0 5" fill="white" stroke="#000000" stroke-width="1" display="none"/> 			<path id="_B03CD72B-4731-4532-A31C-2CC11CBD0B43default" d="M 5 0 L 11 10" fill="white" stroke="#000000" stroke-width="1" display="none"/> 	  	</marker><marker id="_B03CD72B-4731-4532-A31C-2CC11CBD0B43end" refX="15" refY="6" markerUnits="userSpaceOnUse" markerWidth="15" markerHeight="12" orient="auto" fill="#000000" stroke="#000000"> 	  		<path id="_B03CD72B-4731-4532-A31C-2CC11CBD0B43frame2" d="M 0 1 L 15 6 L 0 11z" fill="#000000" stroke="#000000" stroke-linejoin="round" stroke-width="2"/> 	  	</marker><marker id="_47D7C3D5-82C4-4255-872B-2D4D0338706Cstart" refX="1" refY="5" markerUnits="userSpaceOnUse" markerWidth="17" markerHeight="11" orient="auto" fill="#000000" stroke="#000000"> 	  		<path id="_47D7C3D5-82C4-4255-872B-2D4D0338706Cconditional" d="M 0 5 L 8 0 L 16 5 L 8 10 L 0 5" fill="white" stroke="#000000" stroke-width="1" display="none"/> 			<path id="_47D7C3D5-82C4-4255-872B-2D4D0338706Cdefault" d="M 5 0 L 11 10" fill="white" stroke="#000000" stroke-width="1" display="none"/> 	  	</marker><marker id="_47D7C3D5-82C4-4255-872B-2D4D0338706Cend" refX="15" refY="6" markerUnits="userSpaceOnUse" markerWidth="15" markerHeight="12" orient="auto" fill="#000000" stroke="#000000"> 	  		<path id="_47D7C3D5-82C4-4255-872B-2D4D0338706Cframe2" d="M 0 1 L 15 6 L 0 11z" fill="#000000" stroke="#000000" stroke-linejoin="round" stroke-width="2"/> 	  	</marker></defs><g stroke="none" font-family="Verdana, sans-serif" font-size-adjust="none" font-style="normal" font-variant="normal" font-weight="normal" line-heigth="normal" font-size="12"><g class="stencils" transform="translate(16, 16)"><g class="me"/><g class="children"><g id="_919D65AD-FA80-44C6-803C-E6150CB32C30" bpmn2nodeid="_AEA456D3-3620-4F7F-BC54-AD567F9421EB"><g class="stencils" transform="translate(465, 390)"><g class="me"><g pointer-events="fill" oryx:minimumSize="50 40" id="_919D65AD-FA80-44C6-803C-E6150CB32C30">   	<defs id="_919D65AD-FA80-44C6-803C-E6150CB32C30__919D65AD-FA80-44C6-803C-E6150CB32C30_17"> 		<radialGradient id="_919D65AD-FA80-44C6-803C-E6150CB32C30background" cx="10%" cy="10%" r="100%" fx="10%" fy="10%"> 			<stop offset="0%" stop-color="#ffffff" stop-opacity="1" id="_919D65AD-FA80-44C6-803C-E6150CB32C30__919D65AD-FA80-44C6-803C-E6150CB32C30_18"/> 			<stop id="_919D65AD-FA80-44C6-803C-E6150CB32C30fill_el" offset="100%" stop-color="#fafad2" stop-opacity="1"/> 		</radialGradient> 		<radialGradient id="_919D65AD-FA80-44C6-803C-E6150CB32C30borderbackground" cx="10%" cy="10%" r="100%" fx="10%" fy="10%"> 			<stop offset="0%" stop-color="#ffffff" stop-opacity="1" id="_919D65AD-FA80-44C6-803C-E6150CB32C30__919D65AD-FA80-44C6-803C-E6150CB32C30_19"/> 			<stop id="_919D65AD-FA80-44C6-803C-E6150CB32C30fill_border" offset="100%" stop-color="#000000" stop-opacity="1" stroke="#000000"/> 		</radialGradient> 	</defs> 	 	<rect id="_919D65AD-FA80-44C6-803C-E6150CB32C30text_frame" oryx:anchors="bottom top right left" x="1" y="1" width="94" height="79" rx="10" ry="10" stroke="none" stroke-width="0" fill="none"/> 	<rect id="_919D65AD-FA80-44C6-803C-E6150CB32C30bg_frame" oryx:resize="vertical horizontal" x="0" y="0" width="100" height="80" rx="10" ry="10" stroke="#000000" stroke-width="1" fill="url(#_919D65AD-FA80-44C6-803C-E6150CB32C30background) #ffffcc"/> 		<text font-size="12" id="_919D65AD-FA80-44C6-803C-E6150CB32C30text_name" x="50" y="40" oryx:align="middle center" oryx:fittoelem="text_frame" stroke="black" text-anchor="middle" stroke-width="0pt" letter-spacing="-0.01px" fill="#000000" transform="rotate(0 50 40)" visibility="inherit" oryx:fontSize="12"><tspan x="50" y="40" dy="5">Admisi?n</tspan></text>     <g id="_919D65AD-FA80-44C6-803C-E6150CB32C30manualTask" transform="scale(0.7,0.7) translate(8,8)" display="none">     	<path oryx:anchors="top left" id="_919D65AD-FA80-44C6-803C-E6150CB32C30frame" style="opacity:1;fill:none;fill-opacity:1;stroke-width:1" d="M0.5,3.751l4.083-3.25c0,0,11.166,0.083,12.083,0.083s-2.417,2.917-1.5,2.917     s11.667,0,12.584,0c1.166,1.708-0.168,3.167-0.834,3.667s0.875,1.917-1,4.417c-0.75,0.25,0.75,1.875-1.333,3.333     c-1.167,0.583,0.583,1.542-1.25,2.833c-1.167,0-20.833,0.083-20.833,0.083l-2-1.333V3.751z" stroke="#000000"/> 		<path id="_919D65AD-FA80-44C6-803C-E6150CB32C30frame2" oryx:anchors="top left" style="opacity:1;fill:none;stroke-width:2" d="M 13.5 7 L 27 7" stroke="#000000"/> 		<path id="_919D65AD-FA80-44C6-803C-E6150CB32C30frame3" oryx:anchors="top left" style="opacity:1;fill:none;stroke-width:2" d="M 13.5 11 L 26 11" stroke="#000000"/> 		<path id="_919D65AD-FA80-44C6-803C-E6150CB32C30frame4" oryx:anchors="top left" style="opacity:1;fill:none;stroke-width:1.5" d="M 14 14.5 L 25 14.5" stroke="#000000"/> 		<path id="_919D65AD-FA80-44C6-803C-E6150CB32C30frame5" oryx:anchors="top left" style="opacity:1;fill:none;stroke-width:1.5" d="M 8.2 3.1 L 15 3.1" stroke="#000000"/> 	</g> 	 	<g id="_919D65AD-FA80-44C6-803C-E6150CB32C30businessRuleTask" transform="scale(0.7,0.7) translate(8,8)" display="none"> 		<rect id="_919D65AD-FA80-44C6-803C-E6150CB32C30frame6" oryx:anchors="top left" x="0" y="0" width="22" height="4" style="opacity:1;fill:#B3B1B3;fill-opacity:1;" stroke="#000000"/> 		<rect id="_919D65AD-FA80-44C6-803C-E6150CB32C30frame7" oryx:anchors="top left" x="0" y="4" style="opacity:1;fill:none;" width="22" height="12" stroke="#000000"/> 		<path id="_919D65AD-FA80-44C6-803C-E6150CB32C30frame8" oryx:anchors="top left" style="opacity:1;fill:none;" d="M 0 10 L 22 10" stroke="#000000"/> 		<path id="_919D65AD-FA80-44C6-803C-E6150CB32C30frame9" oryx:anchors="top left" style="opacity:1; fill:none;" d="M 7 4 L 7 16" stroke="#000000"/> 	</g> 	 	<g id="_919D65AD-FA80-44C6-803C-E6150CB32C30scriptTask" transform="scale(0.7,0.7) translate(8,8)" display="none"> 		<path oryx:anchors="top left" id="_919D65AD-FA80-44C6-803C-E6150CB32C30frame10" style="opacity:1;fill:none;" stroke="#000000" d="M6.402,0.5h14.5c0,0-5.833,2.833-5.833,5.583s4.417,6,4.417,9.167    s-4.167,5.083-4.167,5.083H0.235c0,0,5-2.667,5-5s-4.583-6.75-4.583-9.25S6.402,0.5,6.402,0.5z"/> 		<path oryx:anchors="top left" id="_919D65AD-FA80-44C6-803C-E6150CB32C30frame11" style="opacity:1;fill:none;stroke-width:1.5" d="M 3.5 4.5 L 13.5 4.5" stroke="#000000"/> 		<path oryx:anchors="top left" id="_919D65AD-FA80-44C6-803C-E6150CB32C30frame12" style="opacity:1;fill:none;stroke-width:1.5" d="M 3.8 8.5 L 13.8 8.5" stroke="#000000"/> 		<path oryx:anchors="top left" id="_919D65AD-FA80-44C6-803C-E6150CB32C30frame13" style="opacity:1;fill:none;stroke-width:1.5" d="M 6.3 12.5 L 16.3 12.5" stroke="#000000"/> 		<path oryx:anchors="top left" id="_919D65AD-FA80-44C6-803C-E6150CB32C30frame14" style="opacity:1;fill:none;stroke-width:1.5" d="M 6.5 16.5 L 16.5 16.5" stroke="#000000"/> 	</g> 	 	<g id="_919D65AD-FA80-44C6-803C-E6150CB32C30userTask" transform="scale(0.7,0.7) translate(8,8)" display="inherit"> 		<path id="_919D65AD-FA80-44C6-803C-E6150CB32C30frame15" oryx:anchors="top left" style="opacity:1;fill:#F4F6F7" stroke="#000000" d="M0.585,24.167h24.083v-7.833c0,0-2.333-3.917-7.083-5.167h-9.25    c-4.417,1.333-7.833,5.75-7.833,5.75L0.585,24.167z"/> 		<path id="_919D65AD-FA80-44C6-803C-E6150CB32C30frame16" oryx:anchors="top left" style="opacity:1;fill:none" d="M 6 20 L 6 24" stroke="#000000"/> 		<path id="_919D65AD-FA80-44C6-803C-E6150CB32C30frame17" oryx:anchors="top left" style="opacity:1;fill:none" d="M 20 20 L 20 24" stroke="#000000"/> 		<circle id="_919D65AD-FA80-44C6-803C-E6150CB32C30frame18" oryx:anchors="top left" fill="black" cx="13.002" cy="5.916" r="5.417" stroke="#000000"/> 		<path id="_919D65AD-FA80-44C6-803C-E6150CB32C30frame19" oryx:anchors="top left" style="opacity:1;fill:#F0EFF0;" stroke="#000000" d="M8.043,7.083c0,0,2.814-2.426,5.376-1.807s4.624-0.693,4.624-0.693    c0.25,1.688,0.042,3.75-1.458,5.584c0,0,1.083,0.75,1.083,1.5s0.125,1.875-1,3s-5.5,1.25-6.75,0S8.668,12.834,8.668,12    s0.583-1.25,1.25-1.917C8.835,9.5,7.419,7.708,8.043,7.083z"/> 	</g> 	 	<g id="_919D65AD-FA80-44C6-803C-E6150CB32C30serviceTask" transform="scale(0.7,0.7) translate(8,8)" display="none"> 		<polygon oryx:anchors="top left" id="_919D65AD-FA80-44C6-803C-E6150CB32C30frame20" style="opacity:1;fill:#ffffff" stroke="#000000" points="15.392,5.064 17.954,2.502 20.347,4.895 17.786,7.455     18.729,9.732 22.353,9.732 22.353,13.115 18.731,13.115 17.788,15.392 20.351,17.955 17.958,20.347 15.397,17.786 13.12,18.729     13.12,22.353 9.737,22.353 9.737,18.731 7.46,17.788 4.897,20.35 2.506,17.958 5.066,15.397 4.124,13.12 0.5,13.12 0.5,9.737     4.121,9.737 5.065,7.461 2.503,4.898 4.895,2.506 7.455,5.066 9.732,4.125 9.732,0.5 13.116,0.5 13.116,4.121 "/> 		<circle oryx:anchors="top left" id="_919D65AD-FA80-44C6-803C-E6150CB32C30frame21" style="opacity:1;fill:none" stroke="#000000" cx="11.427" cy="11.426" r="3.714"/> 		<polygon oryx:anchors="top left" id="_919D65AD-FA80-44C6-803C-E6150CB32C30frame22" style="opacity:1;fill:#ffffff" stroke="#000000" points="21.392,11.064 23.954,8.502 26.347,10.895 23.786,13.455     24.729,15.732 28.353,15.732 28.353,19.115 24.731,19.115 23.788,21.392 26.351,23.955 23.958,26.347 21.397,23.786 19.12,24.729     19.12,28.353 15.737,28.353 15.737,24.731 13.46,23.788 10.897,26.35 8.506,23.958 11.066,21.397 10.124,19.12 6.5,19.12     6.5,15.737 10.121,15.737 11.065,13.461 8.503,10.898 10.895,8.506 13.455,11.066 15.732,10.125 15.732,6.5 19.116,6.5     19.116,10.121 "/> 		<circle oryx:anchors="top left" id="_919D65AD-FA80-44C6-803C-E6150CB32C30frame23" style="opacity:1;fill:none;" stroke="#000000" cx="17.427" cy="17.426" r="3.714"/> 	</g> 	 	<g id="_919D65AD-FA80-44C6-803C-E6150CB32C30sendTask" display="none"> 		<path id="_919D65AD-FA80-44C6-803C-E6150CB32C30stframe24" oryx:anchors="left top" stroke="#FFFFFF" fill="black" stroke-width="1" d="M8,11 L8,21 L24,21 L24,11 L16,17z"/> 		<path id="_919D65AD-FA80-44C6-803C-E6150CB32C30stframe25" oryx:anchors="left top" stroke="#FFFFFF" fill="black" stroke-width="1" d="M7,10 L16,17 L25 10z"/> 	</g> 	 	<g id="_919D65AD-FA80-44C6-803C-E6150CB32C30receiveTask" display="none"> 		<path id="_919D65AD-FA80-44C6-803C-E6150CB32C30frame26" oryx:anchors="left top" stroke="#000000" fill="none" stroke-width="1" d="M8,11 L8,21 L24,21 L24,11z M8,11 L16,17 L24,11"/> 	</g> 	 	<g id="_919D65AD-FA80-44C6-803C-E6150CB32C30none" display="inherit"/>  	<g id="_919D65AD-FA80-44C6-803C-E6150CB32C30sequential" display="none">         <path oryx:anchors="bottom" fill="none" stroke="#000000" stroke-width="2" d="M46,76h10M46,72h10 M46,68h10" id="_919D65AD-FA80-44C6-803C-E6150CB32C30__919D65AD-FA80-44C6-803C-E6150CB32C30_20"/>     </g>   </g></g><g class="children" style="overflow:hidden"/><g class="edge"/></g><g class="controls"><g class="dockers"/><g class="magnets" transform="translate(465, 390)"><g pointer-events="all" display="none" transform="translate(-7, 12)"><circle cx="8" cy="8" r="4" stroke="none" fill="red" fill-opacity="0.3"/></g><g pointer-events="all" display="none" transform="translate(-7, 32)"><circle cx="8" cy="8" r="4" stroke="none" fill="red" fill-opacity="0.3"/></g><g pointer-events="all" display="none" transform="translate(-7, 52)"><circle cx="8" cy="8" r="4" stroke="none" fill="red" fill-opacity="0.3"/></g><g pointer-events="all" display="none" transform="translate(17, 71)"><circle cx="8" cy="8" r="4" stroke="none" fill="red" fill-opacity="0.3"/></g><g pointer-events="all" display="none" transform="translate(42, 71)"><circle cx="8" cy="8" r="4" stroke="none" fill="red" fill-opacity="0.3"/></g><g pointer-events="all" display="none" transform="translate(67, 71)"><circle cx="8" cy="8" r="4" stroke="none" fill="red" fill-opacity="0.3"/></g><g pointer-events="all" display="none" transform="translate(91, 12)"><circle cx="8" cy="8" r="4" stroke="none" fill="red" fill-opacity="0.3"/></g><g pointer-events="all" display="none" transform="translate(91, 32)"><circle cx="8" cy="8" r="4" stroke="none" fill="red" fill-opacity="0.3"/></g><g pointer-events="all" display="none" transform="translate(91, 52)"><circle cx="8" cy="8" r="4" stroke="none" fill="red" fill-opacity="0.3"/></g><g pointer-events="all" display="none" transform="translate(17, -7)"><circle cx="8" cy="8" r="4" stroke="none" fill="red" fill-opacity="0.3"/></g><g pointer-events="all" display="none" transform="translate(42, -7)"><circle cx="8" cy="8" r="4" stroke="none" fill="red" fill-opacity="0.3"/></g><g pointer-events="all" display="none" transform="translate(67, -7)"><circle cx="8" cy="8" r="4" stroke="none" fill="red" fill-opacity="0.3"/></g><g pointer-events="all" display="none" transform="translate(42, 32)"><circle cx="8" cy="8" r="4" stroke="none" fill="red" fill-opacity="0.3"/></g></g></g></g><g id="_1E60E753-F542-40A6-8669-5480906B79A5" bpmn2nodeid="_6609AA7D-F295-4C10-B6AB-90116B2B9A49"><g class="stencils" transform="translate(137, 424)"><g class="me"><g id="_1E60E753-F542-40A6-8669-5480906B79A5">        <defs id="_1E60E753-F542-40A6-8669-5480906B79A5__1E60E753-F542-40A6-8669-5480906B79A5_4"> 		<radialGradient id="_1E60E753-F542-40A6-8669-5480906B79A5background" cx="10%" cy="10%" r="100%" fx="10%" fy="10%"> 			<stop offset="0%" stop-color="#ffffff" stop-opacity="1" id="_1E60E753-F542-40A6-8669-5480906B79A5__1E60E753-F542-40A6-8669-5480906B79A5_5"/> 			<stop id="_1E60E753-F542-40A6-8669-5480906B79A5fill_el" offset="100%" stop-color="#f0e68c" stop-opacity="1"/> 		</radialGradient> 		<radialGradient id="_1E60E753-F542-40A6-8669-5480906B79A5borderbackground" cx="10%" cy="10%" r="100%" fx="10%" fy="10%"> 			<stop offset="0%" stop-color="#ffffff" stop-opacity="1" id="_1E60E753-F542-40A6-8669-5480906B79A5__1E60E753-F542-40A6-8669-5480906B79A5_6"/> 			<stop id="_1E60E753-F542-40A6-8669-5480906B79A5fill_border" offset="100%" stop-color="#a67f00" stop-opacity="1" stroke="#a67f00"/> 		</radialGradient> 	</defs> 	     <path d=" M0 20.5  L20.5 0  L40 20.5  L20.5 40  z" id="_1E60E753-F542-40A6-8669-5480906B79A5bg_frame" fill="url(#_1E60E753-F542-40A6-8669-5480906B79A5background) white" style="stroke-width:1" stroke="#a67f00"/>     <g id="_1E60E753-F542-40A6-8669-5480906B79A5frame" stroke="#a67f00">       <path id="_1E60E753-F542-40A6-8669-5480906B79A5frame2" d=" M13.25 12.05  L17.25 12.05  L27.65 28.95  L23.75 28.95  z" style="stroke-width:1" stroke="#a67f00" fill="url(#_1E60E753-F542-40A6-8669-5480906B79A5borderbackground)"/>       <path id="_1E60E753-F542-40A6-8669-5480906B79A5frame3" d=" M13.25 28.95  L23.75 12.05  L27.65 12.05  L17.25 28.95  z" style="stroke-width:1" stroke="#a67f00" fill="url(#_1E60E753-F542-40A6-8669-5480906B79A5borderbackground)"/>     </g> 	 	<text id="_1E60E753-F542-40A6-8669-5480906B79A5text_name" x="30.5" y="30.5" oryx:align="left top" stroke-width="0pt" letter-spacing="-0.01px" fill="#000000" text-anchor="start" transform="rotate(0 30.5 30.5)" visibility="inherit" oryx:fontSize="12"/> 	   </g></g><g class="children" style="overflow:hidden"/><g class="edge"/></g><g class="controls"><g class="dockers"/><g class="magnets" transform="translate(137, 424)"><g pointer-events="all" display="none" transform="translate(12.5, 12.5)"><circle cx="8" cy="8" r="4" stroke="none" fill="red" fill-opacity="0.3"/></g></g></g></g><g id="_88B4C2C7-DFCD-464E-B3B1-FC194544F9BF" bpmn2nodeid="_C19B1C3D-9B1E-4E39-BE9B-77B4355A7490"><g class="stencils" transform="translate(255, 404)"><g class="me"><g pointer-events="fill" oryx:minimumSize="50 40" id="_88B4C2C7-DFCD-464E-B3B1-FC194544F9BF">   	<defs id="_88B4C2C7-DFCD-464E-B3B1-FC194544F9BF__88B4C2C7-DFCD-464E-B3B1-FC194544F9BF_17"> 		<radialGradient id="_88B4C2C7-DFCD-464E-B3B1-FC194544F9BFbackground" cx="10%" cy="10%" r="100%" fx="10%" fy="10%"> 			<stop offset="0%" stop-color="#ffffff" stop-opacity="1" id="_88B4C2C7-DFCD-464E-B3B1-FC194544F9BF__88B4C2C7-DFCD-464E-B3B1-FC194544F9BF_18"/> 			<stop id="_88B4C2C7-DFCD-464E-B3B1-FC194544F9BFfill_el" offset="100%" stop-color="#fafad2" stop-opacity="1"/> 		</radialGradient> 		<radialGradient id="_88B4C2C7-DFCD-464E-B3B1-FC194544F9BFborderbackground" cx="10%" cy="10%" r="100%" fx="10%" fy="10%"> 			<stop offset="0%" stop-color="#ffffff" stop-opacity="1" id="_88B4C2C7-DFCD-464E-B3B1-FC194544F9BF__88B4C2C7-DFCD-464E-B3B1-FC194544F9BF_19"/> 			<stop id="_88B4C2C7-DFCD-464E-B3B1-FC194544F9BFfill_border" offset="100%" stop-color="#000000" stop-opacity="1" stroke="#000000"/> 		</radialGradient> 	</defs> 	 	<rect id="_88B4C2C7-DFCD-464E-B3B1-FC194544F9BFtext_frame" oryx:anchors="bottom top right left" x="1" y="1" width="94" height="79" rx="10" ry="10" stroke="none" stroke-width="0" fill="none"/> 	<rect id="_88B4C2C7-DFCD-464E-B3B1-FC194544F9BFbg_frame" oryx:resize="vertical horizontal" x="0" y="0" width="100" height="80" rx="10" ry="10" stroke="#000000" stroke-width="1" fill="url(#_88B4C2C7-DFCD-464E-B3B1-FC194544F9BFbackground) #ffffcc"/> 		<text font-size="12" id="_88B4C2C7-DFCD-464E-B3B1-FC194544F9BFtext_name" x="50" y="40" oryx:align="middle center" oryx:fittoelem="text_frame" stroke="black" text-anchor="middle" stroke-width="0pt" letter-spacing="-0.01px" fill="#000000" transform="rotate(0 50 40)" visibility="inherit" oryx:fontSize="12"><tspan x="50" y="40" dy="-1">Servicio </tspan><tspan x="50" y="40" dy="11">Anotaci?n</tspan></text>     <g id="_88B4C2C7-DFCD-464E-B3B1-FC194544F9BFmanualTask" transform="scale(0.7,0.7) translate(8,8)" display="none">     	<path oryx:anchors="top left" id="_88B4C2C7-DFCD-464E-B3B1-FC194544F9BFframe" style="opacity:1;fill:none;fill-opacity:1;stroke-width:1" d="M0.5,3.751l4.083-3.25c0,0,11.166,0.083,12.083,0.083s-2.417,2.917-1.5,2.917     s11.667,0,12.584,0c1.166,1.708-0.168,3.167-0.834,3.667s0.875,1.917-1,4.417c-0.75,0.25,0.75,1.875-1.333,3.333     c-1.167,0.583,0.583,1.542-1.25,2.833c-1.167,0-20.833,0.083-20.833,0.083l-2-1.333V3.751z" stroke="#000000"/> 		<path id="_88B4C2C7-DFCD-464E-B3B1-FC194544F9BFframe2" oryx:anchors="top left" style="opacity:1;fill:none;stroke-width:2" d="M 13.5 7 L 27 7" stroke="#000000"/> 		<path id="_88B4C2C7-DFCD-464E-B3B1-FC194544F9BFframe3" oryx:anchors="top left" style="opacity:1;fill:none;stroke-width:2" d="M 13.5 11 L 26 11" stroke="#000000"/> 		<path id="_88B4C2C7-DFCD-464E-B3B1-FC194544F9BFframe4" oryx:anchors="top left" style="opacity:1;fill:none;stroke-width:1.5" d="M 14 14.5 L 25 14.5" stroke="#000000"/> 		<path id="_88B4C2C7-DFCD-464E-B3B1-FC194544F9BFframe5" oryx:anchors="top left" style="opacity:1;fill:none;stroke-width:1.5" d="M 8.2 3.1 L 15 3.1" stroke="#000000"/> 	</g> 	 	<g id="_88B4C2C7-DFCD-464E-B3B1-FC194544F9BFbusinessRuleTask" transform="scale(0.7,0.7) translate(8,8)" display="none"> 		<rect id="_88B4C2C7-DFCD-464E-B3B1-FC194544F9BFframe6" oryx:anchors="top left" x="0" y="0" width="22" height="4" style="opacity:1;fill:#B3B1B3;fill-opacity:1;" stroke="#000000"/> 		<rect id="_88B4C2C7-DFCD-464E-B3B1-FC194544F9BFframe7" oryx:anchors="top left" x="0" y="4" style="opacity:1;fill:none;" width="22" height="12" stroke="#000000"/> 		<path id="_88B4C2C7-DFCD-464E-B3B1-FC194544F9BFframe8" oryx:anchors="top left" style="opacity:1;fill:none;" d="M 0 10 L 22 10" stroke="#000000"/> 		<path id="_88B4C2C7-DFCD-464E-B3B1-FC194544F9BFframe9" oryx:anchors="top left" style="opacity:1; fill:none;" d="M 7 4 L 7 16" stroke="#000000"/> 	</g> 	 	<g id="_88B4C2C7-DFCD-464E-B3B1-FC194544F9BFscriptTask" transform="scale(0.7,0.7) translate(8,8)" display="inherit"> 		<path oryx:anchors="top left" id="_88B4C2C7-DFCD-464E-B3B1-FC194544F9BFframe10" style="opacity:1;fill:none;" stroke="#000000" d="M6.402,0.5h14.5c0,0-5.833,2.833-5.833,5.583s4.417,6,4.417,9.167    s-4.167,5.083-4.167,5.083H0.235c0,0,5-2.667,5-5s-4.583-6.75-4.583-9.25S6.402,0.5,6.402,0.5z"/> 		<path oryx:anchors="top left" id="_88B4C2C7-DFCD-464E-B3B1-FC194544F9BFframe11" style="opacity:1;fill:none;stroke-width:1.5" d="M 3.5 4.5 L 13.5 4.5" stroke="#000000"/> 		<path oryx:anchors="top left" id="_88B4C2C7-DFCD-464E-B3B1-FC194544F9BFframe12" style="opacity:1;fill:none;stroke-width:1.5" d="M 3.8 8.5 L 13.8 8.5" stroke="#000000"/> 		<path oryx:anchors="top left" id="_88B4C2C7-DFCD-464E-B3B1-FC194544F9BFframe13" style="opacity:1;fill:none;stroke-width:1.5" d="M 6.3 12.5 L 16.3 12.5" stroke="#000000"/> 		<path oryx:anchors="top left" id="_88B4C2C7-DFCD-464E-B3B1-FC194544F9BFframe14" style="opacity:1;fill:none;stroke-width:1.5" d="M 6.5 16.5 L 16.5 16.5" stroke="#000000"/> 	</g> 	 	<g id="_88B4C2C7-DFCD-464E-B3B1-FC194544F9BFuserTask" transform="scale(0.7,0.7) translate(8,8)" display="none"> 		<path id="_88B4C2C7-DFCD-464E-B3B1-FC194544F9BFframe15" oryx:anchors="top left" style="opacity:1;fill:#F4F6F7" stroke="#000000" d="M0.585,24.167h24.083v-7.833c0,0-2.333-3.917-7.083-5.167h-9.25    c-4.417,1.333-7.833,5.75-7.833,5.75L0.585,24.167z"/> 		<path id="_88B4C2C7-DFCD-464E-B3B1-FC194544F9BFframe16" oryx:anchors="top left" style="opacity:1;fill:none" d="M 6 20 L 6 24" stroke="#000000"/> 		<path id="_88B4C2C7-DFCD-464E-B3B1-FC194544F9BFframe17" oryx:anchors="top left" style="opacity:1;fill:none" d="M 20 20 L 20 24" stroke="#000000"/> 		<circle id="_88B4C2C7-DFCD-464E-B3B1-FC194544F9BFframe18" oryx:anchors="top left" fill="black" cx="13.002" cy="5.916" r="5.417" stroke="#000000"/> 		<path id="_88B4C2C7-DFCD-464E-B3B1-FC194544F9BFframe19" oryx:anchors="top left" style="opacity:1;fill:#F0EFF0;" stroke="#000000" d="M8.043,7.083c0,0,2.814-2.426,5.376-1.807s4.624-0.693,4.624-0.693    c0.25,1.688,0.042,3.75-1.458,5.584c0,0,1.083,0.75,1.083,1.5s0.125,1.875-1,3s-5.5,1.25-6.75,0S8.668,12.834,8.668,12    s0.583-1.25,1.25-1.917C8.835,9.5,7.419,7.708,8.043,7.083z"/> 	</g> 	 	<g id="_88B4C2C7-DFCD-464E-B3B1-FC194544F9BFserviceTask" transform="scale(0.7,0.7) translate(8,8)" display="none"> 		<polygon oryx:anchors="top left" id="_88B4C2C7-DFCD-464E-B3B1-FC194544F9BFframe20" style="opacity:1;fill:#ffffff" stroke="#000000" points="15.392,5.064 17.954,2.502 20.347,4.895 17.786,7.455     18.729,9.732 22.353,9.732 22.353,13.115 18.731,13.115 17.788,15.392 20.351,17.955 17.958,20.347 15.397,17.786 13.12,18.729     13.12,22.353 9.737,22.353 9.737,18.731 7.46,17.788 4.897,20.35 2.506,17.958 5.066,15.397 4.124,13.12 0.5,13.12 0.5,9.737     4.121,9.737 5.065,7.461 2.503,4.898 4.895,2.506 7.455,5.066 9.732,4.125 9.732,0.5 13.116,0.5 13.116,4.121 "/> 		<circle oryx:anchors="top left" id="_88B4C2C7-DFCD-464E-B3B1-FC194544F9BFframe21" style="opacity:1;fill:none" stroke="#000000" cx="11.427" cy="11.426" r="3.714"/> 		<polygon oryx:anchors="top left" id="_88B4C2C7-DFCD-464E-B3B1-FC194544F9BFframe22" style="opacity:1;fill:#ffffff" stroke="#000000" points="21.392,11.064 23.954,8.502 26.347,10.895 23.786,13.455     24.729,15.732 28.353,15.732 28.353,19.115 24.731,19.115 23.788,21.392 26.351,23.955 23.958,26.347 21.397,23.786 19.12,24.729     19.12,28.353 15.737,28.353 15.737,24.731 13.46,23.788 10.897,26.35 8.506,23.958 11.066,21.397 10.124,19.12 6.5,19.12     6.5,15.737 10.121,15.737 11.065,13.461 8.503,10.898 10.895,8.506 13.455,11.066 15.732,10.125 15.732,6.5 19.116,6.5     19.116,10.121 "/> 		<circle oryx:anchors="top left" id="_88B4C2C7-DFCD-464E-B3B1-FC194544F9BFframe23" style="opacity:1;fill:none;" stroke="#000000" cx="17.427" cy="17.426" r="3.714"/> 	</g> 	 	<g id="_88B4C2C7-DFCD-464E-B3B1-FC194544F9BFsendTask" display="none"> 		<path id="_88B4C2C7-DFCD-464E-B3B1-FC194544F9BFstframe24" oryx:anchors="left top" stroke="#FFFFFF" fill="black" stroke-width="1" d="M8,11 L8,21 L24,21 L24,11 L16,17z"/> 		<path id="_88B4C2C7-DFCD-464E-B3B1-FC194544F9BFstframe25" oryx:anchors="left top" stroke="#FFFFFF" fill="black" stroke-width="1" d="M7,10 L16,17 L25 10z"/> 	</g> 	 	<g id="_88B4C2C7-DFCD-464E-B3B1-FC194544F9BFreceiveTask" display="none"> 		<path id="_88B4C2C7-DFCD-464E-B3B1-FC194544F9BFframe26" oryx:anchors="left top" stroke="#000000" fill="none" stroke-width="1" d="M8,11 L8,21 L24,21 L24,11z M8,11 L16,17 L24,11"/> 	</g> 	 	<g id="_88B4C2C7-DFCD-464E-B3B1-FC194544F9BFnone" display="inherit"/>  	<g id="_88B4C2C7-DFCD-464E-B3B1-FC194544F9BFsequential" display="none">         <path oryx:anchors="bottom" fill="none" stroke="#000000" stroke-width="2" d="M46,76h10M46,72h10 M46,68h10" id="_88B4C2C7-DFCD-464E-B3B1-FC194544F9BF__88B4C2C7-DFCD-464E-B3B1-FC194544F9BF_20"/>     </g>   </g></g><g class="children" style="overflow:hidden"/><g class="edge"/></g><g class="controls"><g class="dockers"/><g class="magnets" transform="translate(255, 404)"><g pointer-events="all" display="none" transform="translate(-7, 12)"><circle cx="8" cy="8" r="4" stroke="none" fill="red" fill-opacity="0.3"/></g><g pointer-events="all" display="none" transform="translate(-7, 32)"><circle cx="8" cy="8" r="4" stroke="none" fill="red" fill-opacity="0.3"/></g><g pointer-events="all" display="none" transform="translate(-7, 52)"><circle cx="8" cy="8" r="4" stroke="none" fill="red" fill-opacity="0.3"/></g><g pointer-events="all" display="none" transform="translate(17, 71)"><circle cx="8" cy="8" r="4" stroke="none" fill="red" fill-opacity="0.3"/></g><g pointer-events="all" display="none" transform="translate(42, 71)"><circle cx="8" cy="8" r="4" stroke="none" fill="red" fill-opacity="0.3"/></g><g pointer-events="all" display="none" transform="translate(67, 71)"><circle cx="8" cy="8" r="4" stroke="none" fill="red" fill-opacity="0.3"/></g><g pointer-events="all" display="none" transform="translate(91, 12)"><circle cx="8" cy="8" r="4" stroke="none" fill="red" fill-opacity="0.3"/></g><g pointer-events="all" display="none" transform="translate(91, 32)"><circle cx="8" cy="8" r="4" stroke="none" fill="red" fill-opacity="0.3"/></g><g pointer-events="all" display="none" transform="translate(91, 52)"><circle cx="8" cy="8" r="4" stroke="none" fill="red" fill-opacity="0.3"/></g><g pointer-events="all" display="none" transform="translate(17, -7)"><circle cx="8" cy="8" r="4" stroke="none" fill="red" fill-opacity="0.3"/></g><g pointer-events="all" display="none" transform="translate(42, -7)"><circle cx="8" cy="8" r="4" stroke="none" fill="red" fill-opacity="0.3"/></g><g pointer-events="all" display="none" transform="translate(67, -7)"><circle cx="8" cy="8" r="4" stroke="none" fill="red" fill-opacity="0.3"/></g><g pointer-events="all" display="none" transform="translate(42, 32)"><circle cx="8" cy="8" r="4" stroke="none" fill="red" fill-opacity="0.3"/></g></g></g></g><g id="_6C94D80D-9148-4FB5-87FD-AD18A01BB294" bpmn2nodeid="_93756A25-1A06-424D-9E88-51075A5BD9AB"><g class="stencils" transform="translate(30, 429)"><g class="me"><g pointer-events="fill" id="_6C94D80D-9148-4FB5-87FD-AD18A01BB294">      <defs id="_6C94D80D-9148-4FB5-87FD-AD18A01BB294__6C94D80D-9148-4FB5-87FD-AD18A01BB294_5"> 		<radialGradient id="_6C94D80D-9148-4FB5-87FD-AD18A01BB294background" cx="10%" cy="10%" r="100%" fx="10%" fy="10%"> 			<stop offset="0%" stop-color="#ffffff" stop-opacity="1" id="_6C94D80D-9148-4FB5-87FD-AD18A01BB294__6C94D80D-9148-4FB5-87FD-AD18A01BB294_6"/> 			<stop id="_6C94D80D-9148-4FB5-87FD-AD18A01BB294fill_el" offset="100%" stop-color="#9acd32" stop-opacity="1"/> 		</radialGradient> 	</defs> 	     <circle id="_6C94D80D-9148-4FB5-87FD-AD18A01BB294bg_frame" cx="15" cy="15" r="15" stroke="#000000" fill="url(#_6C94D80D-9148-4FB5-87FD-AD18A01BB294background) white" stroke-width="1" style="stroke-dasharray: 5.5, 3"/>      <circle id="_6C94D80D-9148-4FB5-87FD-AD18A01BB294frame" cx="15" cy="15" r="15" stroke="#000000" fill="none" stroke-width="1" display="inherit"/>      <path id="_6C94D80D-9148-4FB5-87FD-AD18A01BB294body" d=" M7.7124971 20.247342  L22.333334 20.247342  L15.022915000000001 7.575951200000001  L7.7124971 20.247342  z" stroke="black" style="fill:none;stroke-width:1.4;stroke-miterlimit:4;stroke-dasharray:none"/> 	<text font-size="11" id="_6C94D80D-9148-4FB5-87FD-AD18A01BB294text_name" x="15" y="32" oryx:align="top center" stroke="black" stroke-width="0pt" letter-spacing="-0.01px" fill="#000000" text-anchor="middle" transform="rotate(0 15 32)" visibility="inherit" oryx:fontSize="11"/>   </g></g><g class="children" style="overflow:hidden"/><g class="edge"/></g><g class="controls"><g class="dockers"/><g class="magnets" transform="translate(30, 429)"><g pointer-events="all" display="none" transform="translate(7, 7)"><circle cx="8" cy="8" r="4" stroke="none" fill="red" fill-opacity="0.3"/></g></g></g></g><g id="_C24BCEB9-7BFE-4FD9-A30B-C40E2A245645" bpmn2nodeid="_B37AA522-3120-4232-AC91-3EF9A14E01D4"><g class="stencils" transform="translate(945, 404)"><g class="me"><g pointer-events="fill" oryx:minimumSize="80 60" id="_C24BCEB9-7BFE-4FD9-A30B-C40E2A245645">   	<defs id="_C24BCEB9-7BFE-4FD9-A30B-C40E2A245645__C24BCEB9-7BFE-4FD9-A30B-C40E2A245645_17"> 		<radialGradient id="_C24BCEB9-7BFE-4FD9-A30B-C40E2A245645background" cx="10%" cy="10%" r="100%" fx="10%" fy="10%"> 			<stop offset="0%" stop-color="#ffffff" stop-opacity="1" id="_C24BCEB9-7BFE-4FD9-A30B-C40E2A245645__C24BCEB9-7BFE-4FD9-A30B-C40E2A245645_18"/> 			<stop id="_C24BCEB9-7BFE-4FD9-A30B-C40E2A245645fill_el" offset="100%" stop-color="#fafad2" stop-opacity="1"/> 		</radialGradient> 	</defs> 	<rect id="_C24BCEB9-7BFE-4FD9-A30B-C40E2A245645text_frame" oryx:anchors="bottom top right left" x="1" y="1" width="94" height="79" rx="10" ry="10" stroke="none" stroke-width="0" fill="none"/> 	<rect id="_C24BCEB9-7BFE-4FD9-A30B-C40E2A245645bg_frame" oryx:anchors="bottom top right left" x="0" y="0" width="100" height="80" rx="10" ry="10" stroke="#000000" stroke-width="1" fill="url(#_C24BCEB9-7BFE-4FD9-A30B-C40E2A245645background) #ffffcc"/> 	<rect id="_C24BCEB9-7BFE-4FD9-A30B-C40E2A245645frame" oryx:resize="vertical horizontal" oryx:anchors="bottom top right left" x="0" y="0" width="100" height="80" rx="10" ry="10" stroke="#000000" stroke-width="4" fill="none"/> 	<rect id="_C24BCEB9-7BFE-4FD9-A30B-C40E2A245645frame2" oryx:anchors="top bottom left right" oryx:resize="vertical horizontal" x="2.5" y="2.5" width="95" height="75" rx="8" ry="8" stroke="#000000" stroke-width="1" fill="none"/>     	<text font-size="12" id="_C24BCEB9-7BFE-4FD9-A30B-C40E2A245645text_name" x="50" y="40" oryx:align="middle center" oryx:fittoelem="text_frame" stroke="black" stroke-width="0pt" letter-spacing="-0.01px" fill="#000000" text-anchor="middle" transform="rotate(0 50 40)" visibility="inherit" oryx:fontSize="12"><tspan x="50" y="40" dy="-1">Subproceso </tspan><tspan x="50" y="40" dy="11">Tarjetas</tspan></text>          <a id="_C24BCEB9-7BFE-4FD9-A30B-C40E2A245645pimg" onclick="parent.designeropenintab(&quot;SubprocesoTarjeta.bpmn2&quot;,&quot;default://master@MySpace/Opplus/src/main/resources/es/dxd/opplus/tarjetas/SubprocesoTarjeta.bpmn2&quot;);" xlink:href="">	 	<g id="_C24BCEB9-7BFE-4FD9-A30B-C40E2A245645b" oryx:anchors="bottom"> 		<rect id="_C24BCEB9-7BFE-4FD9-A30B-C40E2A245645frame3" oryx:anchors="bottom" x="44" y="66" width="14" height="14" fill="none" stroke="#000000" stroke-width="1"/> 		<path id="_C24BCEB9-7BFE-4FD9-A30B-C40E2A245645frame4" oryx:anchors="bottom" fill="none" stroke="#000000" d="M51 68 v10 M 46 73 h10" stroke-width="1"/> 	</g> 	</a> 	<g id="_C24BCEB9-7BFE-4FD9-A30B-C40E2A245645none"/> 	undefined 	  	undefined 	undefined 	 	 	undefined 	undefined   </g></g><g class="children" style="overflow:hidden"/><g class="edge"/></g><g class="controls"><g class="dockers"/><g class="magnets" transform="translate(945, 404)"><g pointer-events="all" display="none" transform="translate(-7, 12)"><circle cx="8" cy="8" r="4" stroke="none" fill="red" fill-opacity="0.3"/></g><g pointer-events="all" display="none" transform="translate(-7, 32)"><circle cx="8" cy="8" r="4" stroke="none" fill="red" fill-opacity="0.3"/></g><g pointer-events="all" display="none" transform="translate(-7, 52)"><circle cx="8" cy="8" r="4" stroke="none" fill="red" fill-opacity="0.3"/></g><g pointer-events="all" display="none" transform="translate(17, 71)"><circle cx="8" cy="8" r="4" stroke="none" fill="red" fill-opacity="0.3"/></g><g pointer-events="all" display="none" transform="translate(42, 71)"><circle cx="8" cy="8" r="4" stroke="none" fill="red" fill-opacity="0.3"/></g><g pointer-events="all" display="none" transform="translate(67, 71)"><circle cx="8" cy="8" r="4" stroke="none" fill="red" fill-opacity="0.3"/></g><g pointer-events="all" display="none" transform="translate(91, 12)"><circle cx="8" cy="8" r="4" stroke="none" fill="red" fill-opacity="0.3"/></g><g pointer-events="all" display="none" transform="translate(91, 32)"><circle cx="8" cy="8" r="4" stroke="none" fill="red" fill-opacity="0.3"/></g><g pointer-events="all" display="none" transform="translate(91, 52)"><circle cx="8" cy="8" r="4" stroke="none" fill="red" fill-opacity="0.3"/></g><g pointer-events="all" display="none" transform="translate(17, -7)"><circle cx="8" cy="8" r="4" stroke="none" fill="red" fill-opacity="0.3"/></g><g pointer-events="all" display="none" transform="translate(42, -7)"><circle cx="8" cy="8" r="4" stroke="none" fill="red" fill-opacity="0.3"/></g><g pointer-events="all" display="none" transform="translate(67, -7)"><circle cx="8" cy="8" r="4" stroke="none" fill="red" fill-opacity="0.3"/></g><g pointer-events="all" display="none" transform="translate(42, 32)"><circle cx="8" cy="8" r="4" stroke="none" fill="red" fill-opacity="0.3"/></g></g></g></g><g id="_0B298719-5676-4860-8A59-AF791659A479" bpmn2nodeid="_59786CD1-9722-437B-96BE-2681094C1F7A"><g class="stencils" transform="translate(1095, 424)"><g class="me"><g id="_0B298719-5676-4860-8A59-AF791659A479">        <defs id="_0B298719-5676-4860-8A59-AF791659A479__0B298719-5676-4860-8A59-AF791659A479_4"> 		<radialGradient id="_0B298719-5676-4860-8A59-AF791659A479background" cx="10%" cy="10%" r="100%" fx="10%" fy="10%"> 			<stop offset="0%" stop-color="#ffffff" stop-opacity="1" id="_0B298719-5676-4860-8A59-AF791659A479__0B298719-5676-4860-8A59-AF791659A479_5"/> 			<stop id="_0B298719-5676-4860-8A59-AF791659A479fill_el" offset="100%" stop-color="#f0e68c" stop-opacity="1"/> 		</radialGradient> 		<radialGradient id="_0B298719-5676-4860-8A59-AF791659A479borderbackground" cx="10%" cy="10%" r="100%" fx="10%" fy="10%"> 			<stop offset="0%" stop-color="#ffffff" stop-opacity="1" id="_0B298719-5676-4860-8A59-AF791659A479__0B298719-5676-4860-8A59-AF791659A479_6"/> 			<stop id="_0B298719-5676-4860-8A59-AF791659A479fill_border" offset="100%" stop-color="#a67f00" stop-opacity="1" stroke="#a67f00"/> 		</radialGradient> 	</defs> 	     <path d=" M0 20.5  L20.5 0  L40 20.5  L20.5 40  z" id="_0B298719-5676-4860-8A59-AF791659A479bg_frame" fill="url(#_0B298719-5676-4860-8A59-AF791659A479background) white" style="stroke-width:1" stroke="#a67f00"/>     <g id="_0B298719-5676-4860-8A59-AF791659A479frame" stroke="#a67f00">       <path id="_0B298719-5676-4860-8A59-AF791659A479frame2" d=" M13.25 12.05  L17.25 12.05  L27.65 28.95  L23.75 28.95  z" style="stroke-width:1" stroke="#a67f00" fill="url(#_0B298719-5676-4860-8A59-AF791659A479borderbackground)"/>       <path id="_0B298719-5676-4860-8A59-AF791659A479frame3" d=" M13.25 28.95  L23.75 12.05  L27.65 12.05  L17.25 28.95  z" style="stroke-width:1" stroke="#a67f00" fill="url(#_0B298719-5676-4860-8A59-AF791659A479borderbackground)"/>     </g> 	 	<text id="_0B298719-5676-4860-8A59-AF791659A479text_name" x="30.5" y="30.5" oryx:align="left top" stroke-width="0pt" letter-spacing="-0.01px" fill="#000000" text-anchor="start" transform="rotate(0 30.5 30.5)" visibility="inherit" oryx:fontSize="12"/> 	   </g></g><g class="children" style="overflow:hidden"/><g class="edge"/></g><g class="controls"><g class="dockers"/><g class="magnets" transform="translate(1095, 424)"><g pointer-events="all" display="none" transform="translate(12.5, 12.5)"><circle cx="8" cy="8" r="4" stroke="none" fill="red" fill-opacity="0.3"/></g></g></g></g><g id="_5E8BDAD4-9A38-4BF9-B5FF-24E042B6457E" bpmn2nodeid="_732CD082-EC09-42A3-9C92-75960C07BE76"><g class="stencils" transform="translate(1200, 430)"><g class="me"><g pointer-events="fill" id="_5E8BDAD4-9A38-4BF9-B5FF-24E042B6457E">      <defs id="_5E8BDAD4-9A38-4BF9-B5FF-24E042B6457E__5E8BDAD4-9A38-4BF9-B5FF-24E042B6457E_5"> 		<radialGradient id="_5E8BDAD4-9A38-4BF9-B5FF-24E042B6457Ebackground" cx="10%" cy="10%" r="100%" fx="10%" fy="10%"> 			<stop offset="0%" stop-color="#ffffff" stop-opacity="1" id="_5E8BDAD4-9A38-4BF9-B5FF-24E042B6457E__5E8BDAD4-9A38-4BF9-B5FF-24E042B6457E_6"/> 			<stop id="_5E8BDAD4-9A38-4BF9-B5FF-24E042B6457Efill_el" offset="100%" stop-color="#ff6347" stop-opacity="1"/> 		</radialGradient> 	</defs> 	     <circle id="_5E8BDAD4-9A38-4BF9-B5FF-24E042B6457Ebg_frame" cx="14" cy="14" r="14" stroke="#000000" fill="url(#_5E8BDAD4-9A38-4BF9-B5FF-24E042B6457Ebackground) white" stroke-width="3"/> 	<text font-size="11" id="_5E8BDAD4-9A38-4BF9-B5FF-24E042B6457Etext_name" x="14" y="30" oryx:align="top center" stroke="black" stroke-width="0pt" letter-spacing="-0.01px" fill="#000000" text-anchor="middle" transform="rotate(0 14 30)" visibility="inherit" oryx:fontSize="11"/>   </g></g><g class="children" style="overflow:hidden"/><g class="edge"/></g><g class="controls"><g class="dockers"/><g class="magnets" transform="translate(1200, 430)"><g pointer-events="all" display="none" transform="translate(6, 6)"><circle cx="8" cy="8" r="4" stroke="none" fill="red" fill-opacity="0.3"/></g></g></g></g></g><g class="edge"><g id="_E5BED867-38CC-46A0-AA21-18A39A88FD33" bpmn2nodeid="_A7902D16-9CD1-4D1A-BCF6-BA3567450B94"><g class="stencils"><g class="me"><g pointer-events="painted" bpmn2nodeid="_8101560E-39EE-498D-9A18-4B0141A1417E"><path id="_E5BED867-38CC-46A0-AA21-18A39A88FD33_1" d="M355.2165351578566 440.6522309894762L464.7834648421434 433.3477690105238 " stroke="#000000" fill="none" stroke-width="2" stroke-linecap="round" stroke-linejoin="round" marker-start="url(#_E5BED867-38CC-46A0-AA21-18A39A88FD33start)" marker-end="url(#_E5BED867-38CC-46A0-AA21-18A39A88FD33end)"/></g><text id="_E5BED867-38CC-46A0-AA21-18A39A88FD33text_name" font-size="12" x="369.2165351578566" y="426.6522309894762" oryx:edgePosition="startTop" stroke-width="0pt" letter-spacing="-0.01px" fill="#000000" text-anchor="start" transform="rotate(356.18592516570965 355.2165351578566 440.6522309894762)" visibility="inherit" oryx:fontSize="12"/></g><g class="children" style="overflow:hidden"/><g class="edge"/></g><g class="controls"><g class="dockers"/><g class="magnets"/></g></g><g id="_86D6C341-341D-4A99-8116-81508914E025" bpmn2nodeid="_8A5187E9-B0B8-456A-88B6-1B780E070D3F"><g class="stencils"><g class="me"><g pointer-events="painted" bpmn2nodeid="_D781C035-C933-46C4-A656-0A35FD03B5CB"><path id="_86D6C341-341D-4A99-8116-81508914E025_1" d="M177.078125 444L254.28125 444 " stroke="#000000" fill="none" stroke-width="2" stroke-linecap="round" stroke-linejoin="round" marker-start="url(#_86D6C341-341D-4A99-8116-81508914E025start)" marker-end="url(#_86D6C341-341D-4A99-8116-81508914E025end)"/></g><text id="_86D6C341-341D-4A99-8116-81508914E025text_name" font-size="12" x="191.078125" y="430" oryx:edgePosition="startTop" stroke-width="0pt" letter-spacing="-0.01px" fill="#000000" text-anchor="start" transform="rotate(360 177.078125 444)" visibility="inherit" oryx:fontSize="12"/></g><g class="children" style="overflow:hidden"/><g class="edge"/></g><g class="controls"><g class="dockers"/><g class="magnets"/></g></g><g id="_C289C0FB-1717-43B9-8FDB-37ADB16DD8D4" bpmn2nodeid="_7E9880C2-31AF-4AA9-BBE9-8F15AD79498D"><g class="stencils"><g class="me"><g pointer-events="painted" bpmn2nodeid="_EF173F61-8399-4002-8038-4C1865D0C9F9"><path id="_C289C0FB-1717-43B9-8FDB-37ADB16DD8D4_1" d="M60 444L136.75 444 " stroke="#000000" fill="none" stroke-width="2" stroke-linecap="round" stroke-linejoin="round" marker-start="url(#_C289C0FB-1717-43B9-8FDB-37ADB16DD8D4start)" marker-end="url(#_C289C0FB-1717-43B9-8FDB-37ADB16DD8D4end)"/></g><text id="_C289C0FB-1717-43B9-8FDB-37ADB16DD8D4text_name" font-size="12" x="74" y="430" oryx:edgePosition="startTop" stroke-width="0pt" letter-spacing="-0.01px" fill="#000000" text-anchor="start" transform="rotate(360 60 444)" visibility="inherit" oryx:fontSize="12"/></g><g class="children" style="overflow:hidden"/><g class="edge"/></g><g class="controls"><g class="dockers"/><g class="magnets"/></g></g><g id="_CF57D3D3-979E-4D2E-8221-B1164ECFC4D3" bpmn2nodeid="_8D61B8C7-FDFD-4CFA-8008-7203C3ECE66A"><g class="stencils"><g class="me"><g pointer-events="painted" bpmn2nodeid="_2262C02B-24C5-4CED-BBFB-3A6FC2DB3EFD"><path id="_CF57D3D3-979E-4D2E-8221-B1164ECFC4D3_1" d="M1045.6875 444L1095.25 444 " stroke="#000000" fill="none" stroke-width="2" stroke-linecap="round" stroke-linejoin="round" marker-start="url(#_CF57D3D3-979E-4D2E-8221-B1164ECFC4D3start)" marker-end="url(#_CF57D3D3-979E-4D2E-8221-B1164ECFC4D3end)"/></g><text id="_CF57D3D3-979E-4D2E-8221-B1164ECFC4D3text_name" font-size="12" x="1059.6875" y="430" oryx:edgePosition="startTop" stroke-width="0pt" letter-spacing="-0.01px" fill="#000000" text-anchor="start" transform="rotate(360 1045.6875 444)" visibility="inherit" oryx:fontSize="12"/></g><g class="children" style="overflow:hidden"/><g class="edge"/></g><g class="controls"><g class="dockers"/><g class="magnets"/></g></g><g id="_0E035FA9-271A-4634-91BA-CBB14E000530" bpmn2nodeid="_39DB83AF-12B6-4062-8338-42927BBA975D"><g class="stencils"><g class="me"><g pointer-events="painted" bpmn2nodeid="_D8F4E4A9-2B4F-4006-A49D-E125C4E4825D"><path id="_0E035FA9-271A-4634-91BA-CBB14E000530_1" d="M1134.5625 444L1199.078125 444 " stroke="#000000" fill="none" stroke-width="2" stroke-linecap="round" stroke-linejoin="round" marker-start="url(#_0E035FA9-271A-4634-91BA-CBB14E000530start)" marker-end="url(#_0E035FA9-271A-4634-91BA-CBB14E000530end)"/></g><text id="_0E035FA9-271A-4634-91BA-CBB14E000530text_name" font-size="12" x="1148.5625" y="430" oryx:edgePosition="startTop" stroke-width="0pt" letter-spacing="-0.01px" fill="#000000" text-anchor="start" transform="rotate(360 1134.5625 444)" visibility="inherit" oryx:fontSize="12"/></g><g class="children" style="overflow:hidden"/><g class="edge"/></g><g class="controls"><g class="dockers"/><g class="magnets"/></g></g><g id="_B03CD72B-4731-4532-A31C-2CC11CBD0B43" bpmn2nodeid="_7AF40A52-B95C-4EFE-A174-3A529100809C"><g class="stencils"><g class="me"><g pointer-events="painted" bpmn2nodeid="_8CBE1406-4D98-4D76-81F4-12B07CB85AE8"><path id="_B03CD72B-4731-4532-A31C-2CC11CBD0B43_1" d="M1115 424.484375L1115 286 L157 286 L157 424.484375 " stroke="#000000" fill="none" stroke-width="2" stroke-linecap="round" stroke-linejoin="round" marker-start="url(#_B03CD72B-4731-4532-A31C-2CC11CBD0B43start)" marker-end="url(#_B03CD72B-4731-4532-A31C-2CC11CBD0B43end)"/></g><text id="_B03CD72B-4731-4532-A31C-2CC11CBD0B43text_name" font-size="12" x="1129" y="410.484375" oryx:edgePosition="startTop" stroke-width="0pt" letter-spacing="-0.01px" fill="#000000" text-anchor="start" transform="rotate(270 1115 424.484375)" visibility="inherit" oryx:fontSize="12"/></g><g class="children" style="overflow:hidden"/><g class="edge"/></g><g class="controls"><g class="dockers"/><g class="magnets"/></g></g><g id="_47D7C3D5-82C4-4255-872B-2D4D0338706C" bpmn2nodeid="_03A5FDF3-9E33-4A3D-85F3-E4167573E9E8"><g class="stencils"><g class="me"><g pointer-events="painted" bpmn2nodeid="_49A669C0-021D-44CA-93BE-A4B5CC5E4D69"><path id="_47D7C3D5-82C4-4255-872B-2D4D0338706C_1" d="M565.687074923966 431.4783730186157L944.312925076034 442.5216269813843 " stroke="#000000" fill="none" stroke-width="2" stroke-linecap="round" stroke-linejoin="round" marker-start="url(#_47D7C3D5-82C4-4255-872B-2D4D0338706Cstart)" marker-end="url(#_47D7C3D5-82C4-4255-872B-2D4D0338706Cend)"/></g><text id="_47D7C3D5-82C4-4255-872B-2D4D0338706Ctext_name" font-size="12" x="579.687074923966" y="417.4783730186157" oryx:edgePosition="startTop" stroke-width="0pt" letter-spacing="-0.01px" fill="#000000" text-anchor="start" transform="rotate(1.6706532713999422 565.687074923966 431.4783730186157)" visibility="inherit" oryx:fontSize="12"/></g><g class="children" style="overflow:hidden"/><g class="edge"/></g><g class="controls"><g class="dockers"/><g class="magnets"/></g></g></g><text id="_FB7C6C2E-F3B9-4F29-94BA-6A16E42FDA61" style="stroke-width:1;fill:rgb(177,194,214);font-family:arial;font-weight:bold" font-size="12" onclick="ORYX.Plugins.CanvasTitle.openTextualAnalysis()" onmouseover="ORYX.Plugins.CanvasTitle.addToolTip('_FB7C6C2E-F3B9-4F29-94BA-6A16E42FDA61')" transform="translate(10, 20)">Tarjetas v.1.0 (Opplus.Tarjetas)</text></g></g></svg>