<svg xmlns="http://www.w3.org/2000/svg" xmlns:oryx="http://oryx-editor.org" id="_2C33D0D5-D14F-494F-995F-E07B9E735828" width="1269" height="525" xmlns:xlink="http://www.w3.org/1999/xlink" xmlns:svg="http://www.w3.org/2000/svg"><defs><marker id="_9AAC7BE6-91AF-4119-8760-E6060FD876A9start" refX="1" refY="5" markerUnits="userSpaceOnUse" markerWidth="17" markerHeight="11" orient="auto" fill="#000000" stroke="#000000"> 	  		<path id="_9AAC7BE6-91AF-4119-8760-E6060FD876A9conditional" d="M 0 5 L 8 0 L 16 5 L 8 10 L 0 5" fill="white" stroke="#000000" stroke-width="1" display="none"/> 			<path id="_9AAC7BE6-91AF-4119-8760-E6060FD876A9default" d="M 5 0 L 11 10" fill="white" stroke="#000000" stroke-width="1" display="none"/> 	  	</marker><marker id="_9AAC7BE6-91AF-4119-8760-E6060FD876A9end" refX="15" refY="6" markerUnits="userSpaceOnUse" markerWidth="15" markerHeight="12" orient="auto" fill="#000000" stroke="#000000"> 	  		<path id="_9AAC7BE6-91AF-4119-8760-E6060FD876A9frame2" d="M 0 1 L 15 6 L 0 11z" fill="#000000" stroke="#000000" stroke-linejoin="round" stroke-width="2"/> 	  	</marker><marker id="_A6D19CD9-504E-4363-B5BE-8D07A89B2F94start" refX="1" refY="5" markerUnits="userSpaceOnUse" markerWidth="17" markerHeight="11" orient="auto" fill="#000000" stroke="#000000"> 	  		<path id="_A6D19CD9-504E-4363-B5BE-8D07A89B2F94conditional" d="M 0 5 L 8 0 L 16 5 L 8 10 L 0 5" fill="white" stroke="#000000" stroke-width="1" display="none"/> 			<path id="_A6D19CD9-504E-4363-B5BE-8D07A89B2F94default" d="M 5 0 L 11 10" fill="white" stroke="#000000" stroke-width="1" display="none"/> 	  	</marker><marker id="_A6D19CD9-504E-4363-B5BE-8D07A89B2F94end" refX="15" refY="6" markerUnits="userSpaceOnUse" markerWidth="15" markerHeight="12" orient="auto" fill="#000000" stroke="#000000"> 	  		<path id="_A6D19CD9-504E-4363-B5BE-8D07A89B2F94frame2" d="M 0 1 L 15 6 L 0 11z" fill="#000000" stroke="#000000" stroke-linejoin="round" stroke-width="2"/> 	  	</marker><marker id="_79F582D4-C55D-4CDB-A847-C8BD886A26A9start" refX="1" refY="5" markerUnits="userSpaceOnUse" markerWidth="17" markerHeight="11" orient="auto" fill="#000000" stroke="#000000"> 	  		<path id="_79F582D4-C55D-4CDB-A847-C8BD886A26A9conditional" d="M 0 5 L 8 0 L 16 5 L 8 10 L 0 5" fill="white" stroke="#000000" stroke-width="1" display="none"/> 			<path id="_79F582D4-C55D-4CDB-A847-C8BD886A26A9default" d="M 5 0 L 11 10" fill="white" stroke="#000000" stroke-width="1" display="none"/> 	  	</marker><marker id="_79F582D4-C55D-4CDB-A847-C8BD886A26A9end" refX="15" refY="6" markerUnits="userSpaceOnUse" markerWidth="15" markerHeight="12" orient="auto" fill="#000000" stroke="#000000"> 	  		<path id="_79F582D4-C55D-4CDB-A847-C8BD886A26A9frame2" d="M 0 1 L 15 6 L 0 11z" fill="#000000" stroke="#000000" stroke-linejoin="round" stroke-width="2"/> 	  	</marker><marker id="_1E06A67F-CA12-43A1-95A4-5364310DD22Astart" refX="1" refY="5" markerUnits="userSpaceOnUse" markerWidth="17" markerHeight="11" orient="auto" fill="#000000" stroke="#000000"> 	  		<path id="_1E06A67F-CA12-43A1-95A4-5364310DD22Aconditional" d="M 0 5 L 8 0 L 16 5 L 8 10 L 0 5" fill="white" stroke="#000000" stroke-width="1" display="none"/> 			<path id="_1E06A67F-CA12-43A1-95A4-5364310DD22Adefault" d="M 5 0 L 11 10" fill="white" stroke="#000000" stroke-width="1" display="none"/> 	  	</marker><marker id="_1E06A67F-CA12-43A1-95A4-5364310DD22Aend" refX="15" refY="6" markerUnits="userSpaceOnUse" markerWidth="15" markerHeight="12" orient="auto" fill="#000000" stroke="#000000"> 	  		<path id="_1E06A67F-CA12-43A1-95A4-5364310DD22Aframe2" d="M 0 1 L 15 6 L 0 11z" fill="#000000" stroke="#000000" stroke-linejoin="round" stroke-width="2"/> 	  	</marker><marker id="_E4449104-4321-4602-9EF2-8BAE10AC9BFCstart" refX="1" refY="5" markerUnits="userSpaceOnUse" markerWidth="17" markerHeight="11" orient="auto" fill="#000000" stroke="#000000"> 	  		<path id="_E4449104-4321-4602-9EF2-8BAE10AC9BFCconditional" d="M 0 5 L 8 0 L 16 5 L 8 10 L 0 5" fill="white" stroke="#000000" stroke-width="1" display="none"/> 			<path id="_E4449104-4321-4602-9EF2-8BAE10AC9BFCdefault" d="M 5 0 L 11 10" fill="white" stroke="#000000" stroke-width="1" display="none"/> 	  	</marker><marker id="_E4449104-4321-4602-9EF2-8BAE10AC9BFCend" refX="15" refY="6" markerUnits="userSpaceOnUse" markerWidth="15" markerHeight="12" orient="auto" fill="#000000" stroke="#000000"> 	  		<path id="_E4449104-4321-4602-9EF2-8BAE10AC9BFCframe2" d="M 0 1 L 15 6 L 0 11z" fill="#000000" stroke="#000000" stroke-linejoin="round" stroke-width="2"/> 	  	</marker><marker id="_E65047A0-D33D-4EB5-A19D-13510F783C4Dstart" refX="1" refY="5" markerUnits="userSpaceOnUse" markerWidth="17" markerHeight="11" orient="auto" fill="#000000" stroke="#000000"> 	  		<path id="_E65047A0-D33D-4EB5-A19D-13510F783C4Dconditional" d="M 0 5 L 8 0 L 16 5 L 8 10 L 0 5" fill="white" stroke="#000000" stroke-width="1" display="none"/> 			<path id="_E65047A0-D33D-4EB5-A19D-13510F783C4Ddefault" d="M 5 0 L 11 10" fill="white" stroke="#000000" stroke-width="1" display="none"/> 	  	</marker><marker id="_E65047A0-D33D-4EB5-A19D-13510F783C4Dend" refX="15" refY="6" markerUnits="userSpaceOnUse" markerWidth="15" markerHeight="12" orient="auto" fill="#000000" stroke="#000000"> 	  		<path id="_E65047A0-D33D-4EB5-A19D-13510F783C4Dframe2" d="M 0 1 L 15 6 L 0 11z" fill="#000000" stroke="#000000" stroke-linejoin="round" stroke-width="2"/> 	  	</marker><marker id="_B7E87591-75F3-4CF6-9756-5F1CC4D40921start" refX="1" refY="5" markerUnits="userSpaceOnUse" markerWidth="17" markerHeight="11" orient="auto" fill="#000000" stroke="#000000"> 	  		<path id="_B7E87591-75F3-4CF6-9756-5F1CC4D40921conditional" d="M 0 5 L 8 0 L 16 5 L 8 10 L 0 5" fill="white" stroke="#000000" stroke-width="1" display="none"/> 			<path id="_B7E87591-75F3-4CF6-9756-5F1CC4D40921default" d="M 5 0 L 11 10" fill="white" stroke="#000000" stroke-width="1" display="none"/> 	  	</marker><marker id="_B7E87591-75F3-4CF6-9756-5F1CC4D40921end" refX="15" refY="6" markerUnits="userSpaceOnUse" markerWidth="15" markerHeight="12" orient="auto" fill="#000000" stroke="#000000"> 	  		<path id="_B7E87591-75F3-4CF6-9756-5F1CC4D40921frame2" d="M 0 1 L 15 6 L 0 11z" fill="#000000" stroke="#000000" stroke-linejoin="round" stroke-width="2"/> 	  	</marker></defs><g stroke="none" font-family="Verdana, sans-serif" font-size-adjust="none" font-style="normal" font-variant="normal" font-weight="normal" line-heigth="normal" font-size="12"><g class="stencils" transform="translate(16, 16)"><g class="me"/><g class="children"><g id="_27371D44-3AE0-4D08-9282-37252FBEFB31" bpmn2nodeid="_AEA456D3-3620-4F7F-BC54-AD567F9421EB"><g class="stencils" transform="translate(555, 404)"><g class="me"><g pointer-events="fill" oryx:minimumSize="50 40" id="_27371D44-3AE0-4D08-9282-37252FBEFB31">   	<defs id="_27371D44-3AE0-4D08-9282-37252FBEFB31__27371D44-3AE0-4D08-9282-37252FBEFB31_17"> 		<radialGradient id="_27371D44-3AE0-4D08-9282-37252FBEFB31background" cx="10%" cy="10%" r="100%" fx="10%" fy="10%"> 			<stop offset="0%" stop-color="#ffffff" stop-opacity="1" id="_27371D44-3AE0-4D08-9282-37252FBEFB31__27371D44-3AE0-4D08-9282-37252FBEFB31_18"/> 			<stop id="_27371D44-3AE0-4D08-9282-37252FBEFB31fill_el" offset="100%" stop-color="#fafad2" stop-opacity="1"/> 		</radialGradient> 		<radialGradient id="_27371D44-3AE0-4D08-9282-37252FBEFB31borderbackground" cx="10%" cy="10%" r="100%" fx="10%" fy="10%"> 			<stop offset="0%" stop-color="#ffffff" stop-opacity="1" id="_27371D44-3AE0-4D08-9282-37252FBEFB31__27371D44-3AE0-4D08-9282-37252FBEFB31_19"/> 			<stop id="_27371D44-3AE0-4D08-9282-37252FBEFB31fill_border" offset="100%" stop-color="#000000" stop-opacity="1" stroke="#000000"/> 		</radialGradient> 	</defs> 	 	<rect id="_27371D44-3AE0-4D08-9282-37252FBEFB31text_frame" oryx:anchors="bottom top right left" x="1" y="1" width="94" height="79" rx="10" ry="10" stroke="none" stroke-width="0" fill="none"/> 	<rect id="_27371D44-3AE0-4D08-9282-37252FBEFB31bg_frame" oryx:resize="vertical horizontal" x="0" y="0" width="100" height="80" rx="10" ry="10" stroke="#000000" stroke-width="1" fill="url(#_27371D44-3AE0-4D08-9282-37252FBEFB31background) #ffffcc"/> 		<text font-size="12" id="_27371D44-3AE0-4D08-9282-37252FBEFB31text_name" x="50" y="40" oryx:align="middle center" oryx:fittoelem="text_frame" stroke="black" text-anchor="middle" stroke-width="0pt" letter-spacing="-0.01px" fill="#000000" transform="rotate(0 50 40)" visibility="inherit" oryx:fontSize="12"><tspan x="50" y="40" dy="5">Admisi?n</tspan></text>     <g id="_27371D44-3AE0-4D08-9282-37252FBEFB31manualTask" transform="scale(0.7,0.7) translate(8,8)" display="none">     	<path oryx:anchors="top left" id="_27371D44-3AE0-4D08-9282-37252FBEFB31frame" style="opacity:1;fill:none;fill-opacity:1;stroke-width:1" d="M0.5,3.751l4.083-3.25c0,0,11.166,0.083,12.083,0.083s-2.417,2.917-1.5,2.917     s11.667,0,12.584,0c1.166,1.708-0.168,3.167-0.834,3.667s0.875,1.917-1,4.417c-0.75,0.25,0.75,1.875-1.333,3.333     c-1.167,0.583,0.583,1.542-1.25,2.833c-1.167,0-20.833,0.083-20.833,0.083l-2-1.333V3.751z" stroke="#000000"/> 		<path id="_27371D44-3AE0-4D08-9282-37252FBEFB31frame2" oryx:anchors="top left" style="opacity:1;fill:none;stroke-width:2" d="M 13.5 7 L 27 7" stroke="#000000"/> 		<path id="_27371D44-3AE0-4D08-9282-37252FBEFB31frame3" oryx:anchors="top left" style="opacity:1;fill:none;stroke-width:2" d="M 13.5 11 L 26 11" stroke="#000000"/> 		<path id="_27371D44-3AE0-4D08-9282-37252FBEFB31frame4" oryx:anchors="top left" style="opacity:1;fill:none;stroke-width:1.5" d="M 14 14.5 L 25 14.5" stroke="#000000"/> 		<path id="_27371D44-3AE0-4D08-9282-37252FBEFB31frame5" oryx:anchors="top left" style="opacity:1;fill:none;stroke-width:1.5" d="M 8.2 3.1 L 15 3.1" stroke="#000000"/> 	</g> 	 	<g id="_27371D44-3AE0-4D08-9282-37252FBEFB31businessRuleTask" transform="scale(0.7,0.7) translate(8,8)" display="none"> 		<rect id="_27371D44-3AE0-4D08-9282-37252FBEFB31frame6" oryx:anchors="top left" x="0" y="0" width="22" height="4" style="opacity:1;fill:#B3B1B3;fill-opacity:1;" stroke="#000000"/> 		<rect id="_27371D44-3AE0-4D08-9282-37252FBEFB31frame7" oryx:anchors="top left" x="0" y="4" style="opacity:1;fill:none;" width="22" height="12" stroke="#000000"/> 		<path id="_27371D44-3AE0-4D08-9282-37252FBEFB31frame8" oryx:anchors="top left" style="opacity:1;fill:none;" d="M 0 10 L 22 10" stroke="#000000"/> 		<path id="_27371D44-3AE0-4D08-9282-37252FBEFB31frame9" oryx:anchors="top left" style="opacity:1; fill:none;" d="M 7 4 L 7 16" stroke="#000000"/> 	</g> 	 	<g id="_27371D44-3AE0-4D08-9282-37252FBEFB31scriptTask" transform="scale(0.7,0.7) translate(8,8)" display="none"> 		<path oryx:anchors="top left" id="_27371D44-3AE0-4D08-9282-37252FBEFB31frame10" style="opacity:1;fill:none;" stroke="#000000" d="M6.402,0.5h14.5c0,0-5.833,2.833-5.833,5.583s4.417,6,4.417,9.167    s-4.167,5.083-4.167,5.083H0.235c0,0,5-2.667,5-5s-4.583-6.75-4.583-9.25S6.402,0.5,6.402,0.5z"/> 		<path oryx:anchors="top left" id="_27371D44-3AE0-4D08-9282-37252FBEFB31frame11" style="opacity:1;fill:none;stroke-width:1.5" d="M 3.5 4.5 L 13.5 4.5" stroke="#000000"/> 		<path oryx:anchors="top left" id="_27371D44-3AE0-4D08-9282-37252FBEFB31frame12" style="opacity:1;fill:none;stroke-width:1.5" d="M 3.8 8.5 L 13.8 8.5" stroke="#000000"/> 		<path oryx:anchors="top left" id="_27371D44-3AE0-4D08-9282-37252FBEFB31frame13" style="opacity:1;fill:none;stroke-width:1.5" d="M 6.3 12.5 L 16.3 12.5" stroke="#000000"/> 		<path oryx:anchors="top left" id="_27371D44-3AE0-4D08-9282-37252FBEFB31frame14" style="opacity:1;fill:none;stroke-width:1.5" d="M 6.5 16.5 L 16.5 16.5" stroke="#000000"/> 	</g> 	 	<g id="_27371D44-3AE0-4D08-9282-37252FBEFB31userTask" transform="scale(0.7,0.7) translate(8,8)" display="inherit"> 		<path id="_27371D44-3AE0-4D08-9282-37252FBEFB31frame15" oryx:anchors="top left" style="opacity:1;fill:#F4F6F7" stroke="#000000" d="M0.585,24.167h24.083v-7.833c0,0-2.333-3.917-7.083-5.167h-9.25    c-4.417,1.333-7.833,5.75-7.833,5.75L0.585,24.167z"/> 		<path id="_27371D44-3AE0-4D08-9282-37252FBEFB31frame16" oryx:anchors="top left" style="opacity:1;fill:none" d="M 6 20 L 6 24" stroke="#000000"/> 		<path id="_27371D44-3AE0-4D08-9282-37252FBEFB31frame17" oryx:anchors="top left" style="opacity:1;fill:none" d="M 20 20 L 20 24" stroke="#000000"/> 		<circle id="_27371D44-3AE0-4D08-9282-37252FBEFB31frame18" oryx:anchors="top left" fill="black" cx="13.002" cy="5.916" r="5.417" stroke="#000000"/> 		<path id="_27371D44-3AE0-4D08-9282-37252FBEFB31frame19" oryx:anchors="top left" style="opacity:1;fill:#F0EFF0;" stroke="#000000" d="M8.043,7.083c0,0,2.814-2.426,5.376-1.807s4.624-0.693,4.624-0.693    c0.25,1.688,0.042,3.75-1.458,5.584c0,0,1.083,0.75,1.083,1.5s0.125,1.875-1,3s-5.5,1.25-6.75,0S8.668,12.834,8.668,12    s0.583-1.25,1.25-1.917C8.835,9.5,7.419,7.708,8.043,7.083z"/> 	</g> 	 	<g id="_27371D44-3AE0-4D08-9282-37252FBEFB31serviceTask" transform="scale(0.7,0.7) translate(8,8)" display="none"> 		<polygon oryx:anchors="top left" id="_27371D44-3AE0-4D08-9282-37252FBEFB31frame20" style="opacity:1;fill:#ffffff" stroke="#000000" points="15.392,5.064 17.954,2.502 20.347,4.895 17.786,7.455     18.729,9.732 22.353,9.732 22.353,13.115 18.731,13.115 17.788,15.392 20.351,17.955 17.958,20.347 15.397,17.786 13.12,18.729     13.12,22.353 9.737,22.353 9.737,18.731 7.46,17.788 4.897,20.35 2.506,17.958 5.066,15.397 4.124,13.12 0.5,13.12 0.5,9.737     4.121,9.737 5.065,7.461 2.503,4.898 4.895,2.506 7.455,5.066 9.732,4.125 9.732,0.5 13.116,0.5 13.116,4.121 "/> 		<circle oryx:anchors="top left" id="_27371D44-3AE0-4D08-9282-37252FBEFB31frame21" style="opacity:1;fill:none" stroke="#000000" cx="11.427" cy="11.426" r="3.714"/> 		<polygon oryx:anchors="top left" id="_27371D44-3AE0-4D08-9282-37252FBEFB31frame22" style="opacity:1;fill:#ffffff" stroke="#000000" points="21.392,11.064 23.954,8.502 26.347,10.895 23.786,13.455     24.729,15.732 28.353,15.732 28.353,19.115 24.731,19.115 23.788,21.392 26.351,23.955 23.958,26.347 21.397,23.786 19.12,24.729     19.12,28.353 15.737,28.353 15.737,24.731 13.46,23.788 10.897,26.35 8.506,23.958 11.066,21.397 10.124,19.12 6.5,19.12     6.5,15.737 10.121,15.737 11.065,13.461 8.503,10.898 10.895,8.506 13.455,11.066 15.732,10.125 15.732,6.5 19.116,6.5     19.116,10.121 "/> 		<circle oryx:anchors="top left" id="_27371D44-3AE0-4D08-9282-37252FBEFB31frame23" style="opacity:1;fill:none;" stroke="#000000" cx="17.427" cy="17.426" r="3.714"/> 	</g> 	 	<g id="_27371D44-3AE0-4D08-9282-37252FBEFB31sendTask" display="none"> 		<path id="_27371D44-3AE0-4D08-9282-37252FBEFB31stframe24" oryx:anchors="left top" stroke="#FFFFFF" fill="black" stroke-width="1" d="M8,11 L8,21 L24,21 L24,11 L16,17z"/> 		<path id="_27371D44-3AE0-4D08-9282-37252FBEFB31stframe25" oryx:anchors="left top" stroke="#FFFFFF" fill="black" stroke-width="1" d="M7,10 L16,17 L25 10z"/> 	</g> 	 	<g id="_27371D44-3AE0-4D08-9282-37252FBEFB31receiveTask" display="none"> 		<path id="_27371D44-3AE0-4D08-9282-37252FBEFB31frame26" oryx:anchors="left top" stroke="#000000" fill="none" stroke-width="1" d="M8,11 L8,21 L24,21 L24,11z M8,11 L16,17 L24,11"/> 	</g> 	 	<g id="_27371D44-3AE0-4D08-9282-37252FBEFB31none" display="inherit"/>  	<g id="_27371D44-3AE0-4D08-9282-37252FBEFB31sequential" display="none">         <path oryx:anchors="bottom" fill="none" stroke="#000000" stroke-width="2" d="M46,76h10M46,72h10 M46,68h10" id="_27371D44-3AE0-4D08-9282-37252FBEFB31__27371D44-3AE0-4D08-9282-37252FBEFB31_20"/>     </g>   </g></g><g class="children" style="overflow:hidden"/><g class="edge"/></g><g class="controls"><g class="dockers"/><g class="magnets" transform="translate(555, 404)"><g pointer-events="all" display="none" transform="translate(-7, 12)"><circle cx="8" cy="8" r="4" stroke="none" fill="red" fill-opacity="0.3"/></g><g pointer-events="all" display="none" transform="translate(-7, 32)"><circle cx="8" cy="8" r="4" stroke="none" fill="red" fill-opacity="0.3"/></g><g pointer-events="all" display="none" transform="translate(-7, 52)"><circle cx="8" cy="8" r="4" stroke="none" fill="red" fill-opacity="0.3"/></g><g pointer-events="all" display="none" transform="translate(17, 71)"><circle cx="8" cy="8" r="4" stroke="none" fill="red" fill-opacity="0.3"/></g><g pointer-events="all" display="none" transform="translate(42, 71)"><circle cx="8" cy="8" r="4" stroke="none" fill="red" fill-opacity="0.3"/></g><g pointer-events="all" display="none" transform="translate(67, 71)"><circle cx="8" cy="8" r="4" stroke="none" fill="red" fill-opacity="0.3"/></g><g pointer-events="all" display="none" transform="translate(91, 12)"><circle cx="8" cy="8" r="4" stroke="none" fill="red" fill-opacity="0.3"/></g><g pointer-events="all" display="none" transform="translate(91, 32)"><circle cx="8" cy="8" r="4" stroke="none" fill="red" fill-opacity="0.3"/></g><g pointer-events="all" display="none" transform="translate(91, 52)"><circle cx="8" cy="8" r="4" stroke="none" fill="red" fill-opacity="0.3"/></g><g pointer-events="all" display="none" transform="translate(17, -7)"><circle cx="8" cy="8" r="4" stroke="none" fill="red" fill-opacity="0.3"/></g><g pointer-events="all" display="none" transform="translate(42, -7)"><circle cx="8" cy="8" r="4" stroke="none" fill="red" fill-opacity="0.3"/></g><g pointer-events="all" display="none" transform="translate(67, -7)"><circle cx="8" cy="8" r="4" stroke="none" fill="red" fill-opacity="0.3"/></g><g pointer-events="all" display="none" transform="translate(42, 32)"><circle cx="8" cy="8" r="4" stroke="none" fill="red" fill-opacity="0.3"/></g></g></g></g><g id="_E25DC8FE-4DBB-4B13-A122-6E601AAD0C1F" bpmn2nodeid="_6609AA7D-F295-4C10-B6AB-90116B2B9A49"><g class="stencils" transform="translate(137, 424)"><g class="me"><g id="_E25DC8FE-4DBB-4B13-A122-6E601AAD0C1F">        <defs id="_E25DC8FE-4DBB-4B13-A122-6E601AAD0C1F__E25DC8FE-4DBB-4B13-A122-6E601AAD0C1F_4"> 		<radialGradient id="_E25DC8FE-4DBB-4B13-A122-6E601AAD0C1Fbackground" cx="10%" cy="10%" r="100%" fx="10%" fy="10%"> 			<stop offset="0%" stop-color="#ffffff" stop-opacity="1" id="_E25DC8FE-4DBB-4B13-A122-6E601AAD0C1F__E25DC8FE-4DBB-4B13-A122-6E601AAD0C1F_5"/> 			<stop id="_E25DC8FE-4DBB-4B13-A122-6E601AAD0C1Ffill_el" offset="100%" stop-color="#f0e68c" stop-opacity="1"/> 		</radialGradient> 		<radialGradient id="_E25DC8FE-4DBB-4B13-A122-6E601AAD0C1Fborderbackground" cx="10%" cy="10%" r="100%" fx="10%" fy="10%"> 			<stop offset="0%" stop-color="#ffffff" stop-opacity="1" id="_E25DC8FE-4DBB-4B13-A122-6E601AAD0C1F__E25DC8FE-4DBB-4B13-A122-6E601AAD0C1F_6"/> 			<stop id="_E25DC8FE-4DBB-4B13-A122-6E601AAD0C1Ffill_border" offset="100%" stop-color="#a67f00" stop-opacity="1" stroke="#a67f00"/> 		</radialGradient> 	</defs> 	     <path d=" M0 20.5  L20.5 0  L40 20.5  L20.5 40  z" id="_E25DC8FE-4DBB-4B13-A122-6E601AAD0C1Fbg_frame" fill="url(#_E25DC8FE-4DBB-4B13-A122-6E601AAD0C1Fbackground) white" style="stroke-width:1" stroke="#a67f00"/>     <g id="_E25DC8FE-4DBB-4B13-A122-6E601AAD0C1Fframe" stroke="#a67f00">       <path id="_E25DC8FE-4DBB-4B13-A122-6E601AAD0C1Fframe2" d=" M13.25 12.05  L17.25 12.05  L27.65 28.95  L23.75 28.95  z" style="stroke-width:1" stroke="#a67f00" fill="url(#_E25DC8FE-4DBB-4B13-A122-6E601AAD0C1Fborderbackground)"/>       <path id="_E25DC8FE-4DBB-4B13-A122-6E601AAD0C1Fframe3" d=" M13.25 28.95  L23.75 12.05  L27.65 12.05  L17.25 28.95  z" style="stroke-width:1" stroke="#a67f00" fill="url(#_E25DC8FE-4DBB-4B13-A122-6E601AAD0C1Fborderbackground)"/>     </g> 	 	<text id="_E25DC8FE-4DBB-4B13-A122-6E601AAD0C1Ftext_name" x="30.5" y="30.5" oryx:align="left top" stroke-width="0pt" letter-spacing="-0.01px" fill="#000000" text-anchor="start" transform="rotate(0 30.5 30.5)" visibility="inherit" oryx:fontSize="12"/> 	   </g></g><g class="children" style="overflow:hidden"/><g class="edge"/></g><g class="controls"><g class="dockers"/><g class="magnets" transform="translate(137, 424)"><g pointer-events="all" display="none" transform="translate(12.5, 12.5)"><circle cx="8" cy="8" r="4" stroke="none" fill="red" fill-opacity="0.3"/></g></g></g></g><g id="_1E695580-ECD3-4A2B-9588-F47BE2E6B631" bpmn2nodeid="_C19B1C3D-9B1E-4E39-BE9B-77B4355A7490"><g class="stencils" transform="translate(255, 404)"><g class="me"><g pointer-events="fill" oryx:minimumSize="50 40" id="_1E695580-ECD3-4A2B-9588-F47BE2E6B631">   	<defs id="_1E695580-ECD3-4A2B-9588-F47BE2E6B631__1E695580-ECD3-4A2B-9588-F47BE2E6B631_17"> 		<radialGradient id="_1E695580-ECD3-4A2B-9588-F47BE2E6B631background" cx="10%" cy="10%" r="100%" fx="10%" fy="10%"> 			<stop offset="0%" stop-color="#ffffff" stop-opacity="1" id="_1E695580-ECD3-4A2B-9588-F47BE2E6B631__1E695580-ECD3-4A2B-9588-F47BE2E6B631_18"/> 			<stop id="_1E695580-ECD3-4A2B-9588-F47BE2E6B631fill_el" offset="100%" stop-color="#fafad2" stop-opacity="1"/> 		</radialGradient> 		<radialGradient id="_1E695580-ECD3-4A2B-9588-F47BE2E6B631borderbackground" cx="10%" cy="10%" r="100%" fx="10%" fy="10%"> 			<stop offset="0%" stop-color="#ffffff" stop-opacity="1" id="_1E695580-ECD3-4A2B-9588-F47BE2E6B631__1E695580-ECD3-4A2B-9588-F47BE2E6B631_19"/> 			<stop id="_1E695580-ECD3-4A2B-9588-F47BE2E6B631fill_border" offset="100%" stop-color="#000000" stop-opacity="1" stroke="#000000"/> 		</radialGradient> 	</defs> 	 	<rect id="_1E695580-ECD3-4A2B-9588-F47BE2E6B631text_frame" oryx:anchors="bottom top right left" x="1" y="1" width="94" height="79" rx="10" ry="10" stroke="none" stroke-width="0" fill="none"/> 	<rect id="_1E695580-ECD3-4A2B-9588-F47BE2E6B631bg_frame" oryx:resize="vertical horizontal" x="0" y="0" width="100" height="80" rx="10" ry="10" stroke="#000000" stroke-width="1" fill="url(#_1E695580-ECD3-4A2B-9588-F47BE2E6B631background) #ffffcc"/> 		<text font-size="12" id="_1E695580-ECD3-4A2B-9588-F47BE2E6B631text_name" x="50" y="40" oryx:align="middle center" oryx:fittoelem="text_frame" stroke="black" text-anchor="middle" stroke-width="0pt" letter-spacing="-0.01px" fill="#000000" transform="rotate(0 50 40)" visibility="inherit" oryx:fontSize="12"><tspan x="50" y="40" dy="-1" id="ext-gen605">Servicio </tspan><tspan x="50" y="40" dy="11">Anotaci?n</tspan></text>     <g id="_1E695580-ECD3-4A2B-9588-F47BE2E6B631manualTask" transform="scale(0.7,0.7) translate(8,8)" display="none">     	<path oryx:anchors="top left" id="_1E695580-ECD3-4A2B-9588-F47BE2E6B631frame" style="opacity:1;fill:none;fill-opacity:1;stroke-width:1" d="M0.5,3.751l4.083-3.25c0,0,11.166,0.083,12.083,0.083s-2.417,2.917-1.5,2.917     s11.667,0,12.584,0c1.166,1.708-0.168,3.167-0.834,3.667s0.875,1.917-1,4.417c-0.75,0.25,0.75,1.875-1.333,3.333     c-1.167,0.583,0.583,1.542-1.25,2.833c-1.167,0-20.833,0.083-20.833,0.083l-2-1.333V3.751z" stroke="#000000"/> 		<path id="_1E695580-ECD3-4A2B-9588-F47BE2E6B631frame2" oryx:anchors="top left" style="opacity:1;fill:none;stroke-width:2" d="M 13.5 7 L 27 7" stroke="#000000"/> 		<path id="_1E695580-ECD3-4A2B-9588-F47BE2E6B631frame3" oryx:anchors="top left" style="opacity:1;fill:none;stroke-width:2" d="M 13.5 11 L 26 11" stroke="#000000"/> 		<path id="_1E695580-ECD3-4A2B-9588-F47BE2E6B631frame4" oryx:anchors="top left" style="opacity:1;fill:none;stroke-width:1.5" d="M 14 14.5 L 25 14.5" stroke="#000000"/> 		<path id="_1E695580-ECD3-4A2B-9588-F47BE2E6B631frame5" oryx:anchors="top left" style="opacity:1;fill:none;stroke-width:1.5" d="M 8.2 3.1 L 15 3.1" stroke="#000000"/> 	</g> 	 	<g id="_1E695580-ECD3-4A2B-9588-F47BE2E6B631businessRuleTask" transform="scale(0.7,0.7) translate(8,8)" display="none"> 		<rect id="_1E695580-ECD3-4A2B-9588-F47BE2E6B631frame6" oryx:anchors="top left" x="0" y="0" width="22" height="4" style="opacity:1;fill:#B3B1B3;fill-opacity:1;" stroke="#000000"/> 		<rect id="_1E695580-ECD3-4A2B-9588-F47BE2E6B631frame7" oryx:anchors="top left" x="0" y="4" style="opacity:1;fill:none;" width="22" height="12" stroke="#000000"/> 		<path id="_1E695580-ECD3-4A2B-9588-F47BE2E6B631frame8" oryx:anchors="top left" style="opacity:1;fill:none;" d="M 0 10 L 22 10" stroke="#000000"/> 		<path id="_1E695580-ECD3-4A2B-9588-F47BE2E6B631frame9" oryx:anchors="top left" style="opacity:1; fill:none;" d="M 7 4 L 7 16" stroke="#000000"/> 	</g> 	 	<g id="_1E695580-ECD3-4A2B-9588-F47BE2E6B631scriptTask" transform="scale(0.7,0.7) translate(8,8)" display="inherit"> 		<path oryx:anchors="top left" id="_1E695580-ECD3-4A2B-9588-F47BE2E6B631frame10" style="opacity:1;fill:none;" stroke="#000000" d="M6.402,0.5h14.5c0,0-5.833,2.833-5.833,5.583s4.417,6,4.417,9.167    s-4.167,5.083-4.167,5.083H0.235c0,0,5-2.667,5-5s-4.583-6.75-4.583-9.25S6.402,0.5,6.402,0.5z"/> 		<path oryx:anchors="top left" id="_1E695580-ECD3-4A2B-9588-F47BE2E6B631frame11" style="opacity:1;fill:none;stroke-width:1.5" d="M 3.5 4.5 L 13.5 4.5" stroke="#000000"/> 		<path oryx:anchors="top left" id="_1E695580-ECD3-4A2B-9588-F47BE2E6B631frame12" style="opacity:1;fill:none;stroke-width:1.5" d="M 3.8 8.5 L 13.8 8.5" stroke="#000000"/> 		<path oryx:anchors="top left" id="_1E695580-ECD3-4A2B-9588-F47BE2E6B631frame13" style="opacity:1;fill:none;stroke-width:1.5" d="M 6.3 12.5 L 16.3 12.5" stroke="#000000"/> 		<path oryx:anchors="top left" id="_1E695580-ECD3-4A2B-9588-F47BE2E6B631frame14" style="opacity:1;fill:none;stroke-width:1.5" d="M 6.5 16.5 L 16.5 16.5" stroke="#000000"/> 	</g> 	 	<g id="_1E695580-ECD3-4A2B-9588-F47BE2E6B631userTask" transform="scale(0.7,0.7) translate(8,8)" display="none"> 		<path id="_1E695580-ECD3-4A2B-9588-F47BE2E6B631frame15" oryx:anchors="top left" style="opacity:1;fill:#F4F6F7" stroke="#000000" d="M0.585,24.167h24.083v-7.833c0,0-2.333-3.917-7.083-5.167h-9.25    c-4.417,1.333-7.833,5.75-7.833,5.75L0.585,24.167z"/> 		<path id="_1E695580-ECD3-4A2B-9588-F47BE2E6B631frame16" oryx:anchors="top left" style="opacity:1;fill:none" d="M 6 20 L 6 24" stroke="#000000"/> 		<path id="_1E695580-ECD3-4A2B-9588-F47BE2E6B631frame17" oryx:anchors="top left" style="opacity:1;fill:none" d="M 20 20 L 20 24" stroke="#000000"/> 		<circle id="_1E695580-ECD3-4A2B-9588-F47BE2E6B631frame18" oryx:anchors="top left" fill="black" cx="13.002" cy="5.916" r="5.417" stroke="#000000"/> 		<path id="_1E695580-ECD3-4A2B-9588-F47BE2E6B631frame19" oryx:anchors="top left" style="opacity:1;fill:#F0EFF0;" stroke="#000000" d="M8.043,7.083c0,0,2.814-2.426,5.376-1.807s4.624-0.693,4.624-0.693    c0.25,1.688,0.042,3.75-1.458,5.584c0,0,1.083,0.75,1.083,1.5s0.125,1.875-1,3s-5.5,1.25-6.75,0S8.668,12.834,8.668,12    s0.583-1.25,1.25-1.917C8.835,9.5,7.419,7.708,8.043,7.083z"/> 	</g> 	 	<g id="_1E695580-ECD3-4A2B-9588-F47BE2E6B631serviceTask" transform="scale(0.7,0.7) translate(8,8)" display="none"> 		<polygon oryx:anchors="top left" id="_1E695580-ECD3-4A2B-9588-F47BE2E6B631frame20" style="opacity:1;fill:#ffffff" stroke="#000000" points="15.392,5.064 17.954,2.502 20.347,4.895 17.786,7.455     18.729,9.732 22.353,9.732 22.353,13.115 18.731,13.115 17.788,15.392 20.351,17.955 17.958,20.347 15.397,17.786 13.12,18.729     13.12,22.353 9.737,22.353 9.737,18.731 7.46,17.788 4.897,20.35 2.506,17.958 5.066,15.397 4.124,13.12 0.5,13.12 0.5,9.737     4.121,9.737 5.065,7.461 2.503,4.898 4.895,2.506 7.455,5.066 9.732,4.125 9.732,0.5 13.116,0.5 13.116,4.121 "/> 		<circle oryx:anchors="top left" id="_1E695580-ECD3-4A2B-9588-F47BE2E6B631frame21" style="opacity:1;fill:none" stroke="#000000" cx="11.427" cy="11.426" r="3.714"/> 		<polygon oryx:anchors="top left" id="_1E695580-ECD3-4A2B-9588-F47BE2E6B631frame22" style="opacity:1;fill:#ffffff" stroke="#000000" points="21.392,11.064 23.954,8.502 26.347,10.895 23.786,13.455     24.729,15.732 28.353,15.732 28.353,19.115 24.731,19.115 23.788,21.392 26.351,23.955 23.958,26.347 21.397,23.786 19.12,24.729     19.12,28.353 15.737,28.353 15.737,24.731 13.46,23.788 10.897,26.35 8.506,23.958 11.066,21.397 10.124,19.12 6.5,19.12     6.5,15.737 10.121,15.737 11.065,13.461 8.503,10.898 10.895,8.506 13.455,11.066 15.732,10.125 15.732,6.5 19.116,6.5     19.116,10.121 "/> 		<circle oryx:anchors="top left" id="_1E695580-ECD3-4A2B-9588-F47BE2E6B631frame23" style="opacity:1;fill:none;" stroke="#000000" cx="17.427" cy="17.426" r="3.714"/> 	</g> 	 	<g id="_1E695580-ECD3-4A2B-9588-F47BE2E6B631sendTask" display="none"> 		<path id="_1E695580-ECD3-4A2B-9588-F47BE2E6B631stframe24" oryx:anchors="left top" stroke="#FFFFFF" fill="black" stroke-width="1" d="M8,11 L8,21 L24,21 L24,11 L16,17z"/> 		<path id="_1E695580-ECD3-4A2B-9588-F47BE2E6B631stframe25" oryx:anchors="left top" stroke="#FFFFFF" fill="black" stroke-width="1" d="M7,10 L16,17 L25 10z"/> 	</g> 	 	<g id="_1E695580-ECD3-4A2B-9588-F47BE2E6B631receiveTask" display="none"> 		<path id="_1E695580-ECD3-4A2B-9588-F47BE2E6B631frame26" oryx:anchors="left top" stroke="#000000" fill="none" stroke-width="1" d="M8,11 L8,21 L24,21 L24,11z M8,11 L16,17 L24,11"/> 	</g> 	 	<g id="_1E695580-ECD3-4A2B-9588-F47BE2E6B631none" display="inherit"/>  	<g id="_1E695580-ECD3-4A2B-9588-F47BE2E6B631sequential" display="none">         <path oryx:anchors="bottom" fill="none" stroke="#000000" stroke-width="2" d="M46,76h10M46,72h10 M46,68h10" id="_1E695580-ECD3-4A2B-9588-F47BE2E6B631__1E695580-ECD3-4A2B-9588-F47BE2E6B631_20"/>     </g>   </g></g><g class="children" style="overflow:hidden"/><g class="edge"/></g><g class="controls"><g class="dockers"/><g class="magnets" transform="translate(255, 404)"><g pointer-events="all" display="none" transform="translate(-7, 12)"><circle cx="8" cy="8" r="4" stroke="none" fill="red" fill-opacity="0.3"/></g><g pointer-events="all" display="none" transform="translate(-7, 32)"><circle cx="8" cy="8" r="4" stroke="none" fill="red" fill-opacity="0.3"/></g><g pointer-events="all" display="none" transform="translate(-7, 52)"><circle cx="8" cy="8" r="4" stroke="none" fill="red" fill-opacity="0.3"/></g><g pointer-events="all" display="none" transform="translate(17, 71)"><circle cx="8" cy="8" r="4" stroke="none" fill="red" fill-opacity="0.3"/></g><g pointer-events="all" display="none" transform="translate(42, 71)"><circle cx="8" cy="8" r="4" stroke="none" fill="red" fill-opacity="0.3"/></g><g pointer-events="all" display="none" transform="translate(67, 71)"><circle cx="8" cy="8" r="4" stroke="none" fill="red" fill-opacity="0.3"/></g><g pointer-events="all" display="none" transform="translate(91, 12)"><circle cx="8" cy="8" r="4" stroke="none" fill="red" fill-opacity="0.3"/></g><g pointer-events="all" display="none" transform="translate(91, 32)"><circle cx="8" cy="8" r="4" stroke="none" fill="red" fill-opacity="0.3"/></g><g pointer-events="all" display="none" transform="translate(91, 52)"><circle cx="8" cy="8" r="4" stroke="none" fill="red" fill-opacity="0.3"/></g><g pointer-events="all" display="none" transform="translate(17, -7)"><circle cx="8" cy="8" r="4" stroke="none" fill="red" fill-opacity="0.3"/></g><g pointer-events="all" display="none" transform="translate(42, -7)"><circle cx="8" cy="8" r="4" stroke="none" fill="red" fill-opacity="0.3"/></g><g pointer-events="all" display="none" transform="translate(67, -7)"><circle cx="8" cy="8" r="4" stroke="none" fill="red" fill-opacity="0.3"/></g><g pointer-events="all" display="none" transform="translate(42, 32)"><circle cx="8" cy="8" r="4" stroke="none" fill="red" fill-opacity="0.3"/></g></g></g></g><g id="_BD4E4F42-A7FC-4ED0-9F74-A204E0652795" bpmn2nodeid="_93756A25-1A06-424D-9E88-51075A5BD9AB"><g class="stencils" transform="translate(30, 429)"><g class="me"><g pointer-events="fill" id="_BD4E4F42-A7FC-4ED0-9F74-A204E0652795">      <defs id="_BD4E4F42-A7FC-4ED0-9F74-A204E0652795__BD4E4F42-A7FC-4ED0-9F74-A204E0652795_5"> 		<radialGradient id="_BD4E4F42-A7FC-4ED0-9F74-A204E0652795background" cx="10%" cy="10%" r="100%" fx="10%" fy="10%"> 			<stop offset="0%" stop-color="#ffffff" stop-opacity="1" id="_BD4E4F42-A7FC-4ED0-9F74-A204E0652795__BD4E4F42-A7FC-4ED0-9F74-A204E0652795_6"/> 			<stop id="_BD4E4F42-A7FC-4ED0-9F74-A204E0652795fill_el" offset="100%" stop-color="#9acd32" stop-opacity="1"/> 		</radialGradient> 	</defs> 	     <circle id="_BD4E4F42-A7FC-4ED0-9F74-A204E0652795bg_frame" cx="15" cy="15" r="15" stroke="#000000" fill="url(#_BD4E4F42-A7FC-4ED0-9F74-A204E0652795background) white" stroke-width="1" style="stroke-dasharray: 5.5, 3"/>      <circle id="_BD4E4F42-A7FC-4ED0-9F74-A204E0652795frame" cx="15" cy="15" r="15" stroke="#000000" fill="none" stroke-width="1" display="inherit"/>      <path id="_BD4E4F42-A7FC-4ED0-9F74-A204E0652795body" d=" M7.7124971 20.247342  L22.333334 20.247342  L15.022915000000001 7.575951200000001  L7.7124971 20.247342  z" stroke="black" style="fill:none;stroke-width:1.4;stroke-miterlimit:4;stroke-dasharray:none"/> 	<text font-size="11" id="_BD4E4F42-A7FC-4ED0-9F74-A204E0652795text_name" x="15" y="32" oryx:align="top center" stroke="black" stroke-width="0pt" letter-spacing="-0.01px" fill="#000000" text-anchor="middle" transform="rotate(0 15 32)" visibility="inherit" oryx:fontSize="11"/>   </g></g><g class="children" style="overflow:hidden"/><g class="edge"/></g><g class="controls"><g class="dockers"/><g class="magnets" transform="translate(30, 429)"><g pointer-events="all" display="none" transform="translate(7, 7)"><circle cx="8" cy="8" r="4" stroke="none" fill="red" fill-opacity="0.3"/></g></g></g></g><g id="_B90B073F-8FA4-4921-A801-CB7EC31C2315" bpmn2nodeid="_B37AA522-3120-4232-AC91-3EF9A14E01D4"><g class="stencils" transform="translate(945, 404)"><g class="me"><g pointer-events="fill" oryx:minimumSize="80 60" id="_B90B073F-8FA4-4921-A801-CB7EC31C2315">   	<defs id="_B90B073F-8FA4-4921-A801-CB7EC31C2315__B90B073F-8FA4-4921-A801-CB7EC31C2315_17"> 		<radialGradient id="_B90B073F-8FA4-4921-A801-CB7EC31C2315background" cx="10%" cy="10%" r="100%" fx="10%" fy="10%"> 			<stop offset="0%" stop-color="#ffffff" stop-opacity="1" id="_B90B073F-8FA4-4921-A801-CB7EC31C2315__B90B073F-8FA4-4921-A801-CB7EC31C2315_18"/> 			<stop id="_B90B073F-8FA4-4921-A801-CB7EC31C2315fill_el" offset="100%" stop-color="#fafad2" stop-opacity="1"/> 		</radialGradient> 	</defs> 	<rect id="_B90B073F-8FA4-4921-A801-CB7EC31C2315text_frame" oryx:anchors="bottom top right left" x="1" y="1" width="94" height="79" rx="10" ry="10" stroke="none" stroke-width="0" fill="none"/> 	<rect id="_B90B073F-8FA4-4921-A801-CB7EC31C2315bg_frame" oryx:anchors="bottom top right left" x="0" y="0" width="100" height="80" rx="10" ry="10" stroke="#000000" stroke-width="1" fill="url(#_B90B073F-8FA4-4921-A801-CB7EC31C2315background) #ffffcc"/> 	<rect id="_B90B073F-8FA4-4921-A801-CB7EC31C2315frame" oryx:resize="vertical horizontal" oryx:anchors="bottom top right left" x="0" y="0" width="100" height="80" rx="10" ry="10" stroke="#000000" stroke-width="4" fill="none"/> 	<rect id="_B90B073F-8FA4-4921-A801-CB7EC31C2315frame2" oryx:anchors="top bottom left right" oryx:resize="vertical horizontal" x="2.5" y="2.5" width="95" height="75" rx="8" ry="8" stroke="#000000" stroke-width="1" fill="none"/>     	<text font-size="12" id="_B90B073F-8FA4-4921-A801-CB7EC31C2315text_name" x="50" y="40" oryx:align="middle center" oryx:fittoelem="text_frame" stroke="black" stroke-width="0pt" letter-spacing="-0.01px" fill="#000000" text-anchor="middle" transform="rotate(0 50 40)" visibility="inherit" oryx:fontSize="12"><tspan x="50" y="40" dy="-1" id="ext-gen881">Subproceso </tspan><tspan x="50" y="40" dy="11">Tarjetas</tspan></text>          <a id="_B90B073F-8FA4-4921-A801-CB7EC31C2315pimg" onclick="parent.designeropenintab(&quot;SubprocesoTarjeta.bpmn2&quot;,&quot;default://master@MySpace/Opplus/src/main/resources/es/dxd/opplus/tarjetas/SubprocesoTarjeta.bpmn2&quot;);" xlink:href="">	 	<g id="_B90B073F-8FA4-4921-A801-CB7EC31C2315b" oryx:anchors="bottom"> 		<rect id="_B90B073F-8FA4-4921-A801-CB7EC31C2315frame3" oryx:anchors="bottom" x="44" y="66" width="14" height="14" fill="none" stroke="#000000" stroke-width="1"/> 		<path id="_B90B073F-8FA4-4921-A801-CB7EC31C2315frame4" oryx:anchors="bottom" fill="none" stroke="#000000" d="M51 68 v10 M 46 73 h10" stroke-width="1"/> 	</g> 	</a> 	<g id="_B90B073F-8FA4-4921-A801-CB7EC31C2315none"/> 	undefined 	  	undefined 	undefined 	 	 	undefined 	undefined   </g></g><g class="children" style="overflow:hidden"/><g class="edge"/></g><g class="controls"><g class="dockers"/><g class="magnets" transform="translate(945, 404)"><g pointer-events="all" display="none" transform="translate(-7, 12)"><circle cx="8" cy="8" r="4" stroke="none" fill="red" fill-opacity="0.3"/></g><g pointer-events="all" display="none" transform="translate(-7, 32)"><circle cx="8" cy="8" r="4" stroke="none" fill="red" fill-opacity="0.3"/></g><g pointer-events="all" display="none" transform="translate(-7, 52)"><circle cx="8" cy="8" r="4" stroke="none" fill="red" fill-opacity="0.3"/></g><g pointer-events="all" display="none" transform="translate(17, 71)"><circle cx="8" cy="8" r="4" stroke="none" fill="red" fill-opacity="0.3"/></g><g pointer-events="all" display="none" transform="translate(42, 71)"><circle cx="8" cy="8" r="4" stroke="none" fill="red" fill-opacity="0.3"/></g><g pointer-events="all" display="none" transform="translate(67, 71)"><circle cx="8" cy="8" r="4" stroke="none" fill="red" fill-opacity="0.3"/></g><g pointer-events="all" display="none" transform="translate(91, 12)"><circle cx="8" cy="8" r="4" stroke="none" fill="red" fill-opacity="0.3"/></g><g pointer-events="all" display="none" transform="translate(91, 32)"><circle cx="8" cy="8" r="4" stroke="none" fill="red" fill-opacity="0.3"/></g><g pointer-events="all" display="none" transform="translate(91, 52)"><circle cx="8" cy="8" r="4" stroke="none" fill="red" fill-opacity="0.3"/></g><g pointer-events="all" display="none" transform="translate(17, -7)"><circle cx="8" cy="8" r="4" stroke="none" fill="red" fill-opacity="0.3"/></g><g pointer-events="all" display="none" transform="translate(42, -7)"><circle cx="8" cy="8" r="4" stroke="none" fill="red" fill-opacity="0.3"/></g><g pointer-events="all" display="none" transform="translate(67, -7)"><circle cx="8" cy="8" r="4" stroke="none" fill="red" fill-opacity="0.3"/></g><g pointer-events="all" display="none" transform="translate(42, 32)"><circle cx="8" cy="8" r="4" stroke="none" fill="red" fill-opacity="0.3"/></g></g></g></g><g id="_F2B3E529-3B20-490D-B820-39069B01E1DD" bpmn2nodeid="_59786CD1-9722-437B-96BE-2681094C1F7A"><g class="stencils" transform="translate(1095, 424)"><g class="me"><g id="_F2B3E529-3B20-490D-B820-39069B01E1DD">        <defs id="_F2B3E529-3B20-490D-B820-39069B01E1DD__F2B3E529-3B20-490D-B820-39069B01E1DD_4"> 		<radialGradient id="_F2B3E529-3B20-490D-B820-39069B01E1DDbackground" cx="10%" cy="10%" r="100%" fx="10%" fy="10%"> 			<stop offset="0%" stop-color="#ffffff" stop-opacity="1" id="_F2B3E529-3B20-490D-B820-39069B01E1DD__F2B3E529-3B20-490D-B820-39069B01E1DD_5"/> 			<stop id="_F2B3E529-3B20-490D-B820-39069B01E1DDfill_el" offset="100%" stop-color="#f0e68c" stop-opacity="1"/> 		</radialGradient> 		<radialGradient id="_F2B3E529-3B20-490D-B820-39069B01E1DDborderbackground" cx="10%" cy="10%" r="100%" fx="10%" fy="10%"> 			<stop offset="0%" stop-color="#ffffff" stop-opacity="1" id="_F2B3E529-3B20-490D-B820-39069B01E1DD__F2B3E529-3B20-490D-B820-39069B01E1DD_6"/> 			<stop id="_F2B3E529-3B20-490D-B820-39069B01E1DDfill_border" offset="100%" stop-color="#a67f00" stop-opacity="1" stroke="#a67f00"/> 		</radialGradient> 	</defs> 	     <path d=" M0 20.5  L20.5 0  L40 20.5  L20.5 40  z" id="_F2B3E529-3B20-490D-B820-39069B01E1DDbg_frame" fill="url(#_F2B3E529-3B20-490D-B820-39069B01E1DDbackground) white" style="stroke-width:1" stroke="#a67f00"/>     <g id="_F2B3E529-3B20-490D-B820-39069B01E1DDframe" stroke="#a67f00">       <path id="_F2B3E529-3B20-490D-B820-39069B01E1DDframe2" d=" M13.25 12.05  L17.25 12.05  L27.65 28.95  L23.75 28.95  z" style="stroke-width:1" stroke="#a67f00" fill="url(#_F2B3E529-3B20-490D-B820-39069B01E1DDborderbackground)"/>       <path id="_F2B3E529-3B20-490D-B820-39069B01E1DDframe3" d=" M13.25 28.95  L23.75 12.05  L27.65 12.05  L17.25 28.95  z" style="stroke-width:1" stroke="#a67f00" fill="url(#_F2B3E529-3B20-490D-B820-39069B01E1DDborderbackground)"/>     </g> 	 	<text id="_F2B3E529-3B20-490D-B820-39069B01E1DDtext_name" x="30.5" y="30.5" oryx:align="left top" stroke-width="0pt" letter-spacing="-0.01px" fill="#000000" text-anchor="start" transform="rotate(0 30.5 30.5)" visibility="inherit" oryx:fontSize="12"/> 	   </g></g><g class="children" style="overflow:hidden"/><g class="edge"/></g><g class="controls"><g class="dockers"/><g class="magnets" transform="translate(1095, 424)"><g pointer-events="all" display="none" transform="translate(12.5, 12.5)"><circle cx="8" cy="8" r="4" stroke="none" fill="red" fill-opacity="0.3"/></g></g></g></g><g id="_1150A647-6A39-475D-A238-FD439E84F112" bpmn2nodeid="_732CD082-EC09-42A3-9C92-75960C07BE76"><g class="stencils" transform="translate(1200, 430)"><g class="me"><g pointer-events="fill" id="_1150A647-6A39-475D-A238-FD439E84F112">      <defs id="_1150A647-6A39-475D-A238-FD439E84F112__1150A647-6A39-475D-A238-FD439E84F112_5"> 		<radialGradient id="_1150A647-6A39-475D-A238-FD439E84F112background" cx="10%" cy="10%" r="100%" fx="10%" fy="10%"> 			<stop offset="0%" stop-color="#ffffff" stop-opacity="1" id="_1150A647-6A39-475D-A238-FD439E84F112__1150A647-6A39-475D-A238-FD439E84F112_6"/> 			<stop id="_1150A647-6A39-475D-A238-FD439E84F112fill_el" offset="100%" stop-color="#ff6347" stop-opacity="1"/> 		</radialGradient> 	</defs> 	     <circle id="_1150A647-6A39-475D-A238-FD439E84F112bg_frame" cx="14" cy="14" r="14" stroke="#000000" fill="url(#_1150A647-6A39-475D-A238-FD439E84F112background) white" stroke-width="3"/> 	<text font-size="11" id="_1150A647-6A39-475D-A238-FD439E84F112text_name" x="14" y="30" oryx:align="top center" stroke="black" stroke-width="0pt" letter-spacing="-0.01px" fill="#000000" text-anchor="middle" transform="rotate(0 14 30)" visibility="inherit" oryx:fontSize="11"/>   </g></g><g class="children" style="overflow:hidden"/><g class="edge"/></g><g class="controls"><g class="dockers"/><g class="magnets" transform="translate(1200, 430)"><g pointer-events="all" display="none" transform="translate(6, 6)"><circle cx="8" cy="8" r="4" stroke="none" fill="red" fill-opacity="0.3"/></g></g></g></g></g><g class="edge"><g id="_9AAC7BE6-91AF-4119-8760-E6060FD876A9" bpmn2nodeid="_A7902D16-9CD1-4D1A-BCF6-BA3567450B94"><g class="stencils"><g class="me"><g pointer-events="painted" bpmn2nodeid="_8F2EFDB4-6A9C-4B3B-9B8A-EAD0EFE9D713"><path id="_9AAC7BE6-91AF-4119-8760-E6060FD876A9_1" d="M355.21875 444L554.78125 444 " stroke="#000000" fill="none" stroke-width="2" stroke-linecap="round" stroke-linejoin="round" marker-start="url(#_9AAC7BE6-91AF-4119-8760-E6060FD876A9start)" marker-end="url(#_9AAC7BE6-91AF-4119-8760-E6060FD876A9end)"/></g><text id="_9AAC7BE6-91AF-4119-8760-E6060FD876A9text_name" font-size="12" x="369.21875" y="430" oryx:edgePosition="startTop" stroke-width="0pt" letter-spacing="-0.01px" fill="#000000" text-anchor="start" transform="rotate(360 355.21875 444)" visibility="inherit" oryx:fontSize="12"/></g><g class="children" style="overflow:hidden"/><g class="edge"/></g><g class="controls"><g class="dockers"/><g class="magnets"/></g></g><g id="_A6D19CD9-504E-4363-B5BE-8D07A89B2F94" bpmn2nodeid="_8A5187E9-B0B8-456A-88B6-1B780E070D3F"><g class="stencils"><g class="me"><g pointer-events="painted" bpmn2nodeid="_0932D4C0-0D7C-48A6-BEFC-76F9527C70E2"><path id="_A6D19CD9-504E-4363-B5BE-8D07A89B2F94_1" d="M177.078125 444L254.28125 444 " stroke="#000000" fill="none" stroke-width="2" stroke-linecap="round" stroke-linejoin="round" marker-start="url(#_A6D19CD9-504E-4363-B5BE-8D07A89B2F94start)" marker-end="url(#_A6D19CD9-504E-4363-B5BE-8D07A89B2F94end)"/></g><text id="_A6D19CD9-504E-4363-B5BE-8D07A89B2F94text_name" font-size="12" x="191.078125" y="430" oryx:edgePosition="startTop" stroke-width="0pt" letter-spacing="-0.01px" fill="#000000" text-anchor="start" transform="rotate(360 177.078125 444)" visibility="inherit" oryx:fontSize="12"/></g><g class="children" style="overflow:hidden"/><g class="edge"/></g><g class="controls"><g class="dockers"/><g class="magnets"/></g></g><g id="_79F582D4-C55D-4CDB-A847-C8BD886A26A9" bpmn2nodeid="_7E9880C2-31AF-4AA9-BBE9-8F15AD79498D"><g class="stencils"><g class="me"><g pointer-events="painted" bpmn2nodeid="_B467FC78-E28D-4FAD-B3C2-034F31B9A9AA"><path id="_79F582D4-C55D-4CDB-A847-C8BD886A26A9_1" d="M60 444L136.75 444 " stroke="#000000" fill="none" stroke-width="2" stroke-linecap="round" stroke-linejoin="round" marker-start="url(#_79F582D4-C55D-4CDB-A847-C8BD886A26A9start)" marker-end="url(#_79F582D4-C55D-4CDB-A847-C8BD886A26A9end)"/></g><text id="_79F582D4-C55D-4CDB-A847-C8BD886A26A9text_name" font-size="12" x="74" y="430" oryx:edgePosition="startTop" stroke-width="0pt" letter-spacing="-0.01px" fill="#000000" text-anchor="start" transform="rotate(360 60 444)" visibility="inherit" oryx:fontSize="12"/></g><g class="children" style="overflow:hidden"/><g class="edge"/></g><g class="controls"><g class="dockers"/><g class="magnets"/></g></g><g id="_1E06A67F-CA12-43A1-95A4-5364310DD22A" bpmn2nodeid="_8D61B8C7-FDFD-4CFA-8008-7203C3ECE66A"><g class="stencils"><g class="me"><g pointer-events="painted" bpmn2nodeid="_249AB49F-DEB0-44DA-8F9F-59413A3456D2"><path id="_1E06A67F-CA12-43A1-95A4-5364310DD22A_1" d="M1045.6875 444L1095.25 444 " stroke="#000000" fill="none" stroke-width="2" stroke-linecap="round" stroke-linejoin="round" marker-start="url(#_1E06A67F-CA12-43A1-95A4-5364310DD22Astart)" marker-end="url(#_1E06A67F-CA12-43A1-95A4-5364310DD22Aend)"/></g><text id="_1E06A67F-CA12-43A1-95A4-5364310DD22Atext_name" font-size="12" x="1059.6875" y="430" oryx:edgePosition="startTop" stroke-width="0pt" letter-spacing="-0.01px" fill="#000000" text-anchor="start" transform="rotate(360 1045.6875 444)" visibility="inherit" oryx:fontSize="12"/></g><g class="children" style="overflow:hidden"/><g class="edge"/></g><g class="controls"><g class="dockers"/><g class="magnets"/></g></g><g id="_E4449104-4321-4602-9EF2-8BAE10AC9BFC" bpmn2nodeid="_39DB83AF-12B6-4062-8338-42927BBA975D"><g class="stencils"><g class="me"><g pointer-events="painted" bpmn2nodeid="_B374275B-926D-46D5-AA4C-3CF8662A6223"><path id="_E4449104-4321-4602-9EF2-8BAE10AC9BFC_1" d="M1134.5625 444L1199.078125 444 " stroke="#000000" fill="none" stroke-width="2" stroke-linecap="round" stroke-linejoin="round" marker-start="url(#_E4449104-4321-4602-9EF2-8BAE10AC9BFCstart)" marker-end="url(#_E4449104-4321-4602-9EF2-8BAE10AC9BFCend)"/></g><text id="_E4449104-4321-4602-9EF2-8BAE10AC9BFCtext_name" font-size="12" x="1148.5625" y="430" oryx:edgePosition="startTop" stroke-width="0pt" letter-spacing="-0.01px" fill="#000000" text-anchor="start" transform="rotate(360 1134.5625 444)" visibility="inherit" oryx:fontSize="12"/></g><g class="children" style="overflow:hidden"/><g class="edge"/></g><g class="controls"><g class="dockers"/><g class="magnets"/></g></g><g id="_E65047A0-D33D-4EB5-A19D-13510F783C4D" bpmn2nodeid="_7AF40A52-B95C-4EFE-A174-3A529100809C"><g class="stencils"><g class="me"><g pointer-events="painted" bpmn2nodeid="_69947928-8E8B-4D46-856B-F5518974D59F"><path id="_E65047A0-D33D-4EB5-A19D-13510F783C4D_1" d="M1115 424.484375L1115 286 L157 286 L157 424.484375 " stroke="#000000" fill="none" stroke-width="2" stroke-linecap="round" stroke-linejoin="round" marker-start="url(#_E65047A0-D33D-4EB5-A19D-13510F783C4Dstart)" marker-end="url(#_E65047A0-D33D-4EB5-A19D-13510F783C4Dend)"/></g><text id="_E65047A0-D33D-4EB5-A19D-13510F783C4Dtext_name" font-size="12" x="1129" y="410.484375" oryx:edgePosition="startTop" stroke-width="0pt" letter-spacing="-0.01px" fill="#000000" text-anchor="start" transform="rotate(270 1115 424.484375)" visibility="inherit" oryx:fontSize="12"/></g><g class="children" style="overflow:hidden"/><g class="edge"/></g><g class="controls"><g class="dockers"/><g class="magnets"/></g></g><g id="_B7E87591-75F3-4CF6-9756-5F1CC4D40921" bpmn2nodeid="_03A5FDF3-9E33-4A3D-85F3-E4167573E9E8"><g class="stencils"><g class="me"><g pointer-events="painted" bpmn2nodeid="_BE558297-DF9D-4DA0-9B82-B54CFD4FB92C"><path id="_B7E87591-75F3-4CF6-9756-5F1CC4D40921_1" d="M655.51171875 444L944.48828125 444 " stroke="#000000" fill="none" stroke-width="2" stroke-linecap="round" stroke-linejoin="round" marker-start="url(#_B7E87591-75F3-4CF6-9756-5F1CC4D40921start)" marker-end="url(#_B7E87591-75F3-4CF6-9756-5F1CC4D40921end)"/></g><text id="_B7E87591-75F3-4CF6-9756-5F1CC4D40921text_name" font-size="12" x="669.51171875" y="430" oryx:edgePosition="startTop" stroke-width="0pt" letter-spacing="-0.01px" fill="#000000" text-anchor="start" transform="rotate(360 655.51171875 444)" visibility="inherit" oryx:fontSize="12"/></g><g class="children" style="overflow:hidden"/><g class="edge"/></g><g class="controls"><g class="dockers"/><g class="magnets"/></g></g></g><text id="_3179D160-76D1-4E35-9D7D-735D368B6BC3" style="stroke-width:1;fill:rgb(177,194,214);font-family:arial;font-weight:bold" font-size="12" onclick="ORYX.Plugins.CanvasTitle.openTextualAnalysis()" onmouseover="ORYX.Plugins.CanvasTitle.addToolTip('_3179D160-76D1-4E35-9D7D-735D368B6BC3')" transform="translate(10, 20)">Tarjetas v.1.0 (Opplus.Tarjetas)</text></g></g></svg>