<svg xmlns="http://www.w3.org/2000/svg" xmlns:oryx="http://oryx-editor.org" id="_6A10AF8D-9286-4B8D-954F-393067704AB4" width="773" height="265" xmlns:xlink="http://www.w3.org/1999/xlink" xmlns:svg="http://www.w3.org/2000/svg"><defs><marker id="_AEC089E0-718C-4361-8E1B-4352752ABF36start" refX="1" refY="5" markerUnits="userSpaceOnUse" markerWidth="17" markerHeight="11" orient="auto" fill="#000000" stroke="#000000"> 	  		<path id="_AEC089E0-718C-4361-8E1B-4352752ABF36conditional" d="M 0 5 L 8 0 L 16 5 L 8 10 L 0 5" fill="white" stroke="#000000" stroke-width="1" display="none"/> 			<path id="_AEC089E0-718C-4361-8E1B-4352752ABF36default" d="M 5 0 L 11 10" fill="white" stroke="#000000" stroke-width="1" display="none"/> 	  	</marker><marker id="_AEC089E0-718C-4361-8E1B-4352752ABF36end" refX="15" refY="6" markerUnits="userSpaceOnUse" markerWidth="15" markerHeight="12" orient="auto" fill="#000000" stroke="#000000"> 	  		<path id="_AEC089E0-718C-4361-8E1B-4352752ABF36frame2" d="M 0 1 L 15 6 L 0 11z" fill="#000000" stroke="#000000" stroke-linejoin="round" stroke-width="2"/> 	  	</marker><marker id="_154E753A-5712-4F84-B61B-221F139BB7D9start" refX="1" refY="5" markerUnits="userSpaceOnUse" markerWidth="17" markerHeight="11" orient="auto" fill="#000000" stroke="#000000"> 	  		<path id="_154E753A-5712-4F84-B61B-221F139BB7D9conditional" d="M 0 5 L 8 0 L 16 5 L 8 10 L 0 5" fill="white" stroke="#000000" stroke-width="1" display="none"/> 			<path id="_154E753A-5712-4F84-B61B-221F139BB7D9default" d="M 5 0 L 11 10" fill="white" stroke="#000000" stroke-width="1" display="none"/> 	  	</marker><marker id="_154E753A-5712-4F84-B61B-221F139BB7D9end" refX="15" refY="6" markerUnits="userSpaceOnUse" markerWidth="15" markerHeight="12" orient="auto" fill="#000000" stroke="#000000"> 	  		<path id="_154E753A-5712-4F84-B61B-221F139BB7D9frame2" d="M 0 1 L 15 6 L 0 11z" fill="#000000" stroke="#000000" stroke-linejoin="round" stroke-width="2"/> 	  	</marker><marker id="_782DAC26-E532-4154-B928-FD5FD6CECBCDstart" refX="1" refY="5" markerUnits="userSpaceOnUse" markerWidth="17" markerHeight="11" orient="auto" fill="#000000" stroke="#000000"> 	  		<path id="_782DAC26-E532-4154-B928-FD5FD6CECBCDconditional" d="M 0 5 L 8 0 L 16 5 L 8 10 L 0 5" fill="white" stroke="#000000" stroke-width="1" display="none"/> 			<path id="_782DAC26-E532-4154-B928-FD5FD6CECBCDdefault" d="M 5 0 L 11 10" fill="white" stroke="#000000" stroke-width="1" display="none"/> 	  	</marker><marker id="_782DAC26-E532-4154-B928-FD5FD6CECBCDend" refX="15" refY="6" markerUnits="userSpaceOnUse" markerWidth="15" markerHeight="12" orient="auto" fill="#000000" stroke="#000000"> 	  		<path id="_782DAC26-E532-4154-B928-FD5FD6CECBCDframe2" d="M 0 1 L 15 6 L 0 11z" fill="#000000" stroke="#000000" stroke-linejoin="round" stroke-width="2"/> 	  	</marker></defs><g stroke="none" font-family="Verdana, sans-serif" font-size-adjust="none" font-style="normal" font-variant="normal" font-weight="normal" line-heigth="normal" font-size="12"><g class="stencils" transform="translate(15, 16)"><g class="me"/><g class="children"><g id="_C29E8782-17DE-4095-B81F-31E650086696" bpmn2nodeid="processStartEvent"><g class="stencils" transform="translate(120, 165)"><g class="me"><g pointer-events="fill" id="_C29E8782-17DE-4095-B81F-31E650086696">        <defs id="_C29E8782-17DE-4095-B81F-31E650086696__C29E8782-17DE-4095-B81F-31E650086696_5"> 		<radialGradient id="_C29E8782-17DE-4095-B81F-31E650086696background" cx="10%" cy="10%" r="100%" fx="10%" fy="10%"> 			<stop offset="0%" stop-color="#ffffff" stop-opacity="1" id="_C29E8782-17DE-4095-B81F-31E650086696__C29E8782-17DE-4095-B81F-31E650086696_6"/> 			<stop id="_C29E8782-17DE-4095-B81F-31E650086696fill_el" offset="100%" stop-color="#9acd32" stop-opacity="1"/> 		</radialGradient> 	</defs> 	     <circle id="_C29E8782-17DE-4095-B81F-31E650086696bg_frame" cx="15" cy="15" r="15" stroke="#000000" fill="url(#_C29E8782-17DE-4095-B81F-31E650086696background) white" stroke-width="1" style="stroke-dasharray: 5.5, 3"/>      <circle id="_C29E8782-17DE-4095-B81F-31E650086696frame" cx="15" cy="15" r="15" stroke="#000000" fill="none" stroke-width="1" display="inherit"/>  	<text font-size="11" id="_C29E8782-17DE-4095-B81F-31E650086696text_name" x="15" y="32" oryx:align="top center" stroke="black" stroke-width="0pt" letter-spacing="-0.01px" fill="#000000" text-anchor="middle" transform="rotate(0 15 32)" visibility="inherit" oryx:fontSize="11"/>   </g></g><g class="children" style="overflow:hidden"/><g class="edge"/></g><g class="controls"><g class="dockers"/><g class="magnets" transform="translate(120, 165)"><g pointer-events="all" display="none" transform="translate(7, 7)"><circle cx="8" cy="8" r="4" stroke="none" fill="red" fill-opacity="0.3"/></g></g></g></g><g id="_35680515-4263-45D6-A06D-D97AE39F66C6" bpmn2nodeid="_B565BC1B-EAFB-472F-9C6D-D84EFF48529C"><g class="stencils" transform="translate(240, 140)"><g class="me"><g pointer-events="fill" oryx:minimumSize="50 40" id="_35680515-4263-45D6-A06D-D97AE39F66C6">   	<defs id="_35680515-4263-45D6-A06D-D97AE39F66C6__35680515-4263-45D6-A06D-D97AE39F66C6_17"> 		<radialGradient id="_35680515-4263-45D6-A06D-D97AE39F66C6background" cx="10%" cy="10%" r="100%" fx="10%" fy="10%"> 			<stop offset="0%" stop-color="#ffffff" stop-opacity="1" id="_35680515-4263-45D6-A06D-D97AE39F66C6__35680515-4263-45D6-A06D-D97AE39F66C6_18"/> 			<stop id="_35680515-4263-45D6-A06D-D97AE39F66C6fill_el" offset="100%" stop-color="#fafad2" stop-opacity="1"/> 		</radialGradient> 		<radialGradient id="_35680515-4263-45D6-A06D-D97AE39F66C6borderbackground" cx="10%" cy="10%" r="100%" fx="10%" fy="10%"> 			<stop offset="0%" stop-color="#ffffff" stop-opacity="1" id="_35680515-4263-45D6-A06D-D97AE39F66C6__35680515-4263-45D6-A06D-D97AE39F66C6_19"/> 			<stop id="_35680515-4263-45D6-A06D-D97AE39F66C6fill_border" offset="100%" stop-color="#000000" stop-opacity="1" stroke="#000000"/> 		</radialGradient> 	</defs> 	 	<rect id="_35680515-4263-45D6-A06D-D97AE39F66C6text_frame" oryx:anchors="bottom top right left" x="1" y="1" width="94" height="79" rx="10" ry="10" stroke="none" stroke-width="0" fill="none"/> 	<rect id="_35680515-4263-45D6-A06D-D97AE39F66C6bg_frame" oryx:resize="vertical horizontal" x="0" y="0" width="100" height="80" rx="10" ry="10" stroke="#000000" stroke-width="1" fill="url(#_35680515-4263-45D6-A06D-D97AE39F66C6background) #ffffcc"/> 		<text font-size="12" id="_35680515-4263-45D6-A06D-D97AE39F66C6text_name" x="50" y="40" oryx:align="middle center" oryx:fittoelem="text_frame" stroke="black" text-anchor="middle" stroke-width="0pt" letter-spacing="-0.01px" fill="#000000" transform="rotate(0 50 40)" visibility="inherit" oryx:fontSize="12"><tspan x="50" y="40" dy="5" id="ext-gen603">Calculo ANS</tspan></text>     <g id="_35680515-4263-45D6-A06D-D97AE39F66C6manualTask" transform="scale(0.7,0.7) translate(8,8)" display="none">     	<path oryx:anchors="top left" id="_35680515-4263-45D6-A06D-D97AE39F66C6frame" style="opacity:1;fill:none;fill-opacity:1;stroke-width:1" d="M0.5,3.751l4.083-3.25c0,0,11.166,0.083,12.083,0.083s-2.417,2.917-1.5,2.917     s11.667,0,12.584,0c1.166,1.708-0.168,3.167-0.834,3.667s0.875,1.917-1,4.417c-0.75,0.25,0.75,1.875-1.333,3.333     c-1.167,0.583,0.583,1.542-1.25,2.833c-1.167,0-20.833,0.083-20.833,0.083l-2-1.333V3.751z" stroke="#000000"/> 		<path id="_35680515-4263-45D6-A06D-D97AE39F66C6frame2" oryx:anchors="top left" style="opacity:1;fill:none;stroke-width:2" d="M 13.5 7 L 27 7" stroke="#000000"/> 		<path id="_35680515-4263-45D6-A06D-D97AE39F66C6frame3" oryx:anchors="top left" style="opacity:1;fill:none;stroke-width:2" d="M 13.5 11 L 26 11" stroke="#000000"/> 		<path id="_35680515-4263-45D6-A06D-D97AE39F66C6frame4" oryx:anchors="top left" style="opacity:1;fill:none;stroke-width:1.5" d="M 14 14.5 L 25 14.5" stroke="#000000"/> 		<path id="_35680515-4263-45D6-A06D-D97AE39F66C6frame5" oryx:anchors="top left" style="opacity:1;fill:none;stroke-width:1.5" d="M 8.2 3.1 L 15 3.1" stroke="#000000"/> 	</g> 	 	<g id="_35680515-4263-45D6-A06D-D97AE39F66C6businessRuleTask" transform="scale(0.7,0.7) translate(8,8)" display="inherit"> 		<rect id="_35680515-4263-45D6-A06D-D97AE39F66C6frame6" oryx:anchors="top left" x="0" y="0" width="22" height="4" style="opacity:1;fill:#B3B1B3;fill-opacity:1;" stroke="#000000"/> 		<rect id="_35680515-4263-45D6-A06D-D97AE39F66C6frame7" oryx:anchors="top left" x="0" y="4" style="opacity:1;fill:none;" width="22" height="12" stroke="#000000"/> 		<path id="_35680515-4263-45D6-A06D-D97AE39F66C6frame8" oryx:anchors="top left" style="opacity:1;fill:none;" d="M 0 10 L 22 10" stroke="#000000"/> 		<path id="_35680515-4263-45D6-A06D-D97AE39F66C6frame9" oryx:anchors="top left" style="opacity:1; fill:none;" d="M 7 4 L 7 16" stroke="#000000"/> 	</g> 	 	<g id="_35680515-4263-45D6-A06D-D97AE39F66C6scriptTask" transform="scale(0.7,0.7) translate(8,8)" display="none"> 		<path oryx:anchors="top left" id="_35680515-4263-45D6-A06D-D97AE39F66C6frame10" style="opacity:1;fill:none;" stroke="#000000" d="M6.402,0.5h14.5c0,0-5.833,2.833-5.833,5.583s4.417,6,4.417,9.167    s-4.167,5.083-4.167,5.083H0.235c0,0,5-2.667,5-5s-4.583-6.75-4.583-9.25S6.402,0.5,6.402,0.5z"/> 		<path oryx:anchors="top left" id="_35680515-4263-45D6-A06D-D97AE39F66C6frame11" style="opacity:1;fill:none;stroke-width:1.5" d="M 3.5 4.5 L 13.5 4.5" stroke="#000000"/> 		<path oryx:anchors="top left" id="_35680515-4263-45D6-A06D-D97AE39F66C6frame12" style="opacity:1;fill:none;stroke-width:1.5" d="M 3.8 8.5 L 13.8 8.5" stroke="#000000"/> 		<path oryx:anchors="top left" id="_35680515-4263-45D6-A06D-D97AE39F66C6frame13" style="opacity:1;fill:none;stroke-width:1.5" d="M 6.3 12.5 L 16.3 12.5" stroke="#000000"/> 		<path oryx:anchors="top left" id="_35680515-4263-45D6-A06D-D97AE39F66C6frame14" style="opacity:1;fill:none;stroke-width:1.5" d="M 6.5 16.5 L 16.5 16.5" stroke="#000000"/> 	</g> 	 	<g id="_35680515-4263-45D6-A06D-D97AE39F66C6userTask" transform="scale(0.7,0.7) translate(8,8)" display="none"> 		<path id="_35680515-4263-45D6-A06D-D97AE39F66C6frame15" oryx:anchors="top left" style="opacity:1;fill:#F4F6F7" stroke="#000000" d="M0.585,24.167h24.083v-7.833c0,0-2.333-3.917-7.083-5.167h-9.25    c-4.417,1.333-7.833,5.75-7.833,5.75L0.585,24.167z"/> 		<path id="_35680515-4263-45D6-A06D-D97AE39F66C6frame16" oryx:anchors="top left" style="opacity:1;fill:none" d="M 6 20 L 6 24" stroke="#000000"/> 		<path id="_35680515-4263-45D6-A06D-D97AE39F66C6frame17" oryx:anchors="top left" style="opacity:1;fill:none" d="M 20 20 L 20 24" stroke="#000000"/> 		<circle id="_35680515-4263-45D6-A06D-D97AE39F66C6frame18" oryx:anchors="top left" fill="black" cx="13.002" cy="5.916" r="5.417" stroke="#000000"/> 		<path id="_35680515-4263-45D6-A06D-D97AE39F66C6frame19" oryx:anchors="top left" style="opacity:1;fill:#F0EFF0;" stroke="#000000" d="M8.043,7.083c0,0,2.814-2.426,5.376-1.807s4.624-0.693,4.624-0.693    c0.25,1.688,0.042,3.75-1.458,5.584c0,0,1.083,0.75,1.083,1.5s0.125,1.875-1,3s-5.5,1.25-6.75,0S8.668,12.834,8.668,12    s0.583-1.25,1.25-1.917C8.835,9.5,7.419,7.708,8.043,7.083z"/> 	</g> 	 	<g id="_35680515-4263-45D6-A06D-D97AE39F66C6serviceTask" transform="scale(0.7,0.7) translate(8,8)" display="none"> 		<polygon oryx:anchors="top left" id="_35680515-4263-45D6-A06D-D97AE39F66C6frame20" style="opacity:1;fill:#ffffff" stroke="#000000" points="15.392,5.064 17.954,2.502 20.347,4.895 17.786,7.455     18.729,9.732 22.353,9.732 22.353,13.115 18.731,13.115 17.788,15.392 20.351,17.955 17.958,20.347 15.397,17.786 13.12,18.729     13.12,22.353 9.737,22.353 9.737,18.731 7.46,17.788 4.897,20.35 2.506,17.958 5.066,15.397 4.124,13.12 0.5,13.12 0.5,9.737     4.121,9.737 5.065,7.461 2.503,4.898 4.895,2.506 7.455,5.066 9.732,4.125 9.732,0.5 13.116,0.5 13.116,4.121 "/> 		<circle oryx:anchors="top left" id="_35680515-4263-45D6-A06D-D97AE39F66C6frame21" style="opacity:1;fill:none" stroke="#000000" cx="11.427" cy="11.426" r="3.714"/> 		<polygon oryx:anchors="top left" id="_35680515-4263-45D6-A06D-D97AE39F66C6frame22" style="opacity:1;fill:#ffffff" stroke="#000000" points="21.392,11.064 23.954,8.502 26.347,10.895 23.786,13.455     24.729,15.732 28.353,15.732 28.353,19.115 24.731,19.115 23.788,21.392 26.351,23.955 23.958,26.347 21.397,23.786 19.12,24.729     19.12,28.353 15.737,28.353 15.737,24.731 13.46,23.788 10.897,26.35 8.506,23.958 11.066,21.397 10.124,19.12 6.5,19.12     6.5,15.737 10.121,15.737 11.065,13.461 8.503,10.898 10.895,8.506 13.455,11.066 15.732,10.125 15.732,6.5 19.116,6.5     19.116,10.121 "/> 		<circle oryx:anchors="top left" id="_35680515-4263-45D6-A06D-D97AE39F66C6frame23" style="opacity:1;fill:none;" stroke="#000000" cx="17.427" cy="17.426" r="3.714"/> 	</g> 	 	<g id="_35680515-4263-45D6-A06D-D97AE39F66C6sendTask" display="none"> 		<path id="_35680515-4263-45D6-A06D-D97AE39F66C6stframe24" oryx:anchors="left top" stroke="#FFFFFF" fill="black" stroke-width="1" d="M8,11 L8,21 L24,21 L24,11 L16,17z"/> 		<path id="_35680515-4263-45D6-A06D-D97AE39F66C6stframe25" oryx:anchors="left top" stroke="#FFFFFF" fill="black" stroke-width="1" d="M7,10 L16,17 L25 10z"/> 	</g> 	 	<g id="_35680515-4263-45D6-A06D-D97AE39F66C6receiveTask" display="none"> 		<path id="_35680515-4263-45D6-A06D-D97AE39F66C6frame26" oryx:anchors="left top" stroke="#000000" fill="none" stroke-width="1" d="M8,11 L8,21 L24,21 L24,11z M8,11 L16,17 L24,11"/> 	</g> 	 	<g id="_35680515-4263-45D6-A06D-D97AE39F66C6none" display="inherit"/>  	<g id="_35680515-4263-45D6-A06D-D97AE39F66C6sequential" display="none">         <path oryx:anchors="bottom" fill="none" stroke="#000000" stroke-width="2" d="M46,76h10M46,72h10 M46,68h10" id="_35680515-4263-45D6-A06D-D97AE39F66C6__35680515-4263-45D6-A06D-D97AE39F66C6_20"/>     </g>   </g></g><g class="children" style="overflow:hidden"/><g class="edge"/></g><g class="controls"><g class="dockers"/><g class="magnets" transform="translate(240, 140)"><g pointer-events="all" display="none" transform="translate(-7, 12)"><circle cx="8" cy="8" r="4" stroke="none" fill="red" fill-opacity="0.3"/></g><g pointer-events="all" display="none" transform="translate(-7, 32)"><circle cx="8" cy="8" r="4" stroke="none" fill="red" fill-opacity="0.3"/></g><g pointer-events="all" display="none" transform="translate(-7, 52)"><circle cx="8" cy="8" r="4" stroke="none" fill="red" fill-opacity="0.3"/></g><g pointer-events="all" display="none" transform="translate(17, 71)"><circle cx="8" cy="8" r="4" stroke="none" fill="red" fill-opacity="0.3"/></g><g pointer-events="all" display="none" transform="translate(42, 71)"><circle cx="8" cy="8" r="4" stroke="none" fill="red" fill-opacity="0.3"/></g><g pointer-events="all" display="none" transform="translate(67, 71)"><circle cx="8" cy="8" r="4" stroke="none" fill="red" fill-opacity="0.3"/></g><g pointer-events="all" display="none" transform="translate(91, 12)"><circle cx="8" cy="8" r="4" stroke="none" fill="red" fill-opacity="0.3"/></g><g pointer-events="all" display="none" transform="translate(91, 32)"><circle cx="8" cy="8" r="4" stroke="none" fill="red" fill-opacity="0.3"/></g><g pointer-events="all" display="none" transform="translate(91, 52)"><circle cx="8" cy="8" r="4" stroke="none" fill="red" fill-opacity="0.3"/></g><g pointer-events="all" display="none" transform="translate(17, -7)"><circle cx="8" cy="8" r="4" stroke="none" fill="red" fill-opacity="0.3"/></g><g pointer-events="all" display="none" transform="translate(42, -7)"><circle cx="8" cy="8" r="4" stroke="none" fill="red" fill-opacity="0.3"/></g><g pointer-events="all" display="none" transform="translate(67, -7)"><circle cx="8" cy="8" r="4" stroke="none" fill="red" fill-opacity="0.3"/></g><g pointer-events="all" display="none" transform="translate(42, 32)"><circle cx="8" cy="8" r="4" stroke="none" fill="red" fill-opacity="0.3"/></g></g></g></g><g id="_A47899F0-DA8A-4FCD-B4A2-9179CD75821B" bpmn2nodeid="_9789B7DB-C77A-442F-BC4F-62F213FD4FC5"><g class="stencils" transform="translate(705, 166)"><g class="me"><g pointer-events="fill" id="_A47899F0-DA8A-4FCD-B4A2-9179CD75821B">      <defs id="_A47899F0-DA8A-4FCD-B4A2-9179CD75821B__A47899F0-DA8A-4FCD-B4A2-9179CD75821B_5"> 		<radialGradient id="_A47899F0-DA8A-4FCD-B4A2-9179CD75821Bbackground" cx="10%" cy="10%" r="100%" fx="10%" fy="10%"> 			<stop offset="0%" stop-color="#ffffff" stop-opacity="1" id="_A47899F0-DA8A-4FCD-B4A2-9179CD75821B__A47899F0-DA8A-4FCD-B4A2-9179CD75821B_6"/> 			<stop id="_A47899F0-DA8A-4FCD-B4A2-9179CD75821Bfill_el" offset="100%" stop-color="#ff6347" stop-opacity="1"/> 		</radialGradient> 	</defs> 	     <circle id="_A47899F0-DA8A-4FCD-B4A2-9179CD75821Bbg_frame" cx="14" cy="14" r="14" stroke="#000000" fill="url(#_A47899F0-DA8A-4FCD-B4A2-9179CD75821Bbackground) white" stroke-width="3"/> 	<text font-size="11" id="_A47899F0-DA8A-4FCD-B4A2-9179CD75821Btext_name" x="14" y="30" oryx:align="top center" stroke="black" stroke-width="0pt" letter-spacing="-0.01px" fill="#000000" text-anchor="middle" transform="rotate(0 14 30)" visibility="inherit" oryx:fontSize="11"/>   </g></g><g class="children" style="overflow:hidden"/><g class="edge"/></g><g class="controls"><g class="dockers"/><g class="magnets" transform="translate(705, 166)"><g pointer-events="all" display="none" transform="translate(6, 6)"><circle cx="8" cy="8" r="4" stroke="none" fill="red" fill-opacity="0.3"/></g></g></g></g><g id="_24CE51E9-8E6D-4A3B-B48E-4F5312C81EEC" bpmn2nodeid="_BB1FFB5B-AD4B-49B8-AEC7-82DC7BD16F58"><g class="stencils" transform="translate(465, 140)"><g class="me"><g pointer-events="fill" oryx:minimumSize="50 40" id="_24CE51E9-8E6D-4A3B-B48E-4F5312C81EEC">   	<defs id="_24CE51E9-8E6D-4A3B-B48E-4F5312C81EEC__24CE51E9-8E6D-4A3B-B48E-4F5312C81EEC_17"> 		<radialGradient id="_24CE51E9-8E6D-4A3B-B48E-4F5312C81EECbackground" cx="10%" cy="10%" r="100%" fx="10%" fy="10%"> 			<stop offset="0%" stop-color="#ffffff" stop-opacity="1" id="_24CE51E9-8E6D-4A3B-B48E-4F5312C81EEC__24CE51E9-8E6D-4A3B-B48E-4F5312C81EEC_18"/> 			<stop id="_24CE51E9-8E6D-4A3B-B48E-4F5312C81EECfill_el" offset="100%" stop-color="#fafad2" stop-opacity="1"/> 		</radialGradient> 		<radialGradient id="_24CE51E9-8E6D-4A3B-B48E-4F5312C81EECborderbackground" cx="10%" cy="10%" r="100%" fx="10%" fy="10%"> 			<stop offset="0%" stop-color="#ffffff" stop-opacity="1" id="_24CE51E9-8E6D-4A3B-B48E-4F5312C81EEC__24CE51E9-8E6D-4A3B-B48E-4F5312C81EEC_19"/> 			<stop id="_24CE51E9-8E6D-4A3B-B48E-4F5312C81EECfill_border" offset="100%" stop-color="#000000" stop-opacity="1" stroke="#000000"/> 		</radialGradient> 	</defs> 	 	<rect id="_24CE51E9-8E6D-4A3B-B48E-4F5312C81EECtext_frame" oryx:anchors="bottom top right left" x="1" y="1" width="94" height="79" rx="10" ry="10" stroke="none" stroke-width="0" fill="none"/> 	<rect id="_24CE51E9-8E6D-4A3B-B48E-4F5312C81EECbg_frame" oryx:resize="vertical horizontal" x="0" y="0" width="100" height="80" rx="10" ry="10" stroke="#000000" stroke-width="1" fill="url(#_24CE51E9-8E6D-4A3B-B48E-4F5312C81EECbackground) #ffffcc"/> 		<text font-size="12" id="_24CE51E9-8E6D-4A3B-B48E-4F5312C81EECtext_name" x="50" y="40" oryx:align="middle center" oryx:fittoelem="text_frame" stroke="black" text-anchor="middle" stroke-width="0pt" letter-spacing="-0.01px" fill="#000000" transform="rotate(0 50 40)" visibility="inherit" oryx:fontSize="12"><tspan x="50" y="40" dy="5" id="ext-gen618">Log Tarjetas</tspan></text>     <g id="_24CE51E9-8E6D-4A3B-B48E-4F5312C81EECmanualTask" transform="scale(0.7,0.7) translate(8,8)" display="none">     	<path oryx:anchors="top left" id="_24CE51E9-8E6D-4A3B-B48E-4F5312C81EECframe" style="opacity:1;fill:none;fill-opacity:1;stroke-width:1" d="M0.5,3.751l4.083-3.25c0,0,11.166,0.083,12.083,0.083s-2.417,2.917-1.5,2.917     s11.667,0,12.584,0c1.166,1.708-0.168,3.167-0.834,3.667s0.875,1.917-1,4.417c-0.75,0.25,0.75,1.875-1.333,3.333     c-1.167,0.583,0.583,1.542-1.25,2.833c-1.167,0-20.833,0.083-20.833,0.083l-2-1.333V3.751z" stroke="#000000"/> 		<path id="_24CE51E9-8E6D-4A3B-B48E-4F5312C81EECframe2" oryx:anchors="top left" style="opacity:1;fill:none;stroke-width:2" d="M 13.5 7 L 27 7" stroke="#000000"/> 		<path id="_24CE51E9-8E6D-4A3B-B48E-4F5312C81EECframe3" oryx:anchors="top left" style="opacity:1;fill:none;stroke-width:2" d="M 13.5 11 L 26 11" stroke="#000000"/> 		<path id="_24CE51E9-8E6D-4A3B-B48E-4F5312C81EECframe4" oryx:anchors="top left" style="opacity:1;fill:none;stroke-width:1.5" d="M 14 14.5 L 25 14.5" stroke="#000000"/> 		<path id="_24CE51E9-8E6D-4A3B-B48E-4F5312C81EECframe5" oryx:anchors="top left" style="opacity:1;fill:none;stroke-width:1.5" d="M 8.2 3.1 L 15 3.1" stroke="#000000"/> 	</g> 	 	<g id="_24CE51E9-8E6D-4A3B-B48E-4F5312C81EECbusinessRuleTask" transform="scale(0.7,0.7) translate(8,8)" display="none"> 		<rect id="_24CE51E9-8E6D-4A3B-B48E-4F5312C81EECframe6" oryx:anchors="top left" x="0" y="0" width="22" height="4" style="opacity:1;fill:#B3B1B3;fill-opacity:1;" stroke="#000000"/> 		<rect id="_24CE51E9-8E6D-4A3B-B48E-4F5312C81EECframe7" oryx:anchors="top left" x="0" y="4" style="opacity:1;fill:none;" width="22" height="12" stroke="#000000"/> 		<path id="_24CE51E9-8E6D-4A3B-B48E-4F5312C81EECframe8" oryx:anchors="top left" style="opacity:1;fill:none;" d="M 0 10 L 22 10" stroke="#000000"/> 		<path id="_24CE51E9-8E6D-4A3B-B48E-4F5312C81EECframe9" oryx:anchors="top left" style="opacity:1; fill:none;" d="M 7 4 L 7 16" stroke="#000000"/> 	</g> 	 	<g id="_24CE51E9-8E6D-4A3B-B48E-4F5312C81EECscriptTask" transform="scale(0.7,0.7) translate(8,8)" display="inherit"> 		<path oryx:anchors="top left" id="_24CE51E9-8E6D-4A3B-B48E-4F5312C81EECframe10" style="opacity:1;fill:none;" stroke="#000000" d="M6.402,0.5h14.5c0,0-5.833,2.833-5.833,5.583s4.417,6,4.417,9.167    s-4.167,5.083-4.167,5.083H0.235c0,0,5-2.667,5-5s-4.583-6.75-4.583-9.25S6.402,0.5,6.402,0.5z"/> 		<path oryx:anchors="top left" id="_24CE51E9-8E6D-4A3B-B48E-4F5312C81EECframe11" style="opacity:1;fill:none;stroke-width:1.5" d="M 3.5 4.5 L 13.5 4.5" stroke="#000000"/> 		<path oryx:anchors="top left" id="_24CE51E9-8E6D-4A3B-B48E-4F5312C81EECframe12" style="opacity:1;fill:none;stroke-width:1.5" d="M 3.8 8.5 L 13.8 8.5" stroke="#000000"/> 		<path oryx:anchors="top left" id="_24CE51E9-8E6D-4A3B-B48E-4F5312C81EECframe13" style="opacity:1;fill:none;stroke-width:1.5" d="M 6.3 12.5 L 16.3 12.5" stroke="#000000"/> 		<path oryx:anchors="top left" id="_24CE51E9-8E6D-4A3B-B48E-4F5312C81EECframe14" style="opacity:1;fill:none;stroke-width:1.5" d="M 6.5 16.5 L 16.5 16.5" stroke="#000000"/> 	</g> 	 	<g id="_24CE51E9-8E6D-4A3B-B48E-4F5312C81EECuserTask" transform="scale(0.7,0.7) translate(8,8)" display="none"> 		<path id="_24CE51E9-8E6D-4A3B-B48E-4F5312C81EECframe15" oryx:anchors="top left" style="opacity:1;fill:#F4F6F7" stroke="#000000" d="M0.585,24.167h24.083v-7.833c0,0-2.333-3.917-7.083-5.167h-9.25    c-4.417,1.333-7.833,5.75-7.833,5.75L0.585,24.167z"/> 		<path id="_24CE51E9-8E6D-4A3B-B48E-4F5312C81EECframe16" oryx:anchors="top left" style="opacity:1;fill:none" d="M 6 20 L 6 24" stroke="#000000"/> 		<path id="_24CE51E9-8E6D-4A3B-B48E-4F5312C81EECframe17" oryx:anchors="top left" style="opacity:1;fill:none" d="M 20 20 L 20 24" stroke="#000000"/> 		<circle id="_24CE51E9-8E6D-4A3B-B48E-4F5312C81EECframe18" oryx:anchors="top left" fill="black" cx="13.002" cy="5.916" r="5.417" stroke="#000000"/> 		<path id="_24CE51E9-8E6D-4A3B-B48E-4F5312C81EECframe19" oryx:anchors="top left" style="opacity:1;fill:#F0EFF0;" stroke="#000000" d="M8.043,7.083c0,0,2.814-2.426,5.376-1.807s4.624-0.693,4.624-0.693    c0.25,1.688,0.042,3.75-1.458,5.584c0,0,1.083,0.75,1.083,1.5s0.125,1.875-1,3s-5.5,1.25-6.75,0S8.668,12.834,8.668,12    s0.583-1.25,1.25-1.917C8.835,9.5,7.419,7.708,8.043,7.083z"/> 	</g> 	 	<g id="_24CE51E9-8E6D-4A3B-B48E-4F5312C81EECserviceTask" transform="scale(0.7,0.7) translate(8,8)" display="none"> 		<polygon oryx:anchors="top left" id="_24CE51E9-8E6D-4A3B-B48E-4F5312C81EECframe20" style="opacity:1;fill:#ffffff" stroke="#000000" points="15.392,5.064 17.954,2.502 20.347,4.895 17.786,7.455     18.729,9.732 22.353,9.732 22.353,13.115 18.731,13.115 17.788,15.392 20.351,17.955 17.958,20.347 15.397,17.786 13.12,18.729     13.12,22.353 9.737,22.353 9.737,18.731 7.46,17.788 4.897,20.35 2.506,17.958 5.066,15.397 4.124,13.12 0.5,13.12 0.5,9.737     4.121,9.737 5.065,7.461 2.503,4.898 4.895,2.506 7.455,5.066 9.732,4.125 9.732,0.5 13.116,0.5 13.116,4.121 "/> 		<circle oryx:anchors="top left" id="_24CE51E9-8E6D-4A3B-B48E-4F5312C81EECframe21" style="opacity:1;fill:none" stroke="#000000" cx="11.427" cy="11.426" r="3.714"/> 		<polygon oryx:anchors="top left" id="_24CE51E9-8E6D-4A3B-B48E-4F5312C81EECframe22" style="opacity:1;fill:#ffffff" stroke="#000000" points="21.392,11.064 23.954,8.502 26.347,10.895 23.786,13.455     24.729,15.732 28.353,15.732 28.353,19.115 24.731,19.115 23.788,21.392 26.351,23.955 23.958,26.347 21.397,23.786 19.12,24.729     19.12,28.353 15.737,28.353 15.737,24.731 13.46,23.788 10.897,26.35 8.506,23.958 11.066,21.397 10.124,19.12 6.5,19.12     6.5,15.737 10.121,15.737 11.065,13.461 8.503,10.898 10.895,8.506 13.455,11.066 15.732,10.125 15.732,6.5 19.116,6.5     19.116,10.121 "/> 		<circle oryx:anchors="top left" id="_24CE51E9-8E6D-4A3B-B48E-4F5312C81EECframe23" style="opacity:1;fill:none;" stroke="#000000" cx="17.427" cy="17.426" r="3.714"/> 	</g> 	 	<g id="_24CE51E9-8E6D-4A3B-B48E-4F5312C81EECsendTask" display="none"> 		<path id="_24CE51E9-8E6D-4A3B-B48E-4F5312C81EECstframe24" oryx:anchors="left top" stroke="#FFFFFF" fill="black" stroke-width="1" d="M8,11 L8,21 L24,21 L24,11 L16,17z"/> 		<path id="_24CE51E9-8E6D-4A3B-B48E-4F5312C81EECstframe25" oryx:anchors="left top" stroke="#FFFFFF" fill="black" stroke-width="1" d="M7,10 L16,17 L25 10z"/> 	</g> 	 	<g id="_24CE51E9-8E6D-4A3B-B48E-4F5312C81EECreceiveTask" display="none"> 		<path id="_24CE51E9-8E6D-4A3B-B48E-4F5312C81EECframe26" oryx:anchors="left top" stroke="#000000" fill="none" stroke-width="1" d="M8,11 L8,21 L24,21 L24,11z M8,11 L16,17 L24,11"/> 	</g> 	 	<g id="_24CE51E9-8E6D-4A3B-B48E-4F5312C81EECnone" display="inherit"/>  	<g id="_24CE51E9-8E6D-4A3B-B48E-4F5312C81EECsequential" display="none">         <path oryx:anchors="bottom" fill="none" stroke="#000000" stroke-width="2" d="M46,76h10M46,72h10 M46,68h10" id="_24CE51E9-8E6D-4A3B-B48E-4F5312C81EEC__24CE51E9-8E6D-4A3B-B48E-4F5312C81EEC_20"/>     </g>   </g></g><g class="children" style="overflow:hidden"/><g class="edge"/></g><g class="controls"><g class="dockers"/><g class="magnets" transform="translate(465, 140)"><g pointer-events="all" display="none" transform="translate(-7, 12)"><circle cx="8" cy="8" r="4" stroke="none" fill="red" fill-opacity="0.3"/></g><g pointer-events="all" display="none" transform="translate(-7, 32)"><circle cx="8" cy="8" r="4" stroke="none" fill="red" fill-opacity="0.3"/></g><g pointer-events="all" display="none" transform="translate(-7, 52)"><circle cx="8" cy="8" r="4" stroke="none" fill="red" fill-opacity="0.3"/></g><g pointer-events="all" display="none" transform="translate(17, 71)"><circle cx="8" cy="8" r="4" stroke="none" fill="red" fill-opacity="0.3"/></g><g pointer-events="all" display="none" transform="translate(42, 71)"><circle cx="8" cy="8" r="4" stroke="none" fill="red" fill-opacity="0.3"/></g><g pointer-events="all" display="none" transform="translate(67, 71)"><circle cx="8" cy="8" r="4" stroke="none" fill="red" fill-opacity="0.3"/></g><g pointer-events="all" display="none" transform="translate(91, 12)"><circle cx="8" cy="8" r="4" stroke="none" fill="red" fill-opacity="0.3"/></g><g pointer-events="all" display="none" transform="translate(91, 32)"><circle cx="8" cy="8" r="4" stroke="none" fill="red" fill-opacity="0.3"/></g><g pointer-events="all" display="none" transform="translate(91, 52)"><circle cx="8" cy="8" r="4" stroke="none" fill="red" fill-opacity="0.3"/></g><g pointer-events="all" display="none" transform="translate(17, -7)"><circle cx="8" cy="8" r="4" stroke="none" fill="red" fill-opacity="0.3"/></g><g pointer-events="all" display="none" transform="translate(42, -7)"><circle cx="8" cy="8" r="4" stroke="none" fill="red" fill-opacity="0.3"/></g><g pointer-events="all" display="none" transform="translate(67, -7)"><circle cx="8" cy="8" r="4" stroke="none" fill="red" fill-opacity="0.3"/></g><g pointer-events="all" display="none" transform="translate(42, 32)"><circle cx="8" cy="8" r="4" stroke="none" fill="red" fill-opacity="0.3"/></g></g></g></g></g><g class="edge"><g id="_AEC089E0-718C-4361-8E1B-4352752ABF36" bpmn2nodeid="_B5F7E3AA-9FB6-44FD-85AB-5992064C5616"><g class="stencils"><g class="me"><g pointer-events="painted" bpmn2nodeid="_F36A9244-72DC-4937-BC26-9566EA7653E8"><path id="_AEC089E0-718C-4361-8E1B-4352752ABF36_1" d="M150.53125 180L239.3515625 180 " stroke="#000000" fill="none" stroke-width="2" stroke-linecap="round" stroke-linejoin="round" marker-start="url(#_AEC089E0-718C-4361-8E1B-4352752ABF36start)" marker-end="url(#_AEC089E0-718C-4361-8E1B-4352752ABF36end)"/></g><text id="_AEC089E0-718C-4361-8E1B-4352752ABF36text_name" font-size="12" x="164.53125" y="166" oryx:edgePosition="startTop" stroke-width="0pt" letter-spacing="-0.01px" fill="#000000" text-anchor="start" transform="rotate(360 150.53125 180)" visibility="inherit" oryx:fontSize="12"/></g><g class="children" style="overflow:hidden"/><g class="edge"/></g><g class="controls"><g class="dockers"/><g class="magnets"/></g></g><g id="_154E753A-5712-4F84-B61B-221F139BB7D9" bpmn2nodeid="_F404D446-8250-42DB-8BE9-46B695388FD0"><g class="stencils"><g class="me"><g pointer-events="painted" bpmn2nodeid="_AF8E0956-91C4-432D-82D0-767BB490A650"><path id="_154E753A-5712-4F84-B61B-221F139BB7D9_1" d="M340.21875 180L464.78125 180 " stroke="#000000" fill="none" stroke-width="2" stroke-linecap="round" stroke-linejoin="round" marker-start="url(#_154E753A-5712-4F84-B61B-221F139BB7D9start)" marker-end="url(#_154E753A-5712-4F84-B61B-221F139BB7D9end)"/></g><text id="_154E753A-5712-4F84-B61B-221F139BB7D9text_name" font-size="12" x="354.21875" y="166" oryx:edgePosition="startTop" stroke-width="0pt" letter-spacing="-0.01px" fill="#000000" text-anchor="start" transform="rotate(360 340.21875 180)" visibility="inherit" oryx:fontSize="12"/></g><g class="children" style="overflow:hidden"/><g class="edge"/></g><g class="controls"><g class="dockers"/><g class="magnets"/></g></g><g id="_782DAC26-E532-4154-B928-FD5FD6CECBCD" bpmn2nodeid="_C051927F-7288-4DF1-B7FE-04939B0CE876"><g class="stencils"><g class="me"><g pointer-events="painted" bpmn2nodeid="_F93F841F-7EC8-494A-855A-EE135ABFBA2C"><path id="_782DAC26-E532-4154-B928-FD5FD6CECBCD_1" d="M565.40625 180L704.453125 180 " stroke="#000000" fill="none" stroke-width="2" stroke-linecap="round" stroke-linejoin="round" marker-start="url(#_782DAC26-E532-4154-B928-FD5FD6CECBCDstart)" marker-end="url(#_782DAC26-E532-4154-B928-FD5FD6CECBCDend)"/></g><text id="_782DAC26-E532-4154-B928-FD5FD6CECBCDtext_name" font-size="12" x="579.40625" y="166" oryx:edgePosition="startTop" stroke-width="0pt" letter-spacing="-0.01px" fill="#000000" text-anchor="start" transform="rotate(360 565.40625 180)" visibility="inherit" oryx:fontSize="12"/></g><g class="children" style="overflow:hidden"/><g class="edge"/></g><g class="controls"><g class="dockers"/><g class="magnets"/></g></g></g><text id="_577E73E7-4EAD-4BF8-94EB-12B77187478F" style="stroke-width:1;fill:rgb(177,194,214);font-family:arial;font-weight:bold" font-size="12" onclick="ORYX.Plugins.CanvasTitle.openTextualAnalysis()" onmouseover="ORYX.Plugins.CanvasTitle.addToolTip('_577E73E7-4EAD-4BF8-94EB-12B77187478F')" transform="translate(10, 20)">Prueba_Tarjetas v.1.0 (Opplus.Prueba_Tarjetas)</text></g></g></svg>