<svg xmlns="http://www.w3.org/2000/svg" xmlns:oryx="http://oryx-editor.org" id="_A2EEC900-436D-4619-BD46-E096A1E242AE" width="1269" height="529" xmlns:xlink="http://www.w3.org/1999/xlink" xmlns:svg="http://www.w3.org/2000/svg"><defs><marker id="_EDBDDC09-AAFF-4D73-A022-1A08EE2A57A8start" refX="1" refY="5" markerUnits="userSpaceOnUse" markerWidth="17" markerHeight="11" orient="auto" fill="#000000" stroke="#000000"> 	  		<path id="_EDBDDC09-AAFF-4D73-A022-1A08EE2A57A8conditional" d="M 0 5 L 8 0 L 16 5 L 8 10 L 0 5" fill="white" stroke="#000000" stroke-width="1" display="none"/> 			<path id="_EDBDDC09-AAFF-4D73-A022-1A08EE2A57A8default" d="M 5 0 L 11 10" fill="white" stroke="#000000" stroke-width="1" display="none"/> 	  	</marker><marker id="_EDBDDC09-AAFF-4D73-A022-1A08EE2A57A8end" refX="15" refY="6" markerUnits="userSpaceOnUse" markerWidth="15" markerHeight="12" orient="auto" fill="#000000" stroke="#000000"> 	  		<path id="_EDBDDC09-AAFF-4D73-A022-1A08EE2A57A8frame2" d="M 0 1 L 15 6 L 0 11z" fill="#000000" stroke="#000000" stroke-linejoin="round" stroke-width="2"/> 	  	</marker><marker id="_1D09620D-11A3-4056-98D9-EA7E8397248Estart" refX="1" refY="5" markerUnits="userSpaceOnUse" markerWidth="17" markerHeight="11" orient="auto" fill="#000000" stroke="#000000"> 	  		<path id="_1D09620D-11A3-4056-98D9-EA7E8397248Econditional" d="M 0 5 L 8 0 L 16 5 L 8 10 L 0 5" fill="white" stroke="#000000" stroke-width="1" display="none"/> 			<path id="_1D09620D-11A3-4056-98D9-EA7E8397248Edefault" d="M 5 0 L 11 10" fill="white" stroke="#000000" stroke-width="1" display="none"/> 	  	</marker><marker id="_1D09620D-11A3-4056-98D9-EA7E8397248Eend" refX="15" refY="6" markerUnits="userSpaceOnUse" markerWidth="15" markerHeight="12" orient="auto" fill="#000000" stroke="#000000"> 	  		<path id="_1D09620D-11A3-4056-98D9-EA7E8397248Eframe2" d="M 0 1 L 15 6 L 0 11z" fill="#000000" stroke="#000000" stroke-linejoin="round" stroke-width="2"/> 	  	</marker><marker id="_4286EECF-4441-4C71-9F51-52E0079D779Fstart" refX="1" refY="5" markerUnits="userSpaceOnUse" markerWidth="17" markerHeight="11" orient="auto" fill="#000000" stroke="#000000"> 	  		<path id="_4286EECF-4441-4C71-9F51-52E0079D779Fconditional" d="M 0 5 L 8 0 L 16 5 L 8 10 L 0 5" fill="white" stroke="#000000" stroke-width="1" display="none"/> 			<path id="_4286EECF-4441-4C71-9F51-52E0079D779Fdefault" d="M 5 0 L 11 10" fill="white" stroke="#000000" stroke-width="1" display="none"/> 	  	</marker><marker id="_4286EECF-4441-4C71-9F51-52E0079D779Fend" refX="15" refY="6" markerUnits="userSpaceOnUse" markerWidth="15" markerHeight="12" orient="auto" fill="#000000" stroke="#000000"> 	  		<path id="_4286EECF-4441-4C71-9F51-52E0079D779Fframe2" d="M 0 1 L 15 6 L 0 11z" fill="#000000" stroke="#000000" stroke-linejoin="round" stroke-width="2"/> 	  	</marker><marker id="_66FF46C7-7147-4E65-9B73-AA67E994C3C3start" refX="1" refY="5" markerUnits="userSpaceOnUse" markerWidth="17" markerHeight="11" orient="auto" fill="#000000" stroke="#000000"> 	  		<path id="_66FF46C7-7147-4E65-9B73-AA67E994C3C3conditional" d="M 0 5 L 8 0 L 16 5 L 8 10 L 0 5" fill="white" stroke="#000000" stroke-width="1" display="none"/> 			<path id="_66FF46C7-7147-4E65-9B73-AA67E994C3C3default" d="M 5 0 L 11 10" fill="white" stroke="#000000" stroke-width="1" display="none"/> 	  	</marker><marker id="_66FF46C7-7147-4E65-9B73-AA67E994C3C3end" refX="15" refY="6" markerUnits="userSpaceOnUse" markerWidth="15" markerHeight="12" orient="auto" fill="#000000" stroke="#000000"> 	  		<path id="_66FF46C7-7147-4E65-9B73-AA67E994C3C3frame2" d="M 0 1 L 15 6 L 0 11z" fill="#000000" stroke="#000000" stroke-linejoin="round" stroke-width="2"/> 	  	</marker><marker id="_5C41E07F-6616-49FD-AF24-736DC059CAE1start" refX="1" refY="5" markerUnits="userSpaceOnUse" markerWidth="17" markerHeight="11" orient="auto" fill="#000000" stroke="#000000"> 	  		<path id="_5C41E07F-6616-49FD-AF24-736DC059CAE1conditional" d="M 0 5 L 8 0 L 16 5 L 8 10 L 0 5" fill="white" stroke="#000000" stroke-width="1" display="none"/> 			<path id="_5C41E07F-6616-49FD-AF24-736DC059CAE1default" d="M 5 0 L 11 10" fill="white" stroke="#000000" stroke-width="1" display="none"/> 	  	</marker><marker id="_5C41E07F-6616-49FD-AF24-736DC059CAE1end" refX="15" refY="6" markerUnits="userSpaceOnUse" markerWidth="15" markerHeight="12" orient="auto" fill="#000000" stroke="#000000"> 	  		<path id="_5C41E07F-6616-49FD-AF24-736DC059CAE1frame2" d="M 0 1 L 15 6 L 0 11z" fill="#000000" stroke="#000000" stroke-linejoin="round" stroke-width="2"/> 	  	</marker><marker id="_79317C69-6BD8-492C-9AD3-48D87137D5ECstart" refX="1" refY="5" markerUnits="userSpaceOnUse" markerWidth="17" markerHeight="11" orient="auto" fill="#000000" stroke="#000000"> 	  		<path id="_79317C69-6BD8-492C-9AD3-48D87137D5ECconditional" d="M 0 5 L 8 0 L 16 5 L 8 10 L 0 5" fill="white" stroke="#000000" stroke-width="1" display="none"/> 			<path id="_79317C69-6BD8-492C-9AD3-48D87137D5ECdefault" d="M 5 0 L 11 10" fill="white" stroke="#000000" stroke-width="1" display="none"/> 	  	</marker><marker id="_79317C69-6BD8-492C-9AD3-48D87137D5ECend" refX="15" refY="6" markerUnits="userSpaceOnUse" markerWidth="15" markerHeight="12" orient="auto" fill="#000000" stroke="#000000"> 	  		<path id="_79317C69-6BD8-492C-9AD3-48D87137D5ECframe2" d="M 0 1 L 15 6 L 0 11z" fill="#000000" stroke="#000000" stroke-linejoin="round" stroke-width="2"/> 	  	</marker><marker id="_6C85B66E-0858-4F44-B4E2-F197150C5125start" refX="1" refY="5" markerUnits="userSpaceOnUse" markerWidth="17" markerHeight="11" orient="auto" fill="#000000" stroke="#000000"> 	  		<path id="_6C85B66E-0858-4F44-B4E2-F197150C5125conditional" d="M 0 5 L 8 0 L 16 5 L 8 10 L 0 5" fill="white" stroke="#000000" stroke-width="1" display="none"/> 			<path id="_6C85B66E-0858-4F44-B4E2-F197150C5125default" d="M 5 0 L 11 10" fill="white" stroke="#000000" stroke-width="1" display="none"/> 	  	</marker><marker id="_6C85B66E-0858-4F44-B4E2-F197150C5125end" refX="15" refY="6" markerUnits="userSpaceOnUse" markerWidth="15" markerHeight="12" orient="auto" fill="#000000" stroke="#000000"> 	  		<path id="_6C85B66E-0858-4F44-B4E2-F197150C5125frame2" d="M 0 1 L 15 6 L 0 11z" fill="#000000" stroke="#000000" stroke-linejoin="round" stroke-width="2"/> 	  	</marker></defs><g stroke="none" font-family="Verdana, sans-serif" font-size-adjust="none" font-style="normal" font-variant="normal" font-weight="normal" line-heigth="normal" font-size="12"><g class="stencils" transform="translate(16, 16)"><g class="me"/><g class="children"><g id="_ABFFF5B1-E7F4-4E33-B72E-6CD7FCD0C8EE" bpmn2nodeid="_AEA456D3-3620-4F7F-BC54-AD567F9421EB"><g class="stencils" transform="translate(465, 404)"><g class="me"><g pointer-events="fill" oryx:minimumSize="50 40" id="_ABFFF5B1-E7F4-4E33-B72E-6CD7FCD0C8EE">   	<defs id="_ABFFF5B1-E7F4-4E33-B72E-6CD7FCD0C8EE__ABFFF5B1-E7F4-4E33-B72E-6CD7FCD0C8EE_17"> 		<radialGradient id="_ABFFF5B1-E7F4-4E33-B72E-6CD7FCD0C8EEbackground" cx="10%" cy="10%" r="100%" fx="10%" fy="10%"> 			<stop offset="0%" stop-color="#ffffff" stop-opacity="1" id="_ABFFF5B1-E7F4-4E33-B72E-6CD7FCD0C8EE__ABFFF5B1-E7F4-4E33-B72E-6CD7FCD0C8EE_18"/> 			<stop id="_ABFFF5B1-E7F4-4E33-B72E-6CD7FCD0C8EEfill_el" offset="100%" stop-color="#fafad2" stop-opacity="1"/> 		</radialGradient> 		<radialGradient id="_ABFFF5B1-E7F4-4E33-B72E-6CD7FCD0C8EEborderbackground" cx="10%" cy="10%" r="100%" fx="10%" fy="10%"> 			<stop offset="0%" stop-color="#ffffff" stop-opacity="1" id="_ABFFF5B1-E7F4-4E33-B72E-6CD7FCD0C8EE__ABFFF5B1-E7F4-4E33-B72E-6CD7FCD0C8EE_19"/> 			<stop id="_ABFFF5B1-E7F4-4E33-B72E-6CD7FCD0C8EEfill_border" offset="100%" stop-color="#000000" stop-opacity="1" stroke="#000000"/> 		</radialGradient> 	</defs> 	 	<rect id="_ABFFF5B1-E7F4-4E33-B72E-6CD7FCD0C8EEtext_frame" oryx:anchors="bottom top right left" x="1" y="1" width="94" height="79" rx="10" ry="10" stroke="none" stroke-width="0" fill="none"/> 	<rect id="_ABFFF5B1-E7F4-4E33-B72E-6CD7FCD0C8EEbg_frame" oryx:resize="vertical horizontal" x="0" y="0" width="100" height="80" rx="10" ry="10" stroke="#000000" stroke-width="1" fill="url(#_ABFFF5B1-E7F4-4E33-B72E-6CD7FCD0C8EEbackground) #ffffcc"/> 		<text font-size="12" id="_ABFFF5B1-E7F4-4E33-B72E-6CD7FCD0C8EEtext_name" x="50" y="40" oryx:align="middle center" oryx:fittoelem="text_frame" stroke="black" text-anchor="middle" stroke-width="0pt" letter-spacing="-0.01px" fill="#000000" transform="rotate(0 50 40)" visibility="inherit" oryx:fontSize="12"><tspan x="50" y="40" dy="5" id="ext-gen650">Admisi?n</tspan></text>     <g id="_ABFFF5B1-E7F4-4E33-B72E-6CD7FCD0C8EEmanualTask" transform="scale(0.7,0.7) translate(8,8)" display="none">     	<path oryx:anchors="top left" id="_ABFFF5B1-E7F4-4E33-B72E-6CD7FCD0C8EEframe" style="opacity:1;fill:none;fill-opacity:1;stroke-width:1" d="M0.5,3.751l4.083-3.25c0,0,11.166,0.083,12.083,0.083s-2.417,2.917-1.5,2.917     s11.667,0,12.584,0c1.166,1.708-0.168,3.167-0.834,3.667s0.875,1.917-1,4.417c-0.75,0.25,0.75,1.875-1.333,3.333     c-1.167,0.583,0.583,1.542-1.25,2.833c-1.167,0-20.833,0.083-20.833,0.083l-2-1.333V3.751z" stroke="#000000"/> 		<path id="_ABFFF5B1-E7F4-4E33-B72E-6CD7FCD0C8EEframe2" oryx:anchors="top left" style="opacity:1;fill:none;stroke-width:2" d="M 13.5 7 L 27 7" stroke="#000000"/> 		<path id="_ABFFF5B1-E7F4-4E33-B72E-6CD7FCD0C8EEframe3" oryx:anchors="top left" style="opacity:1;fill:none;stroke-width:2" d="M 13.5 11 L 26 11" stroke="#000000"/> 		<path id="_ABFFF5B1-E7F4-4E33-B72E-6CD7FCD0C8EEframe4" oryx:anchors="top left" style="opacity:1;fill:none;stroke-width:1.5" d="M 14 14.5 L 25 14.5" stroke="#000000"/> 		<path id="_ABFFF5B1-E7F4-4E33-B72E-6CD7FCD0C8EEframe5" oryx:anchors="top left" style="opacity:1;fill:none;stroke-width:1.5" d="M 8.2 3.1 L 15 3.1" stroke="#000000"/> 	</g> 	 	<g id="_ABFFF5B1-E7F4-4E33-B72E-6CD7FCD0C8EEbusinessRuleTask" transform="scale(0.7,0.7) translate(8,8)" display="none"> 		<rect id="_ABFFF5B1-E7F4-4E33-B72E-6CD7FCD0C8EEframe6" oryx:anchors="top left" x="0" y="0" width="22" height="4" style="opacity:1;fill:#B3B1B3;fill-opacity:1;" stroke="#000000"/> 		<rect id="_ABFFF5B1-E7F4-4E33-B72E-6CD7FCD0C8EEframe7" oryx:anchors="top left" x="0" y="4" style="opacity:1;fill:none;" width="22" height="12" stroke="#000000"/> 		<path id="_ABFFF5B1-E7F4-4E33-B72E-6CD7FCD0C8EEframe8" oryx:anchors="top left" style="opacity:1;fill:none;" d="M 0 10 L 22 10" stroke="#000000"/> 		<path id="_ABFFF5B1-E7F4-4E33-B72E-6CD7FCD0C8EEframe9" oryx:anchors="top left" style="opacity:1; fill:none;" d="M 7 4 L 7 16" stroke="#000000"/> 	</g> 	 	<g id="_ABFFF5B1-E7F4-4E33-B72E-6CD7FCD0C8EEscriptTask" transform="scale(0.7,0.7) translate(8,8)" display="none"> 		<path oryx:anchors="top left" id="_ABFFF5B1-E7F4-4E33-B72E-6CD7FCD0C8EEframe10" style="opacity:1;fill:none;" stroke="#000000" d="M6.402,0.5h14.5c0,0-5.833,2.833-5.833,5.583s4.417,6,4.417,9.167    s-4.167,5.083-4.167,5.083H0.235c0,0,5-2.667,5-5s-4.583-6.75-4.583-9.25S6.402,0.5,6.402,0.5z"/> 		<path oryx:anchors="top left" id="_ABFFF5B1-E7F4-4E33-B72E-6CD7FCD0C8EEframe11" style="opacity:1;fill:none;stroke-width:1.5" d="M 3.5 4.5 L 13.5 4.5" stroke="#000000"/> 		<path oryx:anchors="top left" id="_ABFFF5B1-E7F4-4E33-B72E-6CD7FCD0C8EEframe12" style="opacity:1;fill:none;stroke-width:1.5" d="M 3.8 8.5 L 13.8 8.5" stroke="#000000"/> 		<path oryx:anchors="top left" id="_ABFFF5B1-E7F4-4E33-B72E-6CD7FCD0C8EEframe13" style="opacity:1;fill:none;stroke-width:1.5" d="M 6.3 12.5 L 16.3 12.5" stroke="#000000"/> 		<path oryx:anchors="top left" id="_ABFFF5B1-E7F4-4E33-B72E-6CD7FCD0C8EEframe14" style="opacity:1;fill:none;stroke-width:1.5" d="M 6.5 16.5 L 16.5 16.5" stroke="#000000"/> 	</g> 	 	<g id="_ABFFF5B1-E7F4-4E33-B72E-6CD7FCD0C8EEuserTask" transform="scale(0.7,0.7) translate(8,8)" display="inherit"> 		<path id="_ABFFF5B1-E7F4-4E33-B72E-6CD7FCD0C8EEframe15" oryx:anchors="top left" style="opacity:1;fill:#F4F6F7" stroke="#000000" d="M0.585,24.167h24.083v-7.833c0,0-2.333-3.917-7.083-5.167h-9.25    c-4.417,1.333-7.833,5.75-7.833,5.75L0.585,24.167z"/> 		<path id="_ABFFF5B1-E7F4-4E33-B72E-6CD7FCD0C8EEframe16" oryx:anchors="top left" style="opacity:1;fill:none" d="M 6 20 L 6 24" stroke="#000000"/> 		<path id="_ABFFF5B1-E7F4-4E33-B72E-6CD7FCD0C8EEframe17" oryx:anchors="top left" style="opacity:1;fill:none" d="M 20 20 L 20 24" stroke="#000000"/> 		<circle id="_ABFFF5B1-E7F4-4E33-B72E-6CD7FCD0C8EEframe18" oryx:anchors="top left" fill="black" cx="13.002" cy="5.916" r="5.417" stroke="#000000"/> 		<path id="_ABFFF5B1-E7F4-4E33-B72E-6CD7FCD0C8EEframe19" oryx:anchors="top left" style="opacity:1;fill:#F0EFF0;" stroke="#000000" d="M8.043,7.083c0,0,2.814-2.426,5.376-1.807s4.624-0.693,4.624-0.693    c0.25,1.688,0.042,3.75-1.458,5.584c0,0,1.083,0.75,1.083,1.5s0.125,1.875-1,3s-5.5,1.25-6.75,0S8.668,12.834,8.668,12    s0.583-1.25,1.25-1.917C8.835,9.5,7.419,7.708,8.043,7.083z"/> 	</g> 	 	<g id="_ABFFF5B1-E7F4-4E33-B72E-6CD7FCD0C8EEserviceTask" transform="scale(0.7,0.7) translate(8,8)" display="none"> 		<polygon oryx:anchors="top left" id="_ABFFF5B1-E7F4-4E33-B72E-6CD7FCD0C8EEframe20" style="opacity:1;fill:#ffffff" stroke="#000000" points="15.392,5.064 17.954,2.502 20.347,4.895 17.786,7.455     18.729,9.732 22.353,9.732 22.353,13.115 18.731,13.115 17.788,15.392 20.351,17.955 17.958,20.347 15.397,17.786 13.12,18.729     13.12,22.353 9.737,22.353 9.737,18.731 7.46,17.788 4.897,20.35 2.506,17.958 5.066,15.397 4.124,13.12 0.5,13.12 0.5,9.737     4.121,9.737 5.065,7.461 2.503,4.898 4.895,2.506 7.455,5.066 9.732,4.125 9.732,0.5 13.116,0.5 13.116,4.121 "/> 		<circle oryx:anchors="top left" id="_ABFFF5B1-E7F4-4E33-B72E-6CD7FCD0C8EEframe21" style="opacity:1;fill:none" stroke="#000000" cx="11.427" cy="11.426" r="3.714"/> 		<polygon oryx:anchors="top left" id="_ABFFF5B1-E7F4-4E33-B72E-6CD7FCD0C8EEframe22" style="opacity:1;fill:#ffffff" stroke="#000000" points="21.392,11.064 23.954,8.502 26.347,10.895 23.786,13.455     24.729,15.732 28.353,15.732 28.353,19.115 24.731,19.115 23.788,21.392 26.351,23.955 23.958,26.347 21.397,23.786 19.12,24.729     19.12,28.353 15.737,28.353 15.737,24.731 13.46,23.788 10.897,26.35 8.506,23.958 11.066,21.397 10.124,19.12 6.5,19.12     6.5,15.737 10.121,15.737 11.065,13.461 8.503,10.898 10.895,8.506 13.455,11.066 15.732,10.125 15.732,6.5 19.116,6.5     19.116,10.121 "/> 		<circle oryx:anchors="top left" id="_ABFFF5B1-E7F4-4E33-B72E-6CD7FCD0C8EEframe23" style="opacity:1;fill:none;" stroke="#000000" cx="17.427" cy="17.426" r="3.714"/> 	</g> 	 	<g id="_ABFFF5B1-E7F4-4E33-B72E-6CD7FCD0C8EEsendTask" display="none"> 		<path id="_ABFFF5B1-E7F4-4E33-B72E-6CD7FCD0C8EEstframe24" oryx:anchors="left top" stroke="#FFFFFF" fill="black" stroke-width="1" d="M8,11 L8,21 L24,21 L24,11 L16,17z"/> 		<path id="_ABFFF5B1-E7F4-4E33-B72E-6CD7FCD0C8EEstframe25" oryx:anchors="left top" stroke="#FFFFFF" fill="black" stroke-width="1" d="M7,10 L16,17 L25 10z"/> 	</g> 	 	<g id="_ABFFF5B1-E7F4-4E33-B72E-6CD7FCD0C8EEreceiveTask" display="none"> 		<path id="_ABFFF5B1-E7F4-4E33-B72E-6CD7FCD0C8EEframe26" oryx:anchors="left top" stroke="#000000" fill="none" stroke-width="1" d="M8,11 L8,21 L24,21 L24,11z M8,11 L16,17 L24,11"/> 	</g> 	 	<g id="_ABFFF5B1-E7F4-4E33-B72E-6CD7FCD0C8EEnone" display="inherit"/>  	<g id="_ABFFF5B1-E7F4-4E33-B72E-6CD7FCD0C8EEsequential" display="none">         <path oryx:anchors="bottom" fill="none" stroke="#000000" stroke-width="2" d="M46,76h10M46,72h10 M46,68h10" id="_ABFFF5B1-E7F4-4E33-B72E-6CD7FCD0C8EE__ABFFF5B1-E7F4-4E33-B72E-6CD7FCD0C8EE_20"/>     </g>   </g></g><g class="children" style="overflow:hidden"/><g class="edge"/></g><g class="controls"><g class="dockers"/><g class="magnets" transform="translate(465, 404)"><g pointer-events="all" display="none" transform="translate(-7, 12)"><circle cx="8" cy="8" r="4" stroke="none" fill="red" fill-opacity="0.3"/></g><g pointer-events="all" display="none" transform="translate(-7, 32)"><circle cx="8" cy="8" r="4" stroke="none" fill="red" fill-opacity="0.3"/></g><g pointer-events="all" display="none" transform="translate(-7, 52)"><circle cx="8" cy="8" r="4" stroke="none" fill="red" fill-opacity="0.3"/></g><g pointer-events="all" display="none" transform="translate(17, 71)"><circle cx="8" cy="8" r="4" stroke="none" fill="red" fill-opacity="0.3"/></g><g pointer-events="all" display="none" transform="translate(42, 71)"><circle cx="8" cy="8" r="4" stroke="none" fill="red" fill-opacity="0.3"/></g><g pointer-events="all" display="none" transform="translate(67, 71)"><circle cx="8" cy="8" r="4" stroke="none" fill="red" fill-opacity="0.3"/></g><g pointer-events="all" display="none" transform="translate(91, 12)"><circle cx="8" cy="8" r="4" stroke="none" fill="red" fill-opacity="0.3"/></g><g pointer-events="all" display="none" transform="translate(91, 32)"><circle cx="8" cy="8" r="4" stroke="none" fill="red" fill-opacity="0.3"/></g><g pointer-events="all" display="none" transform="translate(91, 52)"><circle cx="8" cy="8" r="4" stroke="none" fill="red" fill-opacity="0.3"/></g><g pointer-events="all" display="none" transform="translate(17, -7)"><circle cx="8" cy="8" r="4" stroke="none" fill="red" fill-opacity="0.3"/></g><g pointer-events="all" display="none" transform="translate(42, -7)"><circle cx="8" cy="8" r="4" stroke="none" fill="red" fill-opacity="0.3"/></g><g pointer-events="all" display="none" transform="translate(67, -7)"><circle cx="8" cy="8" r="4" stroke="none" fill="red" fill-opacity="0.3"/></g><g pointer-events="all" display="none" transform="translate(42, 32)"><circle cx="8" cy="8" r="4" stroke="none" fill="red" fill-opacity="0.3"/></g></g></g></g><g id="_95EAF105-3464-422A-9CA0-EB6A202BC832" bpmn2nodeid="_6609AA7D-F295-4C10-B6AB-90116B2B9A49"><g class="stencils" transform="translate(137, 424)"><g class="me"><g id="_95EAF105-3464-422A-9CA0-EB6A202BC832">        <defs id="_95EAF105-3464-422A-9CA0-EB6A202BC832__95EAF105-3464-422A-9CA0-EB6A202BC832_4"> 		<radialGradient id="_95EAF105-3464-422A-9CA0-EB6A202BC832background" cx="10%" cy="10%" r="100%" fx="10%" fy="10%"> 			<stop offset="0%" stop-color="#ffffff" stop-opacity="1" id="_95EAF105-3464-422A-9CA0-EB6A202BC832__95EAF105-3464-422A-9CA0-EB6A202BC832_5"/> 			<stop id="_95EAF105-3464-422A-9CA0-EB6A202BC832fill_el" offset="100%" stop-color="#f0e68c" stop-opacity="1"/> 		</radialGradient> 		<radialGradient id="_95EAF105-3464-422A-9CA0-EB6A202BC832borderbackground" cx="10%" cy="10%" r="100%" fx="10%" fy="10%"> 			<stop offset="0%" stop-color="#ffffff" stop-opacity="1" id="_95EAF105-3464-422A-9CA0-EB6A202BC832__95EAF105-3464-422A-9CA0-EB6A202BC832_6"/> 			<stop id="_95EAF105-3464-422A-9CA0-EB6A202BC832fill_border" offset="100%" stop-color="#a67f00" stop-opacity="1" stroke="#a67f00"/> 		</radialGradient> 	</defs> 	     <path d=" M0 20.5  L20.5 0  L40 20.5  L20.5 40  z" id="_95EAF105-3464-422A-9CA0-EB6A202BC832bg_frame" fill="url(#_95EAF105-3464-422A-9CA0-EB6A202BC832background) white" style="stroke-width:1" stroke="#a67f00"/>     <g id="_95EAF105-3464-422A-9CA0-EB6A202BC832frame" stroke="#a67f00">       <path id="_95EAF105-3464-422A-9CA0-EB6A202BC832frame2" d=" M13.25 12.05  L17.25 12.05  L27.65 28.95  L23.75 28.95  z" style="stroke-width:1" stroke="#a67f00" fill="url(#_95EAF105-3464-422A-9CA0-EB6A202BC832borderbackground)"/>       <path id="_95EAF105-3464-422A-9CA0-EB6A202BC832frame3" d=" M13.25 28.95  L23.75 12.05  L27.65 12.05  L17.25 28.95  z" style="stroke-width:1" stroke="#a67f00" fill="url(#_95EAF105-3464-422A-9CA0-EB6A202BC832borderbackground)"/>     </g> 	 	<text id="_95EAF105-3464-422A-9CA0-EB6A202BC832text_name" x="30.5" y="30.5" oryx:align="left top" stroke-width="0pt" letter-spacing="-0.01px" fill="#000000" text-anchor="start" transform="rotate(0 30.5 30.5)" visibility="inherit" oryx:fontSize="12"/> 	   </g></g><g class="children" style="overflow:hidden"/><g class="edge"/></g><g class="controls"><g class="dockers"/><g class="magnets" transform="translate(137, 424)"><g pointer-events="all" display="none" transform="translate(12.5, 12.5)"><circle cx="8" cy="8" r="4" stroke="none" fill="red" fill-opacity="0.3"/></g></g></g></g><g id="_7250E820-2FA7-438D-A75B-6773F7085E65" bpmn2nodeid="_C19B1C3D-9B1E-4E39-BE9B-77B4355A7490"><g class="stencils" transform="translate(255, 404)"><g class="me"><g pointer-events="fill" oryx:minimumSize="50 40" id="_7250E820-2FA7-438D-A75B-6773F7085E65">   	<defs id="_7250E820-2FA7-438D-A75B-6773F7085E65__7250E820-2FA7-438D-A75B-6773F7085E65_17"> 		<radialGradient id="_7250E820-2FA7-438D-A75B-6773F7085E65background" cx="10%" cy="10%" r="100%" fx="10%" fy="10%"> 			<stop offset="0%" stop-color="#ffffff" stop-opacity="1" id="_7250E820-2FA7-438D-A75B-6773F7085E65__7250E820-2FA7-438D-A75B-6773F7085E65_18"/> 			<stop id="_7250E820-2FA7-438D-A75B-6773F7085E65fill_el" offset="100%" stop-color="#fafad2" stop-opacity="1"/> 		</radialGradient> 		<radialGradient id="_7250E820-2FA7-438D-A75B-6773F7085E65borderbackground" cx="10%" cy="10%" r="100%" fx="10%" fy="10%"> 			<stop offset="0%" stop-color="#ffffff" stop-opacity="1" id="_7250E820-2FA7-438D-A75B-6773F7085E65__7250E820-2FA7-438D-A75B-6773F7085E65_19"/> 			<stop id="_7250E820-2FA7-438D-A75B-6773F7085E65fill_border" offset="100%" stop-color="#000000" stop-opacity="1" stroke="#000000"/> 		</radialGradient> 	</defs> 	 	<rect id="_7250E820-2FA7-438D-A75B-6773F7085E65text_frame" oryx:anchors="bottom top right left" x="1" y="1" width="94" height="79" rx="10" ry="10" stroke="none" stroke-width="0" fill="none"/> 	<rect id="_7250E820-2FA7-438D-A75B-6773F7085E65bg_frame" oryx:resize="vertical horizontal" x="0" y="0" width="100" height="80" rx="10" ry="10" stroke="#000000" stroke-width="1" fill="url(#_7250E820-2FA7-438D-A75B-6773F7085E65background) #ffffcc"/> 		<text font-size="12" id="_7250E820-2FA7-438D-A75B-6773F7085E65text_name" x="50" y="40" oryx:align="middle center" oryx:fittoelem="text_frame" stroke="black" text-anchor="middle" stroke-width="0pt" letter-spacing="-0.01px" fill="#000000" transform="rotate(0 50 40)" visibility="inherit" oryx:fontSize="12"><tspan x="50" y="40" dy="-1">Servicio </tspan><tspan x="50" y="40" dy="11">Anotaci?n</tspan></text>     <g id="_7250E820-2FA7-438D-A75B-6773F7085E65manualTask" transform="scale(0.7,0.7) translate(8,8)" display="none">     	<path oryx:anchors="top left" id="_7250E820-2FA7-438D-A75B-6773F7085E65frame" style="opacity:1;fill:none;fill-opacity:1;stroke-width:1" d="M0.5,3.751l4.083-3.25c0,0,11.166,0.083,12.083,0.083s-2.417,2.917-1.5,2.917     s11.667,0,12.584,0c1.166,1.708-0.168,3.167-0.834,3.667s0.875,1.917-1,4.417c-0.75,0.25,0.75,1.875-1.333,3.333     c-1.167,0.583,0.583,1.542-1.25,2.833c-1.167,0-20.833,0.083-20.833,0.083l-2-1.333V3.751z" stroke="#000000"/> 		<path id="_7250E820-2FA7-438D-A75B-6773F7085E65frame2" oryx:anchors="top left" style="opacity:1;fill:none;stroke-width:2" d="M 13.5 7 L 27 7" stroke="#000000"/> 		<path id="_7250E820-2FA7-438D-A75B-6773F7085E65frame3" oryx:anchors="top left" style="opacity:1;fill:none;stroke-width:2" d="M 13.5 11 L 26 11" stroke="#000000"/> 		<path id="_7250E820-2FA7-438D-A75B-6773F7085E65frame4" oryx:anchors="top left" style="opacity:1;fill:none;stroke-width:1.5" d="M 14 14.5 L 25 14.5" stroke="#000000"/> 		<path id="_7250E820-2FA7-438D-A75B-6773F7085E65frame5" oryx:anchors="top left" style="opacity:1;fill:none;stroke-width:1.5" d="M 8.2 3.1 L 15 3.1" stroke="#000000"/> 	</g> 	 	<g id="_7250E820-2FA7-438D-A75B-6773F7085E65businessRuleTask" transform="scale(0.7,0.7) translate(8,8)" display="none"> 		<rect id="_7250E820-2FA7-438D-A75B-6773F7085E65frame6" oryx:anchors="top left" x="0" y="0" width="22" height="4" style="opacity:1;fill:#B3B1B3;fill-opacity:1;" stroke="#000000"/> 		<rect id="_7250E820-2FA7-438D-A75B-6773F7085E65frame7" oryx:anchors="top left" x="0" y="4" style="opacity:1;fill:none;" width="22" height="12" stroke="#000000"/> 		<path id="_7250E820-2FA7-438D-A75B-6773F7085E65frame8" oryx:anchors="top left" style="opacity:1;fill:none;" d="M 0 10 L 22 10" stroke="#000000"/> 		<path id="_7250E820-2FA7-438D-A75B-6773F7085E65frame9" oryx:anchors="top left" style="opacity:1; fill:none;" d="M 7 4 L 7 16" stroke="#000000"/> 	</g> 	 	<g id="_7250E820-2FA7-438D-A75B-6773F7085E65scriptTask" transform="scale(0.7,0.7) translate(8,8)" display="inherit"> 		<path oryx:anchors="top left" id="_7250E820-2FA7-438D-A75B-6773F7085E65frame10" style="opacity:1;fill:none;" stroke="#000000" d="M6.402,0.5h14.5c0,0-5.833,2.833-5.833,5.583s4.417,6,4.417,9.167    s-4.167,5.083-4.167,5.083H0.235c0,0,5-2.667,5-5s-4.583-6.75-4.583-9.25S6.402,0.5,6.402,0.5z"/> 		<path oryx:anchors="top left" id="_7250E820-2FA7-438D-A75B-6773F7085E65frame11" style="opacity:1;fill:none;stroke-width:1.5" d="M 3.5 4.5 L 13.5 4.5" stroke="#000000"/> 		<path oryx:anchors="top left" id="_7250E820-2FA7-438D-A75B-6773F7085E65frame12" style="opacity:1;fill:none;stroke-width:1.5" d="M 3.8 8.5 L 13.8 8.5" stroke="#000000"/> 		<path oryx:anchors="top left" id="_7250E820-2FA7-438D-A75B-6773F7085E65frame13" style="opacity:1;fill:none;stroke-width:1.5" d="M 6.3 12.5 L 16.3 12.5" stroke="#000000"/> 		<path oryx:anchors="top left" id="_7250E820-2FA7-438D-A75B-6773F7085E65frame14" style="opacity:1;fill:none;stroke-width:1.5" d="M 6.5 16.5 L 16.5 16.5" stroke="#000000"/> 	</g> 	 	<g id="_7250E820-2FA7-438D-A75B-6773F7085E65userTask" transform="scale(0.7,0.7) translate(8,8)" display="none"> 		<path id="_7250E820-2FA7-438D-A75B-6773F7085E65frame15" oryx:anchors="top left" style="opacity:1;fill:#F4F6F7" stroke="#000000" d="M0.585,24.167h24.083v-7.833c0,0-2.333-3.917-7.083-5.167h-9.25    c-4.417,1.333-7.833,5.75-7.833,5.75L0.585,24.167z"/> 		<path id="_7250E820-2FA7-438D-A75B-6773F7085E65frame16" oryx:anchors="top left" style="opacity:1;fill:none" d="M 6 20 L 6 24" stroke="#000000"/> 		<path id="_7250E820-2FA7-438D-A75B-6773F7085E65frame17" oryx:anchors="top left" style="opacity:1;fill:none" d="M 20 20 L 20 24" stroke="#000000"/> 		<circle id="_7250E820-2FA7-438D-A75B-6773F7085E65frame18" oryx:anchors="top left" fill="black" cx="13.002" cy="5.916" r="5.417" stroke="#000000"/> 		<path id="_7250E820-2FA7-438D-A75B-6773F7085E65frame19" oryx:anchors="top left" style="opacity:1;fill:#F0EFF0;" stroke="#000000" d="M8.043,7.083c0,0,2.814-2.426,5.376-1.807s4.624-0.693,4.624-0.693    c0.25,1.688,0.042,3.75-1.458,5.584c0,0,1.083,0.75,1.083,1.5s0.125,1.875-1,3s-5.5,1.25-6.75,0S8.668,12.834,8.668,12    s0.583-1.25,1.25-1.917C8.835,9.5,7.419,7.708,8.043,7.083z"/> 	</g> 	 	<g id="_7250E820-2FA7-438D-A75B-6773F7085E65serviceTask" transform="scale(0.7,0.7) translate(8,8)" display="none"> 		<polygon oryx:anchors="top left" id="_7250E820-2FA7-438D-A75B-6773F7085E65frame20" style="opacity:1;fill:#ffffff" stroke="#000000" points="15.392,5.064 17.954,2.502 20.347,4.895 17.786,7.455     18.729,9.732 22.353,9.732 22.353,13.115 18.731,13.115 17.788,15.392 20.351,17.955 17.958,20.347 15.397,17.786 13.12,18.729     13.12,22.353 9.737,22.353 9.737,18.731 7.46,17.788 4.897,20.35 2.506,17.958 5.066,15.397 4.124,13.12 0.5,13.12 0.5,9.737     4.121,9.737 5.065,7.461 2.503,4.898 4.895,2.506 7.455,5.066 9.732,4.125 9.732,0.5 13.116,0.5 13.116,4.121 "/> 		<circle oryx:anchors="top left" id="_7250E820-2FA7-438D-A75B-6773F7085E65frame21" style="opacity:1;fill:none" stroke="#000000" cx="11.427" cy="11.426" r="3.714"/> 		<polygon oryx:anchors="top left" id="_7250E820-2FA7-438D-A75B-6773F7085E65frame22" style="opacity:1;fill:#ffffff" stroke="#000000" points="21.392,11.064 23.954,8.502 26.347,10.895 23.786,13.455     24.729,15.732 28.353,15.732 28.353,19.115 24.731,19.115 23.788,21.392 26.351,23.955 23.958,26.347 21.397,23.786 19.12,24.729     19.12,28.353 15.737,28.353 15.737,24.731 13.46,23.788 10.897,26.35 8.506,23.958 11.066,21.397 10.124,19.12 6.5,19.12     6.5,15.737 10.121,15.737 11.065,13.461 8.503,10.898 10.895,8.506 13.455,11.066 15.732,10.125 15.732,6.5 19.116,6.5     19.116,10.121 "/> 		<circle oryx:anchors="top left" id="_7250E820-2FA7-438D-A75B-6773F7085E65frame23" style="opacity:1;fill:none;" stroke="#000000" cx="17.427" cy="17.426" r="3.714"/> 	</g> 	 	<g id="_7250E820-2FA7-438D-A75B-6773F7085E65sendTask" display="none"> 		<path id="_7250E820-2FA7-438D-A75B-6773F7085E65stframe24" oryx:anchors="left top" stroke="#FFFFFF" fill="black" stroke-width="1" d="M8,11 L8,21 L24,21 L24,11 L16,17z"/> 		<path id="_7250E820-2FA7-438D-A75B-6773F7085E65stframe25" oryx:anchors="left top" stroke="#FFFFFF" fill="black" stroke-width="1" d="M7,10 L16,17 L25 10z"/> 	</g> 	 	<g id="_7250E820-2FA7-438D-A75B-6773F7085E65receiveTask" display="none"> 		<path id="_7250E820-2FA7-438D-A75B-6773F7085E65frame26" oryx:anchors="left top" stroke="#000000" fill="none" stroke-width="1" d="M8,11 L8,21 L24,21 L24,11z M8,11 L16,17 L24,11"/> 	</g> 	 	<g id="_7250E820-2FA7-438D-A75B-6773F7085E65none" display="inherit"/>  	<g id="_7250E820-2FA7-438D-A75B-6773F7085E65sequential" display="none">         <path oryx:anchors="bottom" fill="none" stroke="#000000" stroke-width="2" d="M46,76h10M46,72h10 M46,68h10" id="_7250E820-2FA7-438D-A75B-6773F7085E65__7250E820-2FA7-438D-A75B-6773F7085E65_20"/>     </g>   </g></g><g class="children" style="overflow:hidden"/><g class="edge"/></g><g class="controls"><g class="dockers"/><g class="magnets" transform="translate(255, 404)"><g pointer-events="all" display="none" transform="translate(-7, 12)"><circle cx="8" cy="8" r="4" stroke="none" fill="red" fill-opacity="0.3"/></g><g pointer-events="all" display="none" transform="translate(-7, 32)"><circle cx="8" cy="8" r="4" stroke="none" fill="red" fill-opacity="0.3"/></g><g pointer-events="all" display="none" transform="translate(-7, 52)"><circle cx="8" cy="8" r="4" stroke="none" fill="red" fill-opacity="0.3"/></g><g pointer-events="all" display="none" transform="translate(17, 71)"><circle cx="8" cy="8" r="4" stroke="none" fill="red" fill-opacity="0.3"/></g><g pointer-events="all" display="none" transform="translate(42, 71)"><circle cx="8" cy="8" r="4" stroke="none" fill="red" fill-opacity="0.3"/></g><g pointer-events="all" display="none" transform="translate(67, 71)"><circle cx="8" cy="8" r="4" stroke="none" fill="red" fill-opacity="0.3"/></g><g pointer-events="all" display="none" transform="translate(91, 12)"><circle cx="8" cy="8" r="4" stroke="none" fill="red" fill-opacity="0.3"/></g><g pointer-events="all" display="none" transform="translate(91, 32)"><circle cx="8" cy="8" r="4" stroke="none" fill="red" fill-opacity="0.3"/></g><g pointer-events="all" display="none" transform="translate(91, 52)"><circle cx="8" cy="8" r="4" stroke="none" fill="red" fill-opacity="0.3"/></g><g pointer-events="all" display="none" transform="translate(17, -7)"><circle cx="8" cy="8" r="4" stroke="none" fill="red" fill-opacity="0.3"/></g><g pointer-events="all" display="none" transform="translate(42, -7)"><circle cx="8" cy="8" r="4" stroke="none" fill="red" fill-opacity="0.3"/></g><g pointer-events="all" display="none" transform="translate(67, -7)"><circle cx="8" cy="8" r="4" stroke="none" fill="red" fill-opacity="0.3"/></g><g pointer-events="all" display="none" transform="translate(42, 32)"><circle cx="8" cy="8" r="4" stroke="none" fill="red" fill-opacity="0.3"/></g></g></g></g><g id="_FC8A5ED4-DF62-4E89-8D72-DEE223223E6D" bpmn2nodeid="_93756A25-1A06-424D-9E88-51075A5BD9AB"><g class="stencils" transform="translate(30, 429)"><g class="me"><g pointer-events="fill" id="_FC8A5ED4-DF62-4E89-8D72-DEE223223E6D">      <defs id="_FC8A5ED4-DF62-4E89-8D72-DEE223223E6D__FC8A5ED4-DF62-4E89-8D72-DEE223223E6D_5"> 		<radialGradient id="_FC8A5ED4-DF62-4E89-8D72-DEE223223E6Dbackground" cx="10%" cy="10%" r="100%" fx="10%" fy="10%"> 			<stop offset="0%" stop-color="#ffffff" stop-opacity="1" id="_FC8A5ED4-DF62-4E89-8D72-DEE223223E6D__FC8A5ED4-DF62-4E89-8D72-DEE223223E6D_6"/> 			<stop id="_FC8A5ED4-DF62-4E89-8D72-DEE223223E6Dfill_el" offset="100%" stop-color="#9acd32" stop-opacity="1"/> 		</radialGradient> 	</defs> 	     <circle id="_FC8A5ED4-DF62-4E89-8D72-DEE223223E6Dbg_frame" cx="15" cy="15" r="15" stroke="#000000" fill="url(#_FC8A5ED4-DF62-4E89-8D72-DEE223223E6Dbackground) white" stroke-width="1" style="stroke-dasharray: 5.5, 3"/>      <circle id="_FC8A5ED4-DF62-4E89-8D72-DEE223223E6Dframe" cx="15" cy="15" r="15" stroke="#000000" fill="none" stroke-width="1" display="inherit"/>      <path id="_FC8A5ED4-DF62-4E89-8D72-DEE223223E6Dbody" d=" M7.7124971 20.247342  L22.333334 20.247342  L15.022915000000001 7.575951200000001  L7.7124971 20.247342  z" stroke="black" style="fill:none;stroke-width:1.4;stroke-miterlimit:4;stroke-dasharray:none"/> 	<text font-size="11" id="_FC8A5ED4-DF62-4E89-8D72-DEE223223E6Dtext_name" x="15" y="32" oryx:align="top center" stroke="black" stroke-width="0pt" letter-spacing="-0.01px" fill="#000000" text-anchor="middle" transform="rotate(0 15 32)" visibility="inherit" oryx:fontSize="11"/>   </g></g><g class="children" style="overflow:hidden"/><g class="edge"/></g><g class="controls"><g class="dockers"/><g class="magnets" transform="translate(30, 429)"><g pointer-events="all" display="none" transform="translate(7, 7)"><circle cx="8" cy="8" r="4" stroke="none" fill="red" fill-opacity="0.3"/></g></g></g></g><g id="_99CBEBBB-002F-4094-839B-BBD2291A4AE0" bpmn2nodeid="_B37AA522-3120-4232-AC91-3EF9A14E01D4"><g class="stencils" transform="translate(945, 404)"><g class="me"><g pointer-events="fill" oryx:minimumSize="80 60" id="_99CBEBBB-002F-4094-839B-BBD2291A4AE0">   	<defs id="_99CBEBBB-002F-4094-839B-BBD2291A4AE0__99CBEBBB-002F-4094-839B-BBD2291A4AE0_17"> 		<radialGradient id="_99CBEBBB-002F-4094-839B-BBD2291A4AE0background" cx="10%" cy="10%" r="100%" fx="10%" fy="10%"> 			<stop offset="0%" stop-color="#ffffff" stop-opacity="1" id="_99CBEBBB-002F-4094-839B-BBD2291A4AE0__99CBEBBB-002F-4094-839B-BBD2291A4AE0_18"/> 			<stop id="_99CBEBBB-002F-4094-839B-BBD2291A4AE0fill_el" offset="100%" stop-color="#fafad2" stop-opacity="1"/> 		</radialGradient> 	</defs> 	<rect id="_99CBEBBB-002F-4094-839B-BBD2291A4AE0text_frame" oryx:anchors="bottom top right left" x="1" y="1" width="94" height="79" rx="10" ry="10" stroke="none" stroke-width="0" fill="none"/> 	<rect id="_99CBEBBB-002F-4094-839B-BBD2291A4AE0bg_frame" oryx:anchors="bottom top right left" x="0" y="0" width="100" height="80" rx="10" ry="10" stroke="#000000" stroke-width="1" fill="url(#_99CBEBBB-002F-4094-839B-BBD2291A4AE0background) #ffffcc"/> 	<rect id="_99CBEBBB-002F-4094-839B-BBD2291A4AE0frame" oryx:resize="vertical horizontal" oryx:anchors="bottom top right left" x="0" y="0" width="100" height="80" rx="10" ry="10" stroke="#000000" stroke-width="4" fill="none"/> 	<rect id="_99CBEBBB-002F-4094-839B-BBD2291A4AE0frame2" oryx:anchors="top bottom left right" oryx:resize="vertical horizontal" x="2.5" y="2.5" width="95" height="75" rx="8" ry="8" stroke="#000000" stroke-width="1" fill="none"/>     	<text font-size="12" id="_99CBEBBB-002F-4094-839B-BBD2291A4AE0text_name" x="50" y="40" oryx:align="middle center" oryx:fittoelem="text_frame" stroke="black" stroke-width="0pt" letter-spacing="-0.01px" fill="#000000" text-anchor="middle" transform="rotate(0 50 40)" visibility="inherit" oryx:fontSize="12"><tspan x="50" y="40" dy="-1" id="ext-gen689">Subproceso </tspan><tspan x="50" y="40" dy="11" id="ext-gen664">Tarjetas</tspan></text>          <a id="_99CBEBBB-002F-4094-839B-BBD2291A4AE0pimg" onclick="parent.designeropenintab(&quot;SubprocesoTarjeta.bpmn2&quot;,&quot;default://master@MySpace/Opplus/src/main/resources/es/dxd/opplus/tarjetas/SubprocesoTarjeta.bpmn2&quot;);" xlink:href="">	 	<g id="_99CBEBBB-002F-4094-839B-BBD2291A4AE0b" oryx:anchors="bottom"> 		<rect id="_99CBEBBB-002F-4094-839B-BBD2291A4AE0frame3" oryx:anchors="bottom" x="44" y="66" width="14" height="14" fill="none" stroke="#000000" stroke-width="1"/> 		<path id="_99CBEBBB-002F-4094-839B-BBD2291A4AE0frame4" oryx:anchors="bottom" fill="none" stroke="#000000" d="M51 68 v10 M 46 73 h10" stroke-width="1"/> 	</g> 	</a> 	<g id="_99CBEBBB-002F-4094-839B-BBD2291A4AE0none"/> 	undefined 	  	undefined 	undefined 	 	 	undefined 	undefined   </g></g><g class="children" style="overflow:hidden"/><g class="edge"/></g><g class="controls"><g class="dockers"/><g class="magnets" transform="translate(945, 404)"><g pointer-events="all" display="none" transform="translate(-7, 12)"><circle cx="8" cy="8" r="4" stroke="none" fill="red" fill-opacity="0.3"/></g><g pointer-events="all" display="none" transform="translate(-7, 32)"><circle cx="8" cy="8" r="4" stroke="none" fill="red" fill-opacity="0.3"/></g><g pointer-events="all" display="none" transform="translate(-7, 52)"><circle cx="8" cy="8" r="4" stroke="none" fill="red" fill-opacity="0.3"/></g><g pointer-events="all" display="none" transform="translate(17, 71)"><circle cx="8" cy="8" r="4" stroke="none" fill="red" fill-opacity="0.3"/></g><g pointer-events="all" display="none" transform="translate(42, 71)"><circle cx="8" cy="8" r="4" stroke="none" fill="red" fill-opacity="0.3"/></g><g pointer-events="all" display="none" transform="translate(67, 71)"><circle cx="8" cy="8" r="4" stroke="none" fill="red" fill-opacity="0.3"/></g><g pointer-events="all" display="none" transform="translate(91, 12)"><circle cx="8" cy="8" r="4" stroke="none" fill="red" fill-opacity="0.3"/></g><g pointer-events="all" display="none" transform="translate(91, 32)"><circle cx="8" cy="8" r="4" stroke="none" fill="red" fill-opacity="0.3"/></g><g pointer-events="all" display="none" transform="translate(91, 52)"><circle cx="8" cy="8" r="4" stroke="none" fill="red" fill-opacity="0.3"/></g><g pointer-events="all" display="none" transform="translate(17, -7)"><circle cx="8" cy="8" r="4" stroke="none" fill="red" fill-opacity="0.3"/></g><g pointer-events="all" display="none" transform="translate(42, -7)"><circle cx="8" cy="8" r="4" stroke="none" fill="red" fill-opacity="0.3"/></g><g pointer-events="all" display="none" transform="translate(67, -7)"><circle cx="8" cy="8" r="4" stroke="none" fill="red" fill-opacity="0.3"/></g><g pointer-events="all" display="none" transform="translate(42, 32)"><circle cx="8" cy="8" r="4" stroke="none" fill="red" fill-opacity="0.3"/></g></g></g></g><g id="_1C61C631-5264-4CE7-9B22-4119B16BFDF6" bpmn2nodeid="_59786CD1-9722-437B-96BE-2681094C1F7A"><g class="stencils" transform="translate(1095, 424)"><g class="me"><g id="_1C61C631-5264-4CE7-9B22-4119B16BFDF6">        <defs id="_1C61C631-5264-4CE7-9B22-4119B16BFDF6__1C61C631-5264-4CE7-9B22-4119B16BFDF6_4"> 		<radialGradient id="_1C61C631-5264-4CE7-9B22-4119B16BFDF6background" cx="10%" cy="10%" r="100%" fx="10%" fy="10%"> 			<stop offset="0%" stop-color="#ffffff" stop-opacity="1" id="_1C61C631-5264-4CE7-9B22-4119B16BFDF6__1C61C631-5264-4CE7-9B22-4119B16BFDF6_5"/> 			<stop id="_1C61C631-5264-4CE7-9B22-4119B16BFDF6fill_el" offset="100%" stop-color="#f0e68c" stop-opacity="1"/> 		</radialGradient> 		<radialGradient id="_1C61C631-5264-4CE7-9B22-4119B16BFDF6borderbackground" cx="10%" cy="10%" r="100%" fx="10%" fy="10%"> 			<stop offset="0%" stop-color="#ffffff" stop-opacity="1" id="_1C61C631-5264-4CE7-9B22-4119B16BFDF6__1C61C631-5264-4CE7-9B22-4119B16BFDF6_6"/> 			<stop id="_1C61C631-5264-4CE7-9B22-4119B16BFDF6fill_border" offset="100%" stop-color="#a67f00" stop-opacity="1" stroke="#a67f00"/> 		</radialGradient> 	</defs> 	     <path d=" M0 20.5  L20.5 0  L40 20.5  L20.5 40  z" id="_1C61C631-5264-4CE7-9B22-4119B16BFDF6bg_frame" fill="url(#_1C61C631-5264-4CE7-9B22-4119B16BFDF6background) white" style="stroke-width:1" stroke="#a67f00"/>     <g id="_1C61C631-5264-4CE7-9B22-4119B16BFDF6frame" stroke="#a67f00">       <path id="_1C61C631-5264-4CE7-9B22-4119B16BFDF6frame2" d=" M13.25 12.05  L17.25 12.05  L27.65 28.95  L23.75 28.95  z" style="stroke-width:1" stroke="#a67f00" fill="url(#_1C61C631-5264-4CE7-9B22-4119B16BFDF6borderbackground)"/>       <path id="_1C61C631-5264-4CE7-9B22-4119B16BFDF6frame3" d=" M13.25 28.95  L23.75 12.05  L27.65 12.05  L17.25 28.95  z" style="stroke-width:1" stroke="#a67f00" fill="url(#_1C61C631-5264-4CE7-9B22-4119B16BFDF6borderbackground)"/>     </g> 	 	<text id="_1C61C631-5264-4CE7-9B22-4119B16BFDF6text_name" x="30.5" y="30.5" oryx:align="left top" stroke-width="0pt" letter-spacing="-0.01px" fill="#000000" text-anchor="start" transform="rotate(0 30.5 30.5)" visibility="inherit" oryx:fontSize="12"/> 	   </g></g><g class="children" style="overflow:hidden"/><g class="edge"/></g><g class="controls"><g class="dockers"/><g class="magnets" transform="translate(1095, 424)"><g pointer-events="all" display="none" transform="translate(12.5, 12.5)"><circle cx="8" cy="8" r="4" stroke="none" fill="red" fill-opacity="0.3"/></g></g></g></g><g id="_340D5697-B6B2-468A-80D4-02A31F053418" bpmn2nodeid="_732CD082-EC09-42A3-9C92-75960C07BE76"><g class="stencils" transform="translate(1200, 430)"><g class="me"><g pointer-events="fill" id="_340D5697-B6B2-468A-80D4-02A31F053418">      <defs id="_340D5697-B6B2-468A-80D4-02A31F053418__340D5697-B6B2-468A-80D4-02A31F053418_5"> 		<radialGradient id="_340D5697-B6B2-468A-80D4-02A31F053418background" cx="10%" cy="10%" r="100%" fx="10%" fy="10%"> 			<stop offset="0%" stop-color="#ffffff" stop-opacity="1" id="_340D5697-B6B2-468A-80D4-02A31F053418__340D5697-B6B2-468A-80D4-02A31F053418_6"/> 			<stop id="_340D5697-B6B2-468A-80D4-02A31F053418fill_el" offset="100%" stop-color="#ff6347" stop-opacity="1"/> 		</radialGradient> 	</defs> 	     <circle id="_340D5697-B6B2-468A-80D4-02A31F053418bg_frame" cx="14" cy="14" r="14" stroke="#000000" fill="url(#_340D5697-B6B2-468A-80D4-02A31F053418background) white" stroke-width="3"/> 	<text font-size="11" id="_340D5697-B6B2-468A-80D4-02A31F053418text_name" x="14" y="30" oryx:align="top center" stroke="black" stroke-width="0pt" letter-spacing="-0.01px" fill="#000000" text-anchor="middle" transform="rotate(0 14 30)" visibility="inherit" oryx:fontSize="11"/>   </g></g><g class="children" style="overflow:hidden"/><g class="edge"/></g><g class="controls"><g class="dockers"/><g class="magnets" transform="translate(1200, 430)"><g pointer-events="all" display="none" transform="translate(6, 6)"><circle cx="8" cy="8" r="4" stroke="none" fill="red" fill-opacity="0.3"/></g></g></g></g></g><g class="edge"><g id="_EDBDDC09-AAFF-4D73-A022-1A08EE2A57A8" bpmn2nodeid="_A7902D16-9CD1-4D1A-BCF6-BA3567450B94"><g class="stencils"><g class="me"><g pointer-events="painted" bpmn2nodeid="_6CE48BE1-E2D1-4F0F-8F8D-722A9D679B2C"><path id="_EDBDDC09-AAFF-4D73-A022-1A08EE2A57A8_1" d="M355.21875 444L464.78125 444 " stroke="#000000" fill="none" stroke-width="2" stroke-linecap="round" stroke-linejoin="round" marker-start="url(#_EDBDDC09-AAFF-4D73-A022-1A08EE2A57A8start)" marker-end="url(#_EDBDDC09-AAFF-4D73-A022-1A08EE2A57A8end)"/></g><text id="_EDBDDC09-AAFF-4D73-A022-1A08EE2A57A8text_name" font-size="12" x="369.21875" y="430" oryx:edgePosition="startTop" stroke-width="0pt" letter-spacing="-0.01px" fill="#000000" text-anchor="start" transform="rotate(360 355.21875 444)" visibility="inherit" oryx:fontSize="12"/></g><g class="children" style="overflow:hidden"/><g class="edge"/></g><g class="controls"><g class="dockers"/><g class="magnets"/></g></g><g id="_1D09620D-11A3-4056-98D9-EA7E8397248E" bpmn2nodeid="_8A5187E9-B0B8-456A-88B6-1B780E070D3F"><g class="stencils"><g class="me"><g pointer-events="painted" bpmn2nodeid="_DCA22123-9859-4DE2-ADE4-4FBC03661FEE"><path id="_1D09620D-11A3-4056-98D9-EA7E8397248E_1" d="M177.078125 444L254.28125 444 " stroke="#000000" fill="none" stroke-width="2" stroke-linecap="round" stroke-linejoin="round" marker-start="url(#_1D09620D-11A3-4056-98D9-EA7E8397248Estart)" marker-end="url(#_1D09620D-11A3-4056-98D9-EA7E8397248Eend)"/></g><text id="_1D09620D-11A3-4056-98D9-EA7E8397248Etext_name" font-size="12" x="191.078125" y="430" oryx:edgePosition="startTop" stroke-width="0pt" letter-spacing="-0.01px" fill="#000000" text-anchor="start" transform="rotate(360 177.078125 444)" visibility="inherit" oryx:fontSize="12"/></g><g class="children" style="overflow:hidden"/><g class="edge"/></g><g class="controls"><g class="dockers"/><g class="magnets"/></g></g><g id="_4286EECF-4441-4C71-9F51-52E0079D779F" bpmn2nodeid="_7E9880C2-31AF-4AA9-BBE9-8F15AD79498D"><g class="stencils"><g class="me"><g pointer-events="painted" bpmn2nodeid="_6DEF8A7F-133D-4632-8E82-DFC606739FF3"><path id="_4286EECF-4441-4C71-9F51-52E0079D779F_1" d="M60 444L136.75 444 " stroke="#000000" fill="none" stroke-width="2" stroke-linecap="round" stroke-linejoin="round" marker-start="url(#_4286EECF-4441-4C71-9F51-52E0079D779Fstart)" marker-end="url(#_4286EECF-4441-4C71-9F51-52E0079D779Fend)"/></g><text id="_4286EECF-4441-4C71-9F51-52E0079D779Ftext_name" font-size="12" x="74" y="430" oryx:edgePosition="startTop" stroke-width="0pt" letter-spacing="-0.01px" fill="#000000" text-anchor="start" transform="rotate(360 60 444)" visibility="inherit" oryx:fontSize="12"/></g><g class="children" style="overflow:hidden"/><g class="edge"/></g><g class="controls"><g class="dockers"/><g class="magnets"/></g></g><g id="_66FF46C7-7147-4E65-9B73-AA67E994C3C3" bpmn2nodeid="_8D61B8C7-FDFD-4CFA-8008-7203C3ECE66A"><g class="stencils"><g class="me"><g pointer-events="painted" bpmn2nodeid="_5D45142B-A322-4D10-82BE-CAD7083A2140"><path id="_66FF46C7-7147-4E65-9B73-AA67E994C3C3_1" d="M1045.6875 444L1095.25 444 " stroke="#000000" fill="none" stroke-width="2" stroke-linecap="round" stroke-linejoin="round" marker-start="url(#_66FF46C7-7147-4E65-9B73-AA67E994C3C3start)" marker-end="url(#_66FF46C7-7147-4E65-9B73-AA67E994C3C3end)"/></g><text id="_66FF46C7-7147-4E65-9B73-AA67E994C3C3text_name" font-size="12" x="1059.6875" y="430" oryx:edgePosition="startTop" stroke-width="0pt" letter-spacing="-0.01px" fill="#000000" text-anchor="start" transform="rotate(360 1045.6875 444)" visibility="inherit" oryx:fontSize="12"/></g><g class="children" style="overflow:hidden"/><g class="edge"/></g><g class="controls"><g class="dockers"/><g class="magnets"/></g></g><g id="_5C41E07F-6616-49FD-AF24-736DC059CAE1" bpmn2nodeid="_39DB83AF-12B6-4062-8338-42927BBA975D"><g class="stencils"><g class="me"><g pointer-events="painted" bpmn2nodeid="_FEFFE1AF-68A3-4D7D-BE89-5A2F0CD74DFF"><path id="_5C41E07F-6616-49FD-AF24-736DC059CAE1_1" d="M1134.5625 444L1199.078125 444 " stroke="#000000" fill="none" stroke-width="2" stroke-linecap="round" stroke-linejoin="round" marker-start="url(#_5C41E07F-6616-49FD-AF24-736DC059CAE1start)" marker-end="url(#_5C41E07F-6616-49FD-AF24-736DC059CAE1end)"/></g><text id="_5C41E07F-6616-49FD-AF24-736DC059CAE1text_name" font-size="12" x="1148.5625" y="430" oryx:edgePosition="startTop" stroke-width="0pt" letter-spacing="-0.01px" fill="#000000" text-anchor="start" transform="rotate(360 1134.5625 444)" visibility="inherit" oryx:fontSize="12"/></g><g class="children" style="overflow:hidden"/><g class="edge"/></g><g class="controls"><g class="dockers"/><g class="magnets"/></g></g><g id="_79317C69-6BD8-492C-9AD3-48D87137D5EC" bpmn2nodeid="_7AF40A52-B95C-4EFE-A174-3A529100809C"><g class="stencils"><g class="me"><g pointer-events="painted" bpmn2nodeid="_346A2182-4F3B-41B3-A23D-B5FFE41EC286"><path id="_79317C69-6BD8-492C-9AD3-48D87137D5EC_1" d="M1115 424.484375L1115 286 L157 286 L157 424.484375 " stroke="#000000" fill="none" stroke-width="2" stroke-linecap="round" stroke-linejoin="round" marker-start="url(#_79317C69-6BD8-492C-9AD3-48D87137D5ECstart)" marker-end="url(#_79317C69-6BD8-492C-9AD3-48D87137D5ECend)"/></g><text id="_79317C69-6BD8-492C-9AD3-48D87137D5ECtext_name" font-size="12" x="1129" y="410.484375" oryx:edgePosition="startTop" stroke-width="0pt" letter-spacing="-0.01px" fill="#000000" text-anchor="start" transform="rotate(270 1115 424.484375)" visibility="inherit" oryx:fontSize="12"/></g><g class="children" style="overflow:hidden"/><g class="edge"/></g><g class="controls"><g class="dockers"/><g class="magnets"/></g></g><g id="_6C85B66E-0858-4F44-B4E2-F197150C5125" bpmn2nodeid="_03A5FDF3-9E33-4A3D-85F3-E4167573E9E8"><g class="stencils"><g class="me"><g pointer-events="painted" bpmn2nodeid="_03A5FDF3-9E33-4A3D-85F3-E4167573E9E8"><path id="_6C85B66E-0858-4F44-B4E2-F197150C5125_1" d="M565.6875 444L944.3125 444 " stroke="#000000" fill="none" stroke-width="2" stroke-linecap="round" stroke-linejoin="round" marker-start="url(#_6C85B66E-0858-4F44-B4E2-F197150C5125start)" marker-end="url(#_6C85B66E-0858-4F44-B4E2-F197150C5125end)"/></g><text id="_6C85B66E-0858-4F44-B4E2-F197150C5125text_name" font-size="12" x="579.6875" y="430" oryx:edgePosition="startTop" stroke-width="0pt" letter-spacing="-0.01px" fill="#000000" text-anchor="start" transform="rotate(360 565.6875 444)" visibility="inherit" oryx:fontSize="12"/></g><g class="children" style="overflow:hidden"/><g class="edge"/></g><g class="controls"><g class="dockers"/><g class="magnets"/></g></g></g><text id="_EC2AD0DE-273D-4153-9D43-BD16B766BD6D" style="stroke-width:1;fill:rgb(177,194,214);font-family:arial;font-weight:bold" font-size="12" onclick="ORYX.Plugins.CanvasTitle.openTextualAnalysis()" onmouseover="ORYX.Plugins.CanvasTitle.addToolTip('_EC2AD0DE-273D-4153-9D43-BD16B766BD6D')" transform="translate(10, 20)">Tarjetas v.1.0 (Opplus.Tarjetas)</text></g></g></svg>