<svg xmlns="http://www.w3.org/2000/svg" xmlns:oryx="http://oryx-editor.org" id="_297F5B45-82AC-48E3-BAAD-42AF0328A46B" width="711" height="261" xmlns:xlink="http://www.w3.org/1999/xlink" xmlns:svg="http://www.w3.org/2000/svg"><defs><marker id="_B97432BE-803E-4818-BE93-5FD32736DC35start" refX="1" refY="5" markerUnits="userSpaceOnUse" markerWidth="17" markerHeight="11" orient="auto" fill="#000000" stroke="#000000"> 	  		<path id="_B97432BE-803E-4818-BE93-5FD32736DC35conditional" d="M 0 5 L 8 0 L 16 5 L 8 10 L 0 5" fill="white" stroke="#000000" stroke-width="1" display="none"/> 			<path id="_B97432BE-803E-4818-BE93-5FD32736DC35default" d="M 5 0 L 11 10" fill="white" stroke="#000000" stroke-width="1" display="none"/> 	  	</marker><marker id="_B97432BE-803E-4818-BE93-5FD32736DC35end" refX="15" refY="6" markerUnits="userSpaceOnUse" markerWidth="15" markerHeight="12" orient="auto" fill="#000000" stroke="#000000"> 	  		<path id="_B97432BE-803E-4818-BE93-5FD32736DC35frame2" d="M 0 1 L 15 6 L 0 11z" fill="#000000" stroke="#000000" stroke-linejoin="round" stroke-width="2"/> 	  	</marker><marker id="_ACCCD80D-CE64-46BF-BA8C-FF2566606360start" refX="1" refY="5" markerUnits="userSpaceOnUse" markerWidth="17" markerHeight="11" orient="auto" fill="#000000" stroke="#000000"> 	  		<path id="_ACCCD80D-CE64-46BF-BA8C-FF2566606360conditional" d="M 0 5 L 8 0 L 16 5 L 8 10 L 0 5" fill="white" stroke="#000000" stroke-width="1" display="none"/> 			<path id="_ACCCD80D-CE64-46BF-BA8C-FF2566606360default" d="M 5 0 L 11 10" fill="white" stroke="#000000" stroke-width="1" display="none"/> 	  	</marker><marker id="_ACCCD80D-CE64-46BF-BA8C-FF2566606360end" refX="15" refY="6" markerUnits="userSpaceOnUse" markerWidth="15" markerHeight="12" orient="auto" fill="#000000" stroke="#000000"> 	  		<path id="_ACCCD80D-CE64-46BF-BA8C-FF2566606360frame2" d="M 0 1 L 15 6 L 0 11z" fill="#000000" stroke="#000000" stroke-linejoin="round" stroke-width="2"/> 	  	</marker><marker id="_880F6529-9F97-4649-9AE4-1E1A434D65B7start" refX="1" refY="5" markerUnits="userSpaceOnUse" markerWidth="17" markerHeight="11" orient="auto" fill="#000000" stroke="#000000"> 	  		<path id="_880F6529-9F97-4649-9AE4-1E1A434D65B7conditional" d="M 0 5 L 8 0 L 16 5 L 8 10 L 0 5" fill="white" stroke="#000000" stroke-width="1" display="none"/> 			<path id="_880F6529-9F97-4649-9AE4-1E1A434D65B7default" d="M 5 0 L 11 10" fill="white" stroke="#000000" stroke-width="1" display="none"/> 	  	</marker><marker id="_880F6529-9F97-4649-9AE4-1E1A434D65B7end" refX="15" refY="6" markerUnits="userSpaceOnUse" markerWidth="15" markerHeight="12" orient="auto" fill="#000000" stroke="#000000"> 	  		<path id="_880F6529-9F97-4649-9AE4-1E1A434D65B7frame2" d="M 0 1 L 15 6 L 0 11z" fill="#000000" stroke="#000000" stroke-linejoin="round" stroke-width="2"/> 	  	</marker><marker id="_45D9DFD6-D67E-49EE-AE6C-18ABEF3685F3start" refX="1" refY="5" markerUnits="userSpaceOnUse" markerWidth="17" markerHeight="11" orient="auto" fill="#000000" stroke="#000000"> 	  		<path id="_45D9DFD6-D67E-49EE-AE6C-18ABEF3685F3conditional" d="M 0 5 L 8 0 L 16 5 L 8 10 L 0 5" fill="white" stroke="#000000" stroke-width="1" display="none"/> 			<path id="_45D9DFD6-D67E-49EE-AE6C-18ABEF3685F3default" d="M 5 0 L 11 10" fill="white" stroke="#000000" stroke-width="1" display="none"/> 	  	</marker><marker id="_45D9DFD6-D67E-49EE-AE6C-18ABEF3685F3end" refX="15" refY="6" markerUnits="userSpaceOnUse" markerWidth="15" markerHeight="12" orient="auto" fill="#000000" stroke="#000000"> 	  		<path id="_45D9DFD6-D67E-49EE-AE6C-18ABEF3685F3frame2" d="M 0 1 L 15 6 L 0 11z" fill="#000000" stroke="#000000" stroke-linejoin="round" stroke-width="2"/> 	  	</marker></defs><g stroke="none" font-family="Verdana, sans-serif" font-size-adjust="none" font-style="normal" font-variant="normal" font-weight="normal" line-heigth="normal" font-size="12"><g class="stencils" transform="translate(16, 16)"><g class="me"/><g class="children"><g id="_C40194FC-48DB-4A57-8A0A-11E3F2CA13A4" bpmn2nodeid="processStartEvent"><g class="stencils" transform="translate(120, 165)"><g class="me"><g pointer-events="fill" id="_C40194FC-48DB-4A57-8A0A-11E3F2CA13A4">        <defs id="_C40194FC-48DB-4A57-8A0A-11E3F2CA13A4__C40194FC-48DB-4A57-8A0A-11E3F2CA13A4_5"> 		<radialGradient id="_C40194FC-48DB-4A57-8A0A-11E3F2CA13A4background" cx="10%" cy="10%" r="100%" fx="10%" fy="10%"> 			<stop offset="0%" stop-color="#ffffff" stop-opacity="1" id="_C40194FC-48DB-4A57-8A0A-11E3F2CA13A4__C40194FC-48DB-4A57-8A0A-11E3F2CA13A4_6"/> 			<stop id="_C40194FC-48DB-4A57-8A0A-11E3F2CA13A4fill_el" offset="100%" stop-color="#9acd32" stop-opacity="1"/> 		</radialGradient> 	</defs> 	     <circle id="_C40194FC-48DB-4A57-8A0A-11E3F2CA13A4bg_frame" cx="15" cy="15" r="15" stroke="#000000" fill="url(#_C40194FC-48DB-4A57-8A0A-11E3F2CA13A4background) white" stroke-width="1" style="stroke-dasharray: 5.5, 3"/>      <circle id="_C40194FC-48DB-4A57-8A0A-11E3F2CA13A4frame" cx="15" cy="15" r="15" stroke="#000000" fill="none" stroke-width="1" display="inherit"/>  	<text font-size="11" id="_C40194FC-48DB-4A57-8A0A-11E3F2CA13A4text_name" x="15" y="32" oryx:align="top center" stroke="black" stroke-width="0pt" letter-spacing="-0.01px" fill="#000000" text-anchor="middle" transform="rotate(0 15 32)" visibility="inherit" oryx:fontSize="11"/>   </g></g><g class="children" style="overflow:hidden"/><g class="edge"/></g><g class="controls"><g class="dockers"/><g class="magnets" transform="translate(120, 165)"><g pointer-events="all" display="none" transform="translate(7, 7)"><circle cx="8" cy="8" r="4" stroke="none" fill="red" fill-opacity="0.3"/></g></g></g></g><g id="_CCB32384-6188-4FC4-97B2-C042F61898EF" bpmn2nodeid="_F03734A3-BA51-4D9B-984E-2C94F634AC4A"><g class="stencils" transform="translate(210, 140)"><g class="me"><g pointer-events="fill" oryx:minimumSize="50 40" id="_CCB32384-6188-4FC4-97B2-C042F61898EF">   	<defs id="_CCB32384-6188-4FC4-97B2-C042F61898EF__CCB32384-6188-4FC4-97B2-C042F61898EF_17"> 		<radialGradient id="_CCB32384-6188-4FC4-97B2-C042F61898EFbackground" cx="10%" cy="10%" r="100%" fx="10%" fy="10%"> 			<stop offset="0%" stop-color="#ffffff" stop-opacity="1" id="_CCB32384-6188-4FC4-97B2-C042F61898EF__CCB32384-6188-4FC4-97B2-C042F61898EF_18"/> 			<stop id="_CCB32384-6188-4FC4-97B2-C042F61898EFfill_el" offset="100%" stop-color="#fafad2" stop-opacity="1"/> 		</radialGradient> 		<radialGradient id="_CCB32384-6188-4FC4-97B2-C042F61898EFborderbackground" cx="10%" cy="10%" r="100%" fx="10%" fy="10%"> 			<stop offset="0%" stop-color="#ffffff" stop-opacity="1" id="_CCB32384-6188-4FC4-97B2-C042F61898EF__CCB32384-6188-4FC4-97B2-C042F61898EF_19"/> 			<stop id="_CCB32384-6188-4FC4-97B2-C042F61898EFfill_border" offset="100%" stop-color="#000000" stop-opacity="1" stroke="#000000"/> 		</radialGradient> 	</defs> 	 	<rect id="_CCB32384-6188-4FC4-97B2-C042F61898EFtext_frame" oryx:anchors="bottom top right left" x="1" y="1" width="94" height="79" rx="10" ry="10" stroke="none" stroke-width="0" fill="none"/> 	<rect id="_CCB32384-6188-4FC4-97B2-C042F61898EFbg_frame" oryx:resize="vertical horizontal" x="0" y="0" width="100" height="80" rx="10" ry="10" stroke="#000000" stroke-width="1" fill="url(#_CCB32384-6188-4FC4-97B2-C042F61898EFbackground) #ffffcc"/> 		<text font-size="12" id="_CCB32384-6188-4FC4-97B2-C042F61898EFtext_name" x="50" y="40" oryx:align="middle center" oryx:fittoelem="text_frame" stroke="black" text-anchor="middle" stroke-width="0pt" letter-spacing="-0.01px" fill="#000000" transform="rotate(0 50 40)" visibility="inherit" oryx:fontSize="12"><tspan x="50" y="40" dy="5" id="ext-gen858">Tarea Prueba 1</tspan></text>     <g id="_CCB32384-6188-4FC4-97B2-C042F61898EFmanualTask" transform="scale(0.7,0.7) translate(8,8)" display="none">     	<path oryx:anchors="top left" id="_CCB32384-6188-4FC4-97B2-C042F61898EFframe" style="opacity:1;fill:none;fill-opacity:1;stroke-width:1" d="M0.5,3.751l4.083-3.25c0,0,11.166,0.083,12.083,0.083s-2.417,2.917-1.5,2.917     s11.667,0,12.584,0c1.166,1.708-0.168,3.167-0.834,3.667s0.875,1.917-1,4.417c-0.75,0.25,0.75,1.875-1.333,3.333     c-1.167,0.583,0.583,1.542-1.25,2.833c-1.167,0-20.833,0.083-20.833,0.083l-2-1.333V3.751z" stroke="#000000"/> 		<path id="_CCB32384-6188-4FC4-97B2-C042F61898EFframe2" oryx:anchors="top left" style="opacity:1;fill:none;stroke-width:2" d="M 13.5 7 L 27 7" stroke="#000000"/> 		<path id="_CCB32384-6188-4FC4-97B2-C042F61898EFframe3" oryx:anchors="top left" style="opacity:1;fill:none;stroke-width:2" d="M 13.5 11 L 26 11" stroke="#000000"/> 		<path id="_CCB32384-6188-4FC4-97B2-C042F61898EFframe4" oryx:anchors="top left" style="opacity:1;fill:none;stroke-width:1.5" d="M 14 14.5 L 25 14.5" stroke="#000000"/> 		<path id="_CCB32384-6188-4FC4-97B2-C042F61898EFframe5" oryx:anchors="top left" style="opacity:1;fill:none;stroke-width:1.5" d="M 8.2 3.1 L 15 3.1" stroke="#000000"/> 	</g> 	 	<g id="_CCB32384-6188-4FC4-97B2-C042F61898EFbusinessRuleTask" transform="scale(0.7,0.7) translate(8,8)" display="none"> 		<rect id="_CCB32384-6188-4FC4-97B2-C042F61898EFframe6" oryx:anchors="top left" x="0" y="0" width="22" height="4" style="opacity:1;fill:#B3B1B3;fill-opacity:1;" stroke="#000000"/> 		<rect id="_CCB32384-6188-4FC4-97B2-C042F61898EFframe7" oryx:anchors="top left" x="0" y="4" style="opacity:1;fill:none;" width="22" height="12" stroke="#000000"/> 		<path id="_CCB32384-6188-4FC4-97B2-C042F61898EFframe8" oryx:anchors="top left" style="opacity:1;fill:none;" d="M 0 10 L 22 10" stroke="#000000"/> 		<path id="_CCB32384-6188-4FC4-97B2-C042F61898EFframe9" oryx:anchors="top left" style="opacity:1; fill:none;" d="M 7 4 L 7 16" stroke="#000000"/> 	</g> 	 	<g id="_CCB32384-6188-4FC4-97B2-C042F61898EFscriptTask" transform="scale(0.7,0.7) translate(8,8)" display="none"> 		<path oryx:anchors="top left" id="_CCB32384-6188-4FC4-97B2-C042F61898EFframe10" style="opacity:1;fill:none;" stroke="#000000" d="M6.402,0.5h14.5c0,0-5.833,2.833-5.833,5.583s4.417,6,4.417,9.167    s-4.167,5.083-4.167,5.083H0.235c0,0,5-2.667,5-5s-4.583-6.75-4.583-9.25S6.402,0.5,6.402,0.5z"/> 		<path oryx:anchors="top left" id="_CCB32384-6188-4FC4-97B2-C042F61898EFframe11" style="opacity:1;fill:none;stroke-width:1.5" d="M 3.5 4.5 L 13.5 4.5" stroke="#000000"/> 		<path oryx:anchors="top left" id="_CCB32384-6188-4FC4-97B2-C042F61898EFframe12" style="opacity:1;fill:none;stroke-width:1.5" d="M 3.8 8.5 L 13.8 8.5" stroke="#000000"/> 		<path oryx:anchors="top left" id="_CCB32384-6188-4FC4-97B2-C042F61898EFframe13" style="opacity:1;fill:none;stroke-width:1.5" d="M 6.3 12.5 L 16.3 12.5" stroke="#000000"/> 		<path oryx:anchors="top left" id="_CCB32384-6188-4FC4-97B2-C042F61898EFframe14" style="opacity:1;fill:none;stroke-width:1.5" d="M 6.5 16.5 L 16.5 16.5" stroke="#000000"/> 	</g> 	 	<g id="_CCB32384-6188-4FC4-97B2-C042F61898EFuserTask" transform="scale(0.7,0.7) translate(8,8)" display="inherit"> 		<path id="_CCB32384-6188-4FC4-97B2-C042F61898EFframe15" oryx:anchors="top left" style="opacity:1;fill:#F4F6F7" stroke="#000000" d="M0.585,24.167h24.083v-7.833c0,0-2.333-3.917-7.083-5.167h-9.25    c-4.417,1.333-7.833,5.75-7.833,5.75L0.585,24.167z"/> 		<path id="_CCB32384-6188-4FC4-97B2-C042F61898EFframe16" oryx:anchors="top left" style="opacity:1;fill:none" d="M 6 20 L 6 24" stroke="#000000"/> 		<path id="_CCB32384-6188-4FC4-97B2-C042F61898EFframe17" oryx:anchors="top left" style="opacity:1;fill:none" d="M 20 20 L 20 24" stroke="#000000"/> 		<circle id="_CCB32384-6188-4FC4-97B2-C042F61898EFframe18" oryx:anchors="top left" fill="black" cx="13.002" cy="5.916" r="5.417" stroke="#000000"/> 		<path id="_CCB32384-6188-4FC4-97B2-C042F61898EFframe19" oryx:anchors="top left" style="opacity:1;fill:#F0EFF0;" stroke="#000000" d="M8.043,7.083c0,0,2.814-2.426,5.376-1.807s4.624-0.693,4.624-0.693    c0.25,1.688,0.042,3.75-1.458,5.584c0,0,1.083,0.75,1.083,1.5s0.125,1.875-1,3s-5.5,1.25-6.75,0S8.668,12.834,8.668,12    s0.583-1.25,1.25-1.917C8.835,9.5,7.419,7.708,8.043,7.083z"/> 	</g> 	 	<g id="_CCB32384-6188-4FC4-97B2-C042F61898EFserviceTask" transform="scale(0.7,0.7) translate(8,8)" display="none"> 		<polygon oryx:anchors="top left" id="_CCB32384-6188-4FC4-97B2-C042F61898EFframe20" style="opacity:1;fill:#ffffff" stroke="#000000" points="15.392,5.064 17.954,2.502 20.347,4.895 17.786,7.455     18.729,9.732 22.353,9.732 22.353,13.115 18.731,13.115 17.788,15.392 20.351,17.955 17.958,20.347 15.397,17.786 13.12,18.729     13.12,22.353 9.737,22.353 9.737,18.731 7.46,17.788 4.897,20.35 2.506,17.958 5.066,15.397 4.124,13.12 0.5,13.12 0.5,9.737     4.121,9.737 5.065,7.461 2.503,4.898 4.895,2.506 7.455,5.066 9.732,4.125 9.732,0.5 13.116,0.5 13.116,4.121 "/> 		<circle oryx:anchors="top left" id="_CCB32384-6188-4FC4-97B2-C042F61898EFframe21" style="opacity:1;fill:none" stroke="#000000" cx="11.427" cy="11.426" r="3.714"/> 		<polygon oryx:anchors="top left" id="_CCB32384-6188-4FC4-97B2-C042F61898EFframe22" style="opacity:1;fill:#ffffff" stroke="#000000" points="21.392,11.064 23.954,8.502 26.347,10.895 23.786,13.455     24.729,15.732 28.353,15.732 28.353,19.115 24.731,19.115 23.788,21.392 26.351,23.955 23.958,26.347 21.397,23.786 19.12,24.729     19.12,28.353 15.737,28.353 15.737,24.731 13.46,23.788 10.897,26.35 8.506,23.958 11.066,21.397 10.124,19.12 6.5,19.12     6.5,15.737 10.121,15.737 11.065,13.461 8.503,10.898 10.895,8.506 13.455,11.066 15.732,10.125 15.732,6.5 19.116,6.5     19.116,10.121 "/> 		<circle oryx:anchors="top left" id="_CCB32384-6188-4FC4-97B2-C042F61898EFframe23" style="opacity:1;fill:none;" stroke="#000000" cx="17.427" cy="17.426" r="3.714"/> 	</g> 	 	<g id="_CCB32384-6188-4FC4-97B2-C042F61898EFsendTask" display="none"> 		<path id="_CCB32384-6188-4FC4-97B2-C042F61898EFstframe24" oryx:anchors="left top" stroke="#FFFFFF" fill="black" stroke-width="1" d="M8,11 L8,21 L24,21 L24,11 L16,17z"/> 		<path id="_CCB32384-6188-4FC4-97B2-C042F61898EFstframe25" oryx:anchors="left top" stroke="#FFFFFF" fill="black" stroke-width="1" d="M7,10 L16,17 L25 10z"/> 	</g> 	 	<g id="_CCB32384-6188-4FC4-97B2-C042F61898EFreceiveTask" display="none"> 		<path id="_CCB32384-6188-4FC4-97B2-C042F61898EFframe26" oryx:anchors="left top" stroke="#000000" fill="none" stroke-width="1" d="M8,11 L8,21 L24,21 L24,11z M8,11 L16,17 L24,11"/> 	</g> 	 	<g id="_CCB32384-6188-4FC4-97B2-C042F61898EFnone" display="inherit"/>  	<g id="_CCB32384-6188-4FC4-97B2-C042F61898EFsequential" display="none">         <path oryx:anchors="bottom" fill="none" stroke="#000000" stroke-width="2" d="M46,76h10M46,72h10 M46,68h10" id="_CCB32384-6188-4FC4-97B2-C042F61898EF__CCB32384-6188-4FC4-97B2-C042F61898EF_20"/>     </g>   </g></g><g class="children" style="overflow:hidden"/><g class="edge"/></g><g class="controls"><g class="dockers"/><g class="magnets" transform="translate(210, 140)"><g pointer-events="all" display="none" transform="translate(-7, 12)"><circle cx="8" cy="8" r="4" stroke="none" fill="red" fill-opacity="0.3"/></g><g pointer-events="all" display="none" transform="translate(-7, 32)"><circle cx="8" cy="8" r="4" stroke="none" fill="red" fill-opacity="0.3"/></g><g pointer-events="all" display="none" transform="translate(-7, 52)"><circle cx="8" cy="8" r="4" stroke="none" fill="red" fill-opacity="0.3"/></g><g pointer-events="all" display="none" transform="translate(17, 71)"><circle cx="8" cy="8" r="4" stroke="none" fill="red" fill-opacity="0.3"/></g><g pointer-events="all" display="none" transform="translate(42, 71)"><circle cx="8" cy="8" r="4" stroke="none" fill="red" fill-opacity="0.3"/></g><g pointer-events="all" display="none" transform="translate(67, 71)"><circle cx="8" cy="8" r="4" stroke="none" fill="red" fill-opacity="0.3"/></g><g pointer-events="all" display="none" transform="translate(91, 12)"><circle cx="8" cy="8" r="4" stroke="none" fill="red" fill-opacity="0.3"/></g><g pointer-events="all" display="none" transform="translate(91, 32)"><circle cx="8" cy="8" r="4" stroke="none" fill="red" fill-opacity="0.3"/></g><g pointer-events="all" display="none" transform="translate(91, 52)"><circle cx="8" cy="8" r="4" stroke="none" fill="red" fill-opacity="0.3"/></g><g pointer-events="all" display="none" transform="translate(17, -7)"><circle cx="8" cy="8" r="4" stroke="none" fill="red" fill-opacity="0.3"/></g><g pointer-events="all" display="none" transform="translate(42, -7)"><circle cx="8" cy="8" r="4" stroke="none" fill="red" fill-opacity="0.3"/></g><g pointer-events="all" display="none" transform="translate(67, -7)"><circle cx="8" cy="8" r="4" stroke="none" fill="red" fill-opacity="0.3"/></g><g pointer-events="all" display="none" transform="translate(42, 32)"><circle cx="8" cy="8" r="4" stroke="none" fill="red" fill-opacity="0.3"/></g></g></g></g><g id="_4D5CE86A-B339-4D63-80D2-36CB7E2E5750" bpmn2nodeid="_F57330B7-44D2-4C8B-8FA5-E2E99ADFDE34"><g class="stencils" transform="translate(355, 160)"><g class="me"><g id="_4D5CE86A-B339-4D63-80D2-36CB7E2E5750">        <defs id="_4D5CE86A-B339-4D63-80D2-36CB7E2E5750__4D5CE86A-B339-4D63-80D2-36CB7E2E5750_4"> 		<radialGradient id="_4D5CE86A-B339-4D63-80D2-36CB7E2E5750background" cx="10%" cy="10%" r="100%" fx="10%" fy="10%"> 			<stop offset="0%" stop-color="#ffffff" stop-opacity="1" id="_4D5CE86A-B339-4D63-80D2-36CB7E2E5750__4D5CE86A-B339-4D63-80D2-36CB7E2E5750_5"/> 			<stop id="_4D5CE86A-B339-4D63-80D2-36CB7E2E5750fill_el" offset="100%" stop-color="#f0e68c" stop-opacity="1"/> 		</radialGradient> 		<radialGradient id="_4D5CE86A-B339-4D63-80D2-36CB7E2E5750borderbackground" cx="10%" cy="10%" r="100%" fx="10%" fy="10%"> 			<stop offset="0%" stop-color="#ffffff" stop-opacity="1" id="_4D5CE86A-B339-4D63-80D2-36CB7E2E5750__4D5CE86A-B339-4D63-80D2-36CB7E2E5750_6"/> 			<stop id="_4D5CE86A-B339-4D63-80D2-36CB7E2E5750fill_border" offset="100%" stop-color="#a67f00" stop-opacity="1" stroke="#a67f00"/> 		</radialGradient> 	</defs> 	     <path d=" M0 20.5  L20.5 0  L40 20.5  L20.5 40  z" id="_4D5CE86A-B339-4D63-80D2-36CB7E2E5750bg_frame" fill="url(#_4D5CE86A-B339-4D63-80D2-36CB7E2E5750background) white" style="stroke-width:1" stroke="#a67f00"/>     <g id="_4D5CE86A-B339-4D63-80D2-36CB7E2E5750frame" stroke="#a67f00">       <path id="_4D5CE86A-B339-4D63-80D2-36CB7E2E5750frame2" d=" M13.25 12.05  L17.25 12.05  L27.65 28.95  L23.75 28.95  z" style="stroke-width:1" stroke="#a67f00" fill="url(#_4D5CE86A-B339-4D63-80D2-36CB7E2E5750borderbackground)"/>       <path id="_4D5CE86A-B339-4D63-80D2-36CB7E2E5750frame3" d=" M13.25 28.95  L23.75 12.05  L27.65 12.05  L17.25 28.95  z" style="stroke-width:1" stroke="#a67f00" fill="url(#_4D5CE86A-B339-4D63-80D2-36CB7E2E5750borderbackground)"/>     </g> 	 	<text id="_4D5CE86A-B339-4D63-80D2-36CB7E2E5750text_name" x="30.5" y="30.5" oryx:align="left top" stroke-width="0pt" letter-spacing="-0.01px" fill="#000000" text-anchor="start" transform="rotate(0 30.5 30.5)" visibility="inherit" oryx:fontSize="12"/> 	   </g></g><g class="children" style="overflow:hidden"/><g class="edge"/></g><g class="controls"><g class="dockers"/><g class="magnets" transform="translate(355, 160)"><g pointer-events="all" display="none" transform="translate(12.5, 12.5)"><circle cx="8" cy="8" r="4" stroke="none" fill="red" fill-opacity="0.3"/></g></g></g></g><g id="_497D8CDB-FC3A-4F21-9F68-297C3A925C71" bpmn2nodeid="_67DC32E5-7F08-49C9-8CEF-3C5C69117A12"><g class="stencils" transform="translate(440, 140)"><g class="me"><g pointer-events="fill" oryx:minimumSize="50 40" id="_497D8CDB-FC3A-4F21-9F68-297C3A925C71">   	<defs id="_497D8CDB-FC3A-4F21-9F68-297C3A925C71__497D8CDB-FC3A-4F21-9F68-297C3A925C71_17"> 		<radialGradient id="_497D8CDB-FC3A-4F21-9F68-297C3A925C71background" cx="10%" cy="10%" r="100%" fx="10%" fy="10%"> 			<stop offset="0%" stop-color="#ffffff" stop-opacity="1" id="_497D8CDB-FC3A-4F21-9F68-297C3A925C71__497D8CDB-FC3A-4F21-9F68-297C3A925C71_18"/> 			<stop id="_497D8CDB-FC3A-4F21-9F68-297C3A925C71fill_el" offset="100%" stop-color="#fafad2" stop-opacity="1"/> 		</radialGradient> 		<radialGradient id="_497D8CDB-FC3A-4F21-9F68-297C3A925C71borderbackground" cx="10%" cy="10%" r="100%" fx="10%" fy="10%"> 			<stop offset="0%" stop-color="#ffffff" stop-opacity="1" id="_497D8CDB-FC3A-4F21-9F68-297C3A925C71__497D8CDB-FC3A-4F21-9F68-297C3A925C71_19"/> 			<stop id="_497D8CDB-FC3A-4F21-9F68-297C3A925C71fill_border" offset="100%" stop-color="#000000" stop-opacity="1" stroke="#000000"/> 		</radialGradient> 	</defs> 	 	<rect id="_497D8CDB-FC3A-4F21-9F68-297C3A925C71text_frame" oryx:anchors="bottom top right left" x="1" y="1" width="94" height="79" rx="10" ry="10" stroke="none" stroke-width="0" fill="none"/> 	<rect id="_497D8CDB-FC3A-4F21-9F68-297C3A925C71bg_frame" oryx:resize="vertical horizontal" x="0" y="0" width="100" height="80" rx="10" ry="10" stroke="#000000" stroke-width="1" fill="url(#_497D8CDB-FC3A-4F21-9F68-297C3A925C71background) #ffffcc"/> 		<text font-size="12" id="_497D8CDB-FC3A-4F21-9F68-297C3A925C71text_name" x="50" y="40" oryx:align="middle center" oryx:fittoelem="text_frame" stroke="black" text-anchor="middle" stroke-width="0pt" letter-spacing="-0.01px" fill="#000000" transform="rotate(0 50 40)" visibility="inherit" oryx:fontSize="12"><tspan x="50" y="40" dy="5" id="ext-gen811">Tarea Prueba 2</tspan></text>     <g id="_497D8CDB-FC3A-4F21-9F68-297C3A925C71manualTask" transform="scale(0.7,0.7) translate(8,8)" display="none">     	<path oryx:anchors="top left" id="_497D8CDB-FC3A-4F21-9F68-297C3A925C71frame" style="opacity:1;fill:none;fill-opacity:1;stroke-width:1" d="M0.5,3.751l4.083-3.25c0,0,11.166,0.083,12.083,0.083s-2.417,2.917-1.5,2.917     s11.667,0,12.584,0c1.166,1.708-0.168,3.167-0.834,3.667s0.875,1.917-1,4.417c-0.75,0.25,0.75,1.875-1.333,3.333     c-1.167,0.583,0.583,1.542-1.25,2.833c-1.167,0-20.833,0.083-20.833,0.083l-2-1.333V3.751z" stroke="#000000"/> 		<path id="_497D8CDB-FC3A-4F21-9F68-297C3A925C71frame2" oryx:anchors="top left" style="opacity:1;fill:none;stroke-width:2" d="M 13.5 7 L 27 7" stroke="#000000"/> 		<path id="_497D8CDB-FC3A-4F21-9F68-297C3A925C71frame3" oryx:anchors="top left" style="opacity:1;fill:none;stroke-width:2" d="M 13.5 11 L 26 11" stroke="#000000"/> 		<path id="_497D8CDB-FC3A-4F21-9F68-297C3A925C71frame4" oryx:anchors="top left" style="opacity:1;fill:none;stroke-width:1.5" d="M 14 14.5 L 25 14.5" stroke="#000000"/> 		<path id="_497D8CDB-FC3A-4F21-9F68-297C3A925C71frame5" oryx:anchors="top left" style="opacity:1;fill:none;stroke-width:1.5" d="M 8.2 3.1 L 15 3.1" stroke="#000000"/> 	</g> 	 	<g id="_497D8CDB-FC3A-4F21-9F68-297C3A925C71businessRuleTask" transform="scale(0.7,0.7) translate(8,8)" display="none"> 		<rect id="_497D8CDB-FC3A-4F21-9F68-297C3A925C71frame6" oryx:anchors="top left" x="0" y="0" width="22" height="4" style="opacity:1;fill:#B3B1B3;fill-opacity:1;" stroke="#000000"/> 		<rect id="_497D8CDB-FC3A-4F21-9F68-297C3A925C71frame7" oryx:anchors="top left" x="0" y="4" style="opacity:1;fill:none;" width="22" height="12" stroke="#000000"/> 		<path id="_497D8CDB-FC3A-4F21-9F68-297C3A925C71frame8" oryx:anchors="top left" style="opacity:1;fill:none;" d="M 0 10 L 22 10" stroke="#000000"/> 		<path id="_497D8CDB-FC3A-4F21-9F68-297C3A925C71frame9" oryx:anchors="top left" style="opacity:1; fill:none;" d="M 7 4 L 7 16" stroke="#000000"/> 	</g> 	 	<g id="_497D8CDB-FC3A-4F21-9F68-297C3A925C71scriptTask" transform="scale(0.7,0.7) translate(8,8)" display="none"> 		<path oryx:anchors="top left" id="_497D8CDB-FC3A-4F21-9F68-297C3A925C71frame10" style="opacity:1;fill:none;" stroke="#000000" d="M6.402,0.5h14.5c0,0-5.833,2.833-5.833,5.583s4.417,6,4.417,9.167    s-4.167,5.083-4.167,5.083H0.235c0,0,5-2.667,5-5s-4.583-6.75-4.583-9.25S6.402,0.5,6.402,0.5z"/> 		<path oryx:anchors="top left" id="_497D8CDB-FC3A-4F21-9F68-297C3A925C71frame11" style="opacity:1;fill:none;stroke-width:1.5" d="M 3.5 4.5 L 13.5 4.5" stroke="#000000"/> 		<path oryx:anchors="top left" id="_497D8CDB-FC3A-4F21-9F68-297C3A925C71frame12" style="opacity:1;fill:none;stroke-width:1.5" d="M 3.8 8.5 L 13.8 8.5" stroke="#000000"/> 		<path oryx:anchors="top left" id="_497D8CDB-FC3A-4F21-9F68-297C3A925C71frame13" style="opacity:1;fill:none;stroke-width:1.5" d="M 6.3 12.5 L 16.3 12.5" stroke="#000000"/> 		<path oryx:anchors="top left" id="_497D8CDB-FC3A-4F21-9F68-297C3A925C71frame14" style="opacity:1;fill:none;stroke-width:1.5" d="M 6.5 16.5 L 16.5 16.5" stroke="#000000"/> 	</g> 	 	<g id="_497D8CDB-FC3A-4F21-9F68-297C3A925C71userTask" transform="scale(0.7,0.7) translate(8,8)" display="none"> 		<path id="_497D8CDB-FC3A-4F21-9F68-297C3A925C71frame15" oryx:anchors="top left" style="opacity:1;fill:#F4F6F7" stroke="#000000" d="M0.585,24.167h24.083v-7.833c0,0-2.333-3.917-7.083-5.167h-9.25    c-4.417,1.333-7.833,5.75-7.833,5.75L0.585,24.167z"/> 		<path id="_497D8CDB-FC3A-4F21-9F68-297C3A925C71frame16" oryx:anchors="top left" style="opacity:1;fill:none" d="M 6 20 L 6 24" stroke="#000000"/> 		<path id="_497D8CDB-FC3A-4F21-9F68-297C3A925C71frame17" oryx:anchors="top left" style="opacity:1;fill:none" d="M 20 20 L 20 24" stroke="#000000"/> 		<circle id="_497D8CDB-FC3A-4F21-9F68-297C3A925C71frame18" oryx:anchors="top left" fill="black" cx="13.002" cy="5.916" r="5.417" stroke="#000000"/> 		<path id="_497D8CDB-FC3A-4F21-9F68-297C3A925C71frame19" oryx:anchors="top left" style="opacity:1;fill:#F0EFF0;" stroke="#000000" d="M8.043,7.083c0,0,2.814-2.426,5.376-1.807s4.624-0.693,4.624-0.693    c0.25,1.688,0.042,3.75-1.458,5.584c0,0,1.083,0.75,1.083,1.5s0.125,1.875-1,3s-5.5,1.25-6.75,0S8.668,12.834,8.668,12    s0.583-1.25,1.25-1.917C8.835,9.5,7.419,7.708,8.043,7.083z"/> 	</g> 	 	<g id="_497D8CDB-FC3A-4F21-9F68-297C3A925C71serviceTask" transform="scale(0.7,0.7) translate(8,8)" display="none"> 		<polygon oryx:anchors="top left" id="_497D8CDB-FC3A-4F21-9F68-297C3A925C71frame20" style="opacity:1;fill:#ffffff" stroke="#000000" points="15.392,5.064 17.954,2.502 20.347,4.895 17.786,7.455     18.729,9.732 22.353,9.732 22.353,13.115 18.731,13.115 17.788,15.392 20.351,17.955 17.958,20.347 15.397,17.786 13.12,18.729     13.12,22.353 9.737,22.353 9.737,18.731 7.46,17.788 4.897,20.35 2.506,17.958 5.066,15.397 4.124,13.12 0.5,13.12 0.5,9.737     4.121,9.737 5.065,7.461 2.503,4.898 4.895,2.506 7.455,5.066 9.732,4.125 9.732,0.5 13.116,0.5 13.116,4.121 "/> 		<circle oryx:anchors="top left" id="_497D8CDB-FC3A-4F21-9F68-297C3A925C71frame21" style="opacity:1;fill:none" stroke="#000000" cx="11.427" cy="11.426" r="3.714"/> 		<polygon oryx:anchors="top left" id="_497D8CDB-FC3A-4F21-9F68-297C3A925C71frame22" style="opacity:1;fill:#ffffff" stroke="#000000" points="21.392,11.064 23.954,8.502 26.347,10.895 23.786,13.455     24.729,15.732 28.353,15.732 28.353,19.115 24.731,19.115 23.788,21.392 26.351,23.955 23.958,26.347 21.397,23.786 19.12,24.729     19.12,28.353 15.737,28.353 15.737,24.731 13.46,23.788 10.897,26.35 8.506,23.958 11.066,21.397 10.124,19.12 6.5,19.12     6.5,15.737 10.121,15.737 11.065,13.461 8.503,10.898 10.895,8.506 13.455,11.066 15.732,10.125 15.732,6.5 19.116,6.5     19.116,10.121 "/> 		<circle oryx:anchors="top left" id="_497D8CDB-FC3A-4F21-9F68-297C3A925C71frame23" style="opacity:1;fill:none;" stroke="#000000" cx="17.427" cy="17.426" r="3.714"/> 	</g> 	 	<g id="_497D8CDB-FC3A-4F21-9F68-297C3A925C71sendTask" display="none"> 		<path id="_497D8CDB-FC3A-4F21-9F68-297C3A925C71stframe24" oryx:anchors="left top" stroke="#FFFFFF" fill="black" stroke-width="1" d="M8,11 L8,21 L24,21 L24,11 L16,17z"/> 		<path id="_497D8CDB-FC3A-4F21-9F68-297C3A925C71stframe25" oryx:anchors="left top" stroke="#FFFFFF" fill="black" stroke-width="1" d="M7,10 L16,17 L25 10z"/> 	</g> 	 	<g id="_497D8CDB-FC3A-4F21-9F68-297C3A925C71receiveTask" display="none"> 		<path id="_497D8CDB-FC3A-4F21-9F68-297C3A925C71frame26" oryx:anchors="left top" stroke="#000000" fill="none" stroke-width="1" d="M8,11 L8,21 L24,21 L24,11z M8,11 L16,17 L24,11"/> 	</g> 	 	<g id="_497D8CDB-FC3A-4F21-9F68-297C3A925C71none" display="inherit"/>  	<g id="_497D8CDB-FC3A-4F21-9F68-297C3A925C71sequential" display="none">         <path oryx:anchors="bottom" fill="none" stroke="#000000" stroke-width="2" d="M46,76h10M46,72h10 M46,68h10" id="_497D8CDB-FC3A-4F21-9F68-297C3A925C71__497D8CDB-FC3A-4F21-9F68-297C3A925C71_20"/>     </g>   </g></g><g class="children" style="overflow:hidden"/><g class="edge"/></g><g class="controls"><g class="dockers"/><g class="magnets" transform="translate(440, 140)"><g pointer-events="all" display="none" transform="translate(-7, 12)"><circle cx="8" cy="8" r="4" stroke="none" fill="red" fill-opacity="0.3"/></g><g pointer-events="all" display="none" transform="translate(-7, 32)"><circle cx="8" cy="8" r="4" stroke="none" fill="red" fill-opacity="0.3"/></g><g pointer-events="all" display="none" transform="translate(-7, 52)"><circle cx="8" cy="8" r="4" stroke="none" fill="red" fill-opacity="0.3"/></g><g pointer-events="all" display="none" transform="translate(17, 71)"><circle cx="8" cy="8" r="4" stroke="none" fill="red" fill-opacity="0.3"/></g><g pointer-events="all" display="none" transform="translate(42, 71)"><circle cx="8" cy="8" r="4" stroke="none" fill="red" fill-opacity="0.3"/></g><g pointer-events="all" display="none" transform="translate(67, 71)"><circle cx="8" cy="8" r="4" stroke="none" fill="red" fill-opacity="0.3"/></g><g pointer-events="all" display="none" transform="translate(91, 12)"><circle cx="8" cy="8" r="4" stroke="none" fill="red" fill-opacity="0.3"/></g><g pointer-events="all" display="none" transform="translate(91, 32)"><circle cx="8" cy="8" r="4" stroke="none" fill="red" fill-opacity="0.3"/></g><g pointer-events="all" display="none" transform="translate(91, 52)"><circle cx="8" cy="8" r="4" stroke="none" fill="red" fill-opacity="0.3"/></g><g pointer-events="all" display="none" transform="translate(17, -7)"><circle cx="8" cy="8" r="4" stroke="none" fill="red" fill-opacity="0.3"/></g><g pointer-events="all" display="none" transform="translate(42, -7)"><circle cx="8" cy="8" r="4" stroke="none" fill="red" fill-opacity="0.3"/></g><g pointer-events="all" display="none" transform="translate(67, -7)"><circle cx="8" cy="8" r="4" stroke="none" fill="red" fill-opacity="0.3"/></g><g pointer-events="all" display="none" transform="translate(42, 32)"><circle cx="8" cy="8" r="4" stroke="none" fill="red" fill-opacity="0.3"/></g></g></g></g><g id="_58802F29-EBA6-409D-B2C1-83CD507794F7" bpmn2nodeid="_A59B5CE5-9E51-43BB-BE6C-17D746A3E04A"><g class="stencils" transform="translate(585, 166)"><g class="me"><g pointer-events="fill" id="_58802F29-EBA6-409D-B2C1-83CD507794F7">      <defs id="_58802F29-EBA6-409D-B2C1-83CD507794F7__58802F29-EBA6-409D-B2C1-83CD507794F7_5"> 		<radialGradient id="_58802F29-EBA6-409D-B2C1-83CD507794F7background" cx="10%" cy="10%" r="100%" fx="10%" fy="10%"> 			<stop offset="0%" stop-color="#ffffff" stop-opacity="1" id="_58802F29-EBA6-409D-B2C1-83CD507794F7__58802F29-EBA6-409D-B2C1-83CD507794F7_6"/> 			<stop id="_58802F29-EBA6-409D-B2C1-83CD507794F7fill_el" offset="100%" stop-color="#ff6347" stop-opacity="1"/> 		</radialGradient> 	</defs> 	     <circle id="_58802F29-EBA6-409D-B2C1-83CD507794F7bg_frame" cx="14" cy="14" r="14" stroke="#000000" fill="url(#_58802F29-EBA6-409D-B2C1-83CD507794F7background) white" stroke-width="3"/> 	<text font-size="11" id="_58802F29-EBA6-409D-B2C1-83CD507794F7text_name" x="14" y="30" oryx:align="top center" stroke="black" stroke-width="0pt" letter-spacing="-0.01px" fill="#000000" text-anchor="middle" transform="rotate(0 14 30)" visibility="inherit" oryx:fontSize="11"/>   </g></g><g class="children" style="overflow:hidden"/><g class="edge"/></g><g class="controls"><g class="dockers"/><g class="magnets" transform="translate(585, 166)"><g pointer-events="all" display="none" transform="translate(6, 6)"><circle cx="8" cy="8" r="4" stroke="none" fill="red" fill-opacity="0.3"/></g></g></g></g><g id="_C850F071-76B1-459B-9A21-E5BA5AED821D" bpmn2nodeid="_3BD00134-19AE-4C22-9E9E-8704ACAED979"><g class="stencils" transform="translate(570, 60)"><g class="me"><g pointer-events="all" oryx:minimumSize="10 20" oryx:maximumSize="" id="_C850F071-76B1-459B-9A21-E5BA5AED821D">   <rect id="_C850F071-76B1-459B-9A21-E5BA5AED821Dtextannotationrect" oryx:resize="vertical horizontal" x="0" y="0" width="100" height="50" stroke="none" fill="none"/>   <path id="_C850F071-76B1-459B-9A21-E5BA5AED821Dframe" d=" M19 0  L0 0  L0 49  L19 49 " oryx:anchors="top bottom left" stroke="#000000" fill="none" stroke-width="1"/>          <text font-size="12" id="_C850F071-76B1-459B-9A21-E5BA5AED821Dtext_name" x="4" y="24" oryx:align="middle left" oryx:fittoelem="textannotationrect" oryx:anchors="left" stroke="black" stroke-width="0pt" letter-spacing="-0.01px" fill="#000000" text-anchor="start" transform="rotate(0 4 24)" visibility="inherit" oryx:fontSize="12"><tspan x="4" y="24" dy="5" id="ext-gen954">test hooks!!!</tspan></text>   </g></g><g class="children" style="overflow:hidden"/><g class="edge"/></g><g class="controls"><g class="dockers"/><g class="magnets" transform="translate(570, 60)"><g pointer-events="all" display="none" transform="translate(-7, 16)"><circle cx="8" cy="8" r="4" stroke="none" fill="red" fill-opacity="0.3"/></g></g></g></g><g id="_BEBF7934-1732-4CA7-9A0E-B51D25D1E4BB" bpmn2nodeid="_13EF339A-4EEC-4C54-98D9-F3CE8F329316"><g class="stencils" transform="translate(495, 30)"><g class="me"><g pointer-events="all" oryx:minimumSize="10 20" oryx:maximumSize="" id="_BEBF7934-1732-4CA7-9A0E-B51D25D1E4BB">   <rect id="_BEBF7934-1732-4CA7-9A0E-B51D25D1E4BBtextannotationrect" oryx:resize="vertical horizontal" x="0" y="0" width="100" height="50" stroke="none" fill="none"/>   <path id="_BEBF7934-1732-4CA7-9A0E-B51D25D1E4BBframe" d=" M19 0  L0 0  L0 49  L19 49 " oryx:anchors="top bottom left" stroke="#000000" fill="none" stroke-width="1"/>          <text font-size="12" id="_BEBF7934-1732-4CA7-9A0E-B51D25D1E4BBtext_name" x="4" y="24" oryx:align="middle left" oryx:fittoelem="textannotationrect" oryx:anchors="left" stroke="black" stroke-width="0pt" letter-spacing="-0.01px" fill="#000000" text-anchor="start" transform="rotate(0 4 24)" visibility="inherit" oryx:fontSize="12"><tspan x="4" y="24" dy="-1" id="ext-gen995">asdfhasdfhasdk</tspan><tspan x="4" y="24" dy="11" id="ext-gen996">fhasdfkh</tspan></text>   </g></g><g class="children" style="overflow:hidden"/><g class="edge"/></g><g class="controls"><g class="dockers"/><g class="magnets" transform="translate(495, 30)"><g pointer-events="all" display="none" transform="translate(-7, 16)"><circle cx="8" cy="8" r="4" stroke="none" fill="red" fill-opacity="0.3"/></g></g></g></g><g id="_7FD4343C-2566-4B3A-ACAF-769207813CCE" bpmn2nodeid="_E410BC7D-F256-4AE3-B3E2-FE29D81C7956"><g class="stencils" transform="translate(165, 60)"><g class="me"><g pointer-events="all" oryx:minimumSize="10 20" oryx:maximumSize="" id="_7FD4343C-2566-4B3A-ACAF-769207813CCE">   <rect id="_7FD4343C-2566-4B3A-ACAF-769207813CCEtextannotationrect" oryx:resize="vertical horizontal" x="0" y="0" width="100" height="50" stroke="none" fill="none"/>   <path id="_7FD4343C-2566-4B3A-ACAF-769207813CCEframe" d=" M19 0  L0 0  L0 49  L19 49 " oryx:anchors="top bottom left" stroke="#000000" fill="none" stroke-width="1"/>          <text font-size="12" id="_7FD4343C-2566-4B3A-ACAF-769207813CCEtext_name" x="4" y="24" oryx:align="middle left" oryx:fittoelem="textannotationrect" oryx:anchors="left" stroke="black" stroke-width="0pt" letter-spacing="-0.01px" fill="#000000" text-anchor="start" transform="rotate(0 4 24)" visibility="inherit" oryx:fontSize="12"><tspan x="4" y="24" dy="5" id="ext-gen1128">otra pruebacita</tspan></text>   </g></g><g class="children" style="overflow:hidden"/><g class="edge"/></g><g class="controls"><g class="dockers"/><g class="magnets" transform="translate(165, 60)"><g pointer-events="all" display="none" transform="translate(-7, 16)"><circle cx="8" cy="8" r="4" stroke="none" fill="red" fill-opacity="0.3"/></g></g></g></g></g><g class="edge"><g id="_B97432BE-803E-4818-BE93-5FD32736DC35" bpmn2nodeid="_778A7059-BA81-4A47-BAFB-CA726AA314E9"><g class="stencils"><g class="me"><g pointer-events="painted" bpmn2nodeid="_9236C750-2455-4068-8A06-16B6D0453A89"><path id="_B97432BE-803E-4818-BE93-5FD32736DC35_1" d="M150.6484375 180L209.1953125 180 " stroke="#000000" fill="none" stroke-width="2" stroke-linecap="round" stroke-linejoin="round" marker-start="url(#_B97432BE-803E-4818-BE93-5FD32736DC35start)" marker-end="url(#_B97432BE-803E-4818-BE93-5FD32736DC35end)"/></g><text id="_B97432BE-803E-4818-BE93-5FD32736DC35text_name" font-size="12" x="164.6484375" y="166" oryx:edgePosition="startTop" stroke-width="0pt" letter-spacing="-0.01px" fill="#000000" text-anchor="start" transform="rotate(360 150.6484375 180)" visibility="inherit" oryx:fontSize="12"/></g><g class="children" style="overflow:hidden"/><g class="edge"/></g><g class="controls"><g class="dockers"/><g class="magnets"/></g></g><g id="_ACCCD80D-CE64-46BF-BA8C-FF2566606360" bpmn2nodeid="_3380D947-D4B2-405E-BDFB-FF1DB363642C"><g class="stencils"><g class="me"><g pointer-events="painted" bpmn2nodeid="_B6411A28-A622-4165-8264-C960D1D76C20"><path id="_ACCCD80D-CE64-46BF-BA8C-FF2566606360_1" d="M310.4140625 180L355.1328125 180 " stroke="#000000" fill="none" stroke-width="2" stroke-linecap="round" stroke-linejoin="round" marker-start="url(#_ACCCD80D-CE64-46BF-BA8C-FF2566606360start)" marker-end="url(#_ACCCD80D-CE64-46BF-BA8C-FF2566606360end)"/></g><text id="_ACCCD80D-CE64-46BF-BA8C-FF2566606360text_name" font-size="12" x="324.4140625" y="166" oryx:edgePosition="startTop" stroke-width="0pt" letter-spacing="-0.01px" fill="#000000" text-anchor="start" transform="rotate(360 310.4140625 180)" visibility="inherit" oryx:fontSize="12"/></g><g class="children" style="overflow:hidden"/><g class="edge"/></g><g class="controls"><g class="dockers"/><g class="magnets"/></g></g><g id="_880F6529-9F97-4649-9AE4-1E1A434D65B7" bpmn2nodeid="_60CB29BC-7014-4BAE-9416-9572241BA55E"><g class="stencils"><g class="me"><g pointer-events="painted" bpmn2nodeid="_59E68D17-CE05-4E8D-9505-E171007C9C15"><path id="_880F6529-9F97-4649-9AE4-1E1A434D65B7_1" d="M394.8671875 180L439.5859375 180 " stroke="#000000" fill="none" stroke-width="2" stroke-linecap="round" stroke-linejoin="round" marker-start="url(#_880F6529-9F97-4649-9AE4-1E1A434D65B7start)" marker-end="url(#_880F6529-9F97-4649-9AE4-1E1A434D65B7end)"/></g><text id="_880F6529-9F97-4649-9AE4-1E1A434D65B7text_name" font-size="12" x="408.8671875" y="166" oryx:edgePosition="startTop" stroke-width="0pt" letter-spacing="-0.01px" fill="#000000" text-anchor="start" transform="rotate(360 394.8671875 180)" visibility="inherit" oryx:fontSize="12"/></g><g class="children" style="overflow:hidden"/><g class="edge"/></g><g class="controls"><g class="dockers"/><g class="magnets"/></g></g><g id="_45D9DFD6-D67E-49EE-AE6C-18ABEF3685F3" bpmn2nodeid="_25189D27-0A9D-4FC6-B392-6CB433B0B2F7"><g class="stencils"><g class="me"><g pointer-events="painted" bpmn2nodeid="_3D43DF15-D557-446E-A779-4AFEF0075ACA"><path id="_45D9DFD6-D67E-49EE-AE6C-18ABEF3685F3_1" d="M540.390625 180L584.375 180 " stroke="#000000" fill="none" stroke-width="2" stroke-linecap="round" stroke-linejoin="round" marker-start="url(#_45D9DFD6-D67E-49EE-AE6C-18ABEF3685F3start)" marker-end="url(#_45D9DFD6-D67E-49EE-AE6C-18ABEF3685F3end)"/></g><text id="_45D9DFD6-D67E-49EE-AE6C-18ABEF3685F3text_name" font-size="12" x="554.390625" y="166" oryx:edgePosition="startTop" stroke-width="0pt" letter-spacing="-0.01px" fill="#000000" text-anchor="start" transform="rotate(360 540.390625 180)" visibility="inherit" oryx:fontSize="12"/></g><g class="children" style="overflow:hidden"/><g class="edge"/></g><g class="controls"><g class="dockers"/><g class="magnets"/></g></g><g id="_102BE4A7-38AC-4A56-8AAF-897E8B4F2D45" bpmn2nodeid="_ADC57004-C1DC-426B-8C07-E416EB28A549"><g class="stencils"><g class="me"><g pointer-events="painted" bpmn2nodeid="_ADC57004-C1DC-426B-8C07-E416EB28A549"><path id="_102BE4A7-38AC-4A56-8AAF-897E8B4F2D45_1" d="M524.1839334392098 139.4857085164921L569.7223165607902 85.51429148350789 " stroke="#000000" fill="none" stroke-width="2" stroke-dasharray="3, 4"/></g><text id="_102BE4A7-38AC-4A56-8AAF-897E8B4F2D45text_name" x="546.953125" y="106.5" oryx:edgePosition="midTop" oryx:offsetTop="6" style="font-size:9px;" stroke-width="0pt" letter-spacing="-0.01px" text-anchor="middle" transform="rotate(310.15599962491933 546.953125 112.5)" visibility="inherit" oryx:fontSize="12"/></g><g class="children" style="overflow:hidden"/><g class="edge"/></g><g class="controls"><g class="dockers"/><g class="magnets"/></g></g><g id="_F3BA0A7E-3B68-43F6-A371-9AF3A68A2F11" bpmn2nodeid="_7198BF38-7519-4B13-B45C-32B88824F5DB"><g class="stencils"><g class="me"><g pointer-events="painted" bpmn2nodeid="_7198BF38-7519-4B13-B45C-32B88824F5DB"><path id="_F3BA0A7E-3B68-43F6-A371-9AF3A68A2F11_1" d="M491.92256514941545 139.62613186227557L494.96805985058455 75.67074313772444 " stroke="#000000" fill="none" stroke-width="2" stroke-dasharray="3, 4"/></g><text id="_F3BA0A7E-3B68-43F6-A371-9AF3A68A2F11text_name" x="493.4453125" y="101.6484375" oryx:edgePosition="midTop" oryx:offsetTop="6" style="font-size:9px;" stroke-width="0pt" letter-spacing="-0.01px" text-anchor="middle" transform="rotate(272.72631099390634 493.4453125 107.6484375)" visibility="inherit" oryx:fontSize="12"/></g><g class="children" style="overflow:hidden"/><g class="edge"/></g><g class="controls"><g class="dockers"/><g class="magnets"/></g></g><g id="_E4ED48DE-7132-417D-9D66-6F9AEABE4D07" bpmn2nodeid="_16A6BB08-94AB-4215-AD43-2B9629138B56"><g class="stencils"><g class="me"><g pointer-events="painted" bpmn2nodeid="_16A6BB08-94AB-4215-AD43-2B9629138B56"><path id="_E4ED48DE-7132-417D-9D66-6F9AEABE4D07_1" d="M220.3785002073918 139.5354895735065L184.3246247926082 102.71451042649349 " stroke="#000000" fill="none" stroke-width="2" stroke-dasharray="3, 4"/></g><text id="_E4ED48DE-7132-417D-9D66-6F9AEABE4D07text_name" x="202.3515625" y="115.125" oryx:edgePosition="midTop" oryx:offsetTop="6" style="font-size:9px;" stroke-width="0pt" letter-spacing="-0.01px" text-anchor="middle" transform="rotate(45.60309119438051 202.3515625 121.125)" visibility="inherit" oryx:fontSize="12"/></g><g class="children" style="overflow:hidden"/><g class="edge"/></g><g class="controls"><g class="dockers"/><g class="magnets"/></g></g></g><text id="_527D37A3-5D8D-4AD8-9105-C262436AF546" style="stroke-width:1;fill:rgb(177,194,214);font-family:arial;font-weight:bold" font-size="12" onclick="ORYX.Plugins.CanvasTitle.openTextualAnalysis()" onmouseover="ORYX.Plugins.CanvasTitle.addToolTip('_527D37A3-5D8D-4AD8-9105-C262436AF546')" transform="translate(10, 20)">Prueba v.1.0 (src.Prueba)</text></g></g></svg>