<svg xmlns="http://www.w3.org/2000/svg" xmlns:oryx="http://oryx-editor.org" id="_BADA10BD-58E9-493C-B2DA-4B487CD6B20F" width="654" height="261" xmlns:xlink="http://www.w3.org/1999/xlink" xmlns:svg="http://www.w3.org/2000/svg"><defs><marker id="_2AE0041C-A5F9-4F20-BBFB-773375B0DF94start" refX="1" refY="5" markerUnits="userSpaceOnUse" markerWidth="17" markerHeight="11" orient="auto" fill="#000000" stroke="#000000"> 	  		<path id="_2AE0041C-A5F9-4F20-BBFB-773375B0DF94conditional" d="M 0 5 L 8 0 L 16 5 L 8 10 L 0 5" fill="white" stroke="#000000" stroke-width="1" display="none"/> 			<path id="_2AE0041C-A5F9-4F20-BBFB-773375B0DF94default" d="M 5 0 L 11 10" fill="white" stroke="#000000" stroke-width="1" display="none"/> 	  	</marker><marker id="_2AE0041C-A5F9-4F20-BBFB-773375B0DF94end" refX="15" refY="6" markerUnits="userSpaceOnUse" markerWidth="15" markerHeight="12" orient="auto" fill="#000000" stroke="#000000"> 	  		<path id="_2AE0041C-A5F9-4F20-BBFB-773375B0DF94frame2" d="M 0 1 L 15 6 L 0 11z" fill="#000000" stroke="#000000" stroke-linejoin="round" stroke-width="2"/> 	  	</marker><marker id="_86534C85-9C2F-4FEE-AEBD-7E057B1C6964start" refX="1" refY="5" markerUnits="userSpaceOnUse" markerWidth="17" markerHeight="11" orient="auto" fill="#000000" stroke="#000000"> 	  		<path id="_86534C85-9C2F-4FEE-AEBD-7E057B1C6964conditional" d="M 0 5 L 8 0 L 16 5 L 8 10 L 0 5" fill="white" stroke="#000000" stroke-width="1" display="none"/> 			<path id="_86534C85-9C2F-4FEE-AEBD-7E057B1C6964default" d="M 5 0 L 11 10" fill="white" stroke="#000000" stroke-width="1" display="none"/> 	  	</marker><marker id="_86534C85-9C2F-4FEE-AEBD-7E057B1C6964end" refX="15" refY="6" markerUnits="userSpaceOnUse" markerWidth="15" markerHeight="12" orient="auto" fill="#000000" stroke="#000000"> 	  		<path id="_86534C85-9C2F-4FEE-AEBD-7E057B1C6964frame2" d="M 0 1 L 15 6 L 0 11z" fill="#000000" stroke="#000000" stroke-linejoin="round" stroke-width="2"/> 	  	</marker><marker id="_56DDBC10-DB60-4FFE-AE07-F1EC7133B23Cstart" refX="1" refY="5" markerUnits="userSpaceOnUse" markerWidth="17" markerHeight="11" orient="auto" fill="#000000" stroke="#000000"> 	  		<path id="_56DDBC10-DB60-4FFE-AE07-F1EC7133B23Cconditional" d="M 0 5 L 8 0 L 16 5 L 8 10 L 0 5" fill="white" stroke="#000000" stroke-width="1" display="none"/> 			<path id="_56DDBC10-DB60-4FFE-AE07-F1EC7133B23Cdefault" d="M 5 0 L 11 10" fill="white" stroke="#000000" stroke-width="1" display="none"/> 	  	</marker><marker id="_56DDBC10-DB60-4FFE-AE07-F1EC7133B23Cend" refX="15" refY="6" markerUnits="userSpaceOnUse" markerWidth="15" markerHeight="12" orient="auto" fill="#000000" stroke="#000000"> 	  		<path id="_56DDBC10-DB60-4FFE-AE07-F1EC7133B23Cframe2" d="M 0 1 L 15 6 L 0 11z" fill="#000000" stroke="#000000" stroke-linejoin="round" stroke-width="2"/> 	  	</marker><marker id="_697A1316-91B6-46E7-A6DA-7ECF11672D1Bstart" refX="1" refY="5" markerUnits="userSpaceOnUse" markerWidth="17" markerHeight="11" orient="auto" fill="#000000" stroke="#000000"> 	  		<path id="_697A1316-91B6-46E7-A6DA-7ECF11672D1Bconditional" d="M 0 5 L 8 0 L 16 5 L 8 10 L 0 5" fill="white" stroke="#000000" stroke-width="1" display="none"/> 			<path id="_697A1316-91B6-46E7-A6DA-7ECF11672D1Bdefault" d="M 5 0 L 11 10" fill="white" stroke="#000000" stroke-width="1" display="none"/> 	  	</marker><marker id="_697A1316-91B6-46E7-A6DA-7ECF11672D1Bend" refX="15" refY="6" markerUnits="userSpaceOnUse" markerWidth="15" markerHeight="12" orient="auto" fill="#000000" stroke="#000000"> 	  		<path id="_697A1316-91B6-46E7-A6DA-7ECF11672D1Bframe2" d="M 0 1 L 15 6 L 0 11z" fill="#000000" stroke="#000000" stroke-linejoin="round" stroke-width="2"/> 	  	</marker></defs><g stroke="none" font-family="Verdana, sans-serif" font-size-adjust="none" font-style="normal" font-variant="normal" font-weight="normal" line-heigth="normal" font-size="12"><g class="stencils" transform="translate(16, 16)"><g class="me"/><g class="children"><g id="_78DD7CD2-967F-43AA-B850-DC305D393E8D" bpmn2nodeid="processStartEvent"><g class="stencils" transform="translate(120, 165)"><g class="me"><g pointer-events="fill" id="_78DD7CD2-967F-43AA-B850-DC305D393E8D">        <defs id="_78DD7CD2-967F-43AA-B850-DC305D393E8D__78DD7CD2-967F-43AA-B850-DC305D393E8D_5"> 		<radialGradient id="_78DD7CD2-967F-43AA-B850-DC305D393E8Dbackground" cx="10%" cy="10%" r="100%" fx="10%" fy="10%"> 			<stop offset="0%" stop-color="#ffffff" stop-opacity="1" id="_78DD7CD2-967F-43AA-B850-DC305D393E8D__78DD7CD2-967F-43AA-B850-DC305D393E8D_6"/> 			<stop id="_78DD7CD2-967F-43AA-B850-DC305D393E8Dfill_el" offset="100%" stop-color="#9acd32" stop-opacity="1"/> 		</radialGradient> 	</defs> 	     <circle id="_78DD7CD2-967F-43AA-B850-DC305D393E8Dbg_frame" cx="15" cy="15" r="15" stroke="#000000" fill="url(#_78DD7CD2-967F-43AA-B850-DC305D393E8Dbackground) white" stroke-width="1" style="stroke-dasharray: 5.5, 3"/>      <circle id="_78DD7CD2-967F-43AA-B850-DC305D393E8Dframe" cx="15" cy="15" r="15" stroke="#000000" fill="none" stroke-width="1" display="inherit"/>  	<text font-size="11" id="_78DD7CD2-967F-43AA-B850-DC305D393E8Dtext_name" x="15" y="32" oryx:align="top center" stroke="black" stroke-width="0pt" letter-spacing="-0.01px" fill="#000000" text-anchor="middle" transform="rotate(0 15 32)" visibility="inherit" oryx:fontSize="11"/>   </g></g><g class="children" style="overflow:hidden"/><g class="edge"/></g><g class="controls"><g class="dockers"/><g class="magnets" transform="translate(120, 165)"><g pointer-events="all" display="none" transform="translate(7, 7)"><circle cx="8" cy="8" r="4" stroke="none" fill="red" fill-opacity="0.3"/></g></g></g></g><g id="_7634EA75-1403-4F85-B5DC-F2261F892DD0" bpmn2nodeid="_F03734A3-BA51-4D9B-984E-2C94F634AC4A"><g class="stencils" transform="translate(210, 140)"><g class="me"><g pointer-events="fill" oryx:minimumSize="50 40" id="_7634EA75-1403-4F85-B5DC-F2261F892DD0">   	<defs id="_7634EA75-1403-4F85-B5DC-F2261F892DD0__7634EA75-1403-4F85-B5DC-F2261F892DD0_17"> 		<radialGradient id="_7634EA75-1403-4F85-B5DC-F2261F892DD0background" cx="10%" cy="10%" r="100%" fx="10%" fy="10%"> 			<stop offset="0%" stop-color="#ffffff" stop-opacity="1" id="_7634EA75-1403-4F85-B5DC-F2261F892DD0__7634EA75-1403-4F85-B5DC-F2261F892DD0_18"/> 			<stop id="_7634EA75-1403-4F85-B5DC-F2261F892DD0fill_el" offset="100%" stop-color="#fafad2" stop-opacity="1"/> 		</radialGradient> 		<radialGradient id="_7634EA75-1403-4F85-B5DC-F2261F892DD0borderbackground" cx="10%" cy="10%" r="100%" fx="10%" fy="10%"> 			<stop offset="0%" stop-color="#ffffff" stop-opacity="1" id="_7634EA75-1403-4F85-B5DC-F2261F892DD0__7634EA75-1403-4F85-B5DC-F2261F892DD0_19"/> 			<stop id="_7634EA75-1403-4F85-B5DC-F2261F892DD0fill_border" offset="100%" stop-color="#000000" stop-opacity="1" stroke="#000000"/> 		</radialGradient> 	</defs> 	 	<rect id="_7634EA75-1403-4F85-B5DC-F2261F892DD0text_frame" oryx:anchors="bottom top right left" x="1" y="1" width="94" height="79" rx="10" ry="10" stroke="none" stroke-width="0" fill="none"/> 	<rect id="_7634EA75-1403-4F85-B5DC-F2261F892DD0bg_frame" oryx:resize="vertical horizontal" x="0" y="0" width="100" height="80" rx="10" ry="10" stroke="#000000" stroke-width="1" fill="url(#_7634EA75-1403-4F85-B5DC-F2261F892DD0background) #ffffcc"/> 		<text font-size="12" id="_7634EA75-1403-4F85-B5DC-F2261F892DD0text_name" x="50" y="40" oryx:align="middle center" oryx:fittoelem="text_frame" stroke="black" text-anchor="middle" stroke-width="0pt" letter-spacing="-0.01px" fill="#000000" transform="rotate(0 50 40)" visibility="inherit" oryx:fontSize="12"><tspan x="50" y="40" dy="5" id="ext-gen605">Tarea Prueba 1</tspan></text>     <g id="_7634EA75-1403-4F85-B5DC-F2261F892DD0manualTask" transform="scale(0.7,0.7) translate(8,8)" display="none">     	<path oryx:anchors="top left" id="_7634EA75-1403-4F85-B5DC-F2261F892DD0frame" style="opacity:1;fill:none;fill-opacity:1;stroke-width:1" d="M0.5,3.751l4.083-3.25c0,0,11.166,0.083,12.083,0.083s-2.417,2.917-1.5,2.917     s11.667,0,12.584,0c1.166,1.708-0.168,3.167-0.834,3.667s0.875,1.917-1,4.417c-0.75,0.25,0.75,1.875-1.333,3.333     c-1.167,0.583,0.583,1.542-1.25,2.833c-1.167,0-20.833,0.083-20.833,0.083l-2-1.333V3.751z" stroke="#000000"/> 		<path id="_7634EA75-1403-4F85-B5DC-F2261F892DD0frame2" oryx:anchors="top left" style="opacity:1;fill:none;stroke-width:2" d="M 13.5 7 L 27 7" stroke="#000000"/> 		<path id="_7634EA75-1403-4F85-B5DC-F2261F892DD0frame3" oryx:anchors="top left" style="opacity:1;fill:none;stroke-width:2" d="M 13.5 11 L 26 11" stroke="#000000"/> 		<path id="_7634EA75-1403-4F85-B5DC-F2261F892DD0frame4" oryx:anchors="top left" style="opacity:1;fill:none;stroke-width:1.5" d="M 14 14.5 L 25 14.5" stroke="#000000"/> 		<path id="_7634EA75-1403-4F85-B5DC-F2261F892DD0frame5" oryx:anchors="top left" style="opacity:1;fill:none;stroke-width:1.5" d="M 8.2 3.1 L 15 3.1" stroke="#000000"/> 	</g> 	 	<g id="_7634EA75-1403-4F85-B5DC-F2261F892DD0businessRuleTask" transform="scale(0.7,0.7) translate(8,8)" display="none"> 		<rect id="_7634EA75-1403-4F85-B5DC-F2261F892DD0frame6" oryx:anchors="top left" x="0" y="0" width="22" height="4" style="opacity:1;fill:#B3B1B3;fill-opacity:1;" stroke="#000000"/> 		<rect id="_7634EA75-1403-4F85-B5DC-F2261F892DD0frame7" oryx:anchors="top left" x="0" y="4" style="opacity:1;fill:none;" width="22" height="12" stroke="#000000"/> 		<path id="_7634EA75-1403-4F85-B5DC-F2261F892DD0frame8" oryx:anchors="top left" style="opacity:1;fill:none;" d="M 0 10 L 22 10" stroke="#000000"/> 		<path id="_7634EA75-1403-4F85-B5DC-F2261F892DD0frame9" oryx:anchors="top left" style="opacity:1; fill:none;" d="M 7 4 L 7 16" stroke="#000000"/> 	</g> 	 	<g id="_7634EA75-1403-4F85-B5DC-F2261F892DD0scriptTask" transform="scale(0.7,0.7) translate(8,8)" display="none"> 		<path oryx:anchors="top left" id="_7634EA75-1403-4F85-B5DC-F2261F892DD0frame10" style="opacity:1;fill:none;" stroke="#000000" d="M6.402,0.5h14.5c0,0-5.833,2.833-5.833,5.583s4.417,6,4.417,9.167    s-4.167,5.083-4.167,5.083H0.235c0,0,5-2.667,5-5s-4.583-6.75-4.583-9.25S6.402,0.5,6.402,0.5z"/> 		<path oryx:anchors="top left" id="_7634EA75-1403-4F85-B5DC-F2261F892DD0frame11" style="opacity:1;fill:none;stroke-width:1.5" d="M 3.5 4.5 L 13.5 4.5" stroke="#000000"/> 		<path oryx:anchors="top left" id="_7634EA75-1403-4F85-B5DC-F2261F892DD0frame12" style="opacity:1;fill:none;stroke-width:1.5" d="M 3.8 8.5 L 13.8 8.5" stroke="#000000"/> 		<path oryx:anchors="top left" id="_7634EA75-1403-4F85-B5DC-F2261F892DD0frame13" style="opacity:1;fill:none;stroke-width:1.5" d="M 6.3 12.5 L 16.3 12.5" stroke="#000000"/> 		<path oryx:anchors="top left" id="_7634EA75-1403-4F85-B5DC-F2261F892DD0frame14" style="opacity:1;fill:none;stroke-width:1.5" d="M 6.5 16.5 L 16.5 16.5" stroke="#000000"/> 	</g> 	 	<g id="_7634EA75-1403-4F85-B5DC-F2261F892DD0userTask" transform="scale(0.7,0.7) translate(8,8)" display="inherit"> 		<path id="_7634EA75-1403-4F85-B5DC-F2261F892DD0frame15" oryx:anchors="top left" style="opacity:1;fill:#F4F6F7" stroke="#000000" d="M0.585,24.167h24.083v-7.833c0,0-2.333-3.917-7.083-5.167h-9.25    c-4.417,1.333-7.833,5.75-7.833,5.75L0.585,24.167z"/> 		<path id="_7634EA75-1403-4F85-B5DC-F2261F892DD0frame16" oryx:anchors="top left" style="opacity:1;fill:none" d="M 6 20 L 6 24" stroke="#000000"/> 		<path id="_7634EA75-1403-4F85-B5DC-F2261F892DD0frame17" oryx:anchors="top left" style="opacity:1;fill:none" d="M 20 20 L 20 24" stroke="#000000"/> 		<circle id="_7634EA75-1403-4F85-B5DC-F2261F892DD0frame18" oryx:anchors="top left" fill="black" cx="13.002" cy="5.916" r="5.417" stroke="#000000"/> 		<path id="_7634EA75-1403-4F85-B5DC-F2261F892DD0frame19" oryx:anchors="top left" style="opacity:1;fill:#F0EFF0;" stroke="#000000" d="M8.043,7.083c0,0,2.814-2.426,5.376-1.807s4.624-0.693,4.624-0.693    c0.25,1.688,0.042,3.75-1.458,5.584c0,0,1.083,0.75,1.083,1.5s0.125,1.875-1,3s-5.5,1.25-6.75,0S8.668,12.834,8.668,12    s0.583-1.25,1.25-1.917C8.835,9.5,7.419,7.708,8.043,7.083z"/> 	</g> 	 	<g id="_7634EA75-1403-4F85-B5DC-F2261F892DD0serviceTask" transform="scale(0.7,0.7) translate(8,8)" display="none"> 		<polygon oryx:anchors="top left" id="_7634EA75-1403-4F85-B5DC-F2261F892DD0frame20" style="opacity:1;fill:#ffffff" stroke="#000000" points="15.392,5.064 17.954,2.502 20.347,4.895 17.786,7.455     18.729,9.732 22.353,9.732 22.353,13.115 18.731,13.115 17.788,15.392 20.351,17.955 17.958,20.347 15.397,17.786 13.12,18.729     13.12,22.353 9.737,22.353 9.737,18.731 7.46,17.788 4.897,20.35 2.506,17.958 5.066,15.397 4.124,13.12 0.5,13.12 0.5,9.737     4.121,9.737 5.065,7.461 2.503,4.898 4.895,2.506 7.455,5.066 9.732,4.125 9.732,0.5 13.116,0.5 13.116,4.121 "/> 		<circle oryx:anchors="top left" id="_7634EA75-1403-4F85-B5DC-F2261F892DD0frame21" style="opacity:1;fill:none" stroke="#000000" cx="11.427" cy="11.426" r="3.714"/> 		<polygon oryx:anchors="top left" id="_7634EA75-1403-4F85-B5DC-F2261F892DD0frame22" style="opacity:1;fill:#ffffff" stroke="#000000" points="21.392,11.064 23.954,8.502 26.347,10.895 23.786,13.455     24.729,15.732 28.353,15.732 28.353,19.115 24.731,19.115 23.788,21.392 26.351,23.955 23.958,26.347 21.397,23.786 19.12,24.729     19.12,28.353 15.737,28.353 15.737,24.731 13.46,23.788 10.897,26.35 8.506,23.958 11.066,21.397 10.124,19.12 6.5,19.12     6.5,15.737 10.121,15.737 11.065,13.461 8.503,10.898 10.895,8.506 13.455,11.066 15.732,10.125 15.732,6.5 19.116,6.5     19.116,10.121 "/> 		<circle oryx:anchors="top left" id="_7634EA75-1403-4F85-B5DC-F2261F892DD0frame23" style="opacity:1;fill:none;" stroke="#000000" cx="17.427" cy="17.426" r="3.714"/> 	</g> 	 	<g id="_7634EA75-1403-4F85-B5DC-F2261F892DD0sendTask" display="none"> 		<path id="_7634EA75-1403-4F85-B5DC-F2261F892DD0stframe24" oryx:anchors="left top" stroke="#FFFFFF" fill="black" stroke-width="1" d="M8,11 L8,21 L24,21 L24,11 L16,17z"/> 		<path id="_7634EA75-1403-4F85-B5DC-F2261F892DD0stframe25" oryx:anchors="left top" stroke="#FFFFFF" fill="black" stroke-width="1" d="M7,10 L16,17 L25 10z"/> 	</g> 	 	<g id="_7634EA75-1403-4F85-B5DC-F2261F892DD0receiveTask" display="none"> 		<path id="_7634EA75-1403-4F85-B5DC-F2261F892DD0frame26" oryx:anchors="left top" stroke="#000000" fill="none" stroke-width="1" d="M8,11 L8,21 L24,21 L24,11z M8,11 L16,17 L24,11"/> 	</g> 	 	<g id="_7634EA75-1403-4F85-B5DC-F2261F892DD0none" display="inherit"/>  	<g id="_7634EA75-1403-4F85-B5DC-F2261F892DD0sequential" display="none">         <path oryx:anchors="bottom" fill="none" stroke="#000000" stroke-width="2" d="M46,76h10M46,72h10 M46,68h10" id="_7634EA75-1403-4F85-B5DC-F2261F892DD0__7634EA75-1403-4F85-B5DC-F2261F892DD0_20"/>     </g>   </g></g><g class="children" style="overflow:hidden"/><g class="edge"/></g><g class="controls"><g class="dockers"/><g class="magnets" transform="translate(210, 140)"><g pointer-events="all" display="none" transform="translate(-7, 12)"><circle cx="8" cy="8" r="4" stroke="none" fill="red" fill-opacity="0.3"/></g><g pointer-events="all" display="none" transform="translate(-7, 32)"><circle cx="8" cy="8" r="4" stroke="none" fill="red" fill-opacity="0.3"/></g><g pointer-events="all" display="none" transform="translate(-7, 52)"><circle cx="8" cy="8" r="4" stroke="none" fill="red" fill-opacity="0.3"/></g><g pointer-events="all" display="none" transform="translate(17, 71)"><circle cx="8" cy="8" r="4" stroke="none" fill="red" fill-opacity="0.3"/></g><g pointer-events="all" display="none" transform="translate(42, 71)"><circle cx="8" cy="8" r="4" stroke="none" fill="red" fill-opacity="0.3"/></g><g pointer-events="all" display="none" transform="translate(67, 71)"><circle cx="8" cy="8" r="4" stroke="none" fill="red" fill-opacity="0.3"/></g><g pointer-events="all" display="none" transform="translate(91, 12)"><circle cx="8" cy="8" r="4" stroke="none" fill="red" fill-opacity="0.3"/></g><g pointer-events="all" display="none" transform="translate(91, 32)"><circle cx="8" cy="8" r="4" stroke="none" fill="red" fill-opacity="0.3"/></g><g pointer-events="all" display="none" transform="translate(91, 52)"><circle cx="8" cy="8" r="4" stroke="none" fill="red" fill-opacity="0.3"/></g><g pointer-events="all" display="none" transform="translate(17, -7)"><circle cx="8" cy="8" r="4" stroke="none" fill="red" fill-opacity="0.3"/></g><g pointer-events="all" display="none" transform="translate(42, -7)"><circle cx="8" cy="8" r="4" stroke="none" fill="red" fill-opacity="0.3"/></g><g pointer-events="all" display="none" transform="translate(67, -7)"><circle cx="8" cy="8" r="4" stroke="none" fill="red" fill-opacity="0.3"/></g><g pointer-events="all" display="none" transform="translate(42, 32)"><circle cx="8" cy="8" r="4" stroke="none" fill="red" fill-opacity="0.3"/></g></g></g></g><g id="_48D912E7-E059-40DC-9260-433E55171E21" bpmn2nodeid="_F57330B7-44D2-4C8B-8FA5-E2E99ADFDE34"><g class="stencils" transform="translate(355, 160)"><g class="me"><g id="_48D912E7-E059-40DC-9260-433E55171E21">        <defs id="_48D912E7-E059-40DC-9260-433E55171E21__48D912E7-E059-40DC-9260-433E55171E21_4"> 		<radialGradient id="_48D912E7-E059-40DC-9260-433E55171E21background" cx="10%" cy="10%" r="100%" fx="10%" fy="10%"> 			<stop offset="0%" stop-color="#ffffff" stop-opacity="1" id="_48D912E7-E059-40DC-9260-433E55171E21__48D912E7-E059-40DC-9260-433E55171E21_5"/> 			<stop id="_48D912E7-E059-40DC-9260-433E55171E21fill_el" offset="100%" stop-color="#f0e68c" stop-opacity="1"/> 		</radialGradient> 		<radialGradient id="_48D912E7-E059-40DC-9260-433E55171E21borderbackground" cx="10%" cy="10%" r="100%" fx="10%" fy="10%"> 			<stop offset="0%" stop-color="#ffffff" stop-opacity="1" id="_48D912E7-E059-40DC-9260-433E55171E21__48D912E7-E059-40DC-9260-433E55171E21_6"/> 			<stop id="_48D912E7-E059-40DC-9260-433E55171E21fill_border" offset="100%" stop-color="#a67f00" stop-opacity="1" stroke="#a67f00"/> 		</radialGradient> 	</defs> 	     <path d=" M0 20.5  L20.5 0  L40 20.5  L20.5 40  z" id="_48D912E7-E059-40DC-9260-433E55171E21bg_frame" fill="url(#_48D912E7-E059-40DC-9260-433E55171E21background) white" style="stroke-width:1" stroke="#a67f00"/>     <g id="_48D912E7-E059-40DC-9260-433E55171E21frame" stroke="#a67f00">       <path id="_48D912E7-E059-40DC-9260-433E55171E21frame2" d=" M13.25 12.05  L17.25 12.05  L27.65 28.95  L23.75 28.95  z" style="stroke-width:1" stroke="#a67f00" fill="url(#_48D912E7-E059-40DC-9260-433E55171E21borderbackground)"/>       <path id="_48D912E7-E059-40DC-9260-433E55171E21frame3" d=" M13.25 28.95  L23.75 12.05  L27.65 12.05  L17.25 28.95  z" style="stroke-width:1" stroke="#a67f00" fill="url(#_48D912E7-E059-40DC-9260-433E55171E21borderbackground)"/>     </g> 	 	<text id="_48D912E7-E059-40DC-9260-433E55171E21text_name" x="30.5" y="30.5" oryx:align="left top" stroke-width="0pt" letter-spacing="-0.01px" fill="#000000" text-anchor="start" transform="rotate(0 30.5 30.5)" visibility="inherit" oryx:fontSize="12"/> 	   </g></g><g class="children" style="overflow:hidden"/><g class="edge"/></g><g class="controls"><g class="dockers"/><g class="magnets" transform="translate(355, 160)"><g pointer-events="all" display="none" transform="translate(12.5, 12.5)"><circle cx="8" cy="8" r="4" stroke="none" fill="red" fill-opacity="0.3"/></g></g></g></g><g id="_C2F765AA-AB09-4542-A6EE-82E308AEA228" bpmn2nodeid="_67DC32E5-7F08-49C9-8CEF-3C5C69117A12"><g class="stencils" transform="translate(440, 140)"><g class="me"><g pointer-events="fill" oryx:minimumSize="50 40" id="_C2F765AA-AB09-4542-A6EE-82E308AEA228">   	<defs id="_C2F765AA-AB09-4542-A6EE-82E308AEA228__C2F765AA-AB09-4542-A6EE-82E308AEA228_17"> 		<radialGradient id="_C2F765AA-AB09-4542-A6EE-82E308AEA228background" cx="10%" cy="10%" r="100%" fx="10%" fy="10%"> 			<stop offset="0%" stop-color="#ffffff" stop-opacity="1" id="_C2F765AA-AB09-4542-A6EE-82E308AEA228__C2F765AA-AB09-4542-A6EE-82E308AEA228_18"/> 			<stop id="_C2F765AA-AB09-4542-A6EE-82E308AEA228fill_el" offset="100%" stop-color="#fafad2" stop-opacity="1"/> 		</radialGradient> 		<radialGradient id="_C2F765AA-AB09-4542-A6EE-82E308AEA228borderbackground" cx="10%" cy="10%" r="100%" fx="10%" fy="10%"> 			<stop offset="0%" stop-color="#ffffff" stop-opacity="1" id="_C2F765AA-AB09-4542-A6EE-82E308AEA228__C2F765AA-AB09-4542-A6EE-82E308AEA228_19"/> 			<stop id="_C2F765AA-AB09-4542-A6EE-82E308AEA228fill_border" offset="100%" stop-color="#000000" stop-opacity="1" stroke="#000000"/> 		</radialGradient> 	</defs> 	 	<rect id="_C2F765AA-AB09-4542-A6EE-82E308AEA228text_frame" oryx:anchors="bottom top right left" x="1" y="1" width="94" height="79" rx="10" ry="10" stroke="none" stroke-width="0" fill="none"/> 	<rect id="_C2F765AA-AB09-4542-A6EE-82E308AEA228bg_frame" oryx:resize="vertical horizontal" x="0" y="0" width="100" height="80" rx="10" ry="10" stroke="#000000" stroke-width="1" fill="url(#_C2F765AA-AB09-4542-A6EE-82E308AEA228background) #ffffcc"/> 		<text font-size="12" id="_C2F765AA-AB09-4542-A6EE-82E308AEA228text_name" x="50" y="40" oryx:align="middle center" oryx:fittoelem="text_frame" stroke="black" text-anchor="middle" stroke-width="0pt" letter-spacing="-0.01px" fill="#000000" transform="rotate(0 50 40)" visibility="inherit" oryx:fontSize="12"><tspan x="50" y="40" dy="5" id="ext-gen808">Tarea Prueba 2</tspan></text>     <g id="_C2F765AA-AB09-4542-A6EE-82E308AEA228manualTask" transform="scale(0.7,0.7) translate(8,8)" display="none">     	<path oryx:anchors="top left" id="_C2F765AA-AB09-4542-A6EE-82E308AEA228frame" style="opacity:1;fill:none;fill-opacity:1;stroke-width:1" d="M0.5,3.751l4.083-3.25c0,0,11.166,0.083,12.083,0.083s-2.417,2.917-1.5,2.917     s11.667,0,12.584,0c1.166,1.708-0.168,3.167-0.834,3.667s0.875,1.917-1,4.417c-0.75,0.25,0.75,1.875-1.333,3.333     c-1.167,0.583,0.583,1.542-1.25,2.833c-1.167,0-20.833,0.083-20.833,0.083l-2-1.333V3.751z" stroke="#000000"/> 		<path id="_C2F765AA-AB09-4542-A6EE-82E308AEA228frame2" oryx:anchors="top left" style="opacity:1;fill:none;stroke-width:2" d="M 13.5 7 L 27 7" stroke="#000000"/> 		<path id="_C2F765AA-AB09-4542-A6EE-82E308AEA228frame3" oryx:anchors="top left" style="opacity:1;fill:none;stroke-width:2" d="M 13.5 11 L 26 11" stroke="#000000"/> 		<path id="_C2F765AA-AB09-4542-A6EE-82E308AEA228frame4" oryx:anchors="top left" style="opacity:1;fill:none;stroke-width:1.5" d="M 14 14.5 L 25 14.5" stroke="#000000"/> 		<path id="_C2F765AA-AB09-4542-A6EE-82E308AEA228frame5" oryx:anchors="top left" style="opacity:1;fill:none;stroke-width:1.5" d="M 8.2 3.1 L 15 3.1" stroke="#000000"/> 	</g> 	 	<g id="_C2F765AA-AB09-4542-A6EE-82E308AEA228businessRuleTask" transform="scale(0.7,0.7) translate(8,8)" display="none"> 		<rect id="_C2F765AA-AB09-4542-A6EE-82E308AEA228frame6" oryx:anchors="top left" x="0" y="0" width="22" height="4" style="opacity:1;fill:#B3B1B3;fill-opacity:1;" stroke="#000000"/> 		<rect id="_C2F765AA-AB09-4542-A6EE-82E308AEA228frame7" oryx:anchors="top left" x="0" y="4" style="opacity:1;fill:none;" width="22" height="12" stroke="#000000"/> 		<path id="_C2F765AA-AB09-4542-A6EE-82E308AEA228frame8" oryx:anchors="top left" style="opacity:1;fill:none;" d="M 0 10 L 22 10" stroke="#000000"/> 		<path id="_C2F765AA-AB09-4542-A6EE-82E308AEA228frame9" oryx:anchors="top left" style="opacity:1; fill:none;" d="M 7 4 L 7 16" stroke="#000000"/> 	</g> 	 	<g id="_C2F765AA-AB09-4542-A6EE-82E308AEA228scriptTask" transform="scale(0.7,0.7) translate(8,8)" display="none"> 		<path oryx:anchors="top left" id="_C2F765AA-AB09-4542-A6EE-82E308AEA228frame10" style="opacity:1;fill:none;" stroke="#000000" d="M6.402,0.5h14.5c0,0-5.833,2.833-5.833,5.583s4.417,6,4.417,9.167    s-4.167,5.083-4.167,5.083H0.235c0,0,5-2.667,5-5s-4.583-6.75-4.583-9.25S6.402,0.5,6.402,0.5z"/> 		<path oryx:anchors="top left" id="_C2F765AA-AB09-4542-A6EE-82E308AEA228frame11" style="opacity:1;fill:none;stroke-width:1.5" d="M 3.5 4.5 L 13.5 4.5" stroke="#000000"/> 		<path oryx:anchors="top left" id="_C2F765AA-AB09-4542-A6EE-82E308AEA228frame12" style="opacity:1;fill:none;stroke-width:1.5" d="M 3.8 8.5 L 13.8 8.5" stroke="#000000"/> 		<path oryx:anchors="top left" id="_C2F765AA-AB09-4542-A6EE-82E308AEA228frame13" style="opacity:1;fill:none;stroke-width:1.5" d="M 6.3 12.5 L 16.3 12.5" stroke="#000000"/> 		<path oryx:anchors="top left" id="_C2F765AA-AB09-4542-A6EE-82E308AEA228frame14" style="opacity:1;fill:none;stroke-width:1.5" d="M 6.5 16.5 L 16.5 16.5" stroke="#000000"/> 	</g> 	 	<g id="_C2F765AA-AB09-4542-A6EE-82E308AEA228userTask" transform="scale(0.7,0.7) translate(8,8)" display="none"> 		<path id="_C2F765AA-AB09-4542-A6EE-82E308AEA228frame15" oryx:anchors="top left" style="opacity:1;fill:#F4F6F7" stroke="#000000" d="M0.585,24.167h24.083v-7.833c0,0-2.333-3.917-7.083-5.167h-9.25    c-4.417,1.333-7.833,5.75-7.833,5.75L0.585,24.167z"/> 		<path id="_C2F765AA-AB09-4542-A6EE-82E308AEA228frame16" oryx:anchors="top left" style="opacity:1;fill:none" d="M 6 20 L 6 24" stroke="#000000"/> 		<path id="_C2F765AA-AB09-4542-A6EE-82E308AEA228frame17" oryx:anchors="top left" style="opacity:1;fill:none" d="M 20 20 L 20 24" stroke="#000000"/> 		<circle id="_C2F765AA-AB09-4542-A6EE-82E308AEA228frame18" oryx:anchors="top left" fill="black" cx="13.002" cy="5.916" r="5.417" stroke="#000000"/> 		<path id="_C2F765AA-AB09-4542-A6EE-82E308AEA228frame19" oryx:anchors="top left" style="opacity:1;fill:#F0EFF0;" stroke="#000000" d="M8.043,7.083c0,0,2.814-2.426,5.376-1.807s4.624-0.693,4.624-0.693    c0.25,1.688,0.042,3.75-1.458,5.584c0,0,1.083,0.75,1.083,1.5s0.125,1.875-1,3s-5.5,1.25-6.75,0S8.668,12.834,8.668,12    s0.583-1.25,1.25-1.917C8.835,9.5,7.419,7.708,8.043,7.083z"/> 	</g> 	 	<g id="_C2F765AA-AB09-4542-A6EE-82E308AEA228serviceTask" transform="scale(0.7,0.7) translate(8,8)" display="none"> 		<polygon oryx:anchors="top left" id="_C2F765AA-AB09-4542-A6EE-82E308AEA228frame20" style="opacity:1;fill:#ffffff" stroke="#000000" points="15.392,5.064 17.954,2.502 20.347,4.895 17.786,7.455     18.729,9.732 22.353,9.732 22.353,13.115 18.731,13.115 17.788,15.392 20.351,17.955 17.958,20.347 15.397,17.786 13.12,18.729     13.12,22.353 9.737,22.353 9.737,18.731 7.46,17.788 4.897,20.35 2.506,17.958 5.066,15.397 4.124,13.12 0.5,13.12 0.5,9.737     4.121,9.737 5.065,7.461 2.503,4.898 4.895,2.506 7.455,5.066 9.732,4.125 9.732,0.5 13.116,0.5 13.116,4.121 "/> 		<circle oryx:anchors="top left" id="_C2F765AA-AB09-4542-A6EE-82E308AEA228frame21" style="opacity:1;fill:none" stroke="#000000" cx="11.427" cy="11.426" r="3.714"/> 		<polygon oryx:anchors="top left" id="_C2F765AA-AB09-4542-A6EE-82E308AEA228frame22" style="opacity:1;fill:#ffffff" stroke="#000000" points="21.392,11.064 23.954,8.502 26.347,10.895 23.786,13.455     24.729,15.732 28.353,15.732 28.353,19.115 24.731,19.115 23.788,21.392 26.351,23.955 23.958,26.347 21.397,23.786 19.12,24.729     19.12,28.353 15.737,28.353 15.737,24.731 13.46,23.788 10.897,26.35 8.506,23.958 11.066,21.397 10.124,19.12 6.5,19.12     6.5,15.737 10.121,15.737 11.065,13.461 8.503,10.898 10.895,8.506 13.455,11.066 15.732,10.125 15.732,6.5 19.116,6.5     19.116,10.121 "/> 		<circle oryx:anchors="top left" id="_C2F765AA-AB09-4542-A6EE-82E308AEA228frame23" style="opacity:1;fill:none;" stroke="#000000" cx="17.427" cy="17.426" r="3.714"/> 	</g> 	 	<g id="_C2F765AA-AB09-4542-A6EE-82E308AEA228sendTask" display="none"> 		<path id="_C2F765AA-AB09-4542-A6EE-82E308AEA228stframe24" oryx:anchors="left top" stroke="#FFFFFF" fill="black" stroke-width="1" d="M8,11 L8,21 L24,21 L24,11 L16,17z"/> 		<path id="_C2F765AA-AB09-4542-A6EE-82E308AEA228stframe25" oryx:anchors="left top" stroke="#FFFFFF" fill="black" stroke-width="1" d="M7,10 L16,17 L25 10z"/> 	</g> 	 	<g id="_C2F765AA-AB09-4542-A6EE-82E308AEA228receiveTask" display="none"> 		<path id="_C2F765AA-AB09-4542-A6EE-82E308AEA228frame26" oryx:anchors="left top" stroke="#000000" fill="none" stroke-width="1" d="M8,11 L8,21 L24,21 L24,11z M8,11 L16,17 L24,11"/> 	</g> 	 	<g id="_C2F765AA-AB09-4542-A6EE-82E308AEA228none" display="inherit"/>  	<g id="_C2F765AA-AB09-4542-A6EE-82E308AEA228sequential" display="none">         <path oryx:anchors="bottom" fill="none" stroke="#000000" stroke-width="2" d="M46,76h10M46,72h10 M46,68h10" id="_C2F765AA-AB09-4542-A6EE-82E308AEA228__C2F765AA-AB09-4542-A6EE-82E308AEA228_20"/>     </g>   </g></g><g class="children" style="overflow:hidden"/><g class="edge"/></g><g class="controls"><g class="dockers"/><g class="magnets" transform="translate(440, 140)"><g pointer-events="all" display="none" transform="translate(-7, 12)"><circle cx="8" cy="8" r="4" stroke="none" fill="red" fill-opacity="0.3"/></g><g pointer-events="all" display="none" transform="translate(-7, 32)"><circle cx="8" cy="8" r="4" stroke="none" fill="red" fill-opacity="0.3"/></g><g pointer-events="all" display="none" transform="translate(-7, 52)"><circle cx="8" cy="8" r="4" stroke="none" fill="red" fill-opacity="0.3"/></g><g pointer-events="all" display="none" transform="translate(17, 71)"><circle cx="8" cy="8" r="4" stroke="none" fill="red" fill-opacity="0.3"/></g><g pointer-events="all" display="none" transform="translate(42, 71)"><circle cx="8" cy="8" r="4" stroke="none" fill="red" fill-opacity="0.3"/></g><g pointer-events="all" display="none" transform="translate(67, 71)"><circle cx="8" cy="8" r="4" stroke="none" fill="red" fill-opacity="0.3"/></g><g pointer-events="all" display="none" transform="translate(91, 12)"><circle cx="8" cy="8" r="4" stroke="none" fill="red" fill-opacity="0.3"/></g><g pointer-events="all" display="none" transform="translate(91, 32)"><circle cx="8" cy="8" r="4" stroke="none" fill="red" fill-opacity="0.3"/></g><g pointer-events="all" display="none" transform="translate(91, 52)"><circle cx="8" cy="8" r="4" stroke="none" fill="red" fill-opacity="0.3"/></g><g pointer-events="all" display="none" transform="translate(17, -7)"><circle cx="8" cy="8" r="4" stroke="none" fill="red" fill-opacity="0.3"/></g><g pointer-events="all" display="none" transform="translate(42, -7)"><circle cx="8" cy="8" r="4" stroke="none" fill="red" fill-opacity="0.3"/></g><g pointer-events="all" display="none" transform="translate(67, -7)"><circle cx="8" cy="8" r="4" stroke="none" fill="red" fill-opacity="0.3"/></g><g pointer-events="all" display="none" transform="translate(42, 32)"><circle cx="8" cy="8" r="4" stroke="none" fill="red" fill-opacity="0.3"/></g></g></g></g><g id="_EB1324C0-761D-4082-9EC2-9ADA7DEE2C1C" bpmn2nodeid="_A59B5CE5-9E51-43BB-BE6C-17D746A3E04A"><g class="stencils" transform="translate(585, 166)"><g class="me"><g pointer-events="fill" id="_EB1324C0-761D-4082-9EC2-9ADA7DEE2C1C">      <defs id="_EB1324C0-761D-4082-9EC2-9ADA7DEE2C1C__EB1324C0-761D-4082-9EC2-9ADA7DEE2C1C_5"> 		<radialGradient id="_EB1324C0-761D-4082-9EC2-9ADA7DEE2C1Cbackground" cx="10%" cy="10%" r="100%" fx="10%" fy="10%"> 			<stop offset="0%" stop-color="#ffffff" stop-opacity="1" id="_EB1324C0-761D-4082-9EC2-9ADA7DEE2C1C__EB1324C0-761D-4082-9EC2-9ADA7DEE2C1C_6"/> 			<stop id="_EB1324C0-761D-4082-9EC2-9ADA7DEE2C1Cfill_el" offset="100%" stop-color="#ff6347" stop-opacity="1"/> 		</radialGradient> 	</defs> 	     <circle id="_EB1324C0-761D-4082-9EC2-9ADA7DEE2C1Cbg_frame" cx="14" cy="14" r="14" stroke="#000000" fill="url(#_EB1324C0-761D-4082-9EC2-9ADA7DEE2C1Cbackground) white" stroke-width="3"/> 	<text font-size="11" id="_EB1324C0-761D-4082-9EC2-9ADA7DEE2C1Ctext_name" x="14" y="30" oryx:align="top center" stroke="black" stroke-width="0pt" letter-spacing="-0.01px" fill="#000000" text-anchor="middle" transform="rotate(0 14 30)" visibility="inherit" oryx:fontSize="11"/>   </g></g><g class="children" style="overflow:hidden"/><g class="edge"/></g><g class="controls"><g class="dockers"/><g class="magnets" transform="translate(585, 166)"><g pointer-events="all" display="none" transform="translate(6, 6)"><circle cx="8" cy="8" r="4" stroke="none" fill="red" fill-opacity="0.3"/></g></g></g></g><g id="_4F523EA7-0ECB-4947-AAE5-797256DDDD96" bpmn2nodeid="_26725DAB-9B17-4A83-8B27-E539BA1FA35A"><g class="stencils" transform="translate(425, 80)"><g class="me"><g pointer-events="all" oryx:minimumSize="10 20" oryx:maximumSize="" id="_4F523EA7-0ECB-4947-AAE5-797256DDDD96">   <rect id="_4F523EA7-0ECB-4947-AAE5-797256DDDD96textannotationrect" oryx:resize="vertical horizontal" x="0" y="0" width="100" height="50" stroke="none" fill="none"/>   <path id="_4F523EA7-0ECB-4947-AAE5-797256DDDD96frame" d=" M19 0  L0 0  L0 49  L19 49 " oryx:anchors="top bottom left" stroke="#000000" fill="none" stroke-width="1"/>          <text font-size="12" id="_4F523EA7-0ECB-4947-AAE5-797256DDDD96text_name" x="4" y="24" oryx:align="middle left" oryx:fittoelem="textannotationrect" oryx:anchors="left" stroke="black" stroke-width="0pt" letter-spacing="-0.01px" fill="#000000" text-anchor="start" transform="rotate(0 4 24)" visibility="inherit" oryx:fontSize="12"><tspan x="4" y="24" dy="5">hooks!!!</tspan></text>   </g></g><g class="children" style="overflow:hidden"/><g class="edge"/></g><g class="controls"><g class="dockers"/><g class="magnets" transform="translate(425, 80)"><g pointer-events="all" display="none" transform="translate(-7, 16)"><circle cx="8" cy="8" r="4" stroke="none" fill="red" fill-opacity="0.3"/></g></g></g></g></g><g class="edge"><g id="_2AE0041C-A5F9-4F20-BBFB-773375B0DF94" bpmn2nodeid="_778A7059-BA81-4A47-BAFB-CA726AA314E9"><g class="stencils"><g class="me"><g pointer-events="painted" bpmn2nodeid="_4DCD9CE7-91C9-4D27-8650-4033B513A850"><path id="_2AE0041C-A5F9-4F20-BBFB-773375B0DF94_1" d="M150.6484375 180L209.1953125 180 " stroke="#000000" fill="none" stroke-width="2" stroke-linecap="round" stroke-linejoin="round" marker-start="url(#_2AE0041C-A5F9-4F20-BBFB-773375B0DF94start)" marker-end="url(#_2AE0041C-A5F9-4F20-BBFB-773375B0DF94end)"/></g><text id="_2AE0041C-A5F9-4F20-BBFB-773375B0DF94text_name" font-size="12" x="164.6484375" y="166" oryx:edgePosition="startTop" stroke-width="0pt" letter-spacing="-0.01px" fill="#000000" text-anchor="start" transform="rotate(360 150.6484375 180)" visibility="inherit" oryx:fontSize="12"/></g><g class="children" style="overflow:hidden"/><g class="edge"/></g><g class="controls"><g class="dockers"/><g class="magnets"/></g></g><g id="_86534C85-9C2F-4FEE-AEBD-7E057B1C6964" bpmn2nodeid="_3380D947-D4B2-405E-BDFB-FF1DB363642C"><g class="stencils"><g class="me"><g pointer-events="painted" bpmn2nodeid="_3380D947-D4B2-405E-BDFB-FF1DB363642C"><path id="_86534C85-9C2F-4FEE-AEBD-7E057B1C6964_1" d="M310.62889687999245 180.2191727137662L354.64844687000755 180.4097335362338 " stroke="#000000" fill="none" stroke-width="2" stroke-linecap="round" stroke-linejoin="round" marker-start="url(#_86534C85-9C2F-4FEE-AEBD-7E057B1C6964start)" marker-end="url(#_86534C85-9C2F-4FEE-AEBD-7E057B1C6964end)"/></g><text id="_86534C85-9C2F-4FEE-AEBD-7E057B1C6964text_name" font-size="12" x="324.62889687999245" y="166.2191727137662" oryx:edgePosition="startTop" stroke-width="0pt" letter-spacing="-0.01px" fill="#000000" text-anchor="start" transform="rotate(0.24803212815652387 310.62889687999245 180.2191727137662)" visibility="inherit" oryx:fontSize="12"/></g><g class="children" style="overflow:hidden"/><g class="edge"/></g><g class="controls"><g class="dockers"/><g class="magnets"/></g></g><g id="_56DDBC10-DB60-4FFE-AE07-F1EC7133B23C" bpmn2nodeid="_60CB29BC-7014-4BAE-9416-9572241BA55E"><g class="stencils"><g class="me"><g pointer-events="painted" bpmn2nodeid="_60CB29BC-7014-4BAE-9416-9572241BA55E"><path id="_56DDBC10-DB60-4FFE-AE07-F1EC7133B23C_1" d="M395.28514671561186 180.41360197940782L439.80079078438814 180.21921052059218 " stroke="#000000" fill="none" stroke-width="2" stroke-linecap="round" stroke-linejoin="round" marker-start="url(#_56DDBC10-DB60-4FFE-AE07-F1EC7133B23Cstart)" marker-end="url(#_56DDBC10-DB60-4FFE-AE07-F1EC7133B23Cend)"/></g><text id="_56DDBC10-DB60-4FFE-AE07-F1EC7133B23Ctext_name" font-size="12" x="409.28514671561186" y="166.41360197940782" oryx:edgePosition="startTop" stroke-width="0pt" letter-spacing="-0.01px" fill="#000000" text-anchor="start" transform="rotate(359.74980167980243 395.28514671561186 180.41360197940782)" visibility="inherit" oryx:fontSize="12"/></g><g class="children" style="overflow:hidden"/><g class="edge"/></g><g class="controls"><g class="dockers"/><g class="magnets"/></g></g><g id="_697A1316-91B6-46E7-A6DA-7ECF11672D1B" bpmn2nodeid="_25189D27-0A9D-4FC6-B392-6CB433B0B2F7"><g class="stencils"><g class="me"><g pointer-events="painted" bpmn2nodeid="_25189D27-0A9D-4FC6-B392-6CB433B0B2F7"><path id="_697A1316-91B6-46E7-A6DA-7ECF11672D1B_1" d="M540.390625 180L584.375 180 " stroke="#000000" fill="none" stroke-width="2" stroke-linecap="round" stroke-linejoin="round" marker-start="url(#_697A1316-91B6-46E7-A6DA-7ECF11672D1Bstart)" marker-end="url(#_697A1316-91B6-46E7-A6DA-7ECF11672D1Bend)"/></g><text id="_697A1316-91B6-46E7-A6DA-7ECF11672D1Btext_name" font-size="12" x="554.390625" y="166" oryx:edgePosition="startTop" stroke-width="0pt" letter-spacing="-0.01px" fill="#000000" text-anchor="start" transform="rotate(360 540.390625 180)" visibility="inherit" oryx:fontSize="12"/></g><g class="children" style="overflow:hidden"/><g class="edge"/></g><g class="controls"><g class="dockers"/><g class="magnets"/></g></g><g id="_DBDFAB20-E411-4293-BD96-181366A92D3D" bpmn2nodeid="_2245A943-585E-4A80-84C2-64E3116E7AFF"><g class="stencils"><g class="me"><g pointer-events="painted" bpmn2nodeid="_2245A943-585E-4A80-84C2-64E3116E7AFF"><path id="_DBDFAB20-E411-4293-BD96-181366A92D3D_1" d="M383.94154319707025 167.71231575097278L424.66001930292975 106.02987174902721 " stroke="#000000" fill="none" stroke-width="2" stroke-dasharray="3, 4"/></g><text id="_DBDFAB20-E411-4293-BD96-181366A92D3Dtext_name" x="404.30078125" y="130.87109375" oryx:edgePosition="midTop" oryx:offsetTop="6" style="font-size:9px;" stroke-width="0pt" letter-spacing="-0.01px" text-anchor="middle" transform="rotate(303.430027952098 404.30078125 136.87109375)" visibility="inherit" oryx:fontSize="12"/></g><g class="children" style="overflow:hidden"/><g class="edge"/></g><g class="controls"><g class="dockers"/><g class="magnets"/></g></g></g><text id="_58E62B23-7F19-4E55-B9C6-D0B2E6BE5BF1" style="stroke-width:1;fill:rgb(177,194,214);font-family:arial;font-weight:bold" font-size="12" onclick="ORYX.Plugins.CanvasTitle.openTextualAnalysis()" onmouseover="ORYX.Plugins.CanvasTitle.addToolTip('_58E62B23-7F19-4E55-B9C6-D0B2E6BE5BF1')" transform="translate(10, 20)">Prueba v.1.0 (src.Prueba)</text></g></g></svg>