<svg xmlns="http://www.w3.org/2000/svg" xmlns:oryx="http://oryx-editor.org" id="_B952C8EE-1ACC-4D68-B5D2-4C59561F5909" width="654" height="261" xmlns:xlink="http://www.w3.org/1999/xlink" xmlns:svg="http://www.w3.org/2000/svg"><defs><marker id="_9C225F44-3E6D-4A21-9483-B03D215621FDstart" refX="1" refY="5" markerUnits="userSpaceOnUse" markerWidth="17" markerHeight="11" orient="auto" fill="#000000" stroke="#000000"> 	  		<path id="_9C225F44-3E6D-4A21-9483-B03D215621FDconditional" d="M 0 5 L 8 0 L 16 5 L 8 10 L 0 5" fill="white" stroke="#000000" stroke-width="1" display="none"/> 			<path id="_9C225F44-3E6D-4A21-9483-B03D215621FDdefault" d="M 5 0 L 11 10" fill="white" stroke="#000000" stroke-width="1" display="none"/> 	  	</marker><marker id="_9C225F44-3E6D-4A21-9483-B03D215621FDend" refX="15" refY="6" markerUnits="userSpaceOnUse" markerWidth="15" markerHeight="12" orient="auto" fill="#000000" stroke="#000000"> 	  		<path id="_9C225F44-3E6D-4A21-9483-B03D215621FDframe2" d="M 0 1 L 15 6 L 0 11z" fill="#000000" stroke="#000000" stroke-linejoin="round" stroke-width="2"/> 	  	</marker><marker id="_6CC11BE6-D9BB-432B-98E5-BE2098C91084start" refX="1" refY="5" markerUnits="userSpaceOnUse" markerWidth="17" markerHeight="11" orient="auto" fill="#000000" stroke="#000000"> 	  		<path id="_6CC11BE6-D9BB-432B-98E5-BE2098C91084conditional" d="M 0 5 L 8 0 L 16 5 L 8 10 L 0 5" fill="white" stroke="#000000" stroke-width="1" display="none"/> 			<path id="_6CC11BE6-D9BB-432B-98E5-BE2098C91084default" d="M 5 0 L 11 10" fill="white" stroke="#000000" stroke-width="1" display="none"/> 	  	</marker><marker id="_6CC11BE6-D9BB-432B-98E5-BE2098C91084end" refX="15" refY="6" markerUnits="userSpaceOnUse" markerWidth="15" markerHeight="12" orient="auto" fill="#000000" stroke="#000000"> 	  		<path id="_6CC11BE6-D9BB-432B-98E5-BE2098C91084frame2" d="M 0 1 L 15 6 L 0 11z" fill="#000000" stroke="#000000" stroke-linejoin="round" stroke-width="2"/> 	  	</marker><marker id="_C4581239-2A9D-478D-ADBB-EF5DD76297A5start" refX="1" refY="5" markerUnits="userSpaceOnUse" markerWidth="17" markerHeight="11" orient="auto" fill="#000000" stroke="#000000"> 	  		<path id="_C4581239-2A9D-478D-ADBB-EF5DD76297A5conditional" d="M 0 5 L 8 0 L 16 5 L 8 10 L 0 5" fill="white" stroke="#000000" stroke-width="1" display="none"/> 			<path id="_C4581239-2A9D-478D-ADBB-EF5DD76297A5default" d="M 5 0 L 11 10" fill="white" stroke="#000000" stroke-width="1" display="none"/> 	  	</marker><marker id="_C4581239-2A9D-478D-ADBB-EF5DD76297A5end" refX="15" refY="6" markerUnits="userSpaceOnUse" markerWidth="15" markerHeight="12" orient="auto" fill="#000000" stroke="#000000"> 	  		<path id="_C4581239-2A9D-478D-ADBB-EF5DD76297A5frame2" d="M 0 1 L 15 6 L 0 11z" fill="#000000" stroke="#000000" stroke-linejoin="round" stroke-width="2"/> 	  	</marker><marker id="_9C3F5A3A-CF54-4312-A8B6-E84648009BAEstart" refX="1" refY="5" markerUnits="userSpaceOnUse" markerWidth="17" markerHeight="11" orient="auto" fill="#000000" stroke="#000000"> 	  		<path id="_9C3F5A3A-CF54-4312-A8B6-E84648009BAEconditional" d="M 0 5 L 8 0 L 16 5 L 8 10 L 0 5" fill="white" stroke="#000000" stroke-width="1" display="none"/> 			<path id="_9C3F5A3A-CF54-4312-A8B6-E84648009BAEdefault" d="M 5 0 L 11 10" fill="white" stroke="#000000" stroke-width="1" display="none"/> 	  	</marker><marker id="_9C3F5A3A-CF54-4312-A8B6-E84648009BAEend" refX="15" refY="6" markerUnits="userSpaceOnUse" markerWidth="15" markerHeight="12" orient="auto" fill="#000000" stroke="#000000"> 	  		<path id="_9C3F5A3A-CF54-4312-A8B6-E84648009BAEframe2" d="M 0 1 L 15 6 L 0 11z" fill="#000000" stroke="#000000" stroke-linejoin="round" stroke-width="2"/> 	  	</marker></defs><g stroke="none" font-family="Verdana, sans-serif" font-size-adjust="none" font-style="normal" font-variant="normal" font-weight="normal" line-heigth="normal" font-size="12"><g class="stencils" transform="translate(16, 16)"><g class="me"/><g class="children"><g id="_383C2B3F-46D8-4796-AD94-EFFE04FB7377" bpmn2nodeid="processStartEvent"><g class="stencils" transform="translate(120, 165)"><g class="me"><g pointer-events="fill" id="_383C2B3F-46D8-4796-AD94-EFFE04FB7377">        <defs id="_383C2B3F-46D8-4796-AD94-EFFE04FB7377__383C2B3F-46D8-4796-AD94-EFFE04FB7377_5"> 		<radialGradient id="_383C2B3F-46D8-4796-AD94-EFFE04FB7377background" cx="10%" cy="10%" r="100%" fx="10%" fy="10%"> 			<stop offset="0%" stop-color="#ffffff" stop-opacity="1" id="_383C2B3F-46D8-4796-AD94-EFFE04FB7377__383C2B3F-46D8-4796-AD94-EFFE04FB7377_6"/> 			<stop id="_383C2B3F-46D8-4796-AD94-EFFE04FB7377fill_el" offset="100%" stop-color="#9acd32" stop-opacity="1"/> 		</radialGradient> 	</defs> 	     <circle id="_383C2B3F-46D8-4796-AD94-EFFE04FB7377bg_frame" cx="15" cy="15" r="15" stroke="#000000" fill="url(#_383C2B3F-46D8-4796-AD94-EFFE04FB7377background) white" stroke-width="1" style="stroke-dasharray: 5.5, 3"/>      <circle id="_383C2B3F-46D8-4796-AD94-EFFE04FB7377frame" cx="15" cy="15" r="15" stroke="#000000" fill="none" stroke-width="1" display="inherit"/>  	<text font-size="11" id="_383C2B3F-46D8-4796-AD94-EFFE04FB7377text_name" x="15" y="32" oryx:align="top center" stroke="black" stroke-width="0pt" letter-spacing="-0.01px" fill="#000000" text-anchor="middle" transform="rotate(0 15 32)" visibility="inherit" oryx:fontSize="11"/>   </g></g><g class="children" style="overflow:hidden"/><g class="edge"/></g><g class="controls"><g class="dockers"/><g class="magnets" transform="translate(120, 165)"><g pointer-events="all" display="none" transform="translate(7, 7)"><circle cx="8" cy="8" r="4" stroke="none" fill="red" fill-opacity="0.3"/></g></g></g></g><g id="_8E25117D-1F72-48FC-B385-A36501E6E75F" bpmn2nodeid="_F03734A3-BA51-4D9B-984E-2C94F634AC4A"><g class="stencils" transform="translate(210, 140)"><g class="me"><g pointer-events="fill" oryx:minimumSize="50 40" id="_8E25117D-1F72-48FC-B385-A36501E6E75F">   	<defs id="_8E25117D-1F72-48FC-B385-A36501E6E75F__8E25117D-1F72-48FC-B385-A36501E6E75F_17"> 		<radialGradient id="_8E25117D-1F72-48FC-B385-A36501E6E75Fbackground" cx="10%" cy="10%" r="100%" fx="10%" fy="10%"> 			<stop offset="0%" stop-color="#ffffff" stop-opacity="1" id="_8E25117D-1F72-48FC-B385-A36501E6E75F__8E25117D-1F72-48FC-B385-A36501E6E75F_18"/> 			<stop id="_8E25117D-1F72-48FC-B385-A36501E6E75Ffill_el" offset="100%" stop-color="#fafad2" stop-opacity="1"/> 		</radialGradient> 		<radialGradient id="_8E25117D-1F72-48FC-B385-A36501E6E75Fborderbackground" cx="10%" cy="10%" r="100%" fx="10%" fy="10%"> 			<stop offset="0%" stop-color="#ffffff" stop-opacity="1" id="_8E25117D-1F72-48FC-B385-A36501E6E75F__8E25117D-1F72-48FC-B385-A36501E6E75F_19"/> 			<stop id="_8E25117D-1F72-48FC-B385-A36501E6E75Ffill_border" offset="100%" stop-color="#000000" stop-opacity="1" stroke="#000000"/> 		</radialGradient> 	</defs> 	 	<rect id="_8E25117D-1F72-48FC-B385-A36501E6E75Ftext_frame" oryx:anchors="bottom top right left" x="1" y="1" width="94" height="79" rx="10" ry="10" stroke="none" stroke-width="0" fill="none"/> 	<rect id="_8E25117D-1F72-48FC-B385-A36501E6E75Fbg_frame" oryx:resize="vertical horizontal" x="0" y="0" width="100" height="80" rx="10" ry="10" stroke="#000000" stroke-width="1" fill="url(#_8E25117D-1F72-48FC-B385-A36501E6E75Fbackground) #ffffcc"/> 		<text font-size="12" id="_8E25117D-1F72-48FC-B385-A36501E6E75Ftext_name" x="50" y="40" oryx:align="middle center" oryx:fittoelem="text_frame" stroke="black" text-anchor="middle" stroke-width="0pt" letter-spacing="-0.01px" fill="#000000" transform="rotate(0 50 40)" visibility="inherit" oryx:fontSize="12"><tspan x="50" y="40" dy="5">Tarea Prueba 1</tspan></text>     <g id="_8E25117D-1F72-48FC-B385-A36501E6E75FmanualTask" transform="scale(0.7,0.7) translate(8,8)" display="none">     	<path oryx:anchors="top left" id="_8E25117D-1F72-48FC-B385-A36501E6E75Fframe" style="opacity:1;fill:none;fill-opacity:1;stroke-width:1" d="M0.5,3.751l4.083-3.25c0,0,11.166,0.083,12.083,0.083s-2.417,2.917-1.5,2.917     s11.667,0,12.584,0c1.166,1.708-0.168,3.167-0.834,3.667s0.875,1.917-1,4.417c-0.75,0.25,0.75,1.875-1.333,3.333     c-1.167,0.583,0.583,1.542-1.25,2.833c-1.167,0-20.833,0.083-20.833,0.083l-2-1.333V3.751z" stroke="#000000"/> 		<path id="_8E25117D-1F72-48FC-B385-A36501E6E75Fframe2" oryx:anchors="top left" style="opacity:1;fill:none;stroke-width:2" d="M 13.5 7 L 27 7" stroke="#000000"/> 		<path id="_8E25117D-1F72-48FC-B385-A36501E6E75Fframe3" oryx:anchors="top left" style="opacity:1;fill:none;stroke-width:2" d="M 13.5 11 L 26 11" stroke="#000000"/> 		<path id="_8E25117D-1F72-48FC-B385-A36501E6E75Fframe4" oryx:anchors="top left" style="opacity:1;fill:none;stroke-width:1.5" d="M 14 14.5 L 25 14.5" stroke="#000000"/> 		<path id="_8E25117D-1F72-48FC-B385-A36501E6E75Fframe5" oryx:anchors="top left" style="opacity:1;fill:none;stroke-width:1.5" d="M 8.2 3.1 L 15 3.1" stroke="#000000"/> 	</g> 	 	<g id="_8E25117D-1F72-48FC-B385-A36501E6E75FbusinessRuleTask" transform="scale(0.7,0.7) translate(8,8)" display="none"> 		<rect id="_8E25117D-1F72-48FC-B385-A36501E6E75Fframe6" oryx:anchors="top left" x="0" y="0" width="22" height="4" style="opacity:1;fill:#B3B1B3;fill-opacity:1;" stroke="#000000"/> 		<rect id="_8E25117D-1F72-48FC-B385-A36501E6E75Fframe7" oryx:anchors="top left" x="0" y="4" style="opacity:1;fill:none;" width="22" height="12" stroke="#000000"/> 		<path id="_8E25117D-1F72-48FC-B385-A36501E6E75Fframe8" oryx:anchors="top left" style="opacity:1;fill:none;" d="M 0 10 L 22 10" stroke="#000000"/> 		<path id="_8E25117D-1F72-48FC-B385-A36501E6E75Fframe9" oryx:anchors="top left" style="opacity:1; fill:none;" d="M 7 4 L 7 16" stroke="#000000"/> 	</g> 	 	<g id="_8E25117D-1F72-48FC-B385-A36501E6E75FscriptTask" transform="scale(0.7,0.7) translate(8,8)" display="none"> 		<path oryx:anchors="top left" id="_8E25117D-1F72-48FC-B385-A36501E6E75Fframe10" style="opacity:1;fill:none;" stroke="#000000" d="M6.402,0.5h14.5c0,0-5.833,2.833-5.833,5.583s4.417,6,4.417,9.167    s-4.167,5.083-4.167,5.083H0.235c0,0,5-2.667,5-5s-4.583-6.75-4.583-9.25S6.402,0.5,6.402,0.5z"/> 		<path oryx:anchors="top left" id="_8E25117D-1F72-48FC-B385-A36501E6E75Fframe11" style="opacity:1;fill:none;stroke-width:1.5" d="M 3.5 4.5 L 13.5 4.5" stroke="#000000"/> 		<path oryx:anchors="top left" id="_8E25117D-1F72-48FC-B385-A36501E6E75Fframe12" style="opacity:1;fill:none;stroke-width:1.5" d="M 3.8 8.5 L 13.8 8.5" stroke="#000000"/> 		<path oryx:anchors="top left" id="_8E25117D-1F72-48FC-B385-A36501E6E75Fframe13" style="opacity:1;fill:none;stroke-width:1.5" d="M 6.3 12.5 L 16.3 12.5" stroke="#000000"/> 		<path oryx:anchors="top left" id="_8E25117D-1F72-48FC-B385-A36501E6E75Fframe14" style="opacity:1;fill:none;stroke-width:1.5" d="M 6.5 16.5 L 16.5 16.5" stroke="#000000"/> 	</g> 	 	<g id="_8E25117D-1F72-48FC-B385-A36501E6E75FuserTask" transform="scale(0.7,0.7) translate(8,8)" display="inherit"> 		<path id="_8E25117D-1F72-48FC-B385-A36501E6E75Fframe15" oryx:anchors="top left" style="opacity:1;fill:#F4F6F7" stroke="#000000" d="M0.585,24.167h24.083v-7.833c0,0-2.333-3.917-7.083-5.167h-9.25    c-4.417,1.333-7.833,5.75-7.833,5.75L0.585,24.167z"/> 		<path id="_8E25117D-1F72-48FC-B385-A36501E6E75Fframe16" oryx:anchors="top left" style="opacity:1;fill:none" d="M 6 20 L 6 24" stroke="#000000"/> 		<path id="_8E25117D-1F72-48FC-B385-A36501E6E75Fframe17" oryx:anchors="top left" style="opacity:1;fill:none" d="M 20 20 L 20 24" stroke="#000000"/> 		<circle id="_8E25117D-1F72-48FC-B385-A36501E6E75Fframe18" oryx:anchors="top left" fill="black" cx="13.002" cy="5.916" r="5.417" stroke="#000000"/> 		<path id="_8E25117D-1F72-48FC-B385-A36501E6E75Fframe19" oryx:anchors="top left" style="opacity:1;fill:#F0EFF0;" stroke="#000000" d="M8.043,7.083c0,0,2.814-2.426,5.376-1.807s4.624-0.693,4.624-0.693    c0.25,1.688,0.042,3.75-1.458,5.584c0,0,1.083,0.75,1.083,1.5s0.125,1.875-1,3s-5.5,1.25-6.75,0S8.668,12.834,8.668,12    s0.583-1.25,1.25-1.917C8.835,9.5,7.419,7.708,8.043,7.083z"/> 	</g> 	 	<g id="_8E25117D-1F72-48FC-B385-A36501E6E75FserviceTask" transform="scale(0.7,0.7) translate(8,8)" display="none"> 		<polygon oryx:anchors="top left" id="_8E25117D-1F72-48FC-B385-A36501E6E75Fframe20" style="opacity:1;fill:#ffffff" stroke="#000000" points="15.392,5.064 17.954,2.502 20.347,4.895 17.786,7.455     18.729,9.732 22.353,9.732 22.353,13.115 18.731,13.115 17.788,15.392 20.351,17.955 17.958,20.347 15.397,17.786 13.12,18.729     13.12,22.353 9.737,22.353 9.737,18.731 7.46,17.788 4.897,20.35 2.506,17.958 5.066,15.397 4.124,13.12 0.5,13.12 0.5,9.737     4.121,9.737 5.065,7.461 2.503,4.898 4.895,2.506 7.455,5.066 9.732,4.125 9.732,0.5 13.116,0.5 13.116,4.121 "/> 		<circle oryx:anchors="top left" id="_8E25117D-1F72-48FC-B385-A36501E6E75Fframe21" style="opacity:1;fill:none" stroke="#000000" cx="11.427" cy="11.426" r="3.714"/> 		<polygon oryx:anchors="top left" id="_8E25117D-1F72-48FC-B385-A36501E6E75Fframe22" style="opacity:1;fill:#ffffff" stroke="#000000" points="21.392,11.064 23.954,8.502 26.347,10.895 23.786,13.455     24.729,15.732 28.353,15.732 28.353,19.115 24.731,19.115 23.788,21.392 26.351,23.955 23.958,26.347 21.397,23.786 19.12,24.729     19.12,28.353 15.737,28.353 15.737,24.731 13.46,23.788 10.897,26.35 8.506,23.958 11.066,21.397 10.124,19.12 6.5,19.12     6.5,15.737 10.121,15.737 11.065,13.461 8.503,10.898 10.895,8.506 13.455,11.066 15.732,10.125 15.732,6.5 19.116,6.5     19.116,10.121 "/> 		<circle oryx:anchors="top left" id="_8E25117D-1F72-48FC-B385-A36501E6E75Fframe23" style="opacity:1;fill:none;" stroke="#000000" cx="17.427" cy="17.426" r="3.714"/> 	</g> 	 	<g id="_8E25117D-1F72-48FC-B385-A36501E6E75FsendTask" display="none"> 		<path id="_8E25117D-1F72-48FC-B385-A36501E6E75Fstframe24" oryx:anchors="left top" stroke="#FFFFFF" fill="black" stroke-width="1" d="M8,11 L8,21 L24,21 L24,11 L16,17z"/> 		<path id="_8E25117D-1F72-48FC-B385-A36501E6E75Fstframe25" oryx:anchors="left top" stroke="#FFFFFF" fill="black" stroke-width="1" d="M7,10 L16,17 L25 10z"/> 	</g> 	 	<g id="_8E25117D-1F72-48FC-B385-A36501E6E75FreceiveTask" display="none"> 		<path id="_8E25117D-1F72-48FC-B385-A36501E6E75Fframe26" oryx:anchors="left top" stroke="#000000" fill="none" stroke-width="1" d="M8,11 L8,21 L24,21 L24,11z M8,11 L16,17 L24,11"/> 	</g> 	 	<g id="_8E25117D-1F72-48FC-B385-A36501E6E75Fnone" display="inherit"/>  	<g id="_8E25117D-1F72-48FC-B385-A36501E6E75Fsequential" display="none">         <path oryx:anchors="bottom" fill="none" stroke="#000000" stroke-width="2" d="M46,76h10M46,72h10 M46,68h10" id="_8E25117D-1F72-48FC-B385-A36501E6E75F__8E25117D-1F72-48FC-B385-A36501E6E75F_20"/>     </g>   </g></g><g class="children" style="overflow:hidden"/><g class="edge"/></g><g class="controls"><g class="dockers"/><g class="magnets" transform="translate(210, 140)"><g pointer-events="all" display="none" transform="translate(-7, 12)"><circle cx="8" cy="8" r="4" stroke="none" fill="red" fill-opacity="0.3"/></g><g pointer-events="all" display="none" transform="translate(-7, 32)"><circle cx="8" cy="8" r="4" stroke="none" fill="red" fill-opacity="0.3"/></g><g pointer-events="all" display="none" transform="translate(-7, 52)"><circle cx="8" cy="8" r="4" stroke="none" fill="red" fill-opacity="0.3"/></g><g pointer-events="all" display="none" transform="translate(17, 71)"><circle cx="8" cy="8" r="4" stroke="none" fill="red" fill-opacity="0.3"/></g><g pointer-events="all" display="none" transform="translate(42, 71)"><circle cx="8" cy="8" r="4" stroke="none" fill="red" fill-opacity="0.3"/></g><g pointer-events="all" display="none" transform="translate(67, 71)"><circle cx="8" cy="8" r="4" stroke="none" fill="red" fill-opacity="0.3"/></g><g pointer-events="all" display="none" transform="translate(91, 12)"><circle cx="8" cy="8" r="4" stroke="none" fill="red" fill-opacity="0.3"/></g><g pointer-events="all" display="none" transform="translate(91, 32)"><circle cx="8" cy="8" r="4" stroke="none" fill="red" fill-opacity="0.3"/></g><g pointer-events="all" display="none" transform="translate(91, 52)"><circle cx="8" cy="8" r="4" stroke="none" fill="red" fill-opacity="0.3"/></g><g pointer-events="all" display="none" transform="translate(17, -7)"><circle cx="8" cy="8" r="4" stroke="none" fill="red" fill-opacity="0.3"/></g><g pointer-events="all" display="none" transform="translate(42, -7)"><circle cx="8" cy="8" r="4" stroke="none" fill="red" fill-opacity="0.3"/></g><g pointer-events="all" display="none" transform="translate(67, -7)"><circle cx="8" cy="8" r="4" stroke="none" fill="red" fill-opacity="0.3"/></g><g pointer-events="all" display="none" transform="translate(42, 32)"><circle cx="8" cy="8" r="4" stroke="none" fill="red" fill-opacity="0.3"/></g></g></g></g><g id="_C978F84A-618F-47AB-AC62-C74328C6FE5B" bpmn2nodeid="_F57330B7-44D2-4C8B-8FA5-E2E99ADFDE34"><g class="stencils" transform="translate(355, 160)"><g class="me"><g id="_C978F84A-618F-47AB-AC62-C74328C6FE5B">        <defs id="_C978F84A-618F-47AB-AC62-C74328C6FE5B__C978F84A-618F-47AB-AC62-C74328C6FE5B_4"> 		<radialGradient id="_C978F84A-618F-47AB-AC62-C74328C6FE5Bbackground" cx="10%" cy="10%" r="100%" fx="10%" fy="10%"> 			<stop offset="0%" stop-color="#ffffff" stop-opacity="1" id="_C978F84A-618F-47AB-AC62-C74328C6FE5B__C978F84A-618F-47AB-AC62-C74328C6FE5B_5"/> 			<stop id="_C978F84A-618F-47AB-AC62-C74328C6FE5Bfill_el" offset="100%" stop-color="#f0e68c" stop-opacity="1"/> 		</radialGradient> 		<radialGradient id="_C978F84A-618F-47AB-AC62-C74328C6FE5Bborderbackground" cx="10%" cy="10%" r="100%" fx="10%" fy="10%"> 			<stop offset="0%" stop-color="#ffffff" stop-opacity="1" id="_C978F84A-618F-47AB-AC62-C74328C6FE5B__C978F84A-618F-47AB-AC62-C74328C6FE5B_6"/> 			<stop id="_C978F84A-618F-47AB-AC62-C74328C6FE5Bfill_border" offset="100%" stop-color="#a67f00" stop-opacity="1" stroke="#a67f00"/> 		</radialGradient> 	</defs> 	     <path d=" M0 20.5  L20.5 0  L40 20.5  L20.5 40  z" id="_C978F84A-618F-47AB-AC62-C74328C6FE5Bbg_frame" fill="url(#_C978F84A-618F-47AB-AC62-C74328C6FE5Bbackground) white" style="stroke-width:1" stroke="#a67f00"/>     <g id="_C978F84A-618F-47AB-AC62-C74328C6FE5Bframe" stroke="#a67f00">       <path id="_C978F84A-618F-47AB-AC62-C74328C6FE5Bframe2" d=" M13.25 12.05  L17.25 12.05  L27.65 28.95  L23.75 28.95  z" style="stroke-width:1" stroke="#a67f00" fill="url(#_C978F84A-618F-47AB-AC62-C74328C6FE5Bborderbackground)"/>       <path id="_C978F84A-618F-47AB-AC62-C74328C6FE5Bframe3" d=" M13.25 28.95  L23.75 12.05  L27.65 12.05  L17.25 28.95  z" style="stroke-width:1" stroke="#a67f00" fill="url(#_C978F84A-618F-47AB-AC62-C74328C6FE5Bborderbackground)"/>     </g> 	 	<text id="_C978F84A-618F-47AB-AC62-C74328C6FE5Btext_name" x="30.5" y="30.5" oryx:align="left top" stroke-width="0pt" letter-spacing="-0.01px" fill="#000000" text-anchor="start" transform="rotate(0 30.5 30.5)" visibility="inherit" oryx:fontSize="12"/> 	   </g></g><g class="children" style="overflow:hidden"/><g class="edge"/></g><g class="controls"><g class="dockers"/><g class="magnets" transform="translate(355, 160)"><g pointer-events="all" display="none" transform="translate(12.5, 12.5)"><circle cx="8" cy="8" r="4" stroke="none" fill="red" fill-opacity="0.3"/></g></g></g></g><g id="_812E33FA-835D-4A4F-A924-6001C9511813" bpmn2nodeid="_67DC32E5-7F08-49C9-8CEF-3C5C69117A12"><g class="stencils" transform="translate(440, 140)"><g class="me"><g pointer-events="fill" oryx:minimumSize="50 40" id="_812E33FA-835D-4A4F-A924-6001C9511813">   	<defs id="_812E33FA-835D-4A4F-A924-6001C9511813__812E33FA-835D-4A4F-A924-6001C9511813_17"> 		<radialGradient id="_812E33FA-835D-4A4F-A924-6001C9511813background" cx="10%" cy="10%" r="100%" fx="10%" fy="10%"> 			<stop offset="0%" stop-color="#ffffff" stop-opacity="1" id="_812E33FA-835D-4A4F-A924-6001C9511813__812E33FA-835D-4A4F-A924-6001C9511813_18"/> 			<stop id="_812E33FA-835D-4A4F-A924-6001C9511813fill_el" offset="100%" stop-color="#fafad2" stop-opacity="1"/> 		</radialGradient> 		<radialGradient id="_812E33FA-835D-4A4F-A924-6001C9511813borderbackground" cx="10%" cy="10%" r="100%" fx="10%" fy="10%"> 			<stop offset="0%" stop-color="#ffffff" stop-opacity="1" id="_812E33FA-835D-4A4F-A924-6001C9511813__812E33FA-835D-4A4F-A924-6001C9511813_19"/> 			<stop id="_812E33FA-835D-4A4F-A924-6001C9511813fill_border" offset="100%" stop-color="#000000" stop-opacity="1" stroke="#000000"/> 		</radialGradient> 	</defs> 	 	<rect id="_812E33FA-835D-4A4F-A924-6001C9511813text_frame" oryx:anchors="bottom top right left" x="1" y="1" width="94" height="79" rx="10" ry="10" stroke="none" stroke-width="0" fill="none"/> 	<rect id="_812E33FA-835D-4A4F-A924-6001C9511813bg_frame" oryx:resize="vertical horizontal" x="0" y="0" width="100" height="80" rx="10" ry="10" stroke="#000000" stroke-width="1" fill="url(#_812E33FA-835D-4A4F-A924-6001C9511813background) #ffffcc"/> 		<text font-size="12" id="_812E33FA-835D-4A4F-A924-6001C9511813text_name" x="50" y="40" oryx:align="middle center" oryx:fittoelem="text_frame" stroke="black" text-anchor="middle" stroke-width="0pt" letter-spacing="-0.01px" fill="#000000" transform="rotate(0 50 40)" visibility="inherit" oryx:fontSize="12"><tspan x="50" y="40" dy="5" id="ext-gen604">Tarea Prueba 2</tspan></text>     <g id="_812E33FA-835D-4A4F-A924-6001C9511813manualTask" transform="scale(0.7,0.7) translate(8,8)" display="none">     	<path oryx:anchors="top left" id="_812E33FA-835D-4A4F-A924-6001C9511813frame" style="opacity:1;fill:none;fill-opacity:1;stroke-width:1" d="M0.5,3.751l4.083-3.25c0,0,11.166,0.083,12.083,0.083s-2.417,2.917-1.5,2.917     s11.667,0,12.584,0c1.166,1.708-0.168,3.167-0.834,3.667s0.875,1.917-1,4.417c-0.75,0.25,0.75,1.875-1.333,3.333     c-1.167,0.583,0.583,1.542-1.25,2.833c-1.167,0-20.833,0.083-20.833,0.083l-2-1.333V3.751z" stroke="#000000"/> 		<path id="_812E33FA-835D-4A4F-A924-6001C9511813frame2" oryx:anchors="top left" style="opacity:1;fill:none;stroke-width:2" d="M 13.5 7 L 27 7" stroke="#000000"/> 		<path id="_812E33FA-835D-4A4F-A924-6001C9511813frame3" oryx:anchors="top left" style="opacity:1;fill:none;stroke-width:2" d="M 13.5 11 L 26 11" stroke="#000000"/> 		<path id="_812E33FA-835D-4A4F-A924-6001C9511813frame4" oryx:anchors="top left" style="opacity:1;fill:none;stroke-width:1.5" d="M 14 14.5 L 25 14.5" stroke="#000000"/> 		<path id="_812E33FA-835D-4A4F-A924-6001C9511813frame5" oryx:anchors="top left" style="opacity:1;fill:none;stroke-width:1.5" d="M 8.2 3.1 L 15 3.1" stroke="#000000"/> 	</g> 	 	<g id="_812E33FA-835D-4A4F-A924-6001C9511813businessRuleTask" transform="scale(0.7,0.7) translate(8,8)" display="none"> 		<rect id="_812E33FA-835D-4A4F-A924-6001C9511813frame6" oryx:anchors="top left" x="0" y="0" width="22" height="4" style="opacity:1;fill:#B3B1B3;fill-opacity:1;" stroke="#000000"/> 		<rect id="_812E33FA-835D-4A4F-A924-6001C9511813frame7" oryx:anchors="top left" x="0" y="4" style="opacity:1;fill:none;" width="22" height="12" stroke="#000000"/> 		<path id="_812E33FA-835D-4A4F-A924-6001C9511813frame8" oryx:anchors="top left" style="opacity:1;fill:none;" d="M 0 10 L 22 10" stroke="#000000"/> 		<path id="_812E33FA-835D-4A4F-A924-6001C9511813frame9" oryx:anchors="top left" style="opacity:1; fill:none;" d="M 7 4 L 7 16" stroke="#000000"/> 	</g> 	 	<g id="_812E33FA-835D-4A4F-A924-6001C9511813scriptTask" transform="scale(0.7,0.7) translate(8,8)" display="none"> 		<path oryx:anchors="top left" id="_812E33FA-835D-4A4F-A924-6001C9511813frame10" style="opacity:1;fill:none;" stroke="#000000" d="M6.402,0.5h14.5c0,0-5.833,2.833-5.833,5.583s4.417,6,4.417,9.167    s-4.167,5.083-4.167,5.083H0.235c0,0,5-2.667,5-5s-4.583-6.75-4.583-9.25S6.402,0.5,6.402,0.5z"/> 		<path oryx:anchors="top left" id="_812E33FA-835D-4A4F-A924-6001C9511813frame11" style="opacity:1;fill:none;stroke-width:1.5" d="M 3.5 4.5 L 13.5 4.5" stroke="#000000"/> 		<path oryx:anchors="top left" id="_812E33FA-835D-4A4F-A924-6001C9511813frame12" style="opacity:1;fill:none;stroke-width:1.5" d="M 3.8 8.5 L 13.8 8.5" stroke="#000000"/> 		<path oryx:anchors="top left" id="_812E33FA-835D-4A4F-A924-6001C9511813frame13" style="opacity:1;fill:none;stroke-width:1.5" d="M 6.3 12.5 L 16.3 12.5" stroke="#000000"/> 		<path oryx:anchors="top left" id="_812E33FA-835D-4A4F-A924-6001C9511813frame14" style="opacity:1;fill:none;stroke-width:1.5" d="M 6.5 16.5 L 16.5 16.5" stroke="#000000"/> 	</g> 	 	<g id="_812E33FA-835D-4A4F-A924-6001C9511813userTask" transform="scale(0.7,0.7) translate(8,8)" display="none"> 		<path id="_812E33FA-835D-4A4F-A924-6001C9511813frame15" oryx:anchors="top left" style="opacity:1;fill:#F4F6F7" stroke="#000000" d="M0.585,24.167h24.083v-7.833c0,0-2.333-3.917-7.083-5.167h-9.25    c-4.417,1.333-7.833,5.75-7.833,5.75L0.585,24.167z"/> 		<path id="_812E33FA-835D-4A4F-A924-6001C9511813frame16" oryx:anchors="top left" style="opacity:1;fill:none" d="M 6 20 L 6 24" stroke="#000000"/> 		<path id="_812E33FA-835D-4A4F-A924-6001C9511813frame17" oryx:anchors="top left" style="opacity:1;fill:none" d="M 20 20 L 20 24" stroke="#000000"/> 		<circle id="_812E33FA-835D-4A4F-A924-6001C9511813frame18" oryx:anchors="top left" fill="black" cx="13.002" cy="5.916" r="5.417" stroke="#000000"/> 		<path id="_812E33FA-835D-4A4F-A924-6001C9511813frame19" oryx:anchors="top left" style="opacity:1;fill:#F0EFF0;" stroke="#000000" d="M8.043,7.083c0,0,2.814-2.426,5.376-1.807s4.624-0.693,4.624-0.693    c0.25,1.688,0.042,3.75-1.458,5.584c0,0,1.083,0.75,1.083,1.5s0.125,1.875-1,3s-5.5,1.25-6.75,0S8.668,12.834,8.668,12    s0.583-1.25,1.25-1.917C8.835,9.5,7.419,7.708,8.043,7.083z"/> 	</g> 	 	<g id="_812E33FA-835D-4A4F-A924-6001C9511813serviceTask" transform="scale(0.7,0.7) translate(8,8)" display="none"> 		<polygon oryx:anchors="top left" id="_812E33FA-835D-4A4F-A924-6001C9511813frame20" style="opacity:1;fill:#ffffff" stroke="#000000" points="15.392,5.064 17.954,2.502 20.347,4.895 17.786,7.455     18.729,9.732 22.353,9.732 22.353,13.115 18.731,13.115 17.788,15.392 20.351,17.955 17.958,20.347 15.397,17.786 13.12,18.729     13.12,22.353 9.737,22.353 9.737,18.731 7.46,17.788 4.897,20.35 2.506,17.958 5.066,15.397 4.124,13.12 0.5,13.12 0.5,9.737     4.121,9.737 5.065,7.461 2.503,4.898 4.895,2.506 7.455,5.066 9.732,4.125 9.732,0.5 13.116,0.5 13.116,4.121 "/> 		<circle oryx:anchors="top left" id="_812E33FA-835D-4A4F-A924-6001C9511813frame21" style="opacity:1;fill:none" stroke="#000000" cx="11.427" cy="11.426" r="3.714"/> 		<polygon oryx:anchors="top left" id="_812E33FA-835D-4A4F-A924-6001C9511813frame22" style="opacity:1;fill:#ffffff" stroke="#000000" points="21.392,11.064 23.954,8.502 26.347,10.895 23.786,13.455     24.729,15.732 28.353,15.732 28.353,19.115 24.731,19.115 23.788,21.392 26.351,23.955 23.958,26.347 21.397,23.786 19.12,24.729     19.12,28.353 15.737,28.353 15.737,24.731 13.46,23.788 10.897,26.35 8.506,23.958 11.066,21.397 10.124,19.12 6.5,19.12     6.5,15.737 10.121,15.737 11.065,13.461 8.503,10.898 10.895,8.506 13.455,11.066 15.732,10.125 15.732,6.5 19.116,6.5     19.116,10.121 "/> 		<circle oryx:anchors="top left" id="_812E33FA-835D-4A4F-A924-6001C9511813frame23" style="opacity:1;fill:none;" stroke="#000000" cx="17.427" cy="17.426" r="3.714"/> 	</g> 	 	<g id="_812E33FA-835D-4A4F-A924-6001C9511813sendTask" display="none"> 		<path id="_812E33FA-835D-4A4F-A924-6001C9511813stframe24" oryx:anchors="left top" stroke="#FFFFFF" fill="black" stroke-width="1" d="M8,11 L8,21 L24,21 L24,11 L16,17z"/> 		<path id="_812E33FA-835D-4A4F-A924-6001C9511813stframe25" oryx:anchors="left top" stroke="#FFFFFF" fill="black" stroke-width="1" d="M7,10 L16,17 L25 10z"/> 	</g> 	 	<g id="_812E33FA-835D-4A4F-A924-6001C9511813receiveTask" display="none"> 		<path id="_812E33FA-835D-4A4F-A924-6001C9511813frame26" oryx:anchors="left top" stroke="#000000" fill="none" stroke-width="1" d="M8,11 L8,21 L24,21 L24,11z M8,11 L16,17 L24,11"/> 	</g> 	 	<g id="_812E33FA-835D-4A4F-A924-6001C9511813none" display="inherit"/>  	<g id="_812E33FA-835D-4A4F-A924-6001C9511813sequential" display="none">         <path oryx:anchors="bottom" fill="none" stroke="#000000" stroke-width="2" d="M46,76h10M46,72h10 M46,68h10" id="_812E33FA-835D-4A4F-A924-6001C9511813__812E33FA-835D-4A4F-A924-6001C9511813_20"/>     </g>   </g></g><g class="children" style="overflow:hidden"/><g class="edge"/></g><g class="controls"><g class="dockers"/><g class="magnets" transform="translate(440, 140)"><g pointer-events="all" display="none" transform="translate(-7, 12)"><circle cx="8" cy="8" r="4" stroke="none" fill="red" fill-opacity="0.3"/></g><g pointer-events="all" display="none" transform="translate(-7, 32)"><circle cx="8" cy="8" r="4" stroke="none" fill="red" fill-opacity="0.3"/></g><g pointer-events="all" display="none" transform="translate(-7, 52)"><circle cx="8" cy="8" r="4" stroke="none" fill="red" fill-opacity="0.3"/></g><g pointer-events="all" display="none" transform="translate(17, 71)"><circle cx="8" cy="8" r="4" stroke="none" fill="red" fill-opacity="0.3"/></g><g pointer-events="all" display="none" transform="translate(42, 71)"><circle cx="8" cy="8" r="4" stroke="none" fill="red" fill-opacity="0.3"/></g><g pointer-events="all" display="none" transform="translate(67, 71)"><circle cx="8" cy="8" r="4" stroke="none" fill="red" fill-opacity="0.3"/></g><g pointer-events="all" display="none" transform="translate(91, 12)"><circle cx="8" cy="8" r="4" stroke="none" fill="red" fill-opacity="0.3"/></g><g pointer-events="all" display="none" transform="translate(91, 32)"><circle cx="8" cy="8" r="4" stroke="none" fill="red" fill-opacity="0.3"/></g><g pointer-events="all" display="none" transform="translate(91, 52)"><circle cx="8" cy="8" r="4" stroke="none" fill="red" fill-opacity="0.3"/></g><g pointer-events="all" display="none" transform="translate(17, -7)"><circle cx="8" cy="8" r="4" stroke="none" fill="red" fill-opacity="0.3"/></g><g pointer-events="all" display="none" transform="translate(42, -7)"><circle cx="8" cy="8" r="4" stroke="none" fill="red" fill-opacity="0.3"/></g><g pointer-events="all" display="none" transform="translate(67, -7)"><circle cx="8" cy="8" r="4" stroke="none" fill="red" fill-opacity="0.3"/></g><g pointer-events="all" display="none" transform="translate(42, 32)"><circle cx="8" cy="8" r="4" stroke="none" fill="red" fill-opacity="0.3"/></g></g></g></g><g id="_AE16B38B-71AB-42D7-A866-4E4F2F2ADC3B" bpmn2nodeid="_A59B5CE5-9E51-43BB-BE6C-17D746A3E04A"><g class="stencils" transform="translate(585, 166)"><g class="me"><g pointer-events="fill" id="_AE16B38B-71AB-42D7-A866-4E4F2F2ADC3B">      <defs id="_AE16B38B-71AB-42D7-A866-4E4F2F2ADC3B__AE16B38B-71AB-42D7-A866-4E4F2F2ADC3B_5"> 		<radialGradient id="_AE16B38B-71AB-42D7-A866-4E4F2F2ADC3Bbackground" cx="10%" cy="10%" r="100%" fx="10%" fy="10%"> 			<stop offset="0%" stop-color="#ffffff" stop-opacity="1" id="_AE16B38B-71AB-42D7-A866-4E4F2F2ADC3B__AE16B38B-71AB-42D7-A866-4E4F2F2ADC3B_6"/> 			<stop id="_AE16B38B-71AB-42D7-A866-4E4F2F2ADC3Bfill_el" offset="100%" stop-color="#ff6347" stop-opacity="1"/> 		</radialGradient> 	</defs> 	     <circle id="_AE16B38B-71AB-42D7-A866-4E4F2F2ADC3Bbg_frame" cx="14" cy="14" r="14" stroke="#000000" fill="url(#_AE16B38B-71AB-42D7-A866-4E4F2F2ADC3Bbackground) white" stroke-width="3"/> 	<text font-size="11" id="_AE16B38B-71AB-42D7-A866-4E4F2F2ADC3Btext_name" x="14" y="30" oryx:align="top center" stroke="black" stroke-width="0pt" letter-spacing="-0.01px" fill="#000000" text-anchor="middle" transform="rotate(0 14 30)" visibility="inherit" oryx:fontSize="11"/>   </g></g><g class="children" style="overflow:hidden"/><g class="edge"/></g><g class="controls"><g class="dockers"/><g class="magnets" transform="translate(585, 166)"><g pointer-events="all" display="none" transform="translate(6, 6)"><circle cx="8" cy="8" r="4" stroke="none" fill="red" fill-opacity="0.3"/></g></g></g></g><g id="_F9424B02-4FF6-45EE-AE9C-5C09D1ED293F" bpmn2nodeid="_E410BC7D-F256-4AE3-B3E2-FE29D81C7956"><g class="stencils" transform="translate(165, 60)"><g class="me"><g pointer-events="all" oryx:minimumSize="10 20" oryx:maximumSize="" id="_F9424B02-4FF6-45EE-AE9C-5C09D1ED293F">   <rect id="_F9424B02-4FF6-45EE-AE9C-5C09D1ED293Ftextannotationrect" oryx:resize="vertical horizontal" x="0" y="0" width="100" height="50" stroke="none" fill="none"/>   <path id="_F9424B02-4FF6-45EE-AE9C-5C09D1ED293Fframe" d=" M19 0  L0 0  L0 49  L19 49 " oryx:anchors="top bottom left" stroke="#000000" fill="none" stroke-width="1"/>          <text font-size="12" id="_F9424B02-4FF6-45EE-AE9C-5C09D1ED293Ftext_name" x="4" y="24" oryx:align="middle left" oryx:fittoelem="textannotationrect" oryx:anchors="left" stroke="black" stroke-width="0pt" letter-spacing="-0.01px" fill="#000000" text-anchor="start" transform="rotate(0 4 24)" visibility="inherit" oryx:fontSize="12"><tspan x="4" y="24" dy="-1">enganche solo </tspan><tspan x="4" y="24" dy="11" id="ext-gen648">en rama develo!</tspan></text>   </g></g><g class="children" style="overflow:hidden"/><g class="edge"/></g><g class="controls"><g class="dockers"/><g class="magnets" transform="translate(165, 60)"><g pointer-events="all" display="none" transform="translate(-7, 16)"><circle cx="8" cy="8" r="4" stroke="none" fill="red" fill-opacity="0.3"/></g></g></g></g></g><g class="edge"><g id="_9C225F44-3E6D-4A21-9483-B03D215621FD" bpmn2nodeid="_778A7059-BA81-4A47-BAFB-CA726AA314E9"><g class="stencils"><g class="me"><g pointer-events="painted" bpmn2nodeid="_916B3C45-D875-4C16-BF08-A9D7BAFE0649"><path id="_9C225F44-3E6D-4A21-9483-B03D215621FD_1" d="M150.6484375 180L209.1953125 180 " stroke="#000000" fill="none" stroke-width="2" stroke-linecap="round" stroke-linejoin="round" marker-start="url(#_9C225F44-3E6D-4A21-9483-B03D215621FDstart)" marker-end="url(#_9C225F44-3E6D-4A21-9483-B03D215621FDend)"/></g><text id="_9C225F44-3E6D-4A21-9483-B03D215621FDtext_name" font-size="12" x="164.6484375" y="166" oryx:edgePosition="startTop" stroke-width="0pt" letter-spacing="-0.01px" fill="#000000" text-anchor="start" transform="rotate(360 150.6484375 180)" visibility="inherit" oryx:fontSize="12"/></g><g class="children" style="overflow:hidden"/><g class="edge"/></g><g class="controls"><g class="dockers"/><g class="magnets"/></g></g><g id="_6CC11BE6-D9BB-432B-98E5-BE2098C91084" bpmn2nodeid="_3380D947-D4B2-405E-BDFB-FF1DB363642C"><g class="stencils"><g class="me"><g pointer-events="painted" bpmn2nodeid="_15BF9206-822C-422B-9F6E-0284CEFF4918"><path id="_6CC11BE6-D9BB-432B-98E5-BE2098C91084_1" d="M310.4140625 180L355.1328125 180 " stroke="#000000" fill="none" stroke-width="2" stroke-linecap="round" stroke-linejoin="round" marker-start="url(#_6CC11BE6-D9BB-432B-98E5-BE2098C91084start)" marker-end="url(#_6CC11BE6-D9BB-432B-98E5-BE2098C91084end)"/></g><text id="_6CC11BE6-D9BB-432B-98E5-BE2098C91084text_name" font-size="12" x="324.4140625" y="166" oryx:edgePosition="startTop" stroke-width="0pt" letter-spacing="-0.01px" fill="#000000" text-anchor="start" transform="rotate(360 310.4140625 180)" visibility="inherit" oryx:fontSize="12"/></g><g class="children" style="overflow:hidden"/><g class="edge"/></g><g class="controls"><g class="dockers"/><g class="magnets"/></g></g><g id="_C4581239-2A9D-478D-ADBB-EF5DD76297A5" bpmn2nodeid="_60CB29BC-7014-4BAE-9416-9572241BA55E"><g class="stencils"><g class="me"><g pointer-events="painted" bpmn2nodeid="_4191E284-ABD2-43D5-BEC1-3E975D18B911"><path id="_C4581239-2A9D-478D-ADBB-EF5DD76297A5_1" d="M394.8671875 180L439.5859375 180 " stroke="#000000" fill="none" stroke-width="2" stroke-linecap="round" stroke-linejoin="round" marker-start="url(#_C4581239-2A9D-478D-ADBB-EF5DD76297A5start)" marker-end="url(#_C4581239-2A9D-478D-ADBB-EF5DD76297A5end)"/></g><text id="_C4581239-2A9D-478D-ADBB-EF5DD76297A5text_name" font-size="12" x="408.8671875" y="166" oryx:edgePosition="startTop" stroke-width="0pt" letter-spacing="-0.01px" fill="#000000" text-anchor="start" transform="rotate(360 394.8671875 180)" visibility="inherit" oryx:fontSize="12"/></g><g class="children" style="overflow:hidden"/><g class="edge"/></g><g class="controls"><g class="dockers"/><g class="magnets"/></g></g><g id="_9C3F5A3A-CF54-4312-A8B6-E84648009BAE" bpmn2nodeid="_25189D27-0A9D-4FC6-B392-6CB433B0B2F7"><g class="stencils"><g class="me"><g pointer-events="painted" bpmn2nodeid="_6088B276-9288-4194-A8A3-C8BBDC61EB2D"><path id="_9C3F5A3A-CF54-4312-A8B6-E84648009BAE_1" d="M540.390625 180L584.375 180 " stroke="#000000" fill="none" stroke-width="2" stroke-linecap="round" stroke-linejoin="round" marker-start="url(#_9C3F5A3A-CF54-4312-A8B6-E84648009BAEstart)" marker-end="url(#_9C3F5A3A-CF54-4312-A8B6-E84648009BAEend)"/></g><text id="_9C3F5A3A-CF54-4312-A8B6-E84648009BAEtext_name" font-size="12" x="554.390625" y="166" oryx:edgePosition="startTop" stroke-width="0pt" letter-spacing="-0.01px" fill="#000000" text-anchor="start" transform="rotate(360 540.390625 180)" visibility="inherit" oryx:fontSize="12"/></g><g class="children" style="overflow:hidden"/><g class="edge"/></g><g class="controls"><g class="dockers"/><g class="magnets"/></g></g><g id="_D9C286EF-4DFA-442E-AF41-A999BC5058DE" bpmn2nodeid="_16A6BB08-94AB-4215-AD43-2B9629138B56"><g class="stencils"><g class="me"><g pointer-events="painted" bpmn2nodeid="_F319A15B-7282-4575-BEBE-EB8C9C804313"><path id="_D9C286EF-4DFA-442E-AF41-A999BC5058DE_1" d="M220.37476936959305 139.9532243628866L184.32835563040695 103.5233381371134 " stroke="#000000" fill="none" stroke-width="2" stroke-dasharray="3, 4"/></g><text id="_D9C286EF-4DFA-442E-AF41-A999BC5058DEtext_name" x="202.3515625" y="115.73828125" oryx:edgePosition="midTop" oryx:offsetTop="6" style="font-size:9px;" stroke-width="0pt" letter-spacing="-0.01px" text-anchor="middle" transform="rotate(45.30314944371412 202.3515625 121.73828125)" visibility="inherit" oryx:fontSize="12"/></g><g class="children" style="overflow:hidden"/><g class="edge"/></g><g class="controls"><g class="dockers"/><g class="magnets"/></g></g></g><text id="_CC050374-0454-4E89-8C08-ADA9E99206D4" style="stroke-width:1;fill:rgb(177,194,214);font-family:arial;font-weight:bold" font-size="12" onclick="ORYX.Plugins.CanvasTitle.openTextualAnalysis()" onmouseover="ORYX.Plugins.CanvasTitle.addToolTip('_CC050374-0454-4E89-8C08-ADA9E99206D4')" transform="translate(10, 20)">Prueba v.1.0 (src.Prueba)</text></g></g></svg>