<svg xmlns="http://www.w3.org/2000/svg" xmlns:oryx="http://oryx-editor.org" id="_E22EDFAE-3BA4-4296-B466-7D5B66D2D8CD" width="834" height="221" xmlns:xlink="http://www.w3.org/1999/xlink" xmlns:svg="http://www.w3.org/2000/svg"><defs><marker id="_1E58AC88-309A-4FB0-8334-2B608475C8C4start" refX="1" refY="5" markerUnits="userSpaceOnUse" markerWidth="17" markerHeight="11" orient="auto" fill="#000000" stroke="#000000"> 	  		<path id="_1E58AC88-309A-4FB0-8334-2B608475C8C4conditional" d="M 0 5 L 8 0 L 16 5 L 8 10 L 0 5" fill="white" stroke="#000000" stroke-width="1" display="none"/> 			<path id="_1E58AC88-309A-4FB0-8334-2B608475C8C4default" d="M 5 0 L 11 10" fill="white" stroke="#000000" stroke-width="1" display="none"/> 	  	</marker><marker id="_1E58AC88-309A-4FB0-8334-2B608475C8C4end" refX="15" refY="6" markerUnits="userSpaceOnUse" markerWidth="15" markerHeight="12" orient="auto" fill="#000000" stroke="#000000"> 	  		<path id="_1E58AC88-309A-4FB0-8334-2B608475C8C4frame2" d="M 0 1 L 15 6 L 0 11z" fill="#000000" stroke="#000000" stroke-linejoin="round" stroke-width="2"/> 	  	</marker><marker id="_6AC5EACA-7BF2-4E3B-B0CC-59A8748100E6start" refX="1" refY="5" markerUnits="userSpaceOnUse" markerWidth="17" markerHeight="11" orient="auto" fill="#000000" stroke="#000000"> 	  		<path id="_6AC5EACA-7BF2-4E3B-B0CC-59A8748100E6conditional" d="M 0 5 L 8 0 L 16 5 L 8 10 L 0 5" fill="white" stroke="#000000" stroke-width="1" display="none"/> 			<path id="_6AC5EACA-7BF2-4E3B-B0CC-59A8748100E6default" d="M 5 0 L 11 10" fill="white" stroke="#000000" stroke-width="1" display="none"/> 	  	</marker><marker id="_6AC5EACA-7BF2-4E3B-B0CC-59A8748100E6end" refX="15" refY="6" markerUnits="userSpaceOnUse" markerWidth="15" markerHeight="12" orient="auto" fill="#000000" stroke="#000000"> 	  		<path id="_6AC5EACA-7BF2-4E3B-B0CC-59A8748100E6frame2" d="M 0 1 L 15 6 L 0 11z" fill="#000000" stroke="#000000" stroke-linejoin="round" stroke-width="2"/> 	  	</marker><marker id="_D1C826AC-81CA-47F8-AF49-8405B3BC0BDAstart" refX="1" refY="5" markerUnits="userSpaceOnUse" markerWidth="17" markerHeight="11" orient="auto" fill="#000000" stroke="#000000"> 	  		<path id="_D1C826AC-81CA-47F8-AF49-8405B3BC0BDAconditional" d="M 0 5 L 8 0 L 16 5 L 8 10 L 0 5" fill="white" stroke="#000000" stroke-width="1" display="none"/> 			<path id="_D1C826AC-81CA-47F8-AF49-8405B3BC0BDAdefault" d="M 5 0 L 11 10" fill="white" stroke="#000000" stroke-width="1" display="none"/> 	  	</marker><marker id="_D1C826AC-81CA-47F8-AF49-8405B3BC0BDAend" refX="15" refY="6" markerUnits="userSpaceOnUse" markerWidth="15" markerHeight="12" orient="auto" fill="#000000" stroke="#000000"> 	  		<path id="_D1C826AC-81CA-47F8-AF49-8405B3BC0BDAframe2" d="M 0 1 L 15 6 L 0 11z" fill="#000000" stroke="#000000" stroke-linejoin="round" stroke-width="2"/> 	  	</marker></defs><g stroke="none" font-family="Verdana, sans-serif" font-size-adjust="none" font-style="normal" font-variant="normal" font-weight="normal" line-heigth="normal" font-size="12"><g class="stencils" transform="translate(16, 16)"><g class="me"/><g class="children"><g id="_8EDFBF9E-A6C4-4506-B665-D41F659E6E72" bpmn2nodeid="_3D41A12C-598A-41BF-AE3B-504AE672A73B"><g class="stencils" transform="translate(765, 122)"><g class="me"><g pointer-events="fill" id="_8EDFBF9E-A6C4-4506-B665-D41F659E6E72">      <defs id="_8EDFBF9E-A6C4-4506-B665-D41F659E6E72__8EDFBF9E-A6C4-4506-B665-D41F659E6E72_5"> 		<radialGradient id="_8EDFBF9E-A6C4-4506-B665-D41F659E6E72background" cx="10%" cy="10%" r="100%" fx="10%" fy="10%"> 			<stop offset="0%" stop-color="#ffffff" stop-opacity="1" id="_8EDFBF9E-A6C4-4506-B665-D41F659E6E72__8EDFBF9E-A6C4-4506-B665-D41F659E6E72_6"/> 			<stop id="_8EDFBF9E-A6C4-4506-B665-D41F659E6E72fill_el" offset="100%" stop-color="#ff6347" stop-opacity="1"/> 		</radialGradient> 	</defs> 	     <circle id="_8EDFBF9E-A6C4-4506-B665-D41F659E6E72bg_frame" cx="14" cy="14" r="14" stroke="#000000" fill="url(#_8EDFBF9E-A6C4-4506-B665-D41F659E6E72background) white" stroke-width="3"/> 	<text font-size="11" id="_8EDFBF9E-A6C4-4506-B665-D41F659E6E72text_name" x="14" y="30" oryx:align="top center" stroke="black" stroke-width="0pt" letter-spacing="-0.01px" fill="#000000" text-anchor="middle" transform="rotate(0 14 30)" visibility="inherit" oryx:fontSize="11"/>   </g></g><g class="children" style="overflow:hidden"/><g class="edge"/></g><g class="controls"><g class="dockers"/><g class="magnets" transform="translate(765, 122)"><g pointer-events="all" display="none" transform="translate(6, 6)"><circle cx="8" cy="8" r="4" stroke="none" fill="red" fill-opacity="0.3"/></g></g></g></g><g id="_AA7C441A-C176-4294-9318-B468E2A2D02A" bpmn2nodeid="_26C1A0E6-A112-4179-9BBA-BAC87B85B029"><g class="stencils" transform="translate(555, 96)"><g class="me"><g pointer-events="fill" oryx:minimumSize="50 40" id="_AA7C441A-C176-4294-9318-B468E2A2D02A">   	<defs id="_AA7C441A-C176-4294-9318-B468E2A2D02A__AA7C441A-C176-4294-9318-B468E2A2D02A_17"> 		<radialGradient id="_AA7C441A-C176-4294-9318-B468E2A2D02Abackground" cx="10%" cy="10%" r="100%" fx="10%" fy="10%"> 			<stop offset="0%" stop-color="#ffffff" stop-opacity="1" id="_AA7C441A-C176-4294-9318-B468E2A2D02A__AA7C441A-C176-4294-9318-B468E2A2D02A_18"/> 			<stop id="_AA7C441A-C176-4294-9318-B468E2A2D02Afill_el" offset="100%" stop-color="#fafad2" stop-opacity="1"/> 		</radialGradient> 		<radialGradient id="_AA7C441A-C176-4294-9318-B468E2A2D02Aborderbackground" cx="10%" cy="10%" r="100%" fx="10%" fy="10%"> 			<stop offset="0%" stop-color="#ffffff" stop-opacity="1" id="_AA7C441A-C176-4294-9318-B468E2A2D02A__AA7C441A-C176-4294-9318-B468E2A2D02A_19"/> 			<stop id="_AA7C441A-C176-4294-9318-B468E2A2D02Afill_border" offset="100%" stop-color="#000000" stop-opacity="1" stroke="#000000"/> 		</radialGradient> 	</defs> 	 	<rect id="_AA7C441A-C176-4294-9318-B468E2A2D02Atext_frame" oryx:anchors="bottom top right left" x="1" y="1" width="94" height="79" rx="10" ry="10" stroke="none" stroke-width="0" fill="none"/> 	<rect id="_AA7C441A-C176-4294-9318-B468E2A2D02Abg_frame" oryx:resize="vertical horizontal" x="0" y="0" width="100" height="80" rx="10" ry="10" stroke="#000000" stroke-width="1" fill="url(#_AA7C441A-C176-4294-9318-B468E2A2D02Abackground) #ffffcc"/> 		<text font-size="12" id="_AA7C441A-C176-4294-9318-B468E2A2D02Atext_name" x="50" y="40" oryx:align="middle center" oryx:fittoelem="text_frame" stroke="black" text-anchor="middle" stroke-width="0pt" letter-spacing="-0.01px" fill="#000000" transform="rotate(0 50 40)" visibility="inherit" oryx:fontSize="12"><tspan x="50" y="40" dy="5" id="ext-gen702">Confirming</tspan></text>     <g id="_AA7C441A-C176-4294-9318-B468E2A2D02AmanualTask" transform="scale(0.7,0.7) translate(8,8)" display="none">     	<path oryx:anchors="top left" id="_AA7C441A-C176-4294-9318-B468E2A2D02Aframe" style="opacity:1;fill:none;fill-opacity:1;stroke-width:1" d="M0.5,3.751l4.083-3.25c0,0,11.166,0.083,12.083,0.083s-2.417,2.917-1.5,2.917     s11.667,0,12.584,0c1.166,1.708-0.168,3.167-0.834,3.667s0.875,1.917-1,4.417c-0.75,0.25,0.75,1.875-1.333,3.333     c-1.167,0.583,0.583,1.542-1.25,2.833c-1.167,0-20.833,0.083-20.833,0.083l-2-1.333V3.751z" stroke="#000000"/> 		<path id="_AA7C441A-C176-4294-9318-B468E2A2D02Aframe2" oryx:anchors="top left" style="opacity:1;fill:none;stroke-width:2" d="M 13.5 7 L 27 7" stroke="#000000"/> 		<path id="_AA7C441A-C176-4294-9318-B468E2A2D02Aframe3" oryx:anchors="top left" style="opacity:1;fill:none;stroke-width:2" d="M 13.5 11 L 26 11" stroke="#000000"/> 		<path id="_AA7C441A-C176-4294-9318-B468E2A2D02Aframe4" oryx:anchors="top left" style="opacity:1;fill:none;stroke-width:1.5" d="M 14 14.5 L 25 14.5" stroke="#000000"/> 		<path id="_AA7C441A-C176-4294-9318-B468E2A2D02Aframe5" oryx:anchors="top left" style="opacity:1;fill:none;stroke-width:1.5" d="M 8.2 3.1 L 15 3.1" stroke="#000000"/> 	</g> 	 	<g id="_AA7C441A-C176-4294-9318-B468E2A2D02AbusinessRuleTask" transform="scale(0.7,0.7) translate(8,8)" display="none"> 		<rect id="_AA7C441A-C176-4294-9318-B468E2A2D02Aframe6" oryx:anchors="top left" x="0" y="0" width="22" height="4" style="opacity:1;fill:#B3B1B3;fill-opacity:1;" stroke="#000000"/> 		<rect id="_AA7C441A-C176-4294-9318-B468E2A2D02Aframe7" oryx:anchors="top left" x="0" y="4" style="opacity:1;fill:none;" width="22" height="12" stroke="#000000"/> 		<path id="_AA7C441A-C176-4294-9318-B468E2A2D02Aframe8" oryx:anchors="top left" style="opacity:1;fill:none;" d="M 0 10 L 22 10" stroke="#000000"/> 		<path id="_AA7C441A-C176-4294-9318-B468E2A2D02Aframe9" oryx:anchors="top left" style="opacity:1; fill:none;" d="M 7 4 L 7 16" stroke="#000000"/> 	</g> 	 	<g id="_AA7C441A-C176-4294-9318-B468E2A2D02AscriptTask" transform="scale(0.7,0.7) translate(8,8)" display="none"> 		<path oryx:anchors="top left" id="_AA7C441A-C176-4294-9318-B468E2A2D02Aframe10" style="opacity:1;fill:none;" stroke="#000000" d="M6.402,0.5h14.5c0,0-5.833,2.833-5.833,5.583s4.417,6,4.417,9.167    s-4.167,5.083-4.167,5.083H0.235c0,0,5-2.667,5-5s-4.583-6.75-4.583-9.25S6.402,0.5,6.402,0.5z"/> 		<path oryx:anchors="top left" id="_AA7C441A-C176-4294-9318-B468E2A2D02Aframe11" style="opacity:1;fill:none;stroke-width:1.5" d="M 3.5 4.5 L 13.5 4.5" stroke="#000000"/> 		<path oryx:anchors="top left" id="_AA7C441A-C176-4294-9318-B468E2A2D02Aframe12" style="opacity:1;fill:none;stroke-width:1.5" d="M 3.8 8.5 L 13.8 8.5" stroke="#000000"/> 		<path oryx:anchors="top left" id="_AA7C441A-C176-4294-9318-B468E2A2D02Aframe13" style="opacity:1;fill:none;stroke-width:1.5" d="M 6.3 12.5 L 16.3 12.5" stroke="#000000"/> 		<path oryx:anchors="top left" id="_AA7C441A-C176-4294-9318-B468E2A2D02Aframe14" style="opacity:1;fill:none;stroke-width:1.5" d="M 6.5 16.5 L 16.5 16.5" stroke="#000000"/> 	</g> 	 	<g id="_AA7C441A-C176-4294-9318-B468E2A2D02AuserTask" transform="scale(0.7,0.7) translate(8,8)" display="inherit"> 		<path id="_AA7C441A-C176-4294-9318-B468E2A2D02Aframe15" oryx:anchors="top left" style="opacity:1;fill:#F4F6F7" stroke="#000000" d="M0.585,24.167h24.083v-7.833c0,0-2.333-3.917-7.083-5.167h-9.25    c-4.417,1.333-7.833,5.75-7.833,5.75L0.585,24.167z"/> 		<path id="_AA7C441A-C176-4294-9318-B468E2A2D02Aframe16" oryx:anchors="top left" style="opacity:1;fill:none" d="M 6 20 L 6 24" stroke="#000000"/> 		<path id="_AA7C441A-C176-4294-9318-B468E2A2D02Aframe17" oryx:anchors="top left" style="opacity:1;fill:none" d="M 20 20 L 20 24" stroke="#000000"/> 		<circle id="_AA7C441A-C176-4294-9318-B468E2A2D02Aframe18" oryx:anchors="top left" fill="black" cx="13.002" cy="5.916" r="5.417" stroke="#000000"/> 		<path id="_AA7C441A-C176-4294-9318-B468E2A2D02Aframe19" oryx:anchors="top left" style="opacity:1;fill:#F0EFF0;" stroke="#000000" d="M8.043,7.083c0,0,2.814-2.426,5.376-1.807s4.624-0.693,4.624-0.693    c0.25,1.688,0.042,3.75-1.458,5.584c0,0,1.083,0.75,1.083,1.5s0.125,1.875-1,3s-5.5,1.25-6.75,0S8.668,12.834,8.668,12    s0.583-1.25,1.25-1.917C8.835,9.5,7.419,7.708,8.043,7.083z"/> 	</g> 	 	<g id="_AA7C441A-C176-4294-9318-B468E2A2D02AserviceTask" transform="scale(0.7,0.7) translate(8,8)" display="none"> 		<polygon oryx:anchors="top left" id="_AA7C441A-C176-4294-9318-B468E2A2D02Aframe20" style="opacity:1;fill:#ffffff" stroke="#000000" points="15.392,5.064 17.954,2.502 20.347,4.895 17.786,7.455     18.729,9.732 22.353,9.732 22.353,13.115 18.731,13.115 17.788,15.392 20.351,17.955 17.958,20.347 15.397,17.786 13.12,18.729     13.12,22.353 9.737,22.353 9.737,18.731 7.46,17.788 4.897,20.35 2.506,17.958 5.066,15.397 4.124,13.12 0.5,13.12 0.5,9.737     4.121,9.737 5.065,7.461 2.503,4.898 4.895,2.506 7.455,5.066 9.732,4.125 9.732,0.5 13.116,0.5 13.116,4.121 "/> 		<circle oryx:anchors="top left" id="_AA7C441A-C176-4294-9318-B468E2A2D02Aframe21" style="opacity:1;fill:none" stroke="#000000" cx="11.427" cy="11.426" r="3.714"/> 		<polygon oryx:anchors="top left" id="_AA7C441A-C176-4294-9318-B468E2A2D02Aframe22" style="opacity:1;fill:#ffffff" stroke="#000000" points="21.392,11.064 23.954,8.502 26.347,10.895 23.786,13.455     24.729,15.732 28.353,15.732 28.353,19.115 24.731,19.115 23.788,21.392 26.351,23.955 23.958,26.347 21.397,23.786 19.12,24.729     19.12,28.353 15.737,28.353 15.737,24.731 13.46,23.788 10.897,26.35 8.506,23.958 11.066,21.397 10.124,19.12 6.5,19.12     6.5,15.737 10.121,15.737 11.065,13.461 8.503,10.898 10.895,8.506 13.455,11.066 15.732,10.125 15.732,6.5 19.116,6.5     19.116,10.121 "/> 		<circle oryx:anchors="top left" id="_AA7C441A-C176-4294-9318-B468E2A2D02Aframe23" style="opacity:1;fill:none;" stroke="#000000" cx="17.427" cy="17.426" r="3.714"/> 	</g> 	 	<g id="_AA7C441A-C176-4294-9318-B468E2A2D02AsendTask" display="none"> 		<path id="_AA7C441A-C176-4294-9318-B468E2A2D02Astframe24" oryx:anchors="left top" stroke="#FFFFFF" fill="black" stroke-width="1" d="M8,11 L8,21 L24,21 L24,11 L16,17z"/> 		<path id="_AA7C441A-C176-4294-9318-B468E2A2D02Astframe25" oryx:anchors="left top" stroke="#FFFFFF" fill="black" stroke-width="1" d="M7,10 L16,17 L25 10z"/> 	</g> 	 	<g id="_AA7C441A-C176-4294-9318-B468E2A2D02AreceiveTask" display="none"> 		<path id="_AA7C441A-C176-4294-9318-B468E2A2D02Aframe26" oryx:anchors="left top" stroke="#000000" fill="none" stroke-width="1" d="M8,11 L8,21 L24,21 L24,11z M8,11 L16,17 L24,11"/> 	</g> 	 	<g id="_AA7C441A-C176-4294-9318-B468E2A2D02Anone" display="inherit"/>  	<g id="_AA7C441A-C176-4294-9318-B468E2A2D02Asequential" display="none">         <path oryx:anchors="bottom" fill="none" stroke="#000000" stroke-width="2" d="M46,76h10M46,72h10 M46,68h10" id="_AA7C441A-C176-4294-9318-B468E2A2D02A__AA7C441A-C176-4294-9318-B468E2A2D02A_20"/>     </g>   </g></g><g class="children" style="overflow:hidden"/><g class="edge"/></g><g class="controls"><g class="dockers"/><g class="magnets" transform="translate(555, 96)"><g pointer-events="all" display="none" transform="translate(-7, 12)"><circle cx="8" cy="8" r="4" stroke="none" fill="red" fill-opacity="0.3"/></g><g pointer-events="all" display="none" transform="translate(-7, 32)"><circle cx="8" cy="8" r="4" stroke="none" fill="red" fill-opacity="0.3"/></g><g pointer-events="all" display="none" transform="translate(-7, 52)"><circle cx="8" cy="8" r="4" stroke="none" fill="red" fill-opacity="0.3"/></g><g pointer-events="all" display="none" transform="translate(17, 71)"><circle cx="8" cy="8" r="4" stroke="none" fill="red" fill-opacity="0.3"/></g><g pointer-events="all" display="none" transform="translate(42, 71)"><circle cx="8" cy="8" r="4" stroke="none" fill="red" fill-opacity="0.3"/></g><g pointer-events="all" display="none" transform="translate(67, 71)"><circle cx="8" cy="8" r="4" stroke="none" fill="red" fill-opacity="0.3"/></g><g pointer-events="all" display="none" transform="translate(91, 12)"><circle cx="8" cy="8" r="4" stroke="none" fill="red" fill-opacity="0.3"/></g><g pointer-events="all" display="none" transform="translate(91, 32)"><circle cx="8" cy="8" r="4" stroke="none" fill="red" fill-opacity="0.3"/></g><g pointer-events="all" display="none" transform="translate(91, 52)"><circle cx="8" cy="8" r="4" stroke="none" fill="red" fill-opacity="0.3"/></g><g pointer-events="all" display="none" transform="translate(17, -7)"><circle cx="8" cy="8" r="4" stroke="none" fill="red" fill-opacity="0.3"/></g><g pointer-events="all" display="none" transform="translate(42, -7)"><circle cx="8" cy="8" r="4" stroke="none" fill="red" fill-opacity="0.3"/></g><g pointer-events="all" display="none" transform="translate(67, -7)"><circle cx="8" cy="8" r="4" stroke="none" fill="red" fill-opacity="0.3"/></g><g pointer-events="all" display="none" transform="translate(42, 32)"><circle cx="8" cy="8" r="4" stroke="none" fill="red" fill-opacity="0.3"/></g></g></g></g><g id="_6B718876-6FAA-49B6-85A1-B975B62E80F1" bpmn2nodeid="_F5A77FAF-DD1A-4857-AE54-4743EBBE7D87"><g class="stencils" transform="translate(375, 96)"><g class="me"><g pointer-events="fill" oryx:minimumSize="50 40" id="_6B718876-6FAA-49B6-85A1-B975B62E80F1">   	<defs id="_6B718876-6FAA-49B6-85A1-B975B62E80F1__6B718876-6FAA-49B6-85A1-B975B62E80F1_17"> 		<radialGradient id="_6B718876-6FAA-49B6-85A1-B975B62E80F1background" cx="10%" cy="10%" r="100%" fx="10%" fy="10%"> 			<stop offset="0%" stop-color="#ffffff" stop-opacity="1" id="_6B718876-6FAA-49B6-85A1-B975B62E80F1__6B718876-6FAA-49B6-85A1-B975B62E80F1_18"/> 			<stop id="_6B718876-6FAA-49B6-85A1-B975B62E80F1fill_el" offset="100%" stop-color="#fafad2" stop-opacity="1"/> 		</radialGradient> 		<radialGradient id="_6B718876-6FAA-49B6-85A1-B975B62E80F1borderbackground" cx="10%" cy="10%" r="100%" fx="10%" fy="10%"> 			<stop offset="0%" stop-color="#ffffff" stop-opacity="1" id="_6B718876-6FAA-49B6-85A1-B975B62E80F1__6B718876-6FAA-49B6-85A1-B975B62E80F1_19"/> 			<stop id="_6B718876-6FAA-49B6-85A1-B975B62E80F1fill_border" offset="100%" stop-color="#000000" stop-opacity="1" stroke="#000000"/> 		</radialGradient> 	</defs> 	 	<rect id="_6B718876-6FAA-49B6-85A1-B975B62E80F1text_frame" oryx:anchors="bottom top right left" x="1" y="1" width="94" height="79" rx="10" ry="10" stroke="none" stroke-width="0" fill="none"/> 	<rect id="_6B718876-6FAA-49B6-85A1-B975B62E80F1bg_frame" oryx:resize="vertical horizontal" x="0" y="0" width="100" height="80" rx="10" ry="10" stroke="#000000" stroke-width="1" fill="url(#_6B718876-6FAA-49B6-85A1-B975B62E80F1background) #ffffcc"/> 		<text font-size="12" id="_6B718876-6FAA-49B6-85A1-B975B62E80F1text_name" x="50" y="40" oryx:align="middle center" oryx:fittoelem="text_frame" stroke="black" text-anchor="middle" stroke-width="0pt" letter-spacing="-0.01px" fill="#000000" transform="rotate(0 50 40)" visibility="inherit" oryx:fontSize="12"/>     <g id="_6B718876-6FAA-49B6-85A1-B975B62E80F1manualTask" transform="scale(0.7,0.7) translate(8,8)" display="none">     	<path oryx:anchors="top left" id="_6B718876-6FAA-49B6-85A1-B975B62E80F1frame" style="opacity:1;fill:none;fill-opacity:1;stroke-width:1" d="M0.5,3.751l4.083-3.25c0,0,11.166,0.083,12.083,0.083s-2.417,2.917-1.5,2.917     s11.667,0,12.584,0c1.166,1.708-0.168,3.167-0.834,3.667s0.875,1.917-1,4.417c-0.75,0.25,0.75,1.875-1.333,3.333     c-1.167,0.583,0.583,1.542-1.25,2.833c-1.167,0-20.833,0.083-20.833,0.083l-2-1.333V3.751z" stroke="#000000"/> 		<path id="_6B718876-6FAA-49B6-85A1-B975B62E80F1frame2" oryx:anchors="top left" style="opacity:1;fill:none;stroke-width:2" d="M 13.5 7 L 27 7" stroke="#000000"/> 		<path id="_6B718876-6FAA-49B6-85A1-B975B62E80F1frame3" oryx:anchors="top left" style="opacity:1;fill:none;stroke-width:2" d="M 13.5 11 L 26 11" stroke="#000000"/> 		<path id="_6B718876-6FAA-49B6-85A1-B975B62E80F1frame4" oryx:anchors="top left" style="opacity:1;fill:none;stroke-width:1.5" d="M 14 14.5 L 25 14.5" stroke="#000000"/> 		<path id="_6B718876-6FAA-49B6-85A1-B975B62E80F1frame5" oryx:anchors="top left" style="opacity:1;fill:none;stroke-width:1.5" d="M 8.2 3.1 L 15 3.1" stroke="#000000"/> 	</g> 	 	<g id="_6B718876-6FAA-49B6-85A1-B975B62E80F1businessRuleTask" transform="scale(0.7,0.7) translate(8,8)" display="none"> 		<rect id="_6B718876-6FAA-49B6-85A1-B975B62E80F1frame6" oryx:anchors="top left" x="0" y="0" width="22" height="4" style="opacity:1;fill:#B3B1B3;fill-opacity:1;" stroke="#000000"/> 		<rect id="_6B718876-6FAA-49B6-85A1-B975B62E80F1frame7" oryx:anchors="top left" x="0" y="4" style="opacity:1;fill:none;" width="22" height="12" stroke="#000000"/> 		<path id="_6B718876-6FAA-49B6-85A1-B975B62E80F1frame8" oryx:anchors="top left" style="opacity:1;fill:none;" d="M 0 10 L 22 10" stroke="#000000"/> 		<path id="_6B718876-6FAA-49B6-85A1-B975B62E80F1frame9" oryx:anchors="top left" style="opacity:1; fill:none;" d="M 7 4 L 7 16" stroke="#000000"/> 	</g> 	 	<g id="_6B718876-6FAA-49B6-85A1-B975B62E80F1scriptTask" transform="scale(0.7,0.7) translate(8,8)" display="inherit"> 		<path oryx:anchors="top left" id="_6B718876-6FAA-49B6-85A1-B975B62E80F1frame10" style="opacity:1;fill:none;" stroke="#000000" d="M6.402,0.5h14.5c0,0-5.833,2.833-5.833,5.583s4.417,6,4.417,9.167    s-4.167,5.083-4.167,5.083H0.235c0,0,5-2.667,5-5s-4.583-6.75-4.583-9.25S6.402,0.5,6.402,0.5z"/> 		<path oryx:anchors="top left" id="_6B718876-6FAA-49B6-85A1-B975B62E80F1frame11" style="opacity:1;fill:none;stroke-width:1.5" d="M 3.5 4.5 L 13.5 4.5" stroke="#000000"/> 		<path oryx:anchors="top left" id="_6B718876-6FAA-49B6-85A1-B975B62E80F1frame12" style="opacity:1;fill:none;stroke-width:1.5" d="M 3.8 8.5 L 13.8 8.5" stroke="#000000"/> 		<path oryx:anchors="top left" id="_6B718876-6FAA-49B6-85A1-B975B62E80F1frame13" style="opacity:1;fill:none;stroke-width:1.5" d="M 6.3 12.5 L 16.3 12.5" stroke="#000000"/> 		<path oryx:anchors="top left" id="_6B718876-6FAA-49B6-85A1-B975B62E80F1frame14" style="opacity:1;fill:none;stroke-width:1.5" d="M 6.5 16.5 L 16.5 16.5" stroke="#000000"/> 	</g> 	 	<g id="_6B718876-6FAA-49B6-85A1-B975B62E80F1userTask" transform="scale(0.7,0.7) translate(8,8)" display="none"> 		<path id="_6B718876-6FAA-49B6-85A1-B975B62E80F1frame15" oryx:anchors="top left" style="opacity:1;fill:#F4F6F7" stroke="#000000" d="M0.585,24.167h24.083v-7.833c0,0-2.333-3.917-7.083-5.167h-9.25    c-4.417,1.333-7.833,5.75-7.833,5.75L0.585,24.167z"/> 		<path id="_6B718876-6FAA-49B6-85A1-B975B62E80F1frame16" oryx:anchors="top left" style="opacity:1;fill:none" d="M 6 20 L 6 24" stroke="#000000"/> 		<path id="_6B718876-6FAA-49B6-85A1-B975B62E80F1frame17" oryx:anchors="top left" style="opacity:1;fill:none" d="M 20 20 L 20 24" stroke="#000000"/> 		<circle id="_6B718876-6FAA-49B6-85A1-B975B62E80F1frame18" oryx:anchors="top left" fill="black" cx="13.002" cy="5.916" r="5.417" stroke="#000000"/> 		<path id="_6B718876-6FAA-49B6-85A1-B975B62E80F1frame19" oryx:anchors="top left" style="opacity:1;fill:#F0EFF0;" stroke="#000000" d="M8.043,7.083c0,0,2.814-2.426,5.376-1.807s4.624-0.693,4.624-0.693    c0.25,1.688,0.042,3.75-1.458,5.584c0,0,1.083,0.75,1.083,1.5s0.125,1.875-1,3s-5.5,1.25-6.75,0S8.668,12.834,8.668,12    s0.583-1.25,1.25-1.917C8.835,9.5,7.419,7.708,8.043,7.083z"/> 	</g> 	 	<g id="_6B718876-6FAA-49B6-85A1-B975B62E80F1serviceTask" transform="scale(0.7,0.7) translate(8,8)" display="none"> 		<polygon oryx:anchors="top left" id="_6B718876-6FAA-49B6-85A1-B975B62E80F1frame20" style="opacity:1;fill:#ffffff" stroke="#000000" points="15.392,5.064 17.954,2.502 20.347,4.895 17.786,7.455     18.729,9.732 22.353,9.732 22.353,13.115 18.731,13.115 17.788,15.392 20.351,17.955 17.958,20.347 15.397,17.786 13.12,18.729     13.12,22.353 9.737,22.353 9.737,18.731 7.46,17.788 4.897,20.35 2.506,17.958 5.066,15.397 4.124,13.12 0.5,13.12 0.5,9.737     4.121,9.737 5.065,7.461 2.503,4.898 4.895,2.506 7.455,5.066 9.732,4.125 9.732,0.5 13.116,0.5 13.116,4.121 "/> 		<circle oryx:anchors="top left" id="_6B718876-6FAA-49B6-85A1-B975B62E80F1frame21" style="opacity:1;fill:none" stroke="#000000" cx="11.427" cy="11.426" r="3.714"/> 		<polygon oryx:anchors="top left" id="_6B718876-6FAA-49B6-85A1-B975B62E80F1frame22" style="opacity:1;fill:#ffffff" stroke="#000000" points="21.392,11.064 23.954,8.502 26.347,10.895 23.786,13.455     24.729,15.732 28.353,15.732 28.353,19.115 24.731,19.115 23.788,21.392 26.351,23.955 23.958,26.347 21.397,23.786 19.12,24.729     19.12,28.353 15.737,28.353 15.737,24.731 13.46,23.788 10.897,26.35 8.506,23.958 11.066,21.397 10.124,19.12 6.5,19.12     6.5,15.737 10.121,15.737 11.065,13.461 8.503,10.898 10.895,8.506 13.455,11.066 15.732,10.125 15.732,6.5 19.116,6.5     19.116,10.121 "/> 		<circle oryx:anchors="top left" id="_6B718876-6FAA-49B6-85A1-B975B62E80F1frame23" style="opacity:1;fill:none;" stroke="#000000" cx="17.427" cy="17.426" r="3.714"/> 	</g> 	 	<g id="_6B718876-6FAA-49B6-85A1-B975B62E80F1sendTask" display="none"> 		<path id="_6B718876-6FAA-49B6-85A1-B975B62E80F1stframe24" oryx:anchors="left top" stroke="#FFFFFF" fill="black" stroke-width="1" d="M8,11 L8,21 L24,21 L24,11 L16,17z"/> 		<path id="_6B718876-6FAA-49B6-85A1-B975B62E80F1stframe25" oryx:anchors="left top" stroke="#FFFFFF" fill="black" stroke-width="1" d="M7,10 L16,17 L25 10z"/> 	</g> 	 	<g id="_6B718876-6FAA-49B6-85A1-B975B62E80F1receiveTask" display="none"> 		<path id="_6B718876-6FAA-49B6-85A1-B975B62E80F1frame26" oryx:anchors="left top" stroke="#000000" fill="none" stroke-width="1" d="M8,11 L8,21 L24,21 L24,11z M8,11 L16,17 L24,11"/> 	</g> 	 	<g id="_6B718876-6FAA-49B6-85A1-B975B62E80F1none" display="inherit"/>  	<g id="_6B718876-6FAA-49B6-85A1-B975B62E80F1sequential" display="none">         <path oryx:anchors="bottom" fill="none" stroke="#000000" stroke-width="2" d="M46,76h10M46,72h10 M46,68h10" id="_6B718876-6FAA-49B6-85A1-B975B62E80F1__6B718876-6FAA-49B6-85A1-B975B62E80F1_20"/>     </g>   </g></g><g class="children" style="overflow:hidden"/><g class="edge"/></g><g class="controls"><g class="dockers"/><g class="magnets" transform="translate(375, 96)"><g pointer-events="all" display="none" transform="translate(-7, 12)"><circle cx="8" cy="8" r="4" stroke="none" fill="red" fill-opacity="0.3"/></g><g pointer-events="all" display="none" transform="translate(-7, 32)"><circle cx="8" cy="8" r="4" stroke="none" fill="red" fill-opacity="0.3"/></g><g pointer-events="all" display="none" transform="translate(-7, 52)"><circle cx="8" cy="8" r="4" stroke="none" fill="red" fill-opacity="0.3"/></g><g pointer-events="all" display="none" transform="translate(17, 71)"><circle cx="8" cy="8" r="4" stroke="none" fill="red" fill-opacity="0.3"/></g><g pointer-events="all" display="none" transform="translate(42, 71)"><circle cx="8" cy="8" r="4" stroke="none" fill="red" fill-opacity="0.3"/></g><g pointer-events="all" display="none" transform="translate(67, 71)"><circle cx="8" cy="8" r="4" stroke="none" fill="red" fill-opacity="0.3"/></g><g pointer-events="all" display="none" transform="translate(91, 12)"><circle cx="8" cy="8" r="4" stroke="none" fill="red" fill-opacity="0.3"/></g><g pointer-events="all" display="none" transform="translate(91, 32)"><circle cx="8" cy="8" r="4" stroke="none" fill="red" fill-opacity="0.3"/></g><g pointer-events="all" display="none" transform="translate(91, 52)"><circle cx="8" cy="8" r="4" stroke="none" fill="red" fill-opacity="0.3"/></g><g pointer-events="all" display="none" transform="translate(17, -7)"><circle cx="8" cy="8" r="4" stroke="none" fill="red" fill-opacity="0.3"/></g><g pointer-events="all" display="none" transform="translate(42, -7)"><circle cx="8" cy="8" r="4" stroke="none" fill="red" fill-opacity="0.3"/></g><g pointer-events="all" display="none" transform="translate(67, -7)"><circle cx="8" cy="8" r="4" stroke="none" fill="red" fill-opacity="0.3"/></g><g pointer-events="all" display="none" transform="translate(42, 32)"><circle cx="8" cy="8" r="4" stroke="none" fill="red" fill-opacity="0.3"/></g></g></g></g><g id="_01C8F0C2-0B2F-4FDC-AA88-32C40C5B3195" bpmn2nodeid="_A0F1DD2F-576A-43EE-BDE0-E05D47F1F545"><g class="stencils" transform="translate(249, 121)"><g class="me"><g pointer-events="fill" id="_01C8F0C2-0B2F-4FDC-AA88-32C40C5B3195">        <defs id="_01C8F0C2-0B2F-4FDC-AA88-32C40C5B3195__01C8F0C2-0B2F-4FDC-AA88-32C40C5B3195_5"> 		<radialGradient id="_01C8F0C2-0B2F-4FDC-AA88-32C40C5B3195background" cx="10%" cy="10%" r="100%" fx="10%" fy="10%"> 			<stop offset="0%" stop-color="#ffffff" stop-opacity="1" id="_01C8F0C2-0B2F-4FDC-AA88-32C40C5B3195__01C8F0C2-0B2F-4FDC-AA88-32C40C5B3195_6"/> 			<stop id="_01C8F0C2-0B2F-4FDC-AA88-32C40C5B3195fill_el" offset="100%" stop-color="#9acd32" stop-opacity="1"/> 		</radialGradient> 	</defs> 	     <circle id="_01C8F0C2-0B2F-4FDC-AA88-32C40C5B3195bg_frame" cx="15" cy="15" r="15" stroke="#000000" fill="url(#_01C8F0C2-0B2F-4FDC-AA88-32C40C5B3195background) white" stroke-width="1" style="stroke-dasharray: 5.5, 3"/>      <circle id="_01C8F0C2-0B2F-4FDC-AA88-32C40C5B3195frame" cx="15" cy="15" r="15" stroke="#000000" fill="none" stroke-width="1" display="inherit"/>  	<text font-size="11" id="_01C8F0C2-0B2F-4FDC-AA88-32C40C5B3195text_name" x="15" y="32" oryx:align="top center" stroke="black" stroke-width="0pt" letter-spacing="-0.01px" fill="#000000" text-anchor="middle" transform="rotate(0 15 32)" visibility="inherit" oryx:fontSize="11"><tspan x="15" y="32" dy="11">Inicio</tspan></text>   </g></g><g class="children" style="overflow:hidden"/><g class="edge"/></g><g class="controls"><g class="dockers"/><g class="magnets" transform="translate(249, 121)"><g pointer-events="all" display="none" transform="translate(7, 7)"><circle cx="8" cy="8" r="4" stroke="none" fill="red" fill-opacity="0.3"/></g></g></g></g></g><g class="edge"><g id="_1E58AC88-309A-4FB0-8334-2B608475C8C4" bpmn2nodeid="_AECECC22-6E36-4A41-BF61-9468ECFD0B5B"><g class="stencils"><g class="me"><g pointer-events="painted" bpmn2nodeid="_D0EA5CF8-5EA1-493E-A033-F33103A66A11"><path id="_1E58AC88-309A-4FB0-8334-2B608475C8C4_1" d="M279.46484375 136L374.9453125 136 " stroke="#000000" fill="none" stroke-width="2" stroke-linecap="round" stroke-linejoin="round" marker-start="url(#_1E58AC88-309A-4FB0-8334-2B608475C8C4start)" marker-end="url(#_1E58AC88-309A-4FB0-8334-2B608475C8C4end)"/></g><text id="_1E58AC88-309A-4FB0-8334-2B608475C8C4text_name" font-size="12" x="293.46484375" y="122" oryx:edgePosition="startTop" stroke-width="0pt" letter-spacing="-0.01px" fill="#000000" text-anchor="start" transform="rotate(360 279.46484375 136)" visibility="inherit" oryx:fontSize="12"/></g><g class="children" style="overflow:hidden"/><g class="edge"/></g><g class="controls"><g class="dockers"/><g class="magnets"/></g></g><g id="_6AC5EACA-7BF2-4E3B-B0CC-59A8748100E6" bpmn2nodeid="_BDEACDAE-079F-4378-A479-4B552CB0DB33"><g class="stencils"><g class="me"><g pointer-events="painted" bpmn2nodeid="_72A69DA1-70C2-4771-B823-B8D42ADF3ECE"><path id="_6AC5EACA-7BF2-4E3B-B0CC-59A8748100E6_1" d="M655.6171875 136L764.40625 136 " stroke="#000000" fill="none" stroke-width="2" stroke-linecap="round" stroke-linejoin="round" marker-start="url(#_6AC5EACA-7BF2-4E3B-B0CC-59A8748100E6start)" marker-end="url(#_6AC5EACA-7BF2-4E3B-B0CC-59A8748100E6end)"/></g><text id="_6AC5EACA-7BF2-4E3B-B0CC-59A8748100E6text_name" font-size="12" x="669.6171875" y="122" oryx:edgePosition="startTop" stroke-width="0pt" letter-spacing="-0.01px" fill="#000000" text-anchor="start" transform="rotate(360 655.6171875 136)" visibility="inherit" oryx:fontSize="12"/></g><g class="children" style="overflow:hidden"/><g class="edge"/></g><g class="controls"><g class="dockers"/><g class="magnets"/></g></g><g id="_D1C826AC-81CA-47F8-AF49-8405B3BC0BDA" bpmn2nodeid="_FA44715B-C446-44BC-A488-91C16026A490"><g class="stencils"><g class="me"><g pointer-events="painted" bpmn2nodeid="_CEEDF07D-48A6-41D9-A8B8-386BA4A17213"><path id="_D1C826AC-81CA-47F8-AF49-8405B3BC0BDA_1" d="M475.21875 136L554.78125 136 " stroke="#000000" fill="none" stroke-width="2" stroke-linecap="round" stroke-linejoin="round" marker-start="url(#_D1C826AC-81CA-47F8-AF49-8405B3BC0BDAstart)" marker-end="url(#_D1C826AC-81CA-47F8-AF49-8405B3BC0BDAend)"/></g><text id="_D1C826AC-81CA-47F8-AF49-8405B3BC0BDAtext_name" font-size="12" x="489.21875" y="122" oryx:edgePosition="startTop" stroke-width="0pt" letter-spacing="-0.01px" fill="#000000" text-anchor="start" transform="rotate(360 475.21875 136)" visibility="inherit" oryx:fontSize="12"/></g><g class="children" style="overflow:hidden"/><g class="edge"/></g><g class="controls"><g class="dockers"/><g class="magnets"/></g></g></g><text id="_FD9B5D27-3814-4206-A553-649D2450F011" style="stroke-width:1;fill:rgb(177,194,214);font-family:arial;font-weight:bold" font-size="12" onclick="ORYX.Plugins.CanvasTitle.openTextualAnalysis()" onmouseover="ORYX.Plugins.CanvasTitle.addToolTip('_FD9B5D27-3814-4206-A553-649D2450F011')" transform="translate(10, 20)">Confirming v.1.0 (src.Confirming)</text></g></g></svg>