<svg xmlns="http://www.w3.org/2000/svg" xmlns:oryx="http://oryx-editor.org" id="_906C57FB-E90F-429D-8329-A6F4B25EDD7B" width="834" height="221" xmlns:xlink="http://www.w3.org/1999/xlink" xmlns:svg="http://www.w3.org/2000/svg"><defs><marker id="_C0616D10-A4E2-49E4-962D-3F0BBE02C41Cstart" refX="1" refY="5" markerUnits="userSpaceOnUse" markerWidth="17" markerHeight="11" orient="auto" fill="#000000" stroke="#000000"> 	  		<path id="_C0616D10-A4E2-49E4-962D-3F0BBE02C41Cconditional" d="M 0 5 L 8 0 L 16 5 L 8 10 L 0 5" fill="white" stroke="#000000" stroke-width="1" display="none"/> 			<path id="_C0616D10-A4E2-49E4-962D-3F0BBE02C41Cdefault" d="M 5 0 L 11 10" fill="white" stroke="#000000" stroke-width="1" display="none"/> 	  	</marker><marker id="_C0616D10-A4E2-49E4-962D-3F0BBE02C41Cend" refX="15" refY="6" markerUnits="userSpaceOnUse" markerWidth="15" markerHeight="12" orient="auto" fill="#000000" stroke="#000000"> 	  		<path id="_C0616D10-A4E2-49E4-962D-3F0BBE02C41Cframe2" d="M 0 1 L 15 6 L 0 11z" fill="#000000" stroke="#000000" stroke-linejoin="round" stroke-width="2"/> 	  	</marker><marker id="_A2C7AA68-B298-4995-8082-75763131C27Dstart" refX="1" refY="5" markerUnits="userSpaceOnUse" markerWidth="17" markerHeight="11" orient="auto" fill="#000000" stroke="#000000"> 	  		<path id="_A2C7AA68-B298-4995-8082-75763131C27Dconditional" d="M 0 5 L 8 0 L 16 5 L 8 10 L 0 5" fill="white" stroke="#000000" stroke-width="1" display="none"/> 			<path id="_A2C7AA68-B298-4995-8082-75763131C27Ddefault" d="M 5 0 L 11 10" fill="white" stroke="#000000" stroke-width="1" display="none"/> 	  	</marker><marker id="_A2C7AA68-B298-4995-8082-75763131C27Dend" refX="15" refY="6" markerUnits="userSpaceOnUse" markerWidth="15" markerHeight="12" orient="auto" fill="#000000" stroke="#000000"> 	  		<path id="_A2C7AA68-B298-4995-8082-75763131C27Dframe2" d="M 0 1 L 15 6 L 0 11z" fill="#000000" stroke="#000000" stroke-linejoin="round" stroke-width="2"/> 	  	</marker><marker id="_76A95B8E-E329-4880-BCE0-C164CF3BA7E1start" refX="1" refY="5" markerUnits="userSpaceOnUse" markerWidth="17" markerHeight="11" orient="auto" fill="#000000" stroke="#000000"> 	  		<path id="_76A95B8E-E329-4880-BCE0-C164CF3BA7E1conditional" d="M 0 5 L 8 0 L 16 5 L 8 10 L 0 5" fill="white" stroke="#000000" stroke-width="1" display="none"/> 			<path id="_76A95B8E-E329-4880-BCE0-C164CF3BA7E1default" d="M 5 0 L 11 10" fill="white" stroke="#000000" stroke-width="1" display="none"/> 	  	</marker><marker id="_76A95B8E-E329-4880-BCE0-C164CF3BA7E1end" refX="15" refY="6" markerUnits="userSpaceOnUse" markerWidth="15" markerHeight="12" orient="auto" fill="#000000" stroke="#000000"> 	  		<path id="_76A95B8E-E329-4880-BCE0-C164CF3BA7E1frame2" d="M 0 1 L 15 6 L 0 11z" fill="#000000" stroke="#000000" stroke-linejoin="round" stroke-width="2"/> 	  	</marker></defs><g stroke="none" font-family="Verdana, sans-serif" font-size-adjust="none" font-style="normal" font-variant="normal" font-weight="normal" line-heigth="normal" font-size="12"><g class="stencils" transform="translate(16, 16)"><g class="me"/><g class="children"><g id="_09D7F616-0E67-44CB-AF79-31E0D65E1D74" bpmn2nodeid="_3D41A12C-598A-41BF-AE3B-504AE672A73B"><g class="stencils" transform="translate(765, 122)"><g class="me"><g pointer-events="fill" id="_09D7F616-0E67-44CB-AF79-31E0D65E1D74">      <defs id="_09D7F616-0E67-44CB-AF79-31E0D65E1D74__09D7F616-0E67-44CB-AF79-31E0D65E1D74_5"> 		<radialGradient id="_09D7F616-0E67-44CB-AF79-31E0D65E1D74background" cx="10%" cy="10%" r="100%" fx="10%" fy="10%"> 			<stop offset="0%" stop-color="#ffffff" stop-opacity="1" id="_09D7F616-0E67-44CB-AF79-31E0D65E1D74__09D7F616-0E67-44CB-AF79-31E0D65E1D74_6"/> 			<stop id="_09D7F616-0E67-44CB-AF79-31E0D65E1D74fill_el" offset="100%" stop-color="#ff6347" stop-opacity="1"/> 		</radialGradient> 	</defs> 	     <circle id="_09D7F616-0E67-44CB-AF79-31E0D65E1D74bg_frame" cx="14" cy="14" r="14" stroke="#000000" fill="url(#_09D7F616-0E67-44CB-AF79-31E0D65E1D74background) white" stroke-width="3"/> 	<text font-size="11" id="_09D7F616-0E67-44CB-AF79-31E0D65E1D74text_name" x="14" y="30" oryx:align="top center" stroke="black" stroke-width="0pt" letter-spacing="-0.01px" fill="#000000" text-anchor="middle" transform="rotate(0 14 30)" visibility="inherit" oryx:fontSize="11"/>   </g></g><g class="children" style="overflow:hidden"/><g class="edge"/></g><g class="controls"><g class="dockers"/><g class="magnets" transform="translate(765, 122)"><g pointer-events="all" display="none" transform="translate(6, 6)"><circle cx="8" cy="8" r="4" stroke="none" fill="red" fill-opacity="0.3"/></g></g></g></g><g id="_0AB7F91A-96C9-4966-97D7-25B9DD1D243C" bpmn2nodeid="_26C1A0E6-A112-4179-9BBA-BAC87B85B029"><g class="stencils" transform="translate(555, 96)"><g class="me"><g pointer-events="fill" oryx:minimumSize="50 40" id="_0AB7F91A-96C9-4966-97D7-25B9DD1D243C">   	<defs id="_0AB7F91A-96C9-4966-97D7-25B9DD1D243C__0AB7F91A-96C9-4966-97D7-25B9DD1D243C_17"> 		<radialGradient id="_0AB7F91A-96C9-4966-97D7-25B9DD1D243Cbackground" cx="10%" cy="10%" r="100%" fx="10%" fy="10%"> 			<stop offset="0%" stop-color="#ffffff" stop-opacity="1" id="_0AB7F91A-96C9-4966-97D7-25B9DD1D243C__0AB7F91A-96C9-4966-97D7-25B9DD1D243C_18"/> 			<stop id="_0AB7F91A-96C9-4966-97D7-25B9DD1D243Cfill_el" offset="100%" stop-color="#fafad2" stop-opacity="1"/> 		</radialGradient> 		<radialGradient id="_0AB7F91A-96C9-4966-97D7-25B9DD1D243Cborderbackground" cx="10%" cy="10%" r="100%" fx="10%" fy="10%"> 			<stop offset="0%" stop-color="#ffffff" stop-opacity="1" id="_0AB7F91A-96C9-4966-97D7-25B9DD1D243C__0AB7F91A-96C9-4966-97D7-25B9DD1D243C_19"/> 			<stop id="_0AB7F91A-96C9-4966-97D7-25B9DD1D243Cfill_border" offset="100%" stop-color="#000000" stop-opacity="1" stroke="#000000"/> 		</radialGradient> 	</defs> 	 	<rect id="_0AB7F91A-96C9-4966-97D7-25B9DD1D243Ctext_frame" oryx:anchors="bottom top right left" x="1" y="1" width="94" height="79" rx="10" ry="10" stroke="none" stroke-width="0" fill="none"/> 	<rect id="_0AB7F91A-96C9-4966-97D7-25B9DD1D243Cbg_frame" oryx:resize="vertical horizontal" x="0" y="0" width="100" height="80" rx="10" ry="10" stroke="#000000" stroke-width="1" fill="url(#_0AB7F91A-96C9-4966-97D7-25B9DD1D243Cbackground) #ffffcc"/> 		<text font-size="12" id="_0AB7F91A-96C9-4966-97D7-25B9DD1D243Ctext_name" x="50" y="40" oryx:align="middle center" oryx:fittoelem="text_frame" stroke="black" text-anchor="middle" stroke-width="0pt" letter-spacing="-0.01px" fill="#000000" transform="rotate(0 50 40)" visibility="inherit" oryx:fontSize="12"><tspan x="50" y="40" dy="5" id="ext-gen737">Confirming</tspan></text>     <g id="_0AB7F91A-96C9-4966-97D7-25B9DD1D243CmanualTask" transform="scale(0.7,0.7) translate(8,8)" display="none">     	<path oryx:anchors="top left" id="_0AB7F91A-96C9-4966-97D7-25B9DD1D243Cframe" style="opacity:1;fill:none;fill-opacity:1;stroke-width:1" d="M0.5,3.751l4.083-3.25c0,0,11.166,0.083,12.083,0.083s-2.417,2.917-1.5,2.917     s11.667,0,12.584,0c1.166,1.708-0.168,3.167-0.834,3.667s0.875,1.917-1,4.417c-0.75,0.25,0.75,1.875-1.333,3.333     c-1.167,0.583,0.583,1.542-1.25,2.833c-1.167,0-20.833,0.083-20.833,0.083l-2-1.333V3.751z" stroke="#000000"/> 		<path id="_0AB7F91A-96C9-4966-97D7-25B9DD1D243Cframe2" oryx:anchors="top left" style="opacity:1;fill:none;stroke-width:2" d="M 13.5 7 L 27 7" stroke="#000000"/> 		<path id="_0AB7F91A-96C9-4966-97D7-25B9DD1D243Cframe3" oryx:anchors="top left" style="opacity:1;fill:none;stroke-width:2" d="M 13.5 11 L 26 11" stroke="#000000"/> 		<path id="_0AB7F91A-96C9-4966-97D7-25B9DD1D243Cframe4" oryx:anchors="top left" style="opacity:1;fill:none;stroke-width:1.5" d="M 14 14.5 L 25 14.5" stroke="#000000"/> 		<path id="_0AB7F91A-96C9-4966-97D7-25B9DD1D243Cframe5" oryx:anchors="top left" style="opacity:1;fill:none;stroke-width:1.5" d="M 8.2 3.1 L 15 3.1" stroke="#000000"/> 	</g> 	 	<g id="_0AB7F91A-96C9-4966-97D7-25B9DD1D243CbusinessRuleTask" transform="scale(0.7,0.7) translate(8,8)" display="none"> 		<rect id="_0AB7F91A-96C9-4966-97D7-25B9DD1D243Cframe6" oryx:anchors="top left" x="0" y="0" width="22" height="4" style="opacity:1;fill:#B3B1B3;fill-opacity:1;" stroke="#000000"/> 		<rect id="_0AB7F91A-96C9-4966-97D7-25B9DD1D243Cframe7" oryx:anchors="top left" x="0" y="4" style="opacity:1;fill:none;" width="22" height="12" stroke="#000000"/> 		<path id="_0AB7F91A-96C9-4966-97D7-25B9DD1D243Cframe8" oryx:anchors="top left" style="opacity:1;fill:none;" d="M 0 10 L 22 10" stroke="#000000"/> 		<path id="_0AB7F91A-96C9-4966-97D7-25B9DD1D243Cframe9" oryx:anchors="top left" style="opacity:1; fill:none;" d="M 7 4 L 7 16" stroke="#000000"/> 	</g> 	 	<g id="_0AB7F91A-96C9-4966-97D7-25B9DD1D243CscriptTask" transform="scale(0.7,0.7) translate(8,8)" display="none"> 		<path oryx:anchors="top left" id="_0AB7F91A-96C9-4966-97D7-25B9DD1D243Cframe10" style="opacity:1;fill:none;" stroke="#000000" d="M6.402,0.5h14.5c0,0-5.833,2.833-5.833,5.583s4.417,6,4.417,9.167    s-4.167,5.083-4.167,5.083H0.235c0,0,5-2.667,5-5s-4.583-6.75-4.583-9.25S6.402,0.5,6.402,0.5z"/> 		<path oryx:anchors="top left" id="_0AB7F91A-96C9-4966-97D7-25B9DD1D243Cframe11" style="opacity:1;fill:none;stroke-width:1.5" d="M 3.5 4.5 L 13.5 4.5" stroke="#000000"/> 		<path oryx:anchors="top left" id="_0AB7F91A-96C9-4966-97D7-25B9DD1D243Cframe12" style="opacity:1;fill:none;stroke-width:1.5" d="M 3.8 8.5 L 13.8 8.5" stroke="#000000"/> 		<path oryx:anchors="top left" id="_0AB7F91A-96C9-4966-97D7-25B9DD1D243Cframe13" style="opacity:1;fill:none;stroke-width:1.5" d="M 6.3 12.5 L 16.3 12.5" stroke="#000000"/> 		<path oryx:anchors="top left" id="_0AB7F91A-96C9-4966-97D7-25B9DD1D243Cframe14" style="opacity:1;fill:none;stroke-width:1.5" d="M 6.5 16.5 L 16.5 16.5" stroke="#000000"/> 	</g> 	 	<g id="_0AB7F91A-96C9-4966-97D7-25B9DD1D243CuserTask" transform="scale(0.7,0.7) translate(8,8)" display="inherit"> 		<path id="_0AB7F91A-96C9-4966-97D7-25B9DD1D243Cframe15" oryx:anchors="top left" style="opacity:1;fill:#F4F6F7" stroke="#000000" d="M0.585,24.167h24.083v-7.833c0,0-2.333-3.917-7.083-5.167h-9.25    c-4.417,1.333-7.833,5.75-7.833,5.75L0.585,24.167z"/> 		<path id="_0AB7F91A-96C9-4966-97D7-25B9DD1D243Cframe16" oryx:anchors="top left" style="opacity:1;fill:none" d="M 6 20 L 6 24" stroke="#000000"/> 		<path id="_0AB7F91A-96C9-4966-97D7-25B9DD1D243Cframe17" oryx:anchors="top left" style="opacity:1;fill:none" d="M 20 20 L 20 24" stroke="#000000"/> 		<circle id="_0AB7F91A-96C9-4966-97D7-25B9DD1D243Cframe18" oryx:anchors="top left" fill="black" cx="13.002" cy="5.916" r="5.417" stroke="#000000"/> 		<path id="_0AB7F91A-96C9-4966-97D7-25B9DD1D243Cframe19" oryx:anchors="top left" style="opacity:1;fill:#F0EFF0;" stroke="#000000" d="M8.043,7.083c0,0,2.814-2.426,5.376-1.807s4.624-0.693,4.624-0.693    c0.25,1.688,0.042,3.75-1.458,5.584c0,0,1.083,0.75,1.083,1.5s0.125,1.875-1,3s-5.5,1.25-6.75,0S8.668,12.834,8.668,12    s0.583-1.25,1.25-1.917C8.835,9.5,7.419,7.708,8.043,7.083z"/> 	</g> 	 	<g id="_0AB7F91A-96C9-4966-97D7-25B9DD1D243CserviceTask" transform="scale(0.7,0.7) translate(8,8)" display="none"> 		<polygon oryx:anchors="top left" id="_0AB7F91A-96C9-4966-97D7-25B9DD1D243Cframe20" style="opacity:1;fill:#ffffff" stroke="#000000" points="15.392,5.064 17.954,2.502 20.347,4.895 17.786,7.455     18.729,9.732 22.353,9.732 22.353,13.115 18.731,13.115 17.788,15.392 20.351,17.955 17.958,20.347 15.397,17.786 13.12,18.729     13.12,22.353 9.737,22.353 9.737,18.731 7.46,17.788 4.897,20.35 2.506,17.958 5.066,15.397 4.124,13.12 0.5,13.12 0.5,9.737     4.121,9.737 5.065,7.461 2.503,4.898 4.895,2.506 7.455,5.066 9.732,4.125 9.732,0.5 13.116,0.5 13.116,4.121 "/> 		<circle oryx:anchors="top left" id="_0AB7F91A-96C9-4966-97D7-25B9DD1D243Cframe21" style="opacity:1;fill:none" stroke="#000000" cx="11.427" cy="11.426" r="3.714"/> 		<polygon oryx:anchors="top left" id="_0AB7F91A-96C9-4966-97D7-25B9DD1D243Cframe22" style="opacity:1;fill:#ffffff" stroke="#000000" points="21.392,11.064 23.954,8.502 26.347,10.895 23.786,13.455     24.729,15.732 28.353,15.732 28.353,19.115 24.731,19.115 23.788,21.392 26.351,23.955 23.958,26.347 21.397,23.786 19.12,24.729     19.12,28.353 15.737,28.353 15.737,24.731 13.46,23.788 10.897,26.35 8.506,23.958 11.066,21.397 10.124,19.12 6.5,19.12     6.5,15.737 10.121,15.737 11.065,13.461 8.503,10.898 10.895,8.506 13.455,11.066 15.732,10.125 15.732,6.5 19.116,6.5     19.116,10.121 "/> 		<circle oryx:anchors="top left" id="_0AB7F91A-96C9-4966-97D7-25B9DD1D243Cframe23" style="opacity:1;fill:none;" stroke="#000000" cx="17.427" cy="17.426" r="3.714"/> 	</g> 	 	<g id="_0AB7F91A-96C9-4966-97D7-25B9DD1D243CsendTask" display="none"> 		<path id="_0AB7F91A-96C9-4966-97D7-25B9DD1D243Cstframe24" oryx:anchors="left top" stroke="#FFFFFF" fill="black" stroke-width="1" d="M8,11 L8,21 L24,21 L24,11 L16,17z"/> 		<path id="_0AB7F91A-96C9-4966-97D7-25B9DD1D243Cstframe25" oryx:anchors="left top" stroke="#FFFFFF" fill="black" stroke-width="1" d="M7,10 L16,17 L25 10z"/> 	</g> 	 	<g id="_0AB7F91A-96C9-4966-97D7-25B9DD1D243CreceiveTask" display="none"> 		<path id="_0AB7F91A-96C9-4966-97D7-25B9DD1D243Cframe26" oryx:anchors="left top" stroke="#000000" fill="none" stroke-width="1" d="M8,11 L8,21 L24,21 L24,11z M8,11 L16,17 L24,11"/> 	</g> 	 	<g id="_0AB7F91A-96C9-4966-97D7-25B9DD1D243Cnone" display="inherit"/>  	<g id="_0AB7F91A-96C9-4966-97D7-25B9DD1D243Csequential" display="none">         <path oryx:anchors="bottom" fill="none" stroke="#000000" stroke-width="2" d="M46,76h10M46,72h10 M46,68h10" id="_0AB7F91A-96C9-4966-97D7-25B9DD1D243C__0AB7F91A-96C9-4966-97D7-25B9DD1D243C_20"/>     </g>   </g></g><g class="children" style="overflow:hidden"/><g class="edge"/></g><g class="controls"><g class="dockers"/><g class="magnets" transform="translate(555, 96)"><g pointer-events="all" display="none" transform="translate(-7, 12)"><circle cx="8" cy="8" r="4" stroke="none" fill="red" fill-opacity="0.3"/></g><g pointer-events="all" display="none" transform="translate(-7, 32)"><circle cx="8" cy="8" r="4" stroke="none" fill="red" fill-opacity="0.3"/></g><g pointer-events="all" display="none" transform="translate(-7, 52)"><circle cx="8" cy="8" r="4" stroke="none" fill="red" fill-opacity="0.3"/></g><g pointer-events="all" display="none" transform="translate(17, 71)"><circle cx="8" cy="8" r="4" stroke="none" fill="red" fill-opacity="0.3"/></g><g pointer-events="all" display="none" transform="translate(42, 71)"><circle cx="8" cy="8" r="4" stroke="none" fill="red" fill-opacity="0.3"/></g><g pointer-events="all" display="none" transform="translate(67, 71)"><circle cx="8" cy="8" r="4" stroke="none" fill="red" fill-opacity="0.3"/></g><g pointer-events="all" display="none" transform="translate(91, 12)"><circle cx="8" cy="8" r="4" stroke="none" fill="red" fill-opacity="0.3"/></g><g pointer-events="all" display="none" transform="translate(91, 32)"><circle cx="8" cy="8" r="4" stroke="none" fill="red" fill-opacity="0.3"/></g><g pointer-events="all" display="none" transform="translate(91, 52)"><circle cx="8" cy="8" r="4" stroke="none" fill="red" fill-opacity="0.3"/></g><g pointer-events="all" display="none" transform="translate(17, -7)"><circle cx="8" cy="8" r="4" stroke="none" fill="red" fill-opacity="0.3"/></g><g pointer-events="all" display="none" transform="translate(42, -7)"><circle cx="8" cy="8" r="4" stroke="none" fill="red" fill-opacity="0.3"/></g><g pointer-events="all" display="none" transform="translate(67, -7)"><circle cx="8" cy="8" r="4" stroke="none" fill="red" fill-opacity="0.3"/></g><g pointer-events="all" display="none" transform="translate(42, 32)"><circle cx="8" cy="8" r="4" stroke="none" fill="red" fill-opacity="0.3"/></g></g></g></g><g id="_161A89FF-C4C0-4AB7-9781-1EF21425CD80" bpmn2nodeid="_F5A77FAF-DD1A-4857-AE54-4743EBBE7D87"><g class="stencils" transform="translate(375, 96)"><g class="me"><g pointer-events="fill" oryx:minimumSize="50 40" id="_161A89FF-C4C0-4AB7-9781-1EF21425CD80">   	<defs id="_161A89FF-C4C0-4AB7-9781-1EF21425CD80__161A89FF-C4C0-4AB7-9781-1EF21425CD80_17"> 		<radialGradient id="_161A89FF-C4C0-4AB7-9781-1EF21425CD80background" cx="10%" cy="10%" r="100%" fx="10%" fy="10%"> 			<stop offset="0%" stop-color="#ffffff" stop-opacity="1" id="_161A89FF-C4C0-4AB7-9781-1EF21425CD80__161A89FF-C4C0-4AB7-9781-1EF21425CD80_18"/> 			<stop id="_161A89FF-C4C0-4AB7-9781-1EF21425CD80fill_el" offset="100%" stop-color="#fafad2" stop-opacity="1"/> 		</radialGradient> 		<radialGradient id="_161A89FF-C4C0-4AB7-9781-1EF21425CD80borderbackground" cx="10%" cy="10%" r="100%" fx="10%" fy="10%"> 			<stop offset="0%" stop-color="#ffffff" stop-opacity="1" id="_161A89FF-C4C0-4AB7-9781-1EF21425CD80__161A89FF-C4C0-4AB7-9781-1EF21425CD80_19"/> 			<stop id="_161A89FF-C4C0-4AB7-9781-1EF21425CD80fill_border" offset="100%" stop-color="#000000" stop-opacity="1" stroke="#000000"/> 		</radialGradient> 	</defs> 	 	<rect id="_161A89FF-C4C0-4AB7-9781-1EF21425CD80text_frame" oryx:anchors="bottom top right left" x="1" y="1" width="94" height="79" rx="10" ry="10" stroke="none" stroke-width="0" fill="none"/> 	<rect id="_161A89FF-C4C0-4AB7-9781-1EF21425CD80bg_frame" oryx:resize="vertical horizontal" x="0" y="0" width="100" height="80" rx="10" ry="10" stroke="#000000" stroke-width="1" fill="url(#_161A89FF-C4C0-4AB7-9781-1EF21425CD80background) #ffffcc"/> 		<text font-size="12" id="_161A89FF-C4C0-4AB7-9781-1EF21425CD80text_name" x="50" y="40" oryx:align="middle center" oryx:fittoelem="text_frame" stroke="black" text-anchor="middle" stroke-width="0pt" letter-spacing="-0.01px" fill="#000000" transform="rotate(0 50 40)" visibility="inherit" oryx:fontSize="12"/>     <g id="_161A89FF-C4C0-4AB7-9781-1EF21425CD80manualTask" transform="scale(0.7,0.7) translate(8,8)" display="none">     	<path oryx:anchors="top left" id="_161A89FF-C4C0-4AB7-9781-1EF21425CD80frame" style="opacity:1;fill:none;fill-opacity:1;stroke-width:1" d="M0.5,3.751l4.083-3.25c0,0,11.166,0.083,12.083,0.083s-2.417,2.917-1.5,2.917     s11.667,0,12.584,0c1.166,1.708-0.168,3.167-0.834,3.667s0.875,1.917-1,4.417c-0.75,0.25,0.75,1.875-1.333,3.333     c-1.167,0.583,0.583,1.542-1.25,2.833c-1.167,0-20.833,0.083-20.833,0.083l-2-1.333V3.751z" stroke="#000000"/> 		<path id="_161A89FF-C4C0-4AB7-9781-1EF21425CD80frame2" oryx:anchors="top left" style="opacity:1;fill:none;stroke-width:2" d="M 13.5 7 L 27 7" stroke="#000000"/> 		<path id="_161A89FF-C4C0-4AB7-9781-1EF21425CD80frame3" oryx:anchors="top left" style="opacity:1;fill:none;stroke-width:2" d="M 13.5 11 L 26 11" stroke="#000000"/> 		<path id="_161A89FF-C4C0-4AB7-9781-1EF21425CD80frame4" oryx:anchors="top left" style="opacity:1;fill:none;stroke-width:1.5" d="M 14 14.5 L 25 14.5" stroke="#000000"/> 		<path id="_161A89FF-C4C0-4AB7-9781-1EF21425CD80frame5" oryx:anchors="top left" style="opacity:1;fill:none;stroke-width:1.5" d="M 8.2 3.1 L 15 3.1" stroke="#000000"/> 	</g> 	 	<g id="_161A89FF-C4C0-4AB7-9781-1EF21425CD80businessRuleTask" transform="scale(0.7,0.7) translate(8,8)" display="none"> 		<rect id="_161A89FF-C4C0-4AB7-9781-1EF21425CD80frame6" oryx:anchors="top left" x="0" y="0" width="22" height="4" style="opacity:1;fill:#B3B1B3;fill-opacity:1;" stroke="#000000"/> 		<rect id="_161A89FF-C4C0-4AB7-9781-1EF21425CD80frame7" oryx:anchors="top left" x="0" y="4" style="opacity:1;fill:none;" width="22" height="12" stroke="#000000"/> 		<path id="_161A89FF-C4C0-4AB7-9781-1EF21425CD80frame8" oryx:anchors="top left" style="opacity:1;fill:none;" d="M 0 10 L 22 10" stroke="#000000"/> 		<path id="_161A89FF-C4C0-4AB7-9781-1EF21425CD80frame9" oryx:anchors="top left" style="opacity:1; fill:none;" d="M 7 4 L 7 16" stroke="#000000"/> 	</g> 	 	<g id="_161A89FF-C4C0-4AB7-9781-1EF21425CD80scriptTask" transform="scale(0.7,0.7) translate(8,8)" display="inherit"> 		<path oryx:anchors="top left" id="_161A89FF-C4C0-4AB7-9781-1EF21425CD80frame10" style="opacity:1;fill:none;" stroke="#000000" d="M6.402,0.5h14.5c0,0-5.833,2.833-5.833,5.583s4.417,6,4.417,9.167    s-4.167,5.083-4.167,5.083H0.235c0,0,5-2.667,5-5s-4.583-6.75-4.583-9.25S6.402,0.5,6.402,0.5z"/> 		<path oryx:anchors="top left" id="_161A89FF-C4C0-4AB7-9781-1EF21425CD80frame11" style="opacity:1;fill:none;stroke-width:1.5" d="M 3.5 4.5 L 13.5 4.5" stroke="#000000"/> 		<path oryx:anchors="top left" id="_161A89FF-C4C0-4AB7-9781-1EF21425CD80frame12" style="opacity:1;fill:none;stroke-width:1.5" d="M 3.8 8.5 L 13.8 8.5" stroke="#000000"/> 		<path oryx:anchors="top left" id="_161A89FF-C4C0-4AB7-9781-1EF21425CD80frame13" style="opacity:1;fill:none;stroke-width:1.5" d="M 6.3 12.5 L 16.3 12.5" stroke="#000000"/> 		<path oryx:anchors="top left" id="_161A89FF-C4C0-4AB7-9781-1EF21425CD80frame14" style="opacity:1;fill:none;stroke-width:1.5" d="M 6.5 16.5 L 16.5 16.5" stroke="#000000"/> 	</g> 	 	<g id="_161A89FF-C4C0-4AB7-9781-1EF21425CD80userTask" transform="scale(0.7,0.7) translate(8,8)" display="none"> 		<path id="_161A89FF-C4C0-4AB7-9781-1EF21425CD80frame15" oryx:anchors="top left" style="opacity:1;fill:#F4F6F7" stroke="#000000" d="M0.585,24.167h24.083v-7.833c0,0-2.333-3.917-7.083-5.167h-9.25    c-4.417,1.333-7.833,5.75-7.833,5.75L0.585,24.167z"/> 		<path id="_161A89FF-C4C0-4AB7-9781-1EF21425CD80frame16" oryx:anchors="top left" style="opacity:1;fill:none" d="M 6 20 L 6 24" stroke="#000000"/> 		<path id="_161A89FF-C4C0-4AB7-9781-1EF21425CD80frame17" oryx:anchors="top left" style="opacity:1;fill:none" d="M 20 20 L 20 24" stroke="#000000"/> 		<circle id="_161A89FF-C4C0-4AB7-9781-1EF21425CD80frame18" oryx:anchors="top left" fill="black" cx="13.002" cy="5.916" r="5.417" stroke="#000000"/> 		<path id="_161A89FF-C4C0-4AB7-9781-1EF21425CD80frame19" oryx:anchors="top left" style="opacity:1;fill:#F0EFF0;" stroke="#000000" d="M8.043,7.083c0,0,2.814-2.426,5.376-1.807s4.624-0.693,4.624-0.693    c0.25,1.688,0.042,3.75-1.458,5.584c0,0,1.083,0.75,1.083,1.5s0.125,1.875-1,3s-5.5,1.25-6.75,0S8.668,12.834,8.668,12    s0.583-1.25,1.25-1.917C8.835,9.5,7.419,7.708,8.043,7.083z"/> 	</g> 	 	<g id="_161A89FF-C4C0-4AB7-9781-1EF21425CD80serviceTask" transform="scale(0.7,0.7) translate(8,8)" display="none"> 		<polygon oryx:anchors="top left" id="_161A89FF-C4C0-4AB7-9781-1EF21425CD80frame20" style="opacity:1;fill:#ffffff" stroke="#000000" points="15.392,5.064 17.954,2.502 20.347,4.895 17.786,7.455     18.729,9.732 22.353,9.732 22.353,13.115 18.731,13.115 17.788,15.392 20.351,17.955 17.958,20.347 15.397,17.786 13.12,18.729     13.12,22.353 9.737,22.353 9.737,18.731 7.46,17.788 4.897,20.35 2.506,17.958 5.066,15.397 4.124,13.12 0.5,13.12 0.5,9.737     4.121,9.737 5.065,7.461 2.503,4.898 4.895,2.506 7.455,5.066 9.732,4.125 9.732,0.5 13.116,0.5 13.116,4.121 "/> 		<circle oryx:anchors="top left" id="_161A89FF-C4C0-4AB7-9781-1EF21425CD80frame21" style="opacity:1;fill:none" stroke="#000000" cx="11.427" cy="11.426" r="3.714"/> 		<polygon oryx:anchors="top left" id="_161A89FF-C4C0-4AB7-9781-1EF21425CD80frame22" style="opacity:1;fill:#ffffff" stroke="#000000" points="21.392,11.064 23.954,8.502 26.347,10.895 23.786,13.455     24.729,15.732 28.353,15.732 28.353,19.115 24.731,19.115 23.788,21.392 26.351,23.955 23.958,26.347 21.397,23.786 19.12,24.729     19.12,28.353 15.737,28.353 15.737,24.731 13.46,23.788 10.897,26.35 8.506,23.958 11.066,21.397 10.124,19.12 6.5,19.12     6.5,15.737 10.121,15.737 11.065,13.461 8.503,10.898 10.895,8.506 13.455,11.066 15.732,10.125 15.732,6.5 19.116,6.5     19.116,10.121 "/> 		<circle oryx:anchors="top left" id="_161A89FF-C4C0-4AB7-9781-1EF21425CD80frame23" style="opacity:1;fill:none;" stroke="#000000" cx="17.427" cy="17.426" r="3.714"/> 	</g> 	 	<g id="_161A89FF-C4C0-4AB7-9781-1EF21425CD80sendTask" display="none"> 		<path id="_161A89FF-C4C0-4AB7-9781-1EF21425CD80stframe24" oryx:anchors="left top" stroke="#FFFFFF" fill="black" stroke-width="1" d="M8,11 L8,21 L24,21 L24,11 L16,17z"/> 		<path id="_161A89FF-C4C0-4AB7-9781-1EF21425CD80stframe25" oryx:anchors="left top" stroke="#FFFFFF" fill="black" stroke-width="1" d="M7,10 L16,17 L25 10z"/> 	</g> 	 	<g id="_161A89FF-C4C0-4AB7-9781-1EF21425CD80receiveTask" display="none"> 		<path id="_161A89FF-C4C0-4AB7-9781-1EF21425CD80frame26" oryx:anchors="left top" stroke="#000000" fill="none" stroke-width="1" d="M8,11 L8,21 L24,21 L24,11z M8,11 L16,17 L24,11"/> 	</g> 	 	<g id="_161A89FF-C4C0-4AB7-9781-1EF21425CD80none" display="inherit"/>  	<g id="_161A89FF-C4C0-4AB7-9781-1EF21425CD80sequential" display="none">         <path oryx:anchors="bottom" fill="none" stroke="#000000" stroke-width="2" d="M46,76h10M46,72h10 M46,68h10" id="_161A89FF-C4C0-4AB7-9781-1EF21425CD80__161A89FF-C4C0-4AB7-9781-1EF21425CD80_20"/>     </g>   </g></g><g class="children" style="overflow:hidden"/><g class="edge"/></g><g class="controls"><g class="dockers"/><g class="magnets" transform="translate(375, 96)"><g pointer-events="all" display="none" transform="translate(-7, 12)"><circle cx="8" cy="8" r="4" stroke="none" fill="red" fill-opacity="0.3"/></g><g pointer-events="all" display="none" transform="translate(-7, 32)"><circle cx="8" cy="8" r="4" stroke="none" fill="red" fill-opacity="0.3"/></g><g pointer-events="all" display="none" transform="translate(-7, 52)"><circle cx="8" cy="8" r="4" stroke="none" fill="red" fill-opacity="0.3"/></g><g pointer-events="all" display="none" transform="translate(17, 71)"><circle cx="8" cy="8" r="4" stroke="none" fill="red" fill-opacity="0.3"/></g><g pointer-events="all" display="none" transform="translate(42, 71)"><circle cx="8" cy="8" r="4" stroke="none" fill="red" fill-opacity="0.3"/></g><g pointer-events="all" display="none" transform="translate(67, 71)"><circle cx="8" cy="8" r="4" stroke="none" fill="red" fill-opacity="0.3"/></g><g pointer-events="all" display="none" transform="translate(91, 12)"><circle cx="8" cy="8" r="4" stroke="none" fill="red" fill-opacity="0.3"/></g><g pointer-events="all" display="none" transform="translate(91, 32)"><circle cx="8" cy="8" r="4" stroke="none" fill="red" fill-opacity="0.3"/></g><g pointer-events="all" display="none" transform="translate(91, 52)"><circle cx="8" cy="8" r="4" stroke="none" fill="red" fill-opacity="0.3"/></g><g pointer-events="all" display="none" transform="translate(17, -7)"><circle cx="8" cy="8" r="4" stroke="none" fill="red" fill-opacity="0.3"/></g><g pointer-events="all" display="none" transform="translate(42, -7)"><circle cx="8" cy="8" r="4" stroke="none" fill="red" fill-opacity="0.3"/></g><g pointer-events="all" display="none" transform="translate(67, -7)"><circle cx="8" cy="8" r="4" stroke="none" fill="red" fill-opacity="0.3"/></g><g pointer-events="all" display="none" transform="translate(42, 32)"><circle cx="8" cy="8" r="4" stroke="none" fill="red" fill-opacity="0.3"/></g></g></g></g><g id="_356EA084-54EB-481D-B498-295BBB41BE15" bpmn2nodeid="_A0F1DD2F-576A-43EE-BDE0-E05D47F1F545"><g class="stencils" transform="translate(249, 121)"><g class="me"><g pointer-events="fill" id="_356EA084-54EB-481D-B498-295BBB41BE15">        <defs id="_356EA084-54EB-481D-B498-295BBB41BE15__356EA084-54EB-481D-B498-295BBB41BE15_5"> 		<radialGradient id="_356EA084-54EB-481D-B498-295BBB41BE15background" cx="10%" cy="10%" r="100%" fx="10%" fy="10%"> 			<stop offset="0%" stop-color="#ffffff" stop-opacity="1" id="_356EA084-54EB-481D-B498-295BBB41BE15__356EA084-54EB-481D-B498-295BBB41BE15_6"/> 			<stop id="_356EA084-54EB-481D-B498-295BBB41BE15fill_el" offset="100%" stop-color="#9acd32" stop-opacity="1"/> 		</radialGradient> 	</defs> 	     <circle id="_356EA084-54EB-481D-B498-295BBB41BE15bg_frame" cx="15" cy="15" r="15" stroke="#000000" fill="url(#_356EA084-54EB-481D-B498-295BBB41BE15background) white" stroke-width="1" style="stroke-dasharray: 5.5, 3"/>      <circle id="_356EA084-54EB-481D-B498-295BBB41BE15frame" cx="15" cy="15" r="15" stroke="#000000" fill="none" stroke-width="1" display="inherit"/>  	<text font-size="11" id="_356EA084-54EB-481D-B498-295BBB41BE15text_name" x="15" y="32" oryx:align="top center" stroke="black" stroke-width="0pt" letter-spacing="-0.01px" fill="#000000" text-anchor="middle" transform="rotate(0 15 32)" visibility="inherit" oryx:fontSize="11"><tspan x="15" y="32" dy="11">Inicio</tspan></text>   </g></g><g class="children" style="overflow:hidden"/><g class="edge"/></g><g class="controls"><g class="dockers"/><g class="magnets" transform="translate(249, 121)"><g pointer-events="all" display="none" transform="translate(7, 7)"><circle cx="8" cy="8" r="4" stroke="none" fill="red" fill-opacity="0.3"/></g></g></g></g></g><g class="edge"><g id="_C0616D10-A4E2-49E4-962D-3F0BBE02C41C" bpmn2nodeid="_AECECC22-6E36-4A41-BF61-9468ECFD0B5B"><g class="stencils"><g class="me"><g pointer-events="painted" bpmn2nodeid="_EC80DE27-6DEE-4B59-86A5-975DA95D4EAF"><path id="_C0616D10-A4E2-49E4-962D-3F0BBE02C41C_1" d="M279.46484375 136L374.9453125 136 " stroke="#000000" fill="none" stroke-width="2" stroke-linecap="round" stroke-linejoin="round" marker-start="url(#_C0616D10-A4E2-49E4-962D-3F0BBE02C41Cstart)" marker-end="url(#_C0616D10-A4E2-49E4-962D-3F0BBE02C41Cend)"/></g><text id="_C0616D10-A4E2-49E4-962D-3F0BBE02C41Ctext_name" font-size="12" x="293.46484375" y="122" oryx:edgePosition="startTop" stroke-width="0pt" letter-spacing="-0.01px" fill="#000000" text-anchor="start" transform="rotate(360 279.46484375 136)" visibility="inherit" oryx:fontSize="12"/></g><g class="children" style="overflow:hidden"/><g class="edge"/></g><g class="controls"><g class="dockers"/><g class="magnets"/></g></g><g id="_A2C7AA68-B298-4995-8082-75763131C27D" bpmn2nodeid="_BDEACDAE-079F-4378-A479-4B552CB0DB33"><g class="stencils"><g class="me"><g pointer-events="painted" bpmn2nodeid="_3799F7F6-3E2F-40A0-904A-23753B5D3E0D"><path id="_A2C7AA68-B298-4995-8082-75763131C27D_1" d="M655.6171875 136L764.40625 136 " stroke="#000000" fill="none" stroke-width="2" stroke-linecap="round" stroke-linejoin="round" marker-start="url(#_A2C7AA68-B298-4995-8082-75763131C27Dstart)" marker-end="url(#_A2C7AA68-B298-4995-8082-75763131C27Dend)"/></g><text id="_A2C7AA68-B298-4995-8082-75763131C27Dtext_name" font-size="12" x="669.6171875" y="122" oryx:edgePosition="startTop" stroke-width="0pt" letter-spacing="-0.01px" fill="#000000" text-anchor="start" transform="rotate(360 655.6171875 136)" visibility="inherit" oryx:fontSize="12"/></g><g class="children" style="overflow:hidden"/><g class="edge"/></g><g class="controls"><g class="dockers"/><g class="magnets"/></g></g><g id="_76A95B8E-E329-4880-BCE0-C164CF3BA7E1" bpmn2nodeid="_FA44715B-C446-44BC-A488-91C16026A490"><g class="stencils"><g class="me"><g pointer-events="painted" bpmn2nodeid="_238884B6-DBA8-434E-AC9F-5A9CB30D03BF"><path id="_76A95B8E-E329-4880-BCE0-C164CF3BA7E1_1" d="M475.21875 136L554.78125 136 " stroke="#000000" fill="none" stroke-width="2" stroke-linecap="round" stroke-linejoin="round" marker-start="url(#_76A95B8E-E329-4880-BCE0-C164CF3BA7E1start)" marker-end="url(#_76A95B8E-E329-4880-BCE0-C164CF3BA7E1end)"/></g><text id="_76A95B8E-E329-4880-BCE0-C164CF3BA7E1text_name" font-size="12" x="489.21875" y="122" oryx:edgePosition="startTop" stroke-width="0pt" letter-spacing="-0.01px" fill="#000000" text-anchor="start" transform="rotate(360 475.21875 136)" visibility="inherit" oryx:fontSize="12"/></g><g class="children" style="overflow:hidden"/><g class="edge"/></g><g class="controls"><g class="dockers"/><g class="magnets"/></g></g></g><text id="_9167DEF7-D7AA-47BB-BC70-237D8E37B20C" style="stroke-width:1;fill:rgb(177,194,214);font-family:arial;font-weight:bold" font-size="12" onclick="ORYX.Plugins.CanvasTitle.openTextualAnalysis()" onmouseover="ORYX.Plugins.CanvasTitle.addToolTip('_9167DEF7-D7AA-47BB-BC70-237D8E37B20C')" transform="translate(10, 20)">Confirming v.1.0 (src.Confirming)</text></g></g></svg>