<svg xmlns="http://www.w3.org/2000/svg" xmlns:oryx="http://oryx-editor.org" id="_DE1A2742-C42D-4AF9-BBE1-0056E3DCA9B0" width="834" height="221" xmlns:xlink="http://www.w3.org/1999/xlink" xmlns:svg="http://www.w3.org/2000/svg"><defs><marker id="_53609757-9268-4746-B392-48696B298016start" refX="1" refY="5" markerUnits="userSpaceOnUse" markerWidth="17" markerHeight="11" orient="auto" fill="#000000" stroke="#000000"> 	  		<path id="_53609757-9268-4746-B392-48696B298016conditional" d="M 0 5 L 8 0 L 16 5 L 8 10 L 0 5" fill="white" stroke="#000000" stroke-width="1" display="none"/> 			<path id="_53609757-9268-4746-B392-48696B298016default" d="M 5 0 L 11 10" fill="white" stroke="#000000" stroke-width="1" display="none"/> 	  	</marker><marker id="_53609757-9268-4746-B392-48696B298016end" refX="15" refY="6" markerUnits="userSpaceOnUse" markerWidth="15" markerHeight="12" orient="auto" fill="#000000" stroke="#000000"> 	  		<path id="_53609757-9268-4746-B392-48696B298016frame2" d="M 0 1 L 15 6 L 0 11z" fill="#000000" stroke="#000000" stroke-linejoin="round" stroke-width="2"/> 	  	</marker><marker id="_0F243900-08AD-42A4-A0CB-43C3414621A9start" refX="1" refY="5" markerUnits="userSpaceOnUse" markerWidth="17" markerHeight="11" orient="auto" fill="#000000" stroke="#000000"> 	  		<path id="_0F243900-08AD-42A4-A0CB-43C3414621A9conditional" d="M 0 5 L 8 0 L 16 5 L 8 10 L 0 5" fill="white" stroke="#000000" stroke-width="1" display="none"/> 			<path id="_0F243900-08AD-42A4-A0CB-43C3414621A9default" d="M 5 0 L 11 10" fill="white" stroke="#000000" stroke-width="1" display="none"/> 	  	</marker><marker id="_0F243900-08AD-42A4-A0CB-43C3414621A9end" refX="15" refY="6" markerUnits="userSpaceOnUse" markerWidth="15" markerHeight="12" orient="auto" fill="#000000" stroke="#000000"> 	  		<path id="_0F243900-08AD-42A4-A0CB-43C3414621A9frame2" d="M 0 1 L 15 6 L 0 11z" fill="#000000" stroke="#000000" stroke-linejoin="round" stroke-width="2"/> 	  	</marker><marker id="_F94B5BA9-84D2-4CB5-994D-4F7074E20783start" refX="1" refY="5" markerUnits="userSpaceOnUse" markerWidth="17" markerHeight="11" orient="auto" fill="#000000" stroke="#000000"> 	  		<path id="_F94B5BA9-84D2-4CB5-994D-4F7074E20783conditional" d="M 0 5 L 8 0 L 16 5 L 8 10 L 0 5" fill="white" stroke="#000000" stroke-width="1" display="none"/> 			<path id="_F94B5BA9-84D2-4CB5-994D-4F7074E20783default" d="M 5 0 L 11 10" fill="white" stroke="#000000" stroke-width="1" display="none"/> 	  	</marker><marker id="_F94B5BA9-84D2-4CB5-994D-4F7074E20783end" refX="15" refY="6" markerUnits="userSpaceOnUse" markerWidth="15" markerHeight="12" orient="auto" fill="#000000" stroke="#000000"> 	  		<path id="_F94B5BA9-84D2-4CB5-994D-4F7074E20783frame2" d="M 0 1 L 15 6 L 0 11z" fill="#000000" stroke="#000000" stroke-linejoin="round" stroke-width="2"/> 	  	</marker></defs><g stroke="none" font-family="Verdana, sans-serif" font-size-adjust="none" font-style="normal" font-variant="normal" font-weight="normal" line-heigth="normal" font-size="12"><g class="stencils" transform="translate(16, 16)"><g class="me"/><g class="children"><g id="_E92D335A-228D-4E68-BCE7-5FA3AB3C6A68" bpmn2nodeid="_3D41A12C-598A-41BF-AE3B-504AE672A73B"><g class="stencils" transform="translate(765, 122)"><g class="me"><g pointer-events="fill" id="_E92D335A-228D-4E68-BCE7-5FA3AB3C6A68">      <defs id="_E92D335A-228D-4E68-BCE7-5FA3AB3C6A68__E92D335A-228D-4E68-BCE7-5FA3AB3C6A68_5"> 		<radialGradient id="_E92D335A-228D-4E68-BCE7-5FA3AB3C6A68background" cx="10%" cy="10%" r="100%" fx="10%" fy="10%"> 			<stop offset="0%" stop-color="#ffffff" stop-opacity="1" id="_E92D335A-228D-4E68-BCE7-5FA3AB3C6A68__E92D335A-228D-4E68-BCE7-5FA3AB3C6A68_6"/> 			<stop id="_E92D335A-228D-4E68-BCE7-5FA3AB3C6A68fill_el" offset="100%" stop-color="#ff6347" stop-opacity="1"/> 		</radialGradient> 	</defs> 	     <circle id="_E92D335A-228D-4E68-BCE7-5FA3AB3C6A68bg_frame" cx="14" cy="14" r="14" stroke="#000000" fill="url(#_E92D335A-228D-4E68-BCE7-5FA3AB3C6A68background) white" stroke-width="3"/> 	<text font-size="11" id="_E92D335A-228D-4E68-BCE7-5FA3AB3C6A68text_name" x="14" y="30" oryx:align="top center" stroke="black" stroke-width="0pt" letter-spacing="-0.01px" fill="#000000" text-anchor="middle" transform="rotate(0 14 30)" visibility="inherit" oryx:fontSize="11"/>   </g></g><g class="children" style="overflow:hidden"/><g class="edge"/></g><g class="controls"><g class="dockers"/><g class="magnets" transform="translate(765, 122)"><g pointer-events="all" display="none" transform="translate(6, 6)"><circle cx="8" cy="8" r="4" stroke="none" fill="red" fill-opacity="0.3"/></g></g></g></g><g id="_D227E96C-FF99-4444-8BE7-7193585E28F2" bpmn2nodeid="_26C1A0E6-A112-4179-9BBA-BAC87B85B029"><g class="stencils" transform="translate(555, 96)"><g class="me"><g pointer-events="fill" oryx:minimumSize="50 40" id="_D227E96C-FF99-4444-8BE7-7193585E28F2">   	<defs id="_D227E96C-FF99-4444-8BE7-7193585E28F2__D227E96C-FF99-4444-8BE7-7193585E28F2_17"> 		<radialGradient id="_D227E96C-FF99-4444-8BE7-7193585E28F2background" cx="10%" cy="10%" r="100%" fx="10%" fy="10%"> 			<stop offset="0%" stop-color="#ffffff" stop-opacity="1" id="_D227E96C-FF99-4444-8BE7-7193585E28F2__D227E96C-FF99-4444-8BE7-7193585E28F2_18"/> 			<stop id="_D227E96C-FF99-4444-8BE7-7193585E28F2fill_el" offset="100%" stop-color="#fafad2" stop-opacity="1"/> 		</radialGradient> 		<radialGradient id="_D227E96C-FF99-4444-8BE7-7193585E28F2borderbackground" cx="10%" cy="10%" r="100%" fx="10%" fy="10%"> 			<stop offset="0%" stop-color="#ffffff" stop-opacity="1" id="_D227E96C-FF99-4444-8BE7-7193585E28F2__D227E96C-FF99-4444-8BE7-7193585E28F2_19"/> 			<stop id="_D227E96C-FF99-4444-8BE7-7193585E28F2fill_border" offset="100%" stop-color="#000000" stop-opacity="1" stroke="#000000"/> 		</radialGradient> 	</defs> 	 	<rect id="_D227E96C-FF99-4444-8BE7-7193585E28F2text_frame" oryx:anchors="bottom top right left" x="1" y="1" width="94" height="79" rx="10" ry="10" stroke="none" stroke-width="0" fill="none"/> 	<rect id="_D227E96C-FF99-4444-8BE7-7193585E28F2bg_frame" oryx:resize="vertical horizontal" x="0" y="0" width="100" height="80" rx="10" ry="10" stroke="#000000" stroke-width="1" fill="url(#_D227E96C-FF99-4444-8BE7-7193585E28F2background) #ffffcc"/> 		<text font-size="12" id="_D227E96C-FF99-4444-8BE7-7193585E28F2text_name" x="50" y="40" oryx:align="middle center" oryx:fittoelem="text_frame" stroke="black" text-anchor="middle" stroke-width="0pt" letter-spacing="-0.01px" fill="#000000" transform="rotate(0 50 40)" visibility="inherit" oryx:fontSize="12"><tspan x="50" y="40" dy="5">Confirming</tspan></text>     <g id="_D227E96C-FF99-4444-8BE7-7193585E28F2manualTask" transform="scale(0.7,0.7) translate(8,8)" display="none">     	<path oryx:anchors="top left" id="_D227E96C-FF99-4444-8BE7-7193585E28F2frame" style="opacity:1;fill:none;fill-opacity:1;stroke-width:1" d="M0.5,3.751l4.083-3.25c0,0,11.166,0.083,12.083,0.083s-2.417,2.917-1.5,2.917     s11.667,0,12.584,0c1.166,1.708-0.168,3.167-0.834,3.667s0.875,1.917-1,4.417c-0.75,0.25,0.75,1.875-1.333,3.333     c-1.167,0.583,0.583,1.542-1.25,2.833c-1.167,0-20.833,0.083-20.833,0.083l-2-1.333V3.751z" stroke="#000000"/> 		<path id="_D227E96C-FF99-4444-8BE7-7193585E28F2frame2" oryx:anchors="top left" style="opacity:1;fill:none;stroke-width:2" d="M 13.5 7 L 27 7" stroke="#000000"/> 		<path id="_D227E96C-FF99-4444-8BE7-7193585E28F2frame3" oryx:anchors="top left" style="opacity:1;fill:none;stroke-width:2" d="M 13.5 11 L 26 11" stroke="#000000"/> 		<path id="_D227E96C-FF99-4444-8BE7-7193585E28F2frame4" oryx:anchors="top left" style="opacity:1;fill:none;stroke-width:1.5" d="M 14 14.5 L 25 14.5" stroke="#000000"/> 		<path id="_D227E96C-FF99-4444-8BE7-7193585E28F2frame5" oryx:anchors="top left" style="opacity:1;fill:none;stroke-width:1.5" d="M 8.2 3.1 L 15 3.1" stroke="#000000"/> 	</g> 	 	<g id="_D227E96C-FF99-4444-8BE7-7193585E28F2businessRuleTask" transform="scale(0.7,0.7) translate(8,8)" display="none"> 		<rect id="_D227E96C-FF99-4444-8BE7-7193585E28F2frame6" oryx:anchors="top left" x="0" y="0" width="22" height="4" style="opacity:1;fill:#B3B1B3;fill-opacity:1;" stroke="#000000"/> 		<rect id="_D227E96C-FF99-4444-8BE7-7193585E28F2frame7" oryx:anchors="top left" x="0" y="4" style="opacity:1;fill:none;" width="22" height="12" stroke="#000000"/> 		<path id="_D227E96C-FF99-4444-8BE7-7193585E28F2frame8" oryx:anchors="top left" style="opacity:1;fill:none;" d="M 0 10 L 22 10" stroke="#000000"/> 		<path id="_D227E96C-FF99-4444-8BE7-7193585E28F2frame9" oryx:anchors="top left" style="opacity:1; fill:none;" d="M 7 4 L 7 16" stroke="#000000"/> 	</g> 	 	<g id="_D227E96C-FF99-4444-8BE7-7193585E28F2scriptTask" transform="scale(0.7,0.7) translate(8,8)" display="none"> 		<path oryx:anchors="top left" id="_D227E96C-FF99-4444-8BE7-7193585E28F2frame10" style="opacity:1;fill:none;" stroke="#000000" d="M6.402,0.5h14.5c0,0-5.833,2.833-5.833,5.583s4.417,6,4.417,9.167    s-4.167,5.083-4.167,5.083H0.235c0,0,5-2.667,5-5s-4.583-6.75-4.583-9.25S6.402,0.5,6.402,0.5z"/> 		<path oryx:anchors="top left" id="_D227E96C-FF99-4444-8BE7-7193585E28F2frame11" style="opacity:1;fill:none;stroke-width:1.5" d="M 3.5 4.5 L 13.5 4.5" stroke="#000000"/> 		<path oryx:anchors="top left" id="_D227E96C-FF99-4444-8BE7-7193585E28F2frame12" style="opacity:1;fill:none;stroke-width:1.5" d="M 3.8 8.5 L 13.8 8.5" stroke="#000000"/> 		<path oryx:anchors="top left" id="_D227E96C-FF99-4444-8BE7-7193585E28F2frame13" style="opacity:1;fill:none;stroke-width:1.5" d="M 6.3 12.5 L 16.3 12.5" stroke="#000000"/> 		<path oryx:anchors="top left" id="_D227E96C-FF99-4444-8BE7-7193585E28F2frame14" style="opacity:1;fill:none;stroke-width:1.5" d="M 6.5 16.5 L 16.5 16.5" stroke="#000000"/> 	</g> 	 	<g id="_D227E96C-FF99-4444-8BE7-7193585E28F2userTask" transform="scale(0.7,0.7) translate(8,8)" display="inherit"> 		<path id="_D227E96C-FF99-4444-8BE7-7193585E28F2frame15" oryx:anchors="top left" style="opacity:1;fill:#F4F6F7" stroke="#000000" d="M0.585,24.167h24.083v-7.833c0,0-2.333-3.917-7.083-5.167h-9.25    c-4.417,1.333-7.833,5.75-7.833,5.75L0.585,24.167z"/> 		<path id="_D227E96C-FF99-4444-8BE7-7193585E28F2frame16" oryx:anchors="top left" style="opacity:1;fill:none" d="M 6 20 L 6 24" stroke="#000000"/> 		<path id="_D227E96C-FF99-4444-8BE7-7193585E28F2frame17" oryx:anchors="top left" style="opacity:1;fill:none" d="M 20 20 L 20 24" stroke="#000000"/> 		<circle id="_D227E96C-FF99-4444-8BE7-7193585E28F2frame18" oryx:anchors="top left" fill="black" cx="13.002" cy="5.916" r="5.417" stroke="#000000"/> 		<path id="_D227E96C-FF99-4444-8BE7-7193585E28F2frame19" oryx:anchors="top left" style="opacity:1;fill:#F0EFF0;" stroke="#000000" d="M8.043,7.083c0,0,2.814-2.426,5.376-1.807s4.624-0.693,4.624-0.693    c0.25,1.688,0.042,3.75-1.458,5.584c0,0,1.083,0.75,1.083,1.5s0.125,1.875-1,3s-5.5,1.25-6.75,0S8.668,12.834,8.668,12    s0.583-1.25,1.25-1.917C8.835,9.5,7.419,7.708,8.043,7.083z"/> 	</g> 	 	<g id="_D227E96C-FF99-4444-8BE7-7193585E28F2serviceTask" transform="scale(0.7,0.7) translate(8,8)" display="none"> 		<polygon oryx:anchors="top left" id="_D227E96C-FF99-4444-8BE7-7193585E28F2frame20" style="opacity:1;fill:#ffffff" stroke="#000000" points="15.392,5.064 17.954,2.502 20.347,4.895 17.786,7.455     18.729,9.732 22.353,9.732 22.353,13.115 18.731,13.115 17.788,15.392 20.351,17.955 17.958,20.347 15.397,17.786 13.12,18.729     13.12,22.353 9.737,22.353 9.737,18.731 7.46,17.788 4.897,20.35 2.506,17.958 5.066,15.397 4.124,13.12 0.5,13.12 0.5,9.737     4.121,9.737 5.065,7.461 2.503,4.898 4.895,2.506 7.455,5.066 9.732,4.125 9.732,0.5 13.116,0.5 13.116,4.121 "/> 		<circle oryx:anchors="top left" id="_D227E96C-FF99-4444-8BE7-7193585E28F2frame21" style="opacity:1;fill:none" stroke="#000000" cx="11.427" cy="11.426" r="3.714"/> 		<polygon oryx:anchors="top left" id="_D227E96C-FF99-4444-8BE7-7193585E28F2frame22" style="opacity:1;fill:#ffffff" stroke="#000000" points="21.392,11.064 23.954,8.502 26.347,10.895 23.786,13.455     24.729,15.732 28.353,15.732 28.353,19.115 24.731,19.115 23.788,21.392 26.351,23.955 23.958,26.347 21.397,23.786 19.12,24.729     19.12,28.353 15.737,28.353 15.737,24.731 13.46,23.788 10.897,26.35 8.506,23.958 11.066,21.397 10.124,19.12 6.5,19.12     6.5,15.737 10.121,15.737 11.065,13.461 8.503,10.898 10.895,8.506 13.455,11.066 15.732,10.125 15.732,6.5 19.116,6.5     19.116,10.121 "/> 		<circle oryx:anchors="top left" id="_D227E96C-FF99-4444-8BE7-7193585E28F2frame23" style="opacity:1;fill:none;" stroke="#000000" cx="17.427" cy="17.426" r="3.714"/> 	</g> 	 	<g id="_D227E96C-FF99-4444-8BE7-7193585E28F2sendTask" display="none"> 		<path id="_D227E96C-FF99-4444-8BE7-7193585E28F2stframe24" oryx:anchors="left top" stroke="#FFFFFF" fill="black" stroke-width="1" d="M8,11 L8,21 L24,21 L24,11 L16,17z"/> 		<path id="_D227E96C-FF99-4444-8BE7-7193585E28F2stframe25" oryx:anchors="left top" stroke="#FFFFFF" fill="black" stroke-width="1" d="M7,10 L16,17 L25 10z"/> 	</g> 	 	<g id="_D227E96C-FF99-4444-8BE7-7193585E28F2receiveTask" display="none"> 		<path id="_D227E96C-FF99-4444-8BE7-7193585E28F2frame26" oryx:anchors="left top" stroke="#000000" fill="none" stroke-width="1" d="M8,11 L8,21 L24,21 L24,11z M8,11 L16,17 L24,11"/> 	</g> 	 	<g id="_D227E96C-FF99-4444-8BE7-7193585E28F2none" display="inherit"/>  	<g id="_D227E96C-FF99-4444-8BE7-7193585E28F2sequential" display="none">         <path oryx:anchors="bottom" fill="none" stroke="#000000" stroke-width="2" d="M46,76h10M46,72h10 M46,68h10" id="_D227E96C-FF99-4444-8BE7-7193585E28F2__D227E96C-FF99-4444-8BE7-7193585E28F2_20"/>     </g>   </g></g><g class="children" style="overflow:hidden"/><g class="edge"/></g><g class="controls"><g class="dockers"/><g class="magnets" transform="translate(555, 96)"><g pointer-events="all" display="none" transform="translate(-7, 12)"><circle cx="8" cy="8" r="4" stroke="none" fill="red" fill-opacity="0.3"/></g><g pointer-events="all" display="none" transform="translate(-7, 32)"><circle cx="8" cy="8" r="4" stroke="none" fill="red" fill-opacity="0.3"/></g><g pointer-events="all" display="none" transform="translate(-7, 52)"><circle cx="8" cy="8" r="4" stroke="none" fill="red" fill-opacity="0.3"/></g><g pointer-events="all" display="none" transform="translate(17, 71)"><circle cx="8" cy="8" r="4" stroke="none" fill="red" fill-opacity="0.3"/></g><g pointer-events="all" display="none" transform="translate(42, 71)"><circle cx="8" cy="8" r="4" stroke="none" fill="red" fill-opacity="0.3"/></g><g pointer-events="all" display="none" transform="translate(67, 71)"><circle cx="8" cy="8" r="4" stroke="none" fill="red" fill-opacity="0.3"/></g><g pointer-events="all" display="none" transform="translate(91, 12)"><circle cx="8" cy="8" r="4" stroke="none" fill="red" fill-opacity="0.3"/></g><g pointer-events="all" display="none" transform="translate(91, 32)"><circle cx="8" cy="8" r="4" stroke="none" fill="red" fill-opacity="0.3"/></g><g pointer-events="all" display="none" transform="translate(91, 52)"><circle cx="8" cy="8" r="4" stroke="none" fill="red" fill-opacity="0.3"/></g><g pointer-events="all" display="none" transform="translate(17, -7)"><circle cx="8" cy="8" r="4" stroke="none" fill="red" fill-opacity="0.3"/></g><g pointer-events="all" display="none" transform="translate(42, -7)"><circle cx="8" cy="8" r="4" stroke="none" fill="red" fill-opacity="0.3"/></g><g pointer-events="all" display="none" transform="translate(67, -7)"><circle cx="8" cy="8" r="4" stroke="none" fill="red" fill-opacity="0.3"/></g><g pointer-events="all" display="none" transform="translate(42, 32)"><circle cx="8" cy="8" r="4" stroke="none" fill="red" fill-opacity="0.3"/></g></g></g></g><g id="_32901DD8-4038-49F6-AB0F-E1AB96229441" bpmn2nodeid="_F5A77FAF-DD1A-4857-AE54-4743EBBE7D87"><g class="stencils" transform="translate(375, 96)"><g class="me"><g pointer-events="fill" oryx:minimumSize="50 40" id="_32901DD8-4038-49F6-AB0F-E1AB96229441">   	<defs id="_32901DD8-4038-49F6-AB0F-E1AB96229441__32901DD8-4038-49F6-AB0F-E1AB96229441_17"> 		<radialGradient id="_32901DD8-4038-49F6-AB0F-E1AB96229441background" cx="10%" cy="10%" r="100%" fx="10%" fy="10%"> 			<stop offset="0%" stop-color="#ffffff" stop-opacity="1" id="_32901DD8-4038-49F6-AB0F-E1AB96229441__32901DD8-4038-49F6-AB0F-E1AB96229441_18"/> 			<stop id="_32901DD8-4038-49F6-AB0F-E1AB96229441fill_el" offset="100%" stop-color="#fafad2" stop-opacity="1"/> 		</radialGradient> 		<radialGradient id="_32901DD8-4038-49F6-AB0F-E1AB96229441borderbackground" cx="10%" cy="10%" r="100%" fx="10%" fy="10%"> 			<stop offset="0%" stop-color="#ffffff" stop-opacity="1" id="_32901DD8-4038-49F6-AB0F-E1AB96229441__32901DD8-4038-49F6-AB0F-E1AB96229441_19"/> 			<stop id="_32901DD8-4038-49F6-AB0F-E1AB96229441fill_border" offset="100%" stop-color="#000000" stop-opacity="1" stroke="#000000"/> 		</radialGradient> 	</defs> 	 	<rect id="_32901DD8-4038-49F6-AB0F-E1AB96229441text_frame" oryx:anchors="bottom top right left" x="1" y="1" width="94" height="79" rx="10" ry="10" stroke="none" stroke-width="0" fill="none"/> 	<rect id="_32901DD8-4038-49F6-AB0F-E1AB96229441bg_frame" oryx:resize="vertical horizontal" x="0" y="0" width="100" height="80" rx="10" ry="10" stroke="#000000" stroke-width="1" fill="url(#_32901DD8-4038-49F6-AB0F-E1AB96229441background) #ffffcc"/> 		<text font-size="12" id="_32901DD8-4038-49F6-AB0F-E1AB96229441text_name" x="50" y="40" oryx:align="middle center" oryx:fittoelem="text_frame" stroke="black" text-anchor="middle" stroke-width="0pt" letter-spacing="-0.01px" fill="#000000" transform="rotate(0 50 40)" visibility="inherit" oryx:fontSize="12"/>     <g id="_32901DD8-4038-49F6-AB0F-E1AB96229441manualTask" transform="scale(0.7,0.7) translate(8,8)" display="none">     	<path oryx:anchors="top left" id="_32901DD8-4038-49F6-AB0F-E1AB96229441frame" style="opacity:1;fill:none;fill-opacity:1;stroke-width:1" d="M0.5,3.751l4.083-3.25c0,0,11.166,0.083,12.083,0.083s-2.417,2.917-1.5,2.917     s11.667,0,12.584,0c1.166,1.708-0.168,3.167-0.834,3.667s0.875,1.917-1,4.417c-0.75,0.25,0.75,1.875-1.333,3.333     c-1.167,0.583,0.583,1.542-1.25,2.833c-1.167,0-20.833,0.083-20.833,0.083l-2-1.333V3.751z" stroke="#000000"/> 		<path id="_32901DD8-4038-49F6-AB0F-E1AB96229441frame2" oryx:anchors="top left" style="opacity:1;fill:none;stroke-width:2" d="M 13.5 7 L 27 7" stroke="#000000"/> 		<path id="_32901DD8-4038-49F6-AB0F-E1AB96229441frame3" oryx:anchors="top left" style="opacity:1;fill:none;stroke-width:2" d="M 13.5 11 L 26 11" stroke="#000000"/> 		<path id="_32901DD8-4038-49F6-AB0F-E1AB96229441frame4" oryx:anchors="top left" style="opacity:1;fill:none;stroke-width:1.5" d="M 14 14.5 L 25 14.5" stroke="#000000"/> 		<path id="_32901DD8-4038-49F6-AB0F-E1AB96229441frame5" oryx:anchors="top left" style="opacity:1;fill:none;stroke-width:1.5" d="M 8.2 3.1 L 15 3.1" stroke="#000000"/> 	</g> 	 	<g id="_32901DD8-4038-49F6-AB0F-E1AB96229441businessRuleTask" transform="scale(0.7,0.7) translate(8,8)" display="none"> 		<rect id="_32901DD8-4038-49F6-AB0F-E1AB96229441frame6" oryx:anchors="top left" x="0" y="0" width="22" height="4" style="opacity:1;fill:#B3B1B3;fill-opacity:1;" stroke="#000000"/> 		<rect id="_32901DD8-4038-49F6-AB0F-E1AB96229441frame7" oryx:anchors="top left" x="0" y="4" style="opacity:1;fill:none;" width="22" height="12" stroke="#000000"/> 		<path id="_32901DD8-4038-49F6-AB0F-E1AB96229441frame8" oryx:anchors="top left" style="opacity:1;fill:none;" d="M 0 10 L 22 10" stroke="#000000"/> 		<path id="_32901DD8-4038-49F6-AB0F-E1AB96229441frame9" oryx:anchors="top left" style="opacity:1; fill:none;" d="M 7 4 L 7 16" stroke="#000000"/> 	</g> 	 	<g id="_32901DD8-4038-49F6-AB0F-E1AB96229441scriptTask" transform="scale(0.7,0.7) translate(8,8)" display="inherit"> 		<path oryx:anchors="top left" id="_32901DD8-4038-49F6-AB0F-E1AB96229441frame10" style="opacity:1;fill:none;" stroke="#000000" d="M6.402,0.5h14.5c0,0-5.833,2.833-5.833,5.583s4.417,6,4.417,9.167    s-4.167,5.083-4.167,5.083H0.235c0,0,5-2.667,5-5s-4.583-6.75-4.583-9.25S6.402,0.5,6.402,0.5z"/> 		<path oryx:anchors="top left" id="_32901DD8-4038-49F6-AB0F-E1AB96229441frame11" style="opacity:1;fill:none;stroke-width:1.5" d="M 3.5 4.5 L 13.5 4.5" stroke="#000000"/> 		<path oryx:anchors="top left" id="_32901DD8-4038-49F6-AB0F-E1AB96229441frame12" style="opacity:1;fill:none;stroke-width:1.5" d="M 3.8 8.5 L 13.8 8.5" stroke="#000000"/> 		<path oryx:anchors="top left" id="_32901DD8-4038-49F6-AB0F-E1AB96229441frame13" style="opacity:1;fill:none;stroke-width:1.5" d="M 6.3 12.5 L 16.3 12.5" stroke="#000000"/> 		<path oryx:anchors="top left" id="_32901DD8-4038-49F6-AB0F-E1AB96229441frame14" style="opacity:1;fill:none;stroke-width:1.5" d="M 6.5 16.5 L 16.5 16.5" stroke="#000000"/> 	</g> 	 	<g id="_32901DD8-4038-49F6-AB0F-E1AB96229441userTask" transform="scale(0.7,0.7) translate(8,8)" display="none"> 		<path id="_32901DD8-4038-49F6-AB0F-E1AB96229441frame15" oryx:anchors="top left" style="opacity:1;fill:#F4F6F7" stroke="#000000" d="M0.585,24.167h24.083v-7.833c0,0-2.333-3.917-7.083-5.167h-9.25    c-4.417,1.333-7.833,5.75-7.833,5.75L0.585,24.167z"/> 		<path id="_32901DD8-4038-49F6-AB0F-E1AB96229441frame16" oryx:anchors="top left" style="opacity:1;fill:none" d="M 6 20 L 6 24" stroke="#000000"/> 		<path id="_32901DD8-4038-49F6-AB0F-E1AB96229441frame17" oryx:anchors="top left" style="opacity:1;fill:none" d="M 20 20 L 20 24" stroke="#000000"/> 		<circle id="_32901DD8-4038-49F6-AB0F-E1AB96229441frame18" oryx:anchors="top left" fill="black" cx="13.002" cy="5.916" r="5.417" stroke="#000000"/> 		<path id="_32901DD8-4038-49F6-AB0F-E1AB96229441frame19" oryx:anchors="top left" style="opacity:1;fill:#F0EFF0;" stroke="#000000" d="M8.043,7.083c0,0,2.814-2.426,5.376-1.807s4.624-0.693,4.624-0.693    c0.25,1.688,0.042,3.75-1.458,5.584c0,0,1.083,0.75,1.083,1.5s0.125,1.875-1,3s-5.5,1.25-6.75,0S8.668,12.834,8.668,12    s0.583-1.25,1.25-1.917C8.835,9.5,7.419,7.708,8.043,7.083z"/> 	</g> 	 	<g id="_32901DD8-4038-49F6-AB0F-E1AB96229441serviceTask" transform="scale(0.7,0.7) translate(8,8)" display="none"> 		<polygon oryx:anchors="top left" id="_32901DD8-4038-49F6-AB0F-E1AB96229441frame20" style="opacity:1;fill:#ffffff" stroke="#000000" points="15.392,5.064 17.954,2.502 20.347,4.895 17.786,7.455     18.729,9.732 22.353,9.732 22.353,13.115 18.731,13.115 17.788,15.392 20.351,17.955 17.958,20.347 15.397,17.786 13.12,18.729     13.12,22.353 9.737,22.353 9.737,18.731 7.46,17.788 4.897,20.35 2.506,17.958 5.066,15.397 4.124,13.12 0.5,13.12 0.5,9.737     4.121,9.737 5.065,7.461 2.503,4.898 4.895,2.506 7.455,5.066 9.732,4.125 9.732,0.5 13.116,0.5 13.116,4.121 "/> 		<circle oryx:anchors="top left" id="_32901DD8-4038-49F6-AB0F-E1AB96229441frame21" style="opacity:1;fill:none" stroke="#000000" cx="11.427" cy="11.426" r="3.714"/> 		<polygon oryx:anchors="top left" id="_32901DD8-4038-49F6-AB0F-E1AB96229441frame22" style="opacity:1;fill:#ffffff" stroke="#000000" points="21.392,11.064 23.954,8.502 26.347,10.895 23.786,13.455     24.729,15.732 28.353,15.732 28.353,19.115 24.731,19.115 23.788,21.392 26.351,23.955 23.958,26.347 21.397,23.786 19.12,24.729     19.12,28.353 15.737,28.353 15.737,24.731 13.46,23.788 10.897,26.35 8.506,23.958 11.066,21.397 10.124,19.12 6.5,19.12     6.5,15.737 10.121,15.737 11.065,13.461 8.503,10.898 10.895,8.506 13.455,11.066 15.732,10.125 15.732,6.5 19.116,6.5     19.116,10.121 "/> 		<circle oryx:anchors="top left" id="_32901DD8-4038-49F6-AB0F-E1AB96229441frame23" style="opacity:1;fill:none;" stroke="#000000" cx="17.427" cy="17.426" r="3.714"/> 	</g> 	 	<g id="_32901DD8-4038-49F6-AB0F-E1AB96229441sendTask" display="none"> 		<path id="_32901DD8-4038-49F6-AB0F-E1AB96229441stframe24" oryx:anchors="left top" stroke="#FFFFFF" fill="black" stroke-width="1" d="M8,11 L8,21 L24,21 L24,11 L16,17z"/> 		<path id="_32901DD8-4038-49F6-AB0F-E1AB96229441stframe25" oryx:anchors="left top" stroke="#FFFFFF" fill="black" stroke-width="1" d="M7,10 L16,17 L25 10z"/> 	</g> 	 	<g id="_32901DD8-4038-49F6-AB0F-E1AB96229441receiveTask" display="none"> 		<path id="_32901DD8-4038-49F6-AB0F-E1AB96229441frame26" oryx:anchors="left top" stroke="#000000" fill="none" stroke-width="1" d="M8,11 L8,21 L24,21 L24,11z M8,11 L16,17 L24,11"/> 	</g> 	 	<g id="_32901DD8-4038-49F6-AB0F-E1AB96229441none" display="inherit"/>  	<g id="_32901DD8-4038-49F6-AB0F-E1AB96229441sequential" display="none">         <path oryx:anchors="bottom" fill="none" stroke="#000000" stroke-width="2" d="M46,76h10M46,72h10 M46,68h10" id="_32901DD8-4038-49F6-AB0F-E1AB96229441__32901DD8-4038-49F6-AB0F-E1AB96229441_20"/>     </g>   </g></g><g class="children" style="overflow:hidden"/><g class="edge"/></g><g class="controls"><g class="dockers"/><g class="magnets" transform="translate(375, 96)"><g pointer-events="all" display="none" transform="translate(-7, 12)"><circle cx="8" cy="8" r="4" stroke="none" fill="red" fill-opacity="0.3"/></g><g pointer-events="all" display="none" transform="translate(-7, 32)"><circle cx="8" cy="8" r="4" stroke="none" fill="red" fill-opacity="0.3"/></g><g pointer-events="all" display="none" transform="translate(-7, 52)"><circle cx="8" cy="8" r="4" stroke="none" fill="red" fill-opacity="0.3"/></g><g pointer-events="all" display="none" transform="translate(17, 71)"><circle cx="8" cy="8" r="4" stroke="none" fill="red" fill-opacity="0.3"/></g><g pointer-events="all" display="none" transform="translate(42, 71)"><circle cx="8" cy="8" r="4" stroke="none" fill="red" fill-opacity="0.3"/></g><g pointer-events="all" display="none" transform="translate(67, 71)"><circle cx="8" cy="8" r="4" stroke="none" fill="red" fill-opacity="0.3"/></g><g pointer-events="all" display="none" transform="translate(91, 12)"><circle cx="8" cy="8" r="4" stroke="none" fill="red" fill-opacity="0.3"/></g><g pointer-events="all" display="none" transform="translate(91, 32)"><circle cx="8" cy="8" r="4" stroke="none" fill="red" fill-opacity="0.3"/></g><g pointer-events="all" display="none" transform="translate(91, 52)"><circle cx="8" cy="8" r="4" stroke="none" fill="red" fill-opacity="0.3"/></g><g pointer-events="all" display="none" transform="translate(17, -7)"><circle cx="8" cy="8" r="4" stroke="none" fill="red" fill-opacity="0.3"/></g><g pointer-events="all" display="none" transform="translate(42, -7)"><circle cx="8" cy="8" r="4" stroke="none" fill="red" fill-opacity="0.3"/></g><g pointer-events="all" display="none" transform="translate(67, -7)"><circle cx="8" cy="8" r="4" stroke="none" fill="red" fill-opacity="0.3"/></g><g pointer-events="all" display="none" transform="translate(42, 32)"><circle cx="8" cy="8" r="4" stroke="none" fill="red" fill-opacity="0.3"/></g></g></g></g><g id="_6CC9BC34-E9E9-47E1-83C0-953CE425BD9A" bpmn2nodeid="_A0F1DD2F-576A-43EE-BDE0-E05D47F1F545"><g class="stencils" transform="translate(249, 121)"><g class="me"><g pointer-events="fill" id="_6CC9BC34-E9E9-47E1-83C0-953CE425BD9A">        <defs id="_6CC9BC34-E9E9-47E1-83C0-953CE425BD9A__6CC9BC34-E9E9-47E1-83C0-953CE425BD9A_5"> 		<radialGradient id="_6CC9BC34-E9E9-47E1-83C0-953CE425BD9Abackground" cx="10%" cy="10%" r="100%" fx="10%" fy="10%"> 			<stop offset="0%" stop-color="#ffffff" stop-opacity="1" id="_6CC9BC34-E9E9-47E1-83C0-953CE425BD9A__6CC9BC34-E9E9-47E1-83C0-953CE425BD9A_6"/> 			<stop id="_6CC9BC34-E9E9-47E1-83C0-953CE425BD9Afill_el" offset="100%" stop-color="#9acd32" stop-opacity="1"/> 		</radialGradient> 	</defs> 	     <circle id="_6CC9BC34-E9E9-47E1-83C0-953CE425BD9Abg_frame" cx="15" cy="15" r="15" stroke="#000000" fill="url(#_6CC9BC34-E9E9-47E1-83C0-953CE425BD9Abackground) white" stroke-width="1" style="stroke-dasharray: 5.5, 3"/>      <circle id="_6CC9BC34-E9E9-47E1-83C0-953CE425BD9Aframe" cx="15" cy="15" r="15" stroke="#000000" fill="none" stroke-width="1" display="inherit"/>  	<text font-size="11" id="_6CC9BC34-E9E9-47E1-83C0-953CE425BD9Atext_name" x="15" y="32" oryx:align="top center" stroke="black" stroke-width="0pt" letter-spacing="-0.01px" fill="#000000" text-anchor="middle" transform="rotate(0 15 32)" visibility="inherit" oryx:fontSize="11"><tspan x="15" y="32" dy="11">Inicio</tspan></text>   </g></g><g class="children" style="overflow:hidden"/><g class="edge"/></g><g class="controls"><g class="dockers"/><g class="magnets" transform="translate(249, 121)"><g pointer-events="all" display="none" transform="translate(7, 7)"><circle cx="8" cy="8" r="4" stroke="none" fill="red" fill-opacity="0.3"/></g></g></g></g></g><g class="edge"><g id="_53609757-9268-4746-B392-48696B298016" bpmn2nodeid="_AECECC22-6E36-4A41-BF61-9468ECFD0B5B"><g class="stencils"><g class="me"><g pointer-events="painted" bpmn2nodeid="_68E0B411-5D02-46F8-84D3-DDDFF7300432"><path id="_53609757-9268-4746-B392-48696B298016_1" d="M279.46484375 136L374.9453125 136 " stroke="#000000" fill="none" stroke-width="2" stroke-linecap="round" stroke-linejoin="round" marker-start="url(#_53609757-9268-4746-B392-48696B298016start)" marker-end="url(#_53609757-9268-4746-B392-48696B298016end)"/></g><text id="_53609757-9268-4746-B392-48696B298016text_name" font-size="12" x="293.46484375" y="122" oryx:edgePosition="startTop" stroke-width="0pt" letter-spacing="-0.01px" fill="#000000" text-anchor="start" transform="rotate(360 279.46484375 136)" visibility="inherit" oryx:fontSize="12"/></g><g class="children" style="overflow:hidden"/><g class="edge"/></g><g class="controls"><g class="dockers"/><g class="magnets"/></g></g><g id="_0F243900-08AD-42A4-A0CB-43C3414621A9" bpmn2nodeid="_BDEACDAE-079F-4378-A479-4B552CB0DB33"><g class="stencils"><g class="me"><g pointer-events="painted" bpmn2nodeid="_0B9FB46D-C682-4490-B53E-AFCC9FE07B46"><path id="_0F243900-08AD-42A4-A0CB-43C3414621A9_1" d="M655.6171875 136L764.40625 136 " stroke="#000000" fill="none" stroke-width="2" stroke-linecap="round" stroke-linejoin="round" marker-start="url(#_0F243900-08AD-42A4-A0CB-43C3414621A9start)" marker-end="url(#_0F243900-08AD-42A4-A0CB-43C3414621A9end)"/></g><text id="_0F243900-08AD-42A4-A0CB-43C3414621A9text_name" font-size="12" x="669.6171875" y="122" oryx:edgePosition="startTop" stroke-width="0pt" letter-spacing="-0.01px" fill="#000000" text-anchor="start" transform="rotate(360 655.6171875 136)" visibility="inherit" oryx:fontSize="12"/></g><g class="children" style="overflow:hidden"/><g class="edge"/></g><g class="controls"><g class="dockers"/><g class="magnets"/></g></g><g id="_F94B5BA9-84D2-4CB5-994D-4F7074E20783" bpmn2nodeid="_FA44715B-C446-44BC-A488-91C16026A490"><g class="stencils"><g class="me"><g pointer-events="painted" bpmn2nodeid="_6269FB13-703C-4519-B209-86E9741A7823"><path id="_F94B5BA9-84D2-4CB5-994D-4F7074E20783_1" d="M475.21875 136L554.78125 136 " stroke="#000000" fill="none" stroke-width="2" stroke-linecap="round" stroke-linejoin="round" marker-start="url(#_F94B5BA9-84D2-4CB5-994D-4F7074E20783start)" marker-end="url(#_F94B5BA9-84D2-4CB5-994D-4F7074E20783end)"/></g><text id="_F94B5BA9-84D2-4CB5-994D-4F7074E20783text_name" font-size="12" x="489.21875" y="122" oryx:edgePosition="startTop" stroke-width="0pt" letter-spacing="-0.01px" fill="#000000" text-anchor="start" transform="rotate(360 475.21875 136)" visibility="inherit" oryx:fontSize="12"/></g><g class="children" style="overflow:hidden"/><g class="edge"/></g><g class="controls"><g class="dockers"/><g class="magnets"/></g></g></g><text id="_DC8044DA-BFBA-4B50-9616-E6EC616133E7" style="stroke-width:1;fill:rgb(177,194,214);font-family:arial;font-weight:bold" font-size="12" onclick="ORYX.Plugins.CanvasTitle.openTextualAnalysis()" onmouseover="ORYX.Plugins.CanvasTitle.addToolTip('_DC8044DA-BFBA-4B50-9616-E6EC616133E7')" transform="translate(10, 20)">Confirming v.1.0 (src.Confirming)</text></g></g></svg>